<svg width="54" height="54" viewBox="0 0 54 54" fill="none" xmlns="http://www.w3.org/2000/svg">
<path fill-rule="evenodd" clip-rule="evenodd" d="M18.1647 6.30246C17.1406 6.30246 16.2963 7.14675 16.2963 8.17088V12.8672C16.2963 13.7122 15.6113 14.3972 14.7663 14.3972C13.9213 14.3972 13.2363 13.7122 13.2363 12.8672V8.17088C13.2363 5.45676 15.4506 3.24246 18.1647 3.24246H35.8367C38.5509 3.24246 40.7651 5.4568 40.7651 8.17088V12.8672C40.7651 13.7122 40.0801 14.3972 39.2351 14.3972C38.3901 14.3972 37.7051 13.7122 37.7051 12.8672V8.17088C37.7051 7.14672 36.8609 6.30246 35.8367 6.30246H18.1647Z" fill="#DCBDA1"/>
<path fill-rule="evenodd" clip-rule="evenodd" d="M50.3093 26.5247C51.1543 26.5247 51.8393 27.2097 51.8393 28.0547V46.0635C51.8393 48.6484 49.7301 50.7575 47.1452 50.7575H6.85617C4.27136 50.7575 2.16211 48.6488 2.16211 46.0635V28.1602C2.16211 27.3152 2.84711 26.6302 3.69211 26.6302C4.5371 26.6302 5.22211 27.3152 5.22211 28.1602V46.0635C5.22211 46.9586 5.96115 47.6975 6.85617 47.6975H47.1452C48.0402 47.6975 48.7793 46.9584 48.7793 46.0635V28.0547C48.7793 27.2097 49.4643 26.5247 50.3093 26.5247Z" fill="#DCBDA1"/>
<path fill-rule="evenodd" clip-rule="evenodd" d="M4.7468 14.6872C3.84906 14.6872 3.11273 15.4236 3.11273 16.3213V23.8093C3.11273 25.655 4.74654 27.5284 8.5769 29.0931C12.2669 30.6005 17.3818 31.5396 22.8693 31.8534C23.7129 31.9016 24.3577 32.6246 24.3095 33.4682C24.2612 34.3118 23.5382 34.9566 22.6946 34.9084C17.0247 34.5842 11.5399 33.609 7.41971 31.9258C3.43982 30.3 0.0527344 27.7066 0.0527344 23.8093V16.3213C0.0527344 13.7337 2.159 11.6272 4.7468 11.6272H49.2546C51.8423 11.6272 53.9487 13.7338 53.9487 16.3213V23.8093C53.9487 27.7305 50.5209 30.3319 46.503 31.9577C42.3409 33.6418 36.8037 34.6104 31.0914 34.9203C30.2476 34.9661 29.5265 34.3192 29.4808 33.4754C29.435 32.6317 30.0819 31.9106 30.9256 31.8648C36.4548 31.5649 41.6227 30.6314 45.3553 29.1211C49.2321 27.5524 50.8887 25.667 50.8887 23.8093V16.3213C50.8887 15.4237 50.1522 14.6872 49.2546 14.6872H4.7468Z" fill="#DCBDA1"/>
<path fill-rule="evenodd" clip-rule="evenodd" d="M21.5684 30.2432C21.5684 29.3982 22.2534 28.7132 23.0984 28.7132H30.903C31.748 28.7132 32.433 29.3982 32.433 30.2432V33.8818C32.433 36.7281 30.1106 39.0505 27.2644 39.0505H26.737C23.8908 39.0505 21.5684 36.7281 21.5684 33.8818V30.2432ZM24.6284 31.7732V33.8818C24.6284 35.0381 25.5808 35.9905 26.737 35.9905H27.2644C28.4206 35.9905 29.373 35.0381 29.373 33.8818V31.7732H24.6284Z" fill="#DCBDA1"/>
</svg>
