<svg width="54" height="54" viewBox="0 0 54 54" fill="none" xmlns="http://www.w3.org/2000/svg">
<path d="M52.2008 32.9294C52.2008 32.1107 51.5371 31.4471 50.7184 31.4471C49.8997 31.4471 49.2361 30.7834 49.2361 29.9647V6.24707C49.2361 3.79102 47.2451 1.8 44.789 1.8H41.8243C41.0056 1.8 40.342 2.46368 40.342 3.28236C40.342 4.10104 39.6783 4.76471 38.8596 4.76471H35.8949C35.0762 4.76471 34.4125 4.10104 34.4125 3.28236C34.4125 2.46368 33.7489 1.8 32.9302 1.8H21.0714C20.2527 1.8 19.589 2.46368 19.589 3.28236C19.589 4.10104 18.9253 4.76471 18.1067 4.76471H15.142C14.3233 4.76471 13.6596 4.10104 13.6596 3.28236C13.6596 2.46368 12.9959 1.8 12.1773 1.8H9.21255C6.7565 1.8 4.76549 3.79102 4.76549 6.24706V29.9647C4.76549 30.7834 4.10182 31.4471 3.28313 31.4471C2.46445 31.4471 1.80078 32.1107 1.80078 32.9294V44.0471C1.80078 45.2751 2.79629 46.2706 4.02431 46.2706C5.25233 46.2706 6.24784 47.2661 6.24784 48.4941V49.2353C6.24784 50.8727 7.57518 52.2 9.21255 52.2H14.2258C16.2572 52.2 18.1143 51.0523 19.0228 49.2353C19.9312 47.4183 21.7883 46.2706 23.8198 46.2706H31.6641C33.6955 46.2706 35.5526 47.4183 36.4611 49.2353C37.3695 51.0523 39.2266 52.2 41.2581 52.2H46.2714C47.9087 52.2 49.2361 50.8727 49.2361 49.2353V47.7529C49.2361 46.9343 49.8997 46.2706 50.7184 46.2706C51.5371 46.2706 52.2008 45.6069 52.2008 44.7882V32.9294ZM43.3067 6.24706C43.3067 5.42838 43.9703 4.76471 44.789 4.76471C45.6077 4.76471 46.2714 5.42838 46.2714 6.24706V29.9647C46.2714 30.7834 45.6077 31.4471 44.789 31.4471C43.9703 31.4471 43.3067 30.7834 43.3067 29.9647V6.24706ZM22.5537 6.98824C22.5537 5.76022 23.5492 4.76471 24.7773 4.76471H29.2243C30.4523 4.76471 31.4478 5.76022 31.4478 6.98824C31.4478 8.21626 30.4523 9.21177 29.2243 9.21177H24.7773C23.5492 9.21177 22.5537 8.21626 22.5537 6.98824ZM27.0008 15.1412C26.1821 15.1412 25.5184 14.4775 25.5184 13.6588C25.5184 12.8401 26.1821 12.1765 27.0008 12.1765C27.8195 12.1765 28.4831 12.8401 28.4831 13.6588C28.4831 14.4775 27.8195 15.1412 27.0008 15.1412ZM17.3655 7.72941C18.5935 7.72941 19.589 8.72492 19.589 9.95294V10.6941C19.589 11.5128 20.2527 12.1765 21.0714 12.1765C21.8901 12.1765 22.5537 12.8401 22.5537 13.6588V16.6235C22.5537 17.4422 23.2174 18.1059 24.0361 18.1059C24.8548 18.1059 25.5184 18.7696 25.5184 19.5882V21.0706C25.5184 21.8893 26.1821 22.5529 27.0008 22.5529C27.8195 22.5529 28.4831 21.8893 28.4831 21.0706V19.5882C28.4831 18.7696 29.1468 18.1059 29.9655 18.1059C30.7842 18.1059 31.4478 17.4422 31.4478 16.6235V13.6588C31.4478 12.8401 32.1115 12.1765 32.9302 12.1765C33.7489 12.1765 34.4125 11.5128 34.4125 10.6941V9.95294C34.4125 8.72492 35.4081 7.72941 36.6361 7.72941H37.3773C39.0146 7.72941 40.342 9.05676 40.342 10.6941V29.9647C40.342 30.7834 39.6783 31.4471 38.8596 31.4471C38.0409 31.4471 37.3773 30.7834 37.3773 29.9647V28.4824C37.3773 26.845 36.0499 25.5177 34.4125 25.5177H19.589C17.9517 25.5177 16.6243 26.845 16.6243 28.4824V29.9647C16.6243 30.7834 15.9606 31.4471 15.142 31.4471C14.3233 31.4471 13.6596 30.7834 13.6596 29.9647V10.6941C13.6596 9.05676 14.9869 7.72941 16.6243 7.72941H17.3655ZM34.4125 29.9647C34.4125 30.7834 33.7489 31.4471 32.9302 31.4471H21.0714C20.2527 31.4471 19.589 30.7834 19.589 29.9647C19.589 29.146 20.2527 28.4824 21.0714 28.4824H32.9302C33.7489 28.4824 34.4125 29.146 34.4125 29.9647ZM7.73019 6.24706C7.73019 5.42838 8.39387 4.76471 9.21255 4.76471C10.0312 4.76471 10.6949 5.42838 10.6949 6.24706V29.9647C10.6949 30.7834 10.0312 31.4471 9.21255 31.4471C8.39387 31.4471 7.73019 30.7834 7.73019 29.9647V6.24706ZM16.1179 48.4159C15.8668 48.9181 15.3535 49.2353 14.7921 49.2353H10.6949C9.87622 49.2353 9.21255 48.5716 9.21255 47.7529C9.21255 46.9343 9.87622 46.2706 10.6949 46.2706H14.7921C15.894 46.2706 16.6107 47.4303 16.1179 48.4159ZM46.2714 47.7529C46.2714 48.5716 45.6077 49.2353 44.789 49.2353H40.6919C40.1305 49.2353 39.6172 48.9181 39.3661 48.4159C38.8733 47.4303 39.59 46.2706 40.6919 46.2706H44.789C45.6077 46.2706 46.2714 46.9343 46.2714 47.7529ZM49.2361 38.8588C49.2361 41.3149 47.2536 43.3059 44.7975 43.3059C36.2492 43.3059 17.7566 43.3059 9.20098 43.3059C6.74494 43.3059 4.76549 41.3149 4.76549 38.8588C4.76549 36.4028 6.7565 34.4118 9.21255 34.4118H44.789C47.2451 34.4118 49.2361 36.4028 49.2361 38.8588Z" fill="#DCBDA1"/>
<path d="M7.73047 38.8588C7.73047 38.0401 8.39414 37.3765 9.21282 37.3765C10.0315 37.3765 10.6952 38.0401 10.6952 38.8588C10.6952 39.6775 10.0315 40.3412 9.21282 40.3412C8.39414 40.3412 7.73047 39.6775 7.73047 38.8588Z" fill="#DCBDA1"/>
<path d="M13.6602 38.8588C13.6602 38.0401 14.3238 37.3765 15.1425 37.3765C15.9612 37.3765 16.6249 38.0401 16.6249 38.8588C16.6249 39.6775 15.9612 40.3412 15.1425 40.3412C14.3238 40.3412 13.6602 39.6775 13.6602 38.8588Z" fill="#DCBDA1"/>
<path d="M19.5898 38.8588C19.5898 38.0401 20.2535 37.3765 21.0722 37.3765C21.8909 37.3765 22.5546 38.0401 22.5546 38.8588C22.5546 39.6775 21.8909 40.3412 21.0722 40.3412C20.2535 40.3412 19.5898 39.6775 19.5898 38.8588Z" fill="#DCBDA1"/>
</svg>
