<svg width="16" height="13" viewBox="0 0 16 13" fill="none" xmlns="http://www.w3.org/2000/svg">
<g clip-path="url(#clip0_40_958)">
<rect width="15.5676" height="12" transform="translate(0 0.5)" fill="#083DC5"/>
<path d="M5.08108 9.14867L13.0541 1.1757C13.3018 0.92795 13.6171 0.804077 14 0.804077C14.3829 0.804077 14.6982 0.92795 14.9459 1.1757C15.1937 1.42345 15.3176 1.73876 15.3176 2.12164C15.3176 2.50453 15.1937 2.81984 14.9459 3.06759L6.02703 11.9865C5.75676 12.2568 5.44144 12.3919 5.08108 12.3919C4.72072 12.3919 4.40541 12.2568 4.13513 11.9865L0.621621 8.473C0.373873 8.22525 0.25 7.90993 0.25 7.52705C0.25 7.14417 0.373873 6.82885 0.621621 6.5811C0.869369 6.33336 1.18468 6.20948 1.56757 6.20948C1.95045 6.20948 2.26577 6.33336 2.51351 6.5811L5.08108 9.14867Z" fill="white"/>
</g>
<defs>
<clipPath id="clip0_40_958">
<rect width="15.5676" height="12" fill="white" transform="translate(0 0.5)"/>
</clipPath>
</defs>
</svg>
