<svg width="28" height="29" viewBox="0 0 28 29" fill="none" xmlns="http://www.w3.org/2000/svg">
<path d="M14.0005 18C14.9287 18 15.819 17.6313 16.4754 16.9749C17.1317 16.3185 17.5005 15.4283 17.5005 14.5C17.5005 13.5717 17.1317 12.6815 16.4754 12.0251C15.819 11.3687 14.9287 11 14.0005 11C13.0722 11 12.182 11.3687 11.5256 12.0251C10.8692 12.6815 10.5005 13.5717 10.5005 14.5C10.5005 15.4283 10.8692 16.3185 11.5256 16.9749C12.182 17.6313 13.0722 18 14.0005 18Z" stroke="black" stroke-width="2.33333" stroke-linecap="round" stroke-linejoin="round"/>
<path d="M22.8925 12.6275L21.6127 9.53587L23.3335 7.50004L21.0002 5.16671L18.976 6.89687L15.8178 5.59837L15.091 2.83337H12.8113L12.074 5.63454L8.98816 6.93537L7.00016 5.16671L4.66683 7.50004L6.362 9.58721L5.102 12.687L2.3335 13.3334V15.6667L5.13466 16.4309L6.4355 19.5167L4.66683 21.5L7.00016 23.8334L9.08966 22.13L12.13 23.3807L12.8335 26.1667H15.1668L15.8715 23.3819L18.9643 22.1009C19.48 22.4695 21.0002 23.8334 21.0002 23.8334L23.3335 21.5L21.6022 19.4584L22.8832 16.3644L25.6668 15.641V13.3334L22.8925 12.6275Z" stroke="black" stroke-width="2.33333" stroke-linecap="round" stroke-linejoin="round"/>
</svg>
