<svg width="60" height="60" viewBox="0 0 60 60" fill="none" xmlns="http://www.w3.org/2000/svg">
<path d="M50 27.5C50 22.1957 47.8929 17.1086 44.1421 13.3579C40.3914 9.60714 35.3043 7.5 30 7.5C24.6957 7.5 19.6086 9.60714 15.8579 13.3579C12.1071 17.1086 10 22.1957 10 27.5" stroke="#F88E2C" stroke-width="3" stroke-linecap="round" stroke-linejoin="round"/>
<path d="M50.0001 45.0003V46.2503C50.0001 47.5764 49.4733 48.8481 48.5356 49.7858C47.5979 50.7235 46.3261 51.2503 45.0001 51.2503H36.2501M5.00006 38.5953V33.9053C5.00023 32.7903 5.37307 31.7074 6.05932 30.8286C6.74558 29.9499 7.70586 29.3257 8.78756 29.0553L13.1376 27.9653C13.3586 27.9102 13.5893 27.9063 13.8121 27.9536C14.0349 28.001 14.244 28.0985 14.4235 28.2388C14.603 28.379 14.7482 28.5583 14.8481 28.763C14.948 28.9677 15 29.1925 15.0001 29.4203V43.0778C15.0005 43.3061 14.9487 43.5314 14.8489 43.7367C14.749 43.942 14.6036 44.1217 14.4237 44.2623C14.2439 44.4028 14.0343 44.5005 13.811 44.5478C13.5876 44.5951 13.3565 44.5908 13.1351 44.5353L8.78506 43.4478C7.70383 43.1769 6.7441 42.5526 6.05834 41.6738C5.37257 40.7951 5.00009 39.7124 5.00006 38.5978V38.5953ZM55.0001 38.5953V33.9053C54.9999 32.7903 54.6271 31.7074 53.9408 30.8286C53.2546 29.9499 52.2943 29.3257 51.2126 29.0553L46.8626 27.9653C46.6415 27.9102 46.4108 27.9063 46.188 27.9536C45.9652 28.001 45.7561 28.0985 45.5766 28.2388C45.3971 28.379 45.2519 28.5583 45.152 28.763C45.0521 28.9677 45.0001 29.1925 45.0001 29.4203V43.0778C44.9998 43.3058 45.0514 43.5309 45.1512 43.7359C45.2509 43.9409 45.3961 44.1205 45.5756 44.2611C45.7552 44.4016 45.9644 44.4993 46.1874 44.5468C46.4104 44.5943 46.6413 44.5904 46.8626 44.5353L51.2126 43.4478C52.2943 43.1774 53.2546 42.5532 53.9408 41.6745C54.6271 40.7957 54.9999 39.7128 55.0001 38.5978V38.5953Z" stroke="#F88E2C" stroke-width="3"/>
<path d="M33.75 55.0003H26.25C25.2554 55.0003 24.3016 54.6052 23.5983 53.902C22.8951 53.1987 22.5 52.2449 22.5 51.2503C22.5 50.2557 22.8951 49.3019 23.5983 48.5987C24.3016 47.8954 25.2554 47.5003 26.25 47.5003H33.75C34.7446 47.5003 35.6984 47.8954 36.4017 48.5987C37.1049 49.3019 37.5 50.2557 37.5 51.2503C37.5 52.2449 37.1049 53.1987 36.4017 53.902C35.6984 54.6052 34.7446 55.0003 33.75 55.0003Z" stroke="#F88E2C" stroke-width="3"/>
</svg>
