<svg width="19" height="19" viewBox="0 0 19 19" fill="none" xmlns="http://www.w3.org/2000/svg">
<g clip-path="url(#clip0_2_27)">
<path fill-rule="evenodd" clip-rule="evenodd" d="M3.98272 8C3.98272 7.00544 4.37781 6.05161 5.08107 5.34835C5.78433 4.64509 6.73816 4.25 7.73272 4.25C8.72728 4.25 9.68111 4.64509 10.3844 5.34835C11.0876 6.05161 11.4827 7.00544 11.4827 8C11.4827 8.99456 11.0876 9.94839 10.3844 10.6517C9.68111 11.3549 8.72728 11.75 7.73272 11.75C6.73816 11.75 5.78433 11.3549 5.08107 10.6517C4.37781 9.94839 3.98272 8.99456 3.98272 8ZM7.73272 2.75C6.90116 2.75 6.0815 2.94753 5.34123 3.32632C4.60096 3.70512 3.96126 4.25434 3.4748 4.92875C2.98834 5.60317 2.66904 6.3835 2.5432 7.20548C2.41735 8.02745 2.48856 8.86757 2.75096 9.65664C3.01335 10.4457 3.45943 11.1612 4.05247 11.7441C4.6455 12.327 5.36851 12.7607 6.16198 13.0095C6.95544 13.2583 7.79665 13.3151 8.61635 13.1751C9.43604 13.0351 10.2108 12.7025 10.8767 12.2045L14.7017 16.0303C14.8423 16.171 15.0331 16.2501 15.2321 16.2502C15.431 16.2502 15.6219 16.1713 15.7626 16.0306C15.9033 15.89 15.9824 15.6992 15.9825 15.5003C15.9826 15.3013 15.9036 15.1105 15.763 14.9697L11.938 11.1447C12.5217 10.3644 12.8767 9.43694 12.9633 8.46625C13.0498 7.49556 12.8645 6.51994 12.428 5.64861C11.9915 4.77728 11.3211 4.04463 10.4919 3.5327C9.66264 3.02077 8.70726 2.74976 7.73272 2.75Z" fill="white"/>
</g>
<defs>
<clipPath id="clip0_2_27">
<rect width="18" height="18" fill="white" transform="translate(0.232727 0.5)"/>
</clipPath>
</defs>
</svg>
