<svg width="60" height="60" viewBox="0 0 60 60" fill="none" xmlns="http://www.w3.org/2000/svg">
<path d="M46.25 37.5H13.75" stroke="#F88E2C" stroke-width="3" stroke-linejoin="round"/>
<path d="M40 10.0001H20M22.5 11.2501V25.6501C22.5006 26.8438 22.0741 27.9984 21.2975 28.9051L8.7 43.5951C7.92436 44.5021 7.49872 45.6566 7.5 46.8501V47.5001C7.5 48.8261 8.02679 50.0979 8.96447 51.0356C9.90215 51.9733 11.1739 52.5001 12.5 52.5001H47.5C48.8261 52.5001 50.0979 51.9733 51.0355 51.0356C51.9732 50.0979 52.5 48.8261 52.5 47.5001V46.8501C52.4999 45.656 52.0725 44.5014 51.295 43.5951L38.7025 28.9051C37.926 27.9984 37.4994 26.8438 37.5 25.6501V11.2501M30 22.5251L30.025 22.4976M27.5 5.02506L27.525 4.99756" stroke="#F88E2C" stroke-width="3" stroke-linecap="round" stroke-linejoin="round"/>
</svg>
