<svg width="24" height="25" viewBox="0 0 24 25" fill="none" xmlns="http://www.w3.org/2000/svg">
<path d="M2.77026 23.2085V21.8591C2.77026 19.3541 3.78541 16.9516 5.5924 15.1803C7.39938 13.409 9.85017 12.4139 12.4056 12.4139M12.4056 12.4139C14.9611 12.4139 17.4119 13.409 19.2189 15.1803C21.0258 16.9516 22.041 19.3541 22.041 21.8591V23.2085M12.4056 12.4139C13.8659 12.4139 15.2663 11.8452 16.2989 10.833C17.3315 9.82084 17.9115 8.44801 17.9115 7.01656C17.9115 5.58511 17.3315 4.21228 16.2989 3.20009C15.2663 2.1879 13.8659 1.61926 12.4056 1.61926C10.9454 1.61926 9.54491 2.1879 8.51235 3.20009C7.47979 4.21228 6.8997 5.58511 6.8997 7.01656C6.8997 8.44801 7.47979 9.82084 8.51235 10.833C9.54491 11.8452 10.9454 12.4139 12.4056 12.4139Z" stroke="#283845" stroke-width="2.1751" stroke-linecap="round" stroke-linejoin="round"/>
</svg>
