<svg width="18" height="24" viewBox="0 0 18 24" fill="none" xmlns="http://www.w3.org/2000/svg">
<g clip-path="url(#clip0_21_146)">
<path d="M14.9891 12.5989C14.9891 11.9374 15.5253 11.4011 16.1869 11.4011C16.8484 11.4011 17.3847 11.9374 17.3847 12.5989V22.1815C17.3847 22.8431 16.8484 23.3793 16.1869 23.3793C15.5253 23.3793 14.9891 22.8431 14.9891 22.1815V12.5989Z" fill="#F88E2C"/>
<path d="M7.80205 1.81867C7.80205 1.15713 8.33834 0.62085 8.99987 0.62085C9.6614 0.62085 10.1977 1.15713 10.1977 1.81867V22.1816C10.1977 22.8432 9.6614 23.3795 8.99987 23.3795C8.33834 23.3795 7.80205 22.8432 7.80205 22.1816V1.81867Z" fill="#F88E2C"/>
<path d="M0.615189 7.80769C0.615189 7.14615 1.15147 6.60986 1.81301 6.60986C2.47454 6.60986 3.01083 7.14615 3.01083 7.80769V22.1815C3.01083 22.8431 2.47454 23.3794 1.81301 23.3794C1.15147 23.3794 0.615189 22.8431 0.615189 22.1815V7.80769Z" fill="#F88E2C"/>
</g>
<defs>
<clipPath id="clip0_21_146">
<rect width="16.7695" height="22.7586" fill="white" transform="translate(0.615234 0.62085)"/>
</clipPath>
</defs>
</svg>
