<svg width="27" height="24" viewBox="0 0 27 24" fill="none" xmlns="http://www.w3.org/2000/svg">
<g clip-path="url(#clip0_501_2537)">
<path d="M1.75 4H25.5L21.75 16.5H5.5L1.75 4ZM1.75 4L0.8125 0.875M11.75 20.875C11.75 21.3723 11.5525 21.8492 11.2008 22.2008C10.8492 22.5525 10.3723 22.75 9.875 22.75C9.37772 22.75 8.90081 22.5525 8.54917 22.2008C8.19754 21.8492 8 21.3723 8 20.875M19.25 20.875C19.25 21.3723 19.0525 21.8492 18.7008 22.2008C18.3492 22.5525 17.8723 22.75 17.375 22.75C16.8777 22.75 16.4008 22.5525 16.0492 22.2008C15.6975 21.8492 15.5 21.3723 15.5 20.875" stroke="#283845" stroke-width="2.4" stroke-linecap="round" stroke-linejoin="round"/>
</g>
<defs>
<clipPath id="clip0_501_2537">
<rect width="27" height="24" fill="white"/>
</clipPath>
</defs>
</svg>
