<svg width="28" height="29" viewBox="0 0 28 29" fill="none" xmlns="http://www.w3.org/2000/svg">
<path d="M9.33317 12.1666H18.6665M9.33317 21.5H18.6665M9.33317 16.8333H13.9998M4.6665 25.4666V3.53331C4.6665 3.34766 4.74025 3.16961 4.87153 3.03834C5.0028 2.90706 5.18085 2.83331 5.3665 2.83331H18.9605C19.1461 2.83348 19.324 2.90733 19.4552 3.03865L23.1278 6.71131C23.1931 6.77653 23.2449 6.85401 23.2801 6.93931C23.3154 7.0246 23.3334 7.11603 23.3332 7.20831V25.4666C23.3332 25.5586 23.3151 25.6496 23.2799 25.7345C23.2447 25.8195 23.1931 25.8966 23.1281 25.9616C23.0631 26.0266 22.986 26.0782 22.901 26.1134C22.8161 26.1485 22.7251 26.1666 22.6332 26.1666H5.3665C5.27458 26.1666 5.18355 26.1485 5.09863 26.1134C5.0137 26.0782 4.93653 26.0266 4.87153 25.9616C4.80653 25.8966 4.75497 25.8195 4.71979 25.7345C4.68461 25.6496 4.6665 25.5586 4.6665 25.4666Z" stroke="white" stroke-width="2" stroke-linecap="round" stroke-linejoin="round"/>
<path d="M18.6665 2.83331V6.79998C18.6665 6.98563 18.7403 7.16368 18.8715 7.29495C19.0028 7.42623 19.1809 7.49998 19.3665 7.49998H23.3332" stroke="white" stroke-width="2" stroke-linecap="round" stroke-linejoin="round"/>
</svg>
