<svg width="18" height="24" viewBox="0 0 18 24" fill="none" xmlns="http://www.w3.org/2000/svg">
<g clip-path="url(#clip0_501_2533)">
<path d="M15.4736 12.6316C15.4736 11.9339 16.0391 11.3684 16.7368 11.3684C17.4344 11.3684 17.9999 11.9339 17.9999 12.6316V22.7368C17.9999 23.4345 17.4344 24 16.7368 24C16.0391 24 15.4736 23.4345 15.4736 22.7368V12.6316Z" fill="#283845"/>
<path d="M7.89478 1.26316C7.89478 0.565534 8.46032 0 9.15793 0C9.85555 0 10.4211 0.565534 10.4211 1.26316V22.7368C10.4211 23.4345 9.85555 24 9.15793 24C8.46032 24 7.89478 23.4345 7.89478 22.7368V1.26316Z" fill="#283845"/>
<path d="M0.315918 7.57895C0.315918 6.88134 0.881452 6.3158 1.57908 6.3158C2.27669 6.3158 2.84223 6.88134 2.84223 7.57895V22.7368C2.84223 23.4345 2.27669 24 1.57908 24C0.881452 24 0.315918 23.4345 0.315918 22.7368V7.57895Z" fill="#283845"/>
</g>
<defs>
<clipPath id="clip0_501_2533">
<rect width="17.6842" height="24" fill="white" transform="translate(0.315918)"/>
</clipPath>
</defs>
</svg>
