<svg width="60" height="60" viewBox="0 0 60 60" fill="none" xmlns="http://www.w3.org/2000/svg">
<path d="M25.125 26.5175L7.45001 44.1925C6.98513 44.6568 6.61634 45.2083 6.36472 45.8153C6.11309 46.4223 5.98358 47.0729 5.98358 47.73C5.98358 48.387 6.11309 49.0377 6.36472 49.6447C6.61634 50.2517 6.98513 50.8031 7.45001 51.2675C8.38765 52.2048 9.65919 52.7314 10.985 52.7314C12.3108 52.7314 13.5824 52.2048 14.52 51.2675L32.195 33.5875M42.9825 34.5L52.6775 44.195C53.6149 45.1326 54.1414 46.4041 54.1414 47.73C54.1414 49.0558 53.6149 50.3273 52.6775 51.265C51.7399 52.2023 50.4683 52.7289 49.1425 52.7289C47.8167 52.7289 46.5452 52.2023 45.6075 51.265L30.085 35.745M16.8325 14.76L11.525 16.525L6.22501 7.68747L9.76002 4.15247L18.6 9.45497L16.8325 14.76ZM16.8325 14.76L23.9075 21.835" stroke="#F88E2C" stroke-width="3" stroke-linecap="round" stroke-linejoin="round"/>
<path d="M25.125 26.5175C23.015 21.135 23.4275 14.0725 27.7775 9.72252C32.1275 5.37252 40.1525 4.42002 44.57 7.07252L36.97 14.6725L36.2625 22.45L44.04 21.745L51.64 14.1425C54.295 18.5625 53.34 26.5875 48.99 30.935C44.64 35.285 37.58 35.6975 32.1975 33.5875" stroke="#F88E2C" stroke-width="3" stroke-linecap="round" stroke-linejoin="round"/>
</svg>
