<svg width="206" height="55" viewBox="0 0 206 55" fill="none" xmlns="http://www.w3.org/2000/svg">
<path d="M0 1.63635H75.2727V6.54544L0 7.36363V1.63635Z" fill="#F88E2C"/>
<path d="M0 10.6364H75.2727V15.5454L0 16.3636V10.6364Z" fill="#F88E2C"/>
<path d="M0 19.6364H75.2727V24.5454L0 25.3636V19.6364Z" fill="#F88E2C"/>
<path d="M0 28.6364H75.2727V33.5454L0 34.3636V28.6364Z" fill="#F88E2C"/>
<path d="M0 37.6364H75.2727V42.5454L0 43.3636V37.6364Z" fill="#F88E2C"/>
<path d="M0 46.6364H75.2727V53.1818H0V46.6364Z" fill="#F88E2C"/>
<path d="M118.044 53.6364V11.5065H114.127V53.6364H101V1.95344H131.171V53.6364H118.044ZM167.358 32.1247V39.7534C167.358 42.7316 166.9 45.1829 165.983 47.1073C165.067 48.9858 163.853 50.4749 162.341 51.5745C160.875 52.6284 159.179 53.3614 157.255 53.7738C155.377 54.1862 153.475 54.3924 151.551 54.3924C148.664 54.3924 146.236 54.0258 144.266 53.2927C142.341 52.5138 140.783 51.4142 139.592 49.9938C138.447 48.5734 137.622 46.8782 137.118 44.908C136.614 42.9378 136.362 40.7156 136.362 38.2414V16.18C136.362 15.3094 136.408 14.3244 136.499 13.2247C136.591 12.1251 136.82 11.0254 137.187 9.9258C137.553 8.82617 138.057 7.74944 138.699 6.69562C139.34 5.64181 140.234 4.72544 141.379 3.94653C142.525 3.1218 143.922 2.45744 145.571 1.95344C147.221 1.44944 149.214 1.19744 151.551 1.19744C153.979 1.19744 156.155 1.47235 158.08 2.02217C160.05 2.57199 161.722 3.46544 163.097 4.70253C164.471 5.89381 165.525 7.45162 166.258 9.37599C166.991 11.2545 167.358 13.5225 167.358 16.18V21.5407H154.231V13.7745C154.231 13.3622 154.208 12.9269 154.162 12.4687C154.117 12.0105 154.002 11.5982 153.819 11.2316C153.635 10.8651 153.383 10.5673 153.063 10.3382C152.788 10.0633 152.398 9.9258 151.894 9.9258C150.886 9.9258 150.222 10.3611 149.901 11.2316C149.626 12.0564 149.489 12.8811 149.489 13.7058V41.4716C149.489 41.884 149.512 42.3422 149.558 42.8462C149.603 43.3044 149.718 43.7396 149.901 44.152C150.085 44.5185 150.337 44.8393 150.657 45.1142C150.978 45.3433 151.39 45.4578 151.894 45.4578C152.811 45.4578 153.429 45.0225 153.75 44.152C154.071 43.2356 154.231 42.3422 154.231 41.4716V32.1247H167.358ZM185.884 20.7847L190.901 1.95344H203.822L195.987 25.252L204.303 53.6364H190.763L185.746 32.7433H185.471V53.6364H172.344V1.95344H185.471V20.7847H185.884Z" fill="#083DC5"/>
</svg>
