<svg width="60" height="60" viewBox="0 0 60 60" fill="none" xmlns="http://www.w3.org/2000/svg">
<path d="M55 21.25V35V42.5C55 44.4778 54.4135 46.4112 53.3147 48.0557C52.2159 49.7002 50.6541 50.9819 48.8268 51.7388C46.9996 52.4957 44.9889 52.6937 43.0491 52.3079C41.1093 51.922 39.3275 50.9696 37.9289 49.5711C36.5304 48.1725 35.578 46.3907 35.1921 44.4509C34.8063 42.5111 35.0043 40.5004 35.7612 38.6732C36.5181 36.8459 37.7998 35.2841 39.4443 34.1853C41.0888 33.0865 43.0222 32.5 45 32.5H15M15 32.5V15C15 13.0109 15.7902 11.1032 17.1967 9.6967C18.6032 8.29018 20.5109 7.5 22.5 7.5H35M15 32.5C12.3478 32.5 9.8043 33.5536 7.92893 35.4289C6.05357 37.3043 5 39.8478 5 42.5C5 45.1522 6.05357 47.6957 7.92893 49.5711C9.8043 51.4464 12.3478 52.5 15 52.5H30M45 10H55" stroke="black" stroke-width="2.5" stroke-linecap="round" stroke-linejoin="round"/>
</svg>
