<svg width="60" height="60" viewBox="0 0 60 60" fill="none" xmlns="http://www.w3.org/2000/svg">
<path d="M20 47.5C21.3261 47.5 22.5979 46.9732 23.5355 46.0355C24.4732 45.0979 25 43.8261 25 42.5C25 41.1739 24.4732 39.9021 23.5355 38.9645C22.5979 38.0268 21.3261 37.5 20 37.5C18.6739 37.5 17.4021 38.0268 16.4645 38.9645C15.5268 39.9021 15 41.1739 15 42.5C15 43.8261 15.5268 45.0979 16.4645 46.0355C17.4021 46.9732 18.6739 47.5 20 47.5ZM45 47.5C46.3261 47.5 47.5979 46.9732 48.5355 46.0355C49.4732 45.0979 50 43.8261 50 42.5C50 41.1739 49.4732 39.9021 48.5355 38.9645C47.5979 38.0268 46.3261 37.5 45 37.5C43.6739 37.5 42.4021 38.0268 41.4645 38.9645C40.5268 39.9021 40 41.1739 40 42.5C40 43.8261 40.5268 45.0979 41.4645 46.0355C42.4021 46.9732 43.6739 47.5 45 47.5Z" stroke="black" stroke-width="2.5" stroke-miterlimit="1.5" stroke-linecap="round" stroke-linejoin="round"/>
<path d="M25.125 42.5H37.5V16.5C37.5 16.1022 37.342 15.7206 37.0607 15.4393C36.7794 15.158 36.3978 15 36 15H2.5M14.125 42.5H9C8.80302 42.5 8.60796 42.4612 8.42597 42.3858C8.24399 42.3104 8.07863 42.1999 7.93934 42.0607C7.80005 41.9214 7.68956 41.756 7.61418 41.574C7.5388 41.392 7.5 41.197 7.5 41V28.75" stroke="black" stroke-width="2.5" stroke-linecap="round"/>
<path d="M5 22.5H15" stroke="black" stroke-width="2.5" stroke-linecap="round" stroke-linejoin="round"/>
<path d="M37.5 22.5H51.525C51.8149 22.5001 52.0987 22.5842 52.3418 22.7421C52.5849 22.9001 52.7771 23.1251 52.895 23.39L57.37 33.46C57.4553 33.6512 57.4995 33.8581 57.5 34.0675V41C57.5 41.197 57.4612 41.392 57.3858 41.574C57.3104 41.756 57.1999 41.9214 57.0607 42.0607C56.9214 42.1999 56.756 42.3104 56.574 42.3858C56.392 42.4612 56.197 42.5 56 42.5H51.25M37.5 42.5H40" stroke="black" stroke-width="2.5" stroke-linecap="round"/>
</svg>
