<svg width="60" height="60" viewBox="0 0 60 60" fill="none" xmlns="http://www.w3.org/2000/svg">
<path d="M35.68 26.1125L45 5M23.29 26.58L12.5 5M31.9025 25.12L22.0875 5M35.9 5L33.3 11.25M15 40C15 43.9782 16.5804 47.7936 19.3934 50.6066C22.2064 53.4196 26.0218 55 30 55C33.9782 55 37.7936 53.4196 40.6066 50.6066C43.4196 47.7936 45 43.9782 45 40C45 36.0218 43.4196 32.2064 40.6066 29.3934C37.7936 26.5804 33.9782 25 30 25C26.0218 25 22.2064 26.5804 19.3934 29.3934C16.5804 32.2064 15 36.0218 15 40Z" stroke="black" stroke-width="2.5" stroke-linecap="round" stroke-linejoin="round"/>
<path d="M26.25 37.5L31.25 33.75V46.25" stroke="black" stroke-width="2.5" stroke-linecap="round" stroke-linejoin="round"/>
</svg>
