<svg width="304" height="57" viewBox="0 0 304 57" fill="none" xmlns="http://www.w3.org/2000/svg">
<g id="Group">
<path id="things that make sense" d="M60.377 46.8786V42.7031C60.377 42.5581 60.4254 42.4372 60.5221 42.3405C60.6188 42.2369 60.7569 42.185 60.9365 42.185C61.1161 42.185 61.2543 42.2369 61.351 42.3405C61.4477 42.4441 61.496 42.565 61.496 42.7031V43.9879H62.4182C62.5632 43.9879 62.6876 44.0362 62.7912 44.1329C62.8948 44.2296 62.9466 44.3505 62.9466 44.4956C62.9466 44.6337 62.8948 44.7512 62.7912 44.8479C62.6876 44.9446 62.5632 44.9929 62.4182 44.9929H61.496V46.8061C61.496 47.0341 61.5029 47.2275 61.5168 47.3863C61.5306 47.5452 61.5617 47.673 61.61 47.7697C61.6653 47.8664 61.7378 47.9389 61.8276 47.9873C61.9243 48.0287 62.0486 48.0495 62.2006 48.0495C62.2351 48.0495 62.2697 48.0495 62.3042 48.0495C62.3387 48.0426 62.3664 48.0391 62.3871 48.0391C62.6081 48.0391 62.7774 48.0736 62.8948 48.1427C63.0191 48.2049 63.0813 48.3258 63.0813 48.5054C63.0813 48.6228 63.0571 48.7195 63.0088 48.7955C62.9673 48.8645 62.9086 48.9198 62.8326 48.9612C62.7566 48.9958 62.6703 49.0165 62.5736 49.0234C62.4838 49.0372 62.3871 49.0441 62.2835 49.0441C61.9036 49.0441 61.5893 48.9992 61.3406 48.9094C61.0989 48.8127 60.9054 48.6746 60.7604 48.495C60.6153 48.3154 60.5152 48.0909 60.4599 47.8215C60.4047 47.5452 60.377 47.2309 60.377 46.8786ZM65.0345 48.5572C65.0345 48.7091 64.9827 48.8335 64.879 48.9302C64.7754 49.0269 64.6442 49.0752 64.4853 49.0752C64.3265 49.0752 64.1918 49.0269 64.0812 48.9302C63.9776 48.8335 63.9258 48.7091 63.9258 48.5572V41.9778C63.9258 41.8397 63.9776 41.7188 64.0812 41.6152C64.1848 41.5047 64.3161 41.4494 64.475 41.4494C64.6338 41.4494 64.7651 41.5012 64.8687 41.6048C64.9792 41.7015 65.0345 41.8259 65.0345 41.9778V44.0397C65.1933 43.9292 65.3695 43.8428 65.5629 43.7807C65.7563 43.7185 65.9601 43.6874 66.1742 43.6874C66.782 43.6874 67.2276 43.8532 67.5108 44.1848C67.8009 44.5094 67.9459 44.9308 67.9459 45.4488V48.5572C67.9459 48.7091 67.8907 48.8335 67.7802 48.9302C67.6696 49.0269 67.5384 49.0752 67.3864 49.0752C67.2276 49.0752 67.0929 49.0269 66.9824 48.9302C66.8787 48.8335 66.8269 48.7091 66.8269 48.5572V45.4074C66.8269 45.1587 66.7648 44.9687 66.6404 44.8375C66.5161 44.6994 66.3296 44.6303 66.0809 44.6303C65.9013 44.6303 65.7148 44.6683 65.5214 44.7443C65.3349 44.8202 65.1726 44.9377 65.0345 45.0965V48.5572ZM70.7127 42.2058C70.7058 42.3785 70.6402 42.5235 70.5158 42.6409C70.3915 42.7584 70.2396 42.8171 70.06 42.8171C69.8735 42.8171 69.718 42.7584 69.5937 42.6409C69.4694 42.5166 69.4072 42.3715 69.4072 42.2058C69.4072 42.0331 69.4694 41.888 69.5937 41.7706C69.718 41.6532 69.8735 41.5945 70.06 41.5945C70.2396 41.5945 70.3915 41.6566 70.5158 41.781C70.6471 41.8984 70.7127 42.04 70.7127 42.2058ZM70.6195 48.5572C70.6195 48.7091 70.5642 48.8335 70.4537 48.9302C70.3501 49.0269 70.2188 49.0752 70.06 49.0752C69.9011 49.0752 69.7664 49.0269 69.6559 48.9302C69.5523 48.8335 69.5005 48.7091 69.5005 48.5572V44.2366C69.5005 44.0984 69.5523 43.9775 69.6559 43.8739C69.7664 43.7703 69.9011 43.7185 70.06 43.7185C70.2188 43.7185 70.3501 43.7703 70.4537 43.8739C70.5642 43.9775 70.6195 44.0984 70.6195 44.2366V48.5572ZM73.3169 45.2312V48.5572C73.3169 48.7022 73.2685 48.8265 73.1718 48.9302C73.082 49.0269 72.9439 49.0752 72.7574 49.0752C72.5709 49.0752 72.4293 49.0269 72.3325 48.9302C72.2428 48.8265 72.1979 48.7022 72.1979 48.5572V45.2312C72.1979 45.1138 72.1944 45.024 72.1875 44.9618C72.1806 44.8997 72.1702 44.8513 72.1564 44.8168C72.1426 44.7753 72.1253 44.7443 72.1046 44.7235C72.0908 44.7028 72.077 44.6786 72.0632 44.651C72.0217 44.5888 71.9906 44.537 71.9699 44.4956C71.9492 44.4541 71.9388 44.4023 71.9388 44.3402C71.9388 44.202 71.9872 44.088 72.0839 43.9983C72.1875 43.9085 72.3187 43.8636 72.4776 43.8636C72.671 43.8636 72.8333 43.9637 72.9646 44.164C73.1994 44.0052 73.4377 43.8912 73.6795 43.8221C73.9282 43.7461 74.1665 43.7081 74.3944 43.7081C75.0023 43.7081 75.4547 43.8912 75.7517 44.2573C76.0487 44.6165 76.1973 45.0965 76.1973 45.6975V48.5572C76.1973 48.7022 76.1489 48.8265 76.0522 48.9302C75.9555 49.0269 75.8173 49.0752 75.6378 49.0752C75.4582 49.0752 75.32 49.0269 75.2233 48.9302C75.1266 48.8265 75.0783 48.7022 75.0783 48.5572V45.6975C75.0783 45.3659 75.0057 45.1103 74.8607 44.9308C74.7225 44.7512 74.5222 44.6614 74.2597 44.6614C73.9627 44.6614 73.6381 44.7684 73.2858 44.9826C73.3065 45.0724 73.3169 45.1552 73.3169 45.2312ZM79.2329 43.6874C79.4885 43.6874 79.7268 43.7185 79.9478 43.7807C80.1758 43.8359 80.3968 43.9223 80.611 44.0397C80.7353 43.8394 80.8769 43.6909 81.0358 43.5942C81.2015 43.4975 81.3501 43.4491 81.4813 43.4491C81.6125 43.4491 81.7334 43.4975 81.8439 43.5942C81.9545 43.684 82.0097 43.7979 82.0097 43.9361C82.0097 44.0052 81.9959 44.0639 81.9683 44.1122C81.9406 44.1606 81.913 44.1986 81.8854 44.2262L81.73 44.3816C81.5918 44.5198 81.4951 44.6303 81.4399 44.7132C81.3915 44.7961 81.3708 44.9169 81.3777 45.0758V45.6871C81.3777 45.9565 81.3362 46.2052 81.2534 46.4331C81.1705 46.6611 81.0427 46.8579 80.87 47.0237C80.6973 47.1895 80.4832 47.3207 80.2276 47.4174C79.972 47.5141 79.6715 47.5625 79.3262 47.5625C79.2088 47.5625 79.0879 47.5556 78.9635 47.5418C78.8461 47.5279 78.7356 47.5038 78.632 47.4692C78.5974 47.5452 78.5733 47.6108 78.5595 47.6661C78.5456 47.7214 78.5387 47.7766 78.5387 47.8319C78.5387 47.9907 78.5871 48.0978 78.6838 48.1531C78.7805 48.2014 78.8737 48.2256 78.9635 48.2256H79.3987C79.7164 48.2256 80.01 48.2567 80.2794 48.3188C80.5488 48.381 80.7836 48.4777 80.984 48.609C81.1843 48.7333 81.3397 48.8922 81.4502 49.0856C81.5676 49.279 81.6264 49.5104 81.6264 49.7798C81.6264 50.0492 81.5676 50.2875 81.4502 50.4947C81.3397 50.7088 81.1808 50.8919 80.9736 51.0438C80.7733 51.1958 80.535 51.3098 80.2587 51.3858C79.9824 51.4686 79.6785 51.5101 79.3469 51.5101C79.0292 51.5101 78.739 51.4721 78.4766 51.3961C78.2141 51.3201 77.9861 51.2131 77.7927 51.0749C77.6062 50.9368 77.4612 50.7641 77.3576 50.5569C77.2539 50.3565 77.2021 50.1286 77.2021 49.873C77.2021 49.4379 77.4025 49.0441 77.8031 48.6919C77.7064 48.5537 77.6373 48.4121 77.5959 48.267C77.5613 48.1151 77.5441 47.9804 77.5441 47.863C77.5441 47.7455 77.5682 47.6177 77.6166 47.4796C77.6649 47.3414 77.7547 47.2033 77.886 47.0652C77.4784 46.6991 77.2747 46.2155 77.2747 45.6146C77.2747 45.3383 77.3161 45.0827 77.399 44.8479C77.4819 44.613 77.6062 44.4092 77.772 44.2366C77.9378 44.0639 78.1416 43.9292 78.3833 43.8325C78.632 43.7358 78.9152 43.6874 79.2329 43.6874ZM80.2587 45.3763C80.2587 45.2934 80.2587 45.2105 80.2587 45.1276C80.2587 45.0378 80.2621 44.9515 80.269 44.8686C80.1171 44.7926 79.9686 44.7339 79.8235 44.6924C79.6854 44.6441 79.5369 44.6199 79.378 44.6199C79.0464 44.6199 78.7978 44.7063 78.632 44.8789C78.4731 45.0516 78.3937 45.3038 78.3937 45.6353C78.3937 45.9392 78.4662 46.181 78.6113 46.3606C78.7632 46.5402 79.0084 46.63 79.3469 46.63C79.6577 46.63 79.8857 46.5505 80.0307 46.3917C80.1827 46.2259 80.2587 45.998 80.2587 45.7078V45.3763ZM79.2018 49.1788C79.0913 49.1788 78.9843 49.1754 78.8806 49.1685C78.7839 49.1616 78.6872 49.1546 78.5905 49.1477C78.4109 49.3273 78.3211 49.5346 78.3211 49.7694C78.3211 50.0181 78.4075 50.2115 78.5802 50.3496C78.7529 50.4878 79.0153 50.5569 79.3676 50.5569C79.6992 50.5569 79.972 50.4912 80.1862 50.36C80.4003 50.2357 80.5073 50.0492 80.5073 49.8005C80.5073 49.386 80.1447 49.1788 79.4194 49.1788H79.2018ZM82.624 45.2416C82.624 44.7719 82.7759 44.3954 83.0799 44.1122C83.3907 43.829 83.85 43.6874 84.4579 43.6874C84.6099 43.6874 84.7722 43.6978 84.9449 43.7185C85.1245 43.7392 85.2868 43.7807 85.4318 43.8428C85.5838 43.8981 85.7081 43.9741 85.8048 44.0708C85.9015 44.1675 85.9499 44.2918 85.9499 44.4438C85.9499 44.5819 85.9085 44.689 85.8256 44.765C85.7427 44.834 85.6322 44.8686 85.494 44.8686C85.4111 44.8686 85.3351 44.8582 85.2661 44.8375C85.2039 44.8099 85.1348 44.7822 85.0588 44.7546C84.9829 44.727 84.8965 44.7028 84.7998 44.6821C84.71 44.6545 84.596 44.6406 84.4579 44.6406C84.3957 44.6406 84.3197 44.6475 84.2299 44.6614C84.1471 44.6683 84.0676 44.689 83.9916 44.7235C83.9157 44.7581 83.85 44.8099 83.7948 44.8789C83.7464 44.9411 83.7222 45.0275 83.7222 45.138C83.7222 45.3038 83.781 45.4384 83.8984 45.5421C84.0227 45.6388 84.1712 45.7251 84.3439 45.8011C84.5235 45.8702 84.7169 45.9427 84.9241 46.0187C85.1383 46.0877 85.3317 46.181 85.5044 46.2984C85.684 46.4159 85.8325 46.5713 85.9499 46.7647C86.0742 46.9512 86.1364 47.1998 86.1364 47.5107C86.1364 47.9942 85.9775 48.3776 85.6598 48.6608C85.342 48.9371 84.8723 49.0752 84.2507 49.0752C84.1056 49.0752 83.9329 49.0649 83.7326 49.0441C83.5392 49.0234 83.3562 48.9889 83.1835 48.9405C83.0108 48.8853 82.8623 48.8162 82.7379 48.7333C82.6205 48.6435 82.5618 48.5295 82.5618 48.3914C82.5618 48.343 82.5687 48.2843 82.5825 48.2152C82.6032 48.1462 82.6343 48.084 82.6758 48.0287C82.7241 47.9735 82.7863 47.932 82.8623 47.9044C82.9383 47.8699 83.0315 47.8664 83.142 47.894C83.2387 47.9148 83.3838 47.9597 83.5772 48.0287C83.7775 48.0978 83.9882 48.1323 84.2092 48.1323C84.4441 48.1323 84.6409 48.0805 84.7998 47.9769C84.9587 47.8664 85.0381 47.7179 85.0381 47.5314C85.0381 47.3656 84.9759 47.2378 84.8516 47.148C84.7342 47.0582 84.5857 46.9788 84.4061 46.9097C84.2334 46.8407 84.04 46.775 83.8259 46.7129C83.6186 46.6438 83.4252 46.5505 83.2456 46.4331C83.073 46.3157 82.9244 46.1637 82.8001 45.9772C82.6827 45.7907 82.624 45.5455 82.624 45.2416ZM90.3945 46.8786V42.7031C90.3945 42.5581 90.4428 42.4372 90.5395 42.3405C90.6362 42.2369 90.7744 42.185 90.954 42.185C91.1336 42.185 91.2717 42.2369 91.3684 42.3405C91.4651 42.4441 91.5135 42.565 91.5135 42.7031V43.9879H92.4356C92.5807 43.9879 92.705 44.0362 92.8086 44.1329C92.9122 44.2296 92.964 44.3505 92.964 44.4956C92.964 44.6337 92.9122 44.7512 92.8086 44.8479C92.705 44.9446 92.5807 44.9929 92.4356 44.9929H91.5135V46.8061C91.5135 47.0341 91.5204 47.2275 91.5342 47.3863C91.548 47.5452 91.5791 47.673 91.6274 47.7697C91.6827 47.8664 91.7552 47.9389 91.845 47.9873C91.9417 48.0287 92.0661 48.0495 92.218 48.0495C92.2526 48.0495 92.2871 48.0495 92.3216 48.0495C92.3562 48.0426 92.3838 48.0391 92.4045 48.0391C92.6256 48.0391 92.7948 48.0736 92.9122 48.1427C93.0365 48.2049 93.0987 48.3258 93.0987 48.5054C93.0987 48.6228 93.0745 48.7195 93.0262 48.7955C92.9847 48.8645 92.926 48.9198 92.85 48.9612C92.7741 48.9958 92.6877 49.0165 92.591 49.0234C92.5012 49.0372 92.4045 49.0441 92.3009 49.0441C91.921 49.0441 91.6067 48.9992 91.358 48.9094C91.1163 48.8127 90.9229 48.6746 90.7778 48.495C90.6328 48.3154 90.5326 48.0909 90.4773 47.8215C90.4221 47.5452 90.3945 47.2309 90.3945 46.8786ZM95.0519 48.5572C95.0519 48.7091 95.0001 48.8335 94.8965 48.9302C94.7929 49.0269 94.6616 49.0752 94.5028 49.0752C94.3439 49.0752 94.2092 49.0269 94.0987 48.9302C93.9951 48.8335 93.9432 48.7091 93.9432 48.5572V41.9778C93.9432 41.8397 93.9951 41.7188 94.0987 41.6152C94.2023 41.5047 94.3335 41.4494 94.4924 41.4494C94.6513 41.4494 94.7825 41.5012 94.8861 41.6048C94.9966 41.7015 95.0519 41.8259 95.0519 41.9778V44.0397C95.2108 43.9292 95.3869 43.8428 95.5803 43.7807C95.7737 43.7185 95.9775 43.6874 96.1916 43.6874C96.7995 43.6874 97.245 43.8532 97.5282 44.1848C97.8183 44.5094 97.9634 44.9308 97.9634 45.4488V48.5572C97.9634 48.7091 97.9081 48.8335 97.7976 48.9302C97.6871 49.0269 97.5558 49.0752 97.4039 49.0752C97.245 49.0752 97.1103 49.0269 96.9998 48.9302C96.8962 48.8335 96.8444 48.7091 96.8444 48.5572V45.4074C96.8444 45.1587 96.7822 44.9687 96.6579 44.8375C96.5335 44.6994 96.347 44.6303 96.0984 44.6303C95.9188 44.6303 95.7323 44.6683 95.5389 44.7443C95.3524 44.8202 95.19 44.9377 95.0519 45.0965V48.5572ZM101.994 46.0083V45.5524C101.994 44.9446 101.676 44.6406 101.041 44.6406C100.903 44.6406 100.789 44.6545 100.699 44.6821C100.609 44.7097 100.519 44.7408 100.43 44.7753L100.233 44.8582C100.164 44.8928 100.074 44.91 99.9634 44.91C99.8115 44.91 99.7009 44.8617 99.6319 44.765C99.5697 44.6683 99.5386 44.5647 99.5386 44.4541C99.5386 44.316 99.5835 44.1986 99.6733 44.1019C99.77 44.0052 99.8909 43.9257 100.036 43.8636C100.188 43.8014 100.361 43.7565 100.554 43.7289C100.747 43.7012 100.944 43.6874 101.145 43.6874C101.849 43.6874 102.353 43.867 102.657 44.2262C102.961 44.5854 103.113 45.1103 103.113 45.8011V47.9044C103.113 48.0356 103.137 48.122 103.186 48.1634C103.234 48.198 103.296 48.2221 103.372 48.236C103.579 48.2774 103.683 48.4017 103.683 48.609C103.683 48.8991 103.479 49.0441 103.072 49.0441C102.713 49.0441 102.436 48.8887 102.243 48.5779C101.863 48.9094 101.393 49.0752 100.834 49.0752C100.267 49.0752 99.8391 48.9302 99.549 48.64C99.2658 48.3499 99.1242 47.9631 99.1242 47.4796V47.4485C99.1242 46.4055 99.77 45.884 101.062 45.884C101.386 45.884 101.697 45.9254 101.994 46.0083ZM101.093 46.7336C100.913 46.7336 100.765 46.7543 100.647 46.7958C100.537 46.8303 100.45 46.8821 100.388 46.9512C100.326 47.0133 100.285 47.0893 100.264 47.1791C100.243 47.2689 100.233 47.3622 100.233 47.4589V47.49C100.233 47.6972 100.288 47.8595 100.399 47.9769C100.516 48.0875 100.72 48.1427 101.01 48.1427C101.189 48.1427 101.359 48.1151 101.518 48.0598C101.676 48.0046 101.835 47.9113 101.994 47.7801V46.8476C101.842 46.813 101.687 46.7854 101.528 46.7647C101.369 46.744 101.224 46.7336 101.093 46.7336ZM104.498 46.8786V42.7031C104.498 42.5581 104.546 42.4372 104.643 42.3405C104.74 42.2369 104.878 42.185 105.057 42.185C105.237 42.185 105.375 42.2369 105.472 42.3405C105.569 42.4441 105.617 42.565 105.617 42.7031V43.9879H106.539C106.684 43.9879 106.808 44.0362 106.912 44.1329C107.016 44.2296 107.067 44.3505 107.067 44.4956C107.067 44.6337 107.016 44.7512 106.912 44.8479C106.808 44.9446 106.684 44.9929 106.539 44.9929H105.617V46.8061C105.617 47.0341 105.624 47.2275 105.638 47.3863C105.651 47.5452 105.683 47.673 105.731 47.7697C105.786 47.8664 105.859 47.9389 105.948 47.9873C106.045 48.0287 106.169 48.0495 106.321 48.0495C106.356 48.0495 106.391 48.0495 106.425 48.0495C106.46 48.0426 106.487 48.0391 106.508 48.0391C106.729 48.0391 106.898 48.0736 107.016 48.1427C107.14 48.2049 107.202 48.3258 107.202 48.5054C107.202 48.6228 107.178 48.7195 107.13 48.7955C107.088 48.8645 107.029 48.9198 106.953 48.9612C106.878 48.9958 106.791 49.0165 106.694 49.0234C106.605 49.0372 106.508 49.0441 106.404 49.0441C106.024 49.0441 105.71 48.9992 105.461 48.9094C105.22 48.8127 105.026 48.6746 104.881 48.495C104.736 48.3154 104.636 48.0909 104.581 47.8215C104.526 47.5452 104.498 47.2309 104.498 46.8786ZM116.879 48.5572V45.511C116.879 45.2761 116.814 45.0793 116.683 44.9204C116.551 44.7546 116.358 44.6717 116.102 44.6717C115.923 44.6717 115.747 44.7132 115.574 44.7961C115.408 44.8789 115.256 44.9895 115.118 45.1276C115.132 45.1829 115.142 45.2416 115.149 45.3038C115.156 45.3659 115.16 45.4281 115.16 45.4903V48.5572C115.16 48.7022 115.111 48.8265 115.014 48.9302C114.925 49.0269 114.787 49.0752 114.6 49.0752C114.414 49.0752 114.272 49.0269 114.175 48.9302C114.085 48.8265 114.041 48.7022 114.041 48.5572V45.7182C114.041 45.5662 114.03 45.4281 114.009 45.3038C113.996 45.1725 113.961 45.062 113.906 44.9722C113.857 44.8755 113.788 44.803 113.699 44.7546C113.609 44.6994 113.488 44.6717 113.336 44.6717C113.156 44.6717 112.977 44.7063 112.797 44.7753C112.618 44.8375 112.452 44.9169 112.3 45.0136C112.307 45.0482 112.31 45.0862 112.31 45.1276C112.317 45.1622 112.321 45.1967 112.321 45.2312V48.5572C112.321 48.7022 112.272 48.8265 112.176 48.9302C112.086 49.0269 111.948 49.0752 111.761 49.0752C111.575 49.0752 111.433 49.0269 111.336 48.9302C111.246 48.8265 111.202 48.7022 111.202 48.5572V45.2312C111.202 45.1138 111.198 45.024 111.191 44.9618C111.184 44.8997 111.174 44.8513 111.16 44.8168C111.146 44.7753 111.129 44.7443 111.108 44.7235C111.095 44.7028 111.081 44.6786 111.067 44.651C111.025 44.5888 110.994 44.537 110.974 44.4956C110.953 44.4541 110.943 44.4058 110.943 44.3505C110.943 44.2055 110.994 44.088 111.098 43.9983C111.202 43.9085 111.326 43.8636 111.471 43.8636C111.575 43.8636 111.664 43.8912 111.74 43.9464C111.823 43.9948 111.892 44.0604 111.948 44.1433C112.182 43.9983 112.421 43.8877 112.663 43.8117C112.911 43.7289 113.16 43.6874 113.409 43.6874C113.657 43.6874 113.878 43.7289 114.072 43.8117C114.272 43.8946 114.452 44.0155 114.61 44.1744C114.859 44.0155 115.104 43.8946 115.346 43.8117C115.588 43.7289 115.854 43.6874 116.144 43.6874C116.731 43.6874 117.187 43.8532 117.512 44.1848C117.836 44.5163 117.998 44.9515 117.998 45.4903V48.5572C117.998 48.7022 117.95 48.8265 117.853 48.9302C117.764 49.0269 117.625 49.0752 117.439 49.0752C117.252 49.0752 117.111 49.0269 117.014 48.9302C116.924 48.8265 116.879 48.7022 116.879 48.5572ZM122.024 46.0083V45.5524C122.024 44.9446 121.706 44.6406 121.071 44.6406C120.933 44.6406 120.819 44.6545 120.729 44.6821C120.639 44.7097 120.549 44.7408 120.46 44.7753L120.263 44.8582C120.194 44.8928 120.104 44.91 119.993 44.91C119.841 44.91 119.731 44.8617 119.662 44.765C119.6 44.6683 119.569 44.5647 119.569 44.4541C119.569 44.316 119.614 44.1986 119.703 44.1019C119.8 44.0052 119.921 43.9257 120.066 43.8636C120.218 43.8014 120.391 43.7565 120.584 43.7289C120.777 43.7012 120.974 43.6874 121.175 43.6874C121.879 43.6874 122.383 43.867 122.687 44.2262C122.991 44.5854 123.143 45.1103 123.143 45.8011V47.9044C123.143 48.0356 123.167 48.122 123.216 48.1634C123.264 48.198 123.326 48.2221 123.402 48.236C123.609 48.2774 123.713 48.4017 123.713 48.609C123.713 48.8991 123.509 49.0441 123.102 49.0441C122.743 49.0441 122.466 48.8887 122.273 48.5779C121.893 48.9094 121.423 49.0752 120.864 49.0752C120.297 49.0752 119.869 48.9302 119.579 48.64C119.296 48.3499 119.154 47.9631 119.154 47.4796V47.4485C119.154 46.4055 119.8 45.884 121.092 45.884C121.416 45.884 121.727 45.9254 122.024 46.0083ZM121.123 46.7336C120.943 46.7336 120.795 46.7543 120.677 46.7958C120.567 46.8303 120.48 46.8821 120.418 46.9512C120.356 47.0133 120.315 47.0893 120.294 47.1791C120.273 47.2689 120.263 47.3622 120.263 47.4589V47.49C120.263 47.6972 120.318 47.8595 120.429 47.9769C120.546 48.0875 120.75 48.1427 121.04 48.1427C121.22 48.1427 121.389 48.1151 121.548 48.0598C121.706 48.0046 121.865 47.9113 122.024 47.7801V46.8476C121.872 46.813 121.717 46.7854 121.558 46.7647C121.399 46.744 121.254 46.7336 121.123 46.7336ZM125.792 42.0296V45.6042L127.284 44.019C127.353 43.943 127.429 43.8774 127.512 43.8221C127.595 43.7599 127.695 43.7289 127.812 43.7289C127.964 43.7289 128.092 43.7772 128.196 43.8739C128.299 43.9637 128.351 44.0777 128.351 44.2158C128.351 44.354 128.303 44.4714 128.206 44.5681L126.807 46.0187C127.084 46.4055 127.357 46.7889 127.626 47.1688C127.902 47.5487 128.175 47.932 128.444 48.3188C128.479 48.3603 128.503 48.4121 128.517 48.4743C128.531 48.5295 128.538 48.5813 128.538 48.6297C128.524 48.7678 128.465 48.8784 128.362 48.9612C128.265 49.0372 128.144 49.0752 127.999 49.0752C127.84 49.0752 127.726 49.0441 127.657 48.982C127.595 48.9129 127.508 48.7989 127.398 48.64L126.03 46.6714C125.989 46.706 125.947 46.7474 125.906 46.7958C125.871 46.8372 125.833 46.8752 125.792 46.9097V48.3292C125.792 48.5226 125.754 48.6953 125.678 48.8473C125.602 48.9992 125.454 49.0752 125.232 49.0752C125.074 49.0752 124.939 49.0269 124.828 48.9302C124.725 48.8335 124.673 48.7091 124.673 48.5572V42.2887C124.673 42.0883 124.708 41.9088 124.777 41.7499C124.846 41.591 124.998 41.5116 125.232 41.5116C125.391 41.5116 125.523 41.5634 125.626 41.667C125.737 41.7637 125.792 41.8846 125.792 42.0296ZM131.227 46.9615C131.082 46.9615 130.934 46.9581 130.782 46.9512C130.63 46.9374 130.471 46.9166 130.305 46.889V47.3656C130.305 47.6005 130.385 47.787 130.543 47.9251C130.702 48.0633 130.947 48.1323 131.279 48.1323C131.472 48.1323 131.645 48.1082 131.797 48.0598C131.949 48.0115 132.111 47.9493 132.284 47.8733C132.298 47.8595 132.322 47.8491 132.357 47.8422C132.398 47.8284 132.45 47.8215 132.512 47.8215C132.692 47.8215 132.819 47.8733 132.895 47.9769C132.978 48.0805 133.02 48.1842 133.02 48.2878C133.02 48.4397 132.951 48.5675 132.812 48.6711C132.681 48.7747 132.519 48.8576 132.326 48.9198C132.139 48.982 131.939 49.0234 131.725 49.0441C131.517 49.0718 131.338 49.0856 131.186 49.0856C130.868 49.0856 130.585 49.0407 130.336 48.9509C130.087 48.8611 129.877 48.7367 129.704 48.5779C129.538 48.419 129.411 48.2325 129.321 48.0184C129.231 47.7973 129.186 47.5625 129.186 47.3138V45.4799C129.186 45.2243 129.231 44.9895 129.321 44.7753C129.411 44.5543 129.542 44.3643 129.714 44.2055C129.887 44.0397 130.101 43.9119 130.357 43.8221C130.612 43.7323 130.906 43.6874 131.238 43.6874C131.866 43.6874 132.336 43.8463 132.647 44.164C132.958 44.4749 133.113 44.8893 133.113 45.4074C133.113 45.8978 132.964 46.2812 132.667 46.5575C132.37 46.8268 131.89 46.9615 131.227 46.9615ZM132.004 45.3763C132.004 45.1 131.935 44.9031 131.797 44.7857C131.666 44.6683 131.472 44.6096 131.217 44.6096C130.927 44.6096 130.702 44.6821 130.543 44.8271C130.385 44.9722 130.305 45.1691 130.305 45.4177V46.029C130.485 46.0498 130.661 46.067 130.834 46.0808C131.013 46.0877 131.141 46.0912 131.217 46.0912C131.514 46.0912 131.718 46.029 131.828 45.9047C131.946 45.7735 132.004 45.5973 132.004 45.3763ZM137.124 45.2416C137.124 44.7719 137.276 44.3954 137.58 44.1122C137.891 43.829 138.35 43.6874 138.958 43.6874C139.11 43.6874 139.272 43.6978 139.445 43.7185C139.625 43.7392 139.787 43.7807 139.932 43.8428C140.084 43.8981 140.208 43.9741 140.305 44.0708C140.402 44.1675 140.45 44.2918 140.45 44.4438C140.45 44.5819 140.409 44.689 140.326 44.765C140.243 44.834 140.132 44.8686 139.994 44.8686C139.911 44.8686 139.835 44.8582 139.766 44.8375C139.704 44.8099 139.635 44.7822 139.559 44.7546C139.483 44.727 139.397 44.7028 139.3 44.6821C139.21 44.6545 139.096 44.6406 138.958 44.6406C138.896 44.6406 138.82 44.6475 138.73 44.6614C138.647 44.6683 138.568 44.689 138.492 44.7235C138.416 44.7581 138.35 44.8099 138.295 44.8789C138.247 44.9411 138.222 45.0275 138.222 45.138C138.222 45.3038 138.281 45.4384 138.399 45.5421C138.523 45.6388 138.671 45.7251 138.844 45.8011C139.024 45.8702 139.217 45.9427 139.424 46.0187C139.639 46.0877 139.832 46.181 140.005 46.2984C140.184 46.4159 140.333 46.5713 140.45 46.7647C140.574 46.9512 140.637 47.1998 140.637 47.5107C140.637 47.9942 140.478 48.3776 140.16 48.6608C139.842 48.9371 139.373 49.0752 138.751 49.0752C138.606 49.0752 138.433 49.0649 138.233 49.0441C138.039 49.0234 137.856 48.9889 137.684 48.9405C137.511 48.8853 137.363 48.8162 137.238 48.7333C137.121 48.6435 137.062 48.5295 137.062 48.3914C137.062 48.343 137.069 48.2843 137.083 48.2152C137.103 48.1462 137.135 48.084 137.176 48.0287C137.224 47.9735 137.287 47.932 137.363 47.9044C137.438 47.8699 137.532 47.8664 137.642 47.894C137.739 47.9148 137.884 47.9597 138.077 48.0287C138.278 48.0978 138.488 48.1323 138.709 48.1323C138.944 48.1323 139.141 48.0805 139.3 47.9769C139.459 47.8664 139.538 47.7179 139.538 47.5314C139.538 47.3656 139.476 47.2378 139.352 47.148C139.234 47.0582 139.086 46.9788 138.906 46.9097C138.734 46.8407 138.54 46.775 138.326 46.7129C138.119 46.6438 137.925 46.5505 137.746 46.4331C137.573 46.3157 137.425 46.1637 137.3 45.9772C137.183 45.7907 137.124 45.5455 137.124 45.2416ZM143.563 46.9615C143.418 46.9615 143.27 46.9581 143.118 46.9512C142.966 46.9374 142.807 46.9166 142.641 46.889V47.3656C142.641 47.6005 142.721 47.787 142.88 47.9251C143.038 48.0633 143.284 48.1323 143.615 48.1323C143.809 48.1323 143.981 48.1082 144.133 48.0598C144.285 48.0115 144.448 47.9493 144.62 47.8733C144.634 47.8595 144.658 47.8491 144.693 47.8422C144.734 47.8284 144.786 47.8215 144.848 47.8215C145.028 47.8215 145.156 47.8733 145.231 47.9769C145.314 48.0805 145.356 48.1842 145.356 48.2878C145.356 48.4397 145.287 48.5675 145.149 48.6711C145.017 48.7747 144.855 48.8576 144.662 48.9198C144.475 48.982 144.275 49.0234 144.061 49.0441C143.853 49.0718 143.674 49.0856 143.522 49.0856C143.204 49.0856 142.921 49.0407 142.672 48.9509C142.424 48.8611 142.213 48.7367 142.04 48.5779C141.874 48.419 141.747 48.2325 141.657 48.0184C141.567 47.7973 141.522 47.5625 141.522 47.3138V45.4799C141.522 45.2243 141.567 44.9895 141.657 44.7753C141.747 44.5543 141.878 44.3643 142.051 44.2055C142.223 44.0397 142.437 43.9119 142.693 43.8221C142.949 43.7323 143.242 43.6874 143.574 43.6874C144.202 43.6874 144.672 43.8463 144.983 44.164C145.294 44.4749 145.449 44.8893 145.449 45.4074C145.449 45.8978 145.301 46.2812 145.004 46.5575C144.707 46.8268 144.226 46.9615 143.563 46.9615ZM144.34 45.3763C144.34 45.1 144.271 44.9031 144.133 44.7857C144.002 44.6683 143.809 44.6096 143.553 44.6096C143.263 44.6096 143.038 44.6821 142.88 44.8271C142.721 44.9722 142.641 45.1691 142.641 45.4177V46.029C142.821 46.0498 142.997 46.067 143.17 46.0808C143.349 46.0877 143.477 46.0912 143.553 46.0912C143.85 46.0912 144.054 46.029 144.164 45.9047C144.282 45.7735 144.34 45.5973 144.34 45.3763ZM147.704 45.2312V48.5572C147.704 48.7022 147.656 48.8265 147.559 48.9302C147.469 49.0269 147.331 49.0752 147.145 49.0752C146.958 49.0752 146.817 49.0269 146.72 48.9302C146.63 48.8265 146.585 48.7022 146.585 48.5572V45.2312C146.585 45.1138 146.582 45.024 146.575 44.9618C146.568 44.8997 146.558 44.8513 146.544 44.8168C146.53 44.7753 146.513 44.7443 146.492 44.7235C146.478 44.7028 146.464 44.6786 146.45 44.651C146.409 44.5888 146.378 44.537 146.357 44.4956C146.337 44.4541 146.326 44.4023 146.326 44.3402C146.326 44.202 146.375 44.088 146.471 43.9983C146.575 43.9085 146.706 43.8636 146.865 43.8636C147.058 43.8636 147.221 43.9637 147.352 44.164C147.587 44.0052 147.825 43.8912 148.067 43.8221C148.315 43.7461 148.554 43.7081 148.782 43.7081C149.39 43.7081 149.842 43.8912 150.139 44.2573C150.436 44.6165 150.585 45.0965 150.585 45.6975V48.5572C150.585 48.7022 150.536 48.8265 150.44 48.9302C150.343 49.0269 150.205 49.0752 150.025 49.0752C149.845 49.0752 149.707 49.0269 149.611 48.9302C149.514 48.8265 149.466 48.7022 149.466 48.5572V45.6975C149.466 45.3659 149.393 45.1103 149.248 44.9308C149.11 44.7512 148.91 44.6614 148.647 44.6614C148.35 44.6614 148.025 44.7684 147.673 44.9826C147.694 45.0724 147.704 45.1552 147.704 45.2312ZM151.838 45.2416C151.838 44.7719 151.99 44.3954 152.294 44.1122C152.605 43.829 153.064 43.6874 153.672 43.6874C153.824 43.6874 153.986 43.6978 154.159 43.7185C154.339 43.7392 154.501 43.7807 154.646 43.8428C154.798 43.8981 154.922 43.9741 155.019 44.0708C155.116 44.1675 155.164 44.2918 155.164 44.4438C155.164 44.5819 155.123 44.689 155.04 44.765C154.957 44.834 154.846 44.8686 154.708 44.8686C154.625 44.8686 154.549 44.8582 154.48 44.8375C154.418 44.8099 154.349 44.7822 154.273 44.7546C154.197 44.727 154.111 44.7028 154.014 44.6821C153.924 44.6545 153.81 44.6406 153.672 44.6406C153.61 44.6406 153.534 44.6475 153.444 44.6614C153.361 44.6683 153.282 44.689 153.206 44.7235C153.13 44.7581 153.064 44.8099 153.009 44.8789C152.961 44.9411 152.936 45.0275 152.936 45.138C152.936 45.3038 152.995 45.4384 153.113 45.5421C153.237 45.6388 153.385 45.7251 153.558 45.8011C153.738 45.8702 153.931 45.9427 154.138 46.0187C154.352 46.0877 154.546 46.181 154.719 46.2984C154.898 46.4159 155.047 46.5713 155.164 46.7647C155.288 46.9512 155.351 47.1998 155.351 47.5107C155.351 47.9942 155.192 48.3776 154.874 48.6608C154.556 48.9371 154.087 49.0752 153.465 49.0752C153.32 49.0752 153.147 49.0649 152.947 49.0441C152.753 49.0234 152.57 48.9889 152.398 48.9405C152.225 48.8853 152.076 48.8162 151.952 48.7333C151.835 48.6435 151.776 48.5295 151.776 48.3914C151.776 48.343 151.783 48.2843 151.797 48.2152C151.817 48.1462 151.849 48.084 151.89 48.0287C151.938 47.9735 152 47.932 152.076 47.9044C152.152 47.8699 152.246 47.8664 152.356 47.894C152.453 47.9148 152.598 47.9597 152.791 48.0287C152.992 48.0978 153.202 48.1323 153.423 48.1323C153.658 48.1323 153.855 48.0805 154.014 47.9769C154.173 47.8664 154.252 47.7179 154.252 47.5314C154.252 47.3656 154.19 47.2378 154.066 47.148C153.948 47.0582 153.8 46.9788 153.62 46.9097C153.448 46.8407 153.254 46.775 153.04 46.7129C152.833 46.6438 152.639 46.5505 152.46 46.4331C152.287 46.3157 152.139 46.1637 152.014 45.9772C151.897 45.7907 151.838 45.5455 151.838 45.2416ZM158.277 46.9615C158.132 46.9615 157.984 46.9581 157.832 46.9512C157.68 46.9374 157.521 46.9166 157.355 46.889V47.3656C157.355 47.6005 157.435 47.787 157.593 47.9251C157.752 48.0633 157.998 48.1323 158.329 48.1323C158.523 48.1323 158.695 48.1082 158.847 48.0598C158.999 48.0115 159.161 47.9493 159.334 47.8733C159.348 47.8595 159.372 47.8491 159.407 47.8422C159.448 47.8284 159.5 47.8215 159.562 47.8215C159.742 47.8215 159.869 47.8733 159.945 47.9769C160.028 48.0805 160.07 48.1842 160.07 48.2878C160.07 48.4397 160.001 48.5675 159.863 48.6711C159.731 48.7747 159.569 48.8576 159.376 48.9198C159.189 48.982 158.989 49.0234 158.775 49.0441C158.567 49.0718 158.388 49.0856 158.236 49.0856C157.918 49.0856 157.635 49.0407 157.386 48.9509C157.138 48.8611 156.927 48.7367 156.754 48.5779C156.588 48.419 156.461 48.2325 156.371 48.0184C156.281 47.7973 156.236 47.5625 156.236 47.3138V45.4799C156.236 45.2243 156.281 44.9895 156.371 44.7753C156.461 44.5543 156.592 44.3643 156.765 44.2055C156.937 44.0397 157.151 43.9119 157.407 43.8221C157.663 43.7323 157.956 43.6874 158.288 43.6874C158.916 43.6874 159.386 43.8463 159.697 44.164C160.008 44.4749 160.163 44.8893 160.163 45.4074C160.163 45.8978 160.015 46.2812 159.717 46.5575C159.42 46.8268 158.94 46.9615 158.277 46.9615ZM159.054 45.3763C159.054 45.1 158.985 44.9031 158.847 44.7857C158.716 44.6683 158.523 44.6096 158.267 44.6096C157.977 44.6096 157.752 44.6821 157.593 44.8271C157.435 44.9722 157.355 45.1691 157.355 45.4177V46.029C157.535 46.0498 157.711 46.067 157.884 46.0808C158.063 46.0877 158.191 46.0912 158.267 46.0912C158.564 46.0912 158.768 46.029 158.878 45.9047C158.996 45.7735 159.054 45.5973 159.054 45.3763Z" fill="#211300"/>
<path id="S" d="M73.5669 28.0212C73.5669 27.0236 73.3615 26.3194 72.9507 25.9086C72.5692 25.4978 72.1731 25.2044 71.7623 25.0283C71.2928 24.8229 70.7793 24.6322 70.2218 24.4561C69.6937 24.2507 69.1362 24.0453 68.5493 23.8399C67.4637 23.5172 66.378 23.1651 65.2923 22.7836C64.236 22.3728 63.2824 21.8446 62.4314 21.1991C61.5805 20.5242 60.891 19.6733 60.3628 18.6463C59.8346 17.59 59.5705 16.2696 59.5705 14.6851C59.5705 11.8389 60.4802 9.60887 62.2994 7.99504C64.148 6.3812 66.6421 5.57429 69.7817 5.57429C70.4272 5.57429 71.2488 5.63297 72.2465 5.75034C73.2441 5.83837 74.2124 6.0291 75.1514 6.32252C76.1197 6.61594 76.9412 7.02674 77.6161 7.5549C78.291 8.05372 78.6284 8.71393 78.6284 9.53551C78.6284 10.2691 78.3497 10.9146 77.7922 11.4721C77.264 12.0296 76.5158 12.3084 75.5475 12.3084C75.1367 12.3084 74.7699 12.2644 74.4471 12.1763C74.1244 12.059 73.7723 11.9416 73.3908 11.8242C72.98 11.6775 72.5105 11.5308 71.9824 11.3841C71.4542 11.2374 70.8087 11.164 70.0458 11.164C69.5176 11.164 68.9895 11.2227 68.4613 11.3401C67.9625 11.4281 67.5223 11.6042 67.1409 11.8682C66.7594 12.1323 66.4513 12.4844 66.2166 12.9246C65.9819 13.3354 65.8645 13.8635 65.8645 14.509C65.8645 15.4773 66.0699 16.1669 66.4807 16.5777C66.9208 16.9885 67.3316 17.2819 67.7131 17.458C68.2999 17.7514 68.8427 17.9861 69.3416 18.1622C69.8697 18.3382 70.3832 18.4996 70.882 18.6463C71.9677 18.9984 73.0387 19.3799 74.095 19.7907C75.1807 20.1721 76.149 20.7003 76.9999 21.3752C77.8802 22.0207 78.5844 22.857 79.1126 23.8839C79.6407 24.9109 79.9048 26.202 79.9048 27.7571C79.9048 29.2829 79.6261 30.6474 79.0686 31.8504C78.5111 33.0534 77.7482 34.0658 76.7799 34.8873C75.8116 35.7089 74.6525 36.3398 73.3028 36.7799C71.9824 37.1907 70.5299 37.3961 68.9454 37.3961C68.1239 37.3961 67.1702 37.3228 66.0846 37.1761C64.9989 37.0293 63.9719 36.7946 63.0036 36.4718C62.0353 36.1197 61.2137 35.6796 60.5388 35.1514C59.864 34.5939 59.5265 33.9337 59.5265 33.1708C59.5265 32.4666 59.8053 31.8357 60.3628 31.2782C60.9203 30.6914 61.6098 30.398 62.4314 30.398C62.7542 30.398 63.0916 30.4566 63.4437 30.574C63.8252 30.662 64.2213 30.7794 64.6321 30.9261C65.1603 31.1022 65.7765 31.2929 66.4807 31.4983C67.2142 31.7037 68.0505 31.8064 68.9895 31.8064C70.5153 31.8064 71.6596 31.4836 72.4225 30.8381C73.1854 30.1926 73.5669 29.2536 73.5669 28.0212Z" fill="#1A2730"/>
<path id="ense" d="M92.2084 29.5782C91.6903 29.5782 91.1981 29.5653 90.7318 29.5394C90.2914 29.4876 89.7863 29.4228 89.2164 29.3451V30.6274C89.2164 31.3009 89.4625 31.832 89.9547 32.2205C90.4728 32.6091 91.2629 32.8034 92.325 32.8034C92.9467 32.8034 93.5296 32.7386 94.0736 32.6091C94.6176 32.4537 95.2004 32.2335 95.8221 31.9485C95.8999 31.8967 96.0294 31.8449 96.2107 31.7931C96.3921 31.7413 96.6511 31.7154 96.9879 31.7154C97.4542 31.7154 97.8427 31.7931 98.1536 31.9485C98.4645 32.0781 98.7106 32.2464 98.8919 32.4537C99.0732 32.6609 99.2027 32.8941 99.2805 33.1531C99.3582 33.3863 99.397 33.6194 99.397 33.8525C99.397 34.5261 99.125 35.083 98.581 35.5234C98.037 35.9638 97.3764 36.3135 96.5993 36.5726C95.8221 36.8316 95.0061 37.013 94.1513 37.1166C93.2964 37.2202 92.5581 37.272 91.9364 37.272C90.6671 37.272 89.5272 37.1036 88.5169 36.7669C87.5067 36.4042 86.6518 35.9249 85.9524 35.3291C85.2788 34.7074 84.7607 33.9821 84.3981 33.1531C84.0354 32.3242 83.8541 31.4304 83.8541 30.4719V23.9828C83.8541 22.9984 84.0224 22.0917 84.3592 21.2627C84.7219 20.4079 85.2529 19.6696 85.9524 19.0479C86.6518 18.4261 87.5196 17.9469 88.5558 17.6101C89.592 17.2475 90.7836 17.0661 92.1307 17.0661C94.6953 17.0661 96.5993 17.6749 97.8427 18.8924C99.1121 20.11 99.7468 21.7031 99.7468 23.6719C99.7468 25.5371 99.1509 26.9877 97.9593 28.0239C96.7677 29.0601 94.8507 29.5782 92.2084 29.5782ZM94.4233 23.3999C94.4233 22.6227 94.216 22.0658 93.8016 21.729C93.413 21.3923 92.8431 21.2239 92.0918 21.2239C91.1593 21.2239 90.4469 21.457 89.9547 21.9233C89.4625 22.3637 89.2164 22.9725 89.2164 23.7496V25.4205C89.8381 25.4723 90.408 25.5111 90.9261 25.5371C91.4442 25.563 91.8069 25.5759 92.0141 25.5759C92.7654 25.5759 93.3482 25.4205 93.7627 25.1096C94.2031 24.7988 94.4233 24.2289 94.4233 23.3999ZM108.94 23.1279V34.8628C108.94 35.5364 108.72 36.1063 108.279 36.5726C107.839 37.013 107.165 37.2331 106.259 37.2331C105.352 37.2331 104.678 37.013 104.238 36.5726C103.798 36.1063 103.577 35.5364 103.577 34.8628V23.089C103.577 22.4414 103.539 22.0399 103.461 21.8845C103.409 21.729 103.344 21.5865 103.267 21.457C102.982 21.0944 102.8 20.8223 102.723 20.641C102.645 20.4338 102.606 20.2006 102.606 19.9416C102.606 19.294 102.852 18.7629 103.344 18.3484C103.836 17.908 104.458 17.6878 105.209 17.6878C105.987 17.6878 106.673 18.0635 107.269 18.8147C108.15 18.2189 109.03 17.7915 109.911 17.5324C110.792 17.2734 111.621 17.1438 112.398 17.1438C114.859 17.1438 116.698 17.8433 117.916 19.2421C119.133 20.6151 119.742 22.4414 119.742 24.721V34.8628C119.742 35.5364 119.509 36.1063 119.043 36.5726C118.576 37.013 117.916 37.2331 117.061 37.2331C116.206 37.2331 115.546 37.013 115.079 36.5726C114.613 36.1063 114.38 35.5364 114.38 34.8628V24.721C114.38 23.7367 114.147 22.9725 113.68 22.4285C113.24 21.8585 112.631 21.5736 111.854 21.5736C111.077 21.5736 110.08 21.8456 108.862 22.3896C108.888 22.5191 108.901 22.6486 108.901 22.7782C108.927 22.8818 108.94 22.9984 108.94 23.1279ZM123.98 23.089C123.98 21.3016 124.602 19.8509 125.845 18.737C127.089 17.6231 128.967 17.0661 131.479 17.0661C132.101 17.0661 132.775 17.1179 133.5 17.2216C134.251 17.2993 134.938 17.4677 135.559 17.7267C136.207 17.9598 136.738 18.2966 137.153 18.737C137.567 19.1515 137.774 19.6955 137.774 20.369C137.774 20.7835 137.684 21.1203 137.502 21.3793C137.347 21.6384 137.153 21.8456 136.919 22.001C136.686 22.1305 136.44 22.2212 136.181 22.273C135.922 22.3248 135.689 22.3507 135.482 22.3507C135.145 22.3507 134.834 22.3119 134.549 22.2342C134.29 22.1305 134.005 22.0399 133.694 21.9622C133.409 21.8585 133.086 21.7679 132.723 21.6902C132.386 21.5865 131.985 21.5347 131.518 21.5347C130.016 21.5347 129.265 22.001 129.265 22.9336C129.265 23.2186 129.342 23.4647 129.498 23.6719C129.679 23.8532 129.99 24.0346 130.43 24.2159C131.13 24.5268 131.933 24.8247 132.839 25.1096C133.746 25.3687 134.601 25.7313 135.404 26.1976C136.233 26.6639 136.919 27.2856 137.463 28.0628C138.033 28.814 138.318 29.8373 138.318 31.1325C138.318 33.0236 137.671 34.5261 136.375 35.64C135.08 36.728 133.202 37.272 130.741 37.272C130.119 37.272 129.407 37.2202 128.604 37.1166C127.801 37.0389 127.037 36.8834 126.311 36.6503C125.586 36.4171 124.977 36.1063 124.485 35.7177C123.993 35.3291 123.747 34.8369 123.747 34.2411C123.747 33.6712 123.98 33.1531 124.446 32.6868C124.913 32.1946 125.521 31.9485 126.273 31.9485C126.583 31.9485 126.894 32.0003 127.205 32.104C127.542 32.1817 127.879 32.2723 128.215 32.376C128.578 32.4796 128.954 32.5832 129.342 32.6868C129.757 32.7645 130.197 32.8034 130.663 32.8034C131.363 32.8034 131.933 32.6868 132.373 32.4537C132.814 32.1946 133.034 31.7931 133.034 31.2491C133.034 30.8864 132.943 30.6274 132.762 30.4719C132.606 30.2906 132.425 30.1352 132.218 30.0057C131.596 29.643 130.806 29.3451 129.847 29.1119C128.915 28.8529 128.008 28.5032 127.127 28.0628C126.273 27.6224 125.534 27.0266 124.913 26.2753C124.291 25.4982 123.98 24.4361 123.98 23.089ZM149.763 29.5782C149.245 29.5782 148.752 29.5653 148.286 29.5394C147.846 29.4876 147.341 29.4228 146.771 29.3451V30.6274C146.771 31.3009 147.017 31.832 147.509 32.2205C148.027 32.6091 148.817 32.8034 149.879 32.8034C150.501 32.8034 151.084 32.7386 151.628 32.6091C152.172 32.4537 152.755 32.2335 153.376 31.9485C153.454 31.8967 153.584 31.8449 153.765 31.7931C153.946 31.7413 154.205 31.7154 154.542 31.7154C155.008 31.7154 155.397 31.7931 155.708 31.9485C156.019 32.0781 156.265 32.2464 156.446 32.4537C156.627 32.6609 156.757 32.8941 156.835 33.1531C156.912 33.3863 156.951 33.6194 156.951 33.8525C156.951 34.5261 156.679 35.083 156.135 35.5234C155.591 35.9638 154.931 36.3135 154.154 36.5726C153.376 36.8316 152.56 37.013 151.706 37.1166C150.851 37.2202 150.112 37.272 149.491 37.272C148.221 37.272 147.081 37.1036 146.071 36.7669C145.061 36.4042 144.206 35.9249 143.507 35.3291C142.833 34.7074 142.315 33.9821 141.952 33.1531C141.59 32.3242 141.408 31.4304 141.408 30.4719V23.9828C141.408 22.9984 141.577 22.0917 141.913 21.2627C142.276 20.4079 142.807 19.6696 143.507 19.0479C144.206 18.4261 145.074 17.9469 146.11 17.6101C147.146 17.2475 148.338 17.0661 149.685 17.0661C152.25 17.0661 154.154 17.6749 155.397 18.8924C156.666 20.11 157.301 21.7031 157.301 23.6719C157.301 25.5371 156.705 26.9877 155.514 28.0239C154.322 29.0601 152.405 29.5782 149.763 29.5782ZM151.978 23.3999C151.978 22.6227 151.77 22.0658 151.356 21.729C150.967 21.3923 150.397 21.2239 149.646 21.2239C148.713 21.2239 148.001 21.457 147.509 21.9233C147.017 22.3637 146.771 22.9725 146.771 23.7496V25.4205C147.392 25.4723 147.962 25.5111 148.48 25.5371C148.998 25.563 149.361 25.5759 149.568 25.5759C150.32 25.5759 150.902 25.4205 151.317 25.1096C151.757 24.7988 151.978 24.2289 151.978 23.3999Z" fill="#1A2730"/>
<path id="S_2" d="M176.661 28.0212C176.661 27.0236 176.455 26.3194 176.044 25.9086C175.663 25.4978 175.267 25.2044 174.856 25.0283C174.387 24.8229 173.873 24.6322 173.316 24.4561C172.787 24.2507 172.23 24.0453 171.643 23.8399C170.557 23.5172 169.472 23.1651 168.386 22.7836C167.33 22.3728 166.376 21.8446 165.525 21.1991C164.674 20.5242 163.985 19.6733 163.457 18.6463C162.928 17.59 162.664 16.2696 162.664 14.6851C162.664 11.8389 163.574 9.60887 165.393 7.99504C167.242 6.3812 169.736 5.57429 172.875 5.57429C173.521 5.57429 174.343 5.63297 175.34 5.75034C176.338 5.83837 177.306 6.0291 178.245 6.32252C179.213 6.61594 180.035 7.02674 180.71 7.5549C181.385 8.05372 181.722 8.71393 181.722 9.53551C181.722 10.2691 181.443 10.9146 180.886 11.4721C180.358 12.0296 179.61 12.3084 178.641 12.3084C178.23 12.3084 177.864 12.2644 177.541 12.1763C177.218 12.059 176.866 11.9416 176.485 11.8242C176.074 11.6775 175.604 11.5308 175.076 11.3841C174.548 11.2374 173.902 11.164 173.14 11.164C172.611 11.164 172.083 11.2227 171.555 11.3401C171.056 11.4281 170.616 11.6042 170.235 11.8682C169.853 12.1323 169.545 12.4844 169.31 12.9246C169.076 13.3354 168.958 13.8635 168.958 14.509C168.958 15.4773 169.164 16.1669 169.574 16.5777C170.015 16.9885 170.425 17.2819 170.807 17.458C171.394 17.7514 171.936 17.9861 172.435 18.1622C172.963 18.3382 173.477 18.4996 173.976 18.6463C175.061 18.9984 176.132 19.3799 177.189 19.7907C178.274 20.1721 179.243 20.7003 180.094 21.3752C180.974 22.0207 181.678 22.857 182.206 23.8839C182.734 24.9109 182.999 26.202 182.999 27.7571C182.999 29.2829 182.72 30.6474 182.162 31.8504C181.605 33.0534 180.842 34.0658 179.874 34.8873C178.905 35.7089 177.746 36.3398 176.397 36.7799C175.076 37.1907 173.624 37.3961 172.039 37.3961C171.218 37.3961 170.264 37.3228 169.178 37.1761C168.093 37.0293 167.066 36.7946 166.097 36.4718C165.129 36.1197 164.307 35.6796 163.633 35.1514C162.958 34.5939 162.62 33.9337 162.62 33.1708C162.62 32.4666 162.899 31.8357 163.457 31.2782C164.014 30.6914 164.704 30.398 165.525 30.398C165.848 30.398 166.185 30.4566 166.537 30.574C166.919 30.662 167.315 30.7794 167.726 30.9261C168.254 31.1022 168.87 31.2929 169.574 31.4983C170.308 31.7037 171.144 31.8064 172.083 31.8064C173.609 31.8064 174.753 31.4836 175.516 30.8381C176.279 30.1926 176.661 29.2536 176.661 28.0212Z" fill="#1A2730"/>
<path id="ystems" d="M195.73 25.3428L197.828 18.8147C198.009 18.2448 198.346 17.8303 198.838 17.5713C199.33 17.3122 199.836 17.1827 200.354 17.1827C201.027 17.1827 201.636 17.4029 202.18 17.8433C202.75 18.2837 203.035 18.8536 203.035 19.553C203.035 19.8121 202.996 20.0452 202.918 20.2524L198.178 34.0857C197.634 35.6659 197.103 37.1166 196.584 38.4377C196.092 39.7589 195.496 40.8987 194.797 41.8572C194.123 42.8157 193.295 43.554 192.31 44.0721C191.352 44.6161 190.134 44.8881 188.658 44.8881C187.88 44.8881 187.233 44.6679 186.715 44.2275C186.197 43.7871 185.938 43.2301 185.938 42.5566C185.938 41.9608 186.158 41.4297 186.598 40.9635C187.064 40.5231 187.699 40.277 188.502 40.2252C189.357 40.1734 190.03 39.8107 190.523 39.1372C191.041 38.4895 191.533 37.4015 191.999 35.8731L186.015 20.4467C185.938 20.2395 185.886 20.0582 185.86 19.9027C185.834 19.7473 185.821 19.6048 185.821 19.4753C185.821 18.8018 186.08 18.2578 186.598 17.8433C187.116 17.4029 187.751 17.1827 188.502 17.1827C189.02 17.1827 189.499 17.3252 189.94 17.6101C190.406 17.8692 190.743 18.2707 190.95 18.8147L193.398 25.3428C193.683 26.0422 193.903 26.7805 194.059 27.5576C194.24 28.3348 194.434 29.086 194.642 29.8114C194.823 29.086 194.991 28.3348 195.147 27.5576C195.302 26.7805 195.496 26.0422 195.73 25.3428ZM205.283 23.089C205.283 21.3016 205.905 19.8509 207.148 18.737C208.392 17.6231 210.27 17.0661 212.783 17.0661C213.404 17.0661 214.078 17.1179 214.803 17.2216C215.555 17.2993 216.241 17.4677 216.863 17.7267C217.51 17.9598 218.041 18.2966 218.456 18.737C218.87 19.1515 219.078 19.6955 219.078 20.369C219.078 20.7835 218.987 21.1203 218.806 21.3793C218.65 21.6384 218.456 21.8456 218.223 22.001C217.99 22.1305 217.744 22.2212 217.484 22.273C217.225 22.3248 216.992 22.3507 216.785 22.3507C216.448 22.3507 216.137 22.3119 215.852 22.2342C215.593 22.1305 215.308 22.0399 214.998 21.9622C214.713 21.8585 214.389 21.7679 214.026 21.6902C213.689 21.5865 213.288 21.5347 212.822 21.5347C211.319 21.5347 210.568 22.001 210.568 22.9336C210.568 23.2186 210.646 23.4647 210.801 23.6719C210.982 23.8532 211.293 24.0346 211.734 24.2159C212.433 24.5268 213.236 24.8247 214.143 25.1096C215.049 25.3687 215.904 25.7313 216.707 26.1976C217.536 26.6639 218.223 27.2856 218.767 28.0628C219.337 28.814 219.622 29.8373 219.622 31.1325C219.622 33.0236 218.974 34.5261 217.679 35.64C216.384 36.728 214.505 37.272 212.044 37.272C211.423 37.272 210.71 37.2202 209.907 37.1166C209.104 37.0389 208.34 36.8834 207.615 36.6503C206.889 36.4171 206.281 36.1063 205.788 35.7177C205.296 35.3291 205.05 34.8369 205.05 34.2411C205.05 33.6712 205.283 33.1531 205.75 32.6868C206.216 32.1946 206.825 31.9485 207.576 31.9485C207.887 31.9485 208.198 32.0003 208.508 32.104C208.845 32.1817 209.182 32.2723 209.519 32.376C209.881 32.4796 210.257 32.5832 210.646 32.6868C211.06 32.7645 211.5 32.8034 211.967 32.8034C212.666 32.8034 213.236 32.6868 213.676 32.4537C214.117 32.1946 214.337 31.7931 214.337 31.2491C214.337 30.8864 214.246 30.6274 214.065 30.4719C213.91 30.2906 213.728 30.1352 213.521 30.0057C212.899 29.643 212.109 29.3451 211.151 29.1119C210.218 28.8529 209.311 28.5032 208.431 28.0628C207.576 27.6224 206.838 27.0266 206.216 26.2753C205.594 25.4982 205.283 24.4361 205.283 23.089ZM223.256 28.9177V13.841C223.256 13.1674 223.489 12.6105 223.955 12.1701C224.421 11.7038 225.082 11.4707 225.937 11.4707C226.792 11.4707 227.452 11.7038 227.919 12.1701C228.385 12.6364 228.618 13.1933 228.618 13.841V18.1541H231.493C232.219 18.1541 232.828 18.3743 233.32 18.8147C233.812 19.2551 234.058 19.8121 234.058 20.4856C234.058 21.1591 233.812 21.7161 233.32 22.1565C232.828 22.5709 232.219 22.7782 231.493 22.7782H228.618V28.6456C228.618 30.0704 228.735 31.0807 228.968 31.6765C229.201 32.2464 229.784 32.5314 230.716 32.5314C230.898 32.5314 231.04 32.5314 231.144 32.5314C231.247 32.5055 231.325 32.4925 231.377 32.4925C232.62 32.4925 233.462 32.6609 233.903 32.9977C234.343 33.3344 234.563 33.8655 234.563 34.5908C234.563 35.1607 234.46 35.6141 234.252 35.9508C234.045 36.2876 233.76 36.5467 233.397 36.728C233.061 36.9093 232.672 37.0259 232.232 37.0777C231.791 37.1295 231.325 37.1554 230.833 37.1554C229.33 37.1554 228.087 36.9741 227.103 36.6114C226.118 36.2488 225.341 35.7177 224.771 35.0183C224.201 34.3188 223.8 33.464 223.566 32.4537C223.359 31.4175 223.256 30.2388 223.256 28.9177ZM245.193 29.5782C244.675 29.5782 244.183 29.5653 243.716 29.5394C243.276 29.4876 242.771 29.4228 242.201 29.3451V30.6274C242.201 31.3009 242.447 31.832 242.939 32.2205C243.457 32.6091 244.247 32.8034 245.31 32.8034C245.931 32.8034 246.514 32.7386 247.058 32.6091C247.602 32.4537 248.185 32.2335 248.807 31.9485C248.884 31.8967 249.014 31.8449 249.195 31.7931C249.377 31.7413 249.636 31.7154 249.972 31.7154C250.439 31.7154 250.827 31.7931 251.138 31.9485C251.449 32.0781 251.695 32.2464 251.876 32.4537C252.058 32.6609 252.187 32.8941 252.265 33.1531C252.343 33.3863 252.382 33.6194 252.382 33.8525C252.382 34.5261 252.11 35.083 251.566 35.5234C251.022 35.9638 250.361 36.3135 249.584 36.5726C248.807 36.8316 247.991 37.013 247.136 37.1166C246.281 37.2202 245.543 37.272 244.921 37.272C243.652 37.272 242.512 37.1036 241.502 36.7669C240.491 36.4042 239.636 35.9249 238.937 35.3291C238.263 34.7074 237.745 33.9821 237.383 33.1531C237.02 32.3242 236.839 31.4304 236.839 30.4719V23.9828C236.839 22.9984 237.007 22.0917 237.344 21.2627C237.706 20.4079 238.237 19.6696 238.937 19.0479C239.636 18.4261 240.504 17.9469 241.54 17.6101C242.577 17.2475 243.768 17.0661 245.115 17.0661C247.68 17.0661 249.584 17.6749 250.827 18.8924C252.097 20.11 252.731 21.7031 252.731 23.6719C252.731 25.5371 252.136 26.9877 250.944 28.0239C249.752 29.0601 247.835 29.5782 245.193 29.5782ZM247.408 23.3999C247.408 22.6227 247.201 22.0658 246.786 21.729C246.398 21.3923 245.828 21.2239 245.076 21.2239C244.144 21.2239 243.431 21.457 242.939 21.9233C242.447 22.3637 242.201 22.9725 242.201 23.7496V25.4205C242.823 25.4723 243.393 25.5111 243.911 25.5371C244.429 25.563 244.791 25.5759 244.999 25.5759C245.75 25.5759 246.333 25.4205 246.747 25.1096C247.188 24.7988 247.408 24.2289 247.408 23.3999ZM277.856 34.8628V24.0993C277.856 23.4258 277.662 22.8559 277.273 22.3896C276.884 21.8974 276.328 21.6513 275.602 21.6513C275.084 21.6513 274.566 21.7679 274.048 22.001C273.53 22.2342 273.012 22.5709 272.494 23.0113C272.519 23.1927 272.532 23.361 272.532 23.5165C272.558 23.6719 272.571 23.8403 272.571 24.0216V34.8628C272.571 35.5364 272.351 36.1063 271.911 36.5726C271.47 37.013 270.797 37.2331 269.89 37.2331C268.983 37.2331 268.31 37.013 267.87 36.5726C267.429 36.1063 267.209 35.5364 267.209 34.8628V24.7988C267.209 23.8921 267.079 23.1408 266.82 22.545C266.587 21.9492 266.043 21.6513 265.188 21.6513C264.696 21.6513 264.165 21.7549 263.595 21.9622C263.051 22.1435 262.481 22.3766 261.885 22.6616C261.911 22.7134 261.924 22.7911 261.924 22.8947C261.924 22.9725 261.924 23.0372 261.924 23.089V34.8628C261.924 35.5364 261.704 36.1063 261.264 36.5726C260.823 37.013 260.15 37.2331 259.243 37.2331C258.337 37.2331 257.663 37.013 257.223 36.5726C256.782 36.1063 256.562 35.5364 256.562 34.8628V23.089C256.562 22.4414 256.523 22.0399 256.445 21.8845C256.394 21.729 256.329 21.5865 256.251 21.457C255.966 21.0944 255.785 20.8094 255.707 20.6022C255.629 20.3949 255.591 20.1877 255.591 19.9804C255.591 19.281 255.837 18.724 256.329 18.3096C256.847 17.8951 257.443 17.6878 258.116 17.6878C258.557 17.6878 258.945 17.7915 259.282 17.9987C259.619 18.18 259.917 18.4391 260.176 18.7759C261.057 18.2319 261.937 17.8174 262.818 17.5324C263.725 17.2216 264.593 17.0661 265.422 17.0661C267.002 17.0661 268.504 17.636 269.929 18.7759C270.991 18.2059 271.963 17.7785 272.843 17.4936C273.75 17.2086 274.734 17.0661 275.796 17.0661C278.102 17.0661 279.915 17.7008 281.236 18.9701C282.558 20.2395 283.218 21.9233 283.218 24.0216V34.8628C283.218 35.5364 282.998 36.1063 282.558 36.5726C282.117 37.013 281.444 37.2331 280.537 37.2331C279.63 37.2331 278.957 37.013 278.516 36.5726C278.076 36.1063 277.856 35.5364 277.856 34.8628ZM287.438 23.089C287.438 21.3016 288.06 19.8509 289.303 18.737C290.546 17.6231 292.424 17.0661 294.937 17.0661C295.559 17.0661 296.233 17.1179 296.958 17.2216C297.709 17.2993 298.396 17.4677 299.017 17.7267C299.665 17.9598 300.196 18.2966 300.61 18.737C301.025 19.1515 301.232 19.6955 301.232 20.369C301.232 20.7835 301.142 21.1203 300.96 21.3793C300.805 21.6384 300.61 21.8456 300.377 22.001C300.144 22.1305 299.898 22.2212 299.639 22.273C299.38 22.3248 299.147 22.3507 298.94 22.3507C298.603 22.3507 298.292 22.3119 298.007 22.2342C297.748 22.1305 297.463 22.0399 297.152 21.9622C296.867 21.8585 296.543 21.7679 296.181 21.6902C295.844 21.5865 295.442 21.5347 294.976 21.5347C293.474 21.5347 292.722 22.001 292.722 22.9336C292.722 23.2186 292.8 23.4647 292.956 23.6719C293.137 23.8532 293.448 24.0346 293.888 24.2159C294.588 24.5268 295.391 24.8247 296.297 25.1096C297.204 25.3687 298.059 25.7313 298.862 26.1976C299.691 26.6639 300.377 27.2856 300.921 28.0628C301.491 28.814 301.776 29.8373 301.776 31.1325C301.776 33.0236 301.129 34.5261 299.833 35.64C298.538 36.728 296.66 37.272 294.199 37.272C293.577 37.272 292.865 37.2202 292.062 37.1166C291.259 37.0389 290.495 36.8834 289.769 36.6503C289.044 36.4171 288.435 36.1063 287.943 35.7177C287.451 35.3291 287.205 34.8369 287.205 34.2411C287.205 33.6712 287.438 33.1531 287.904 32.6868C288.37 32.1946 288.979 31.9485 289.73 31.9485C290.041 31.9485 290.352 32.0003 290.663 32.104C291 32.1817 291.336 32.2723 291.673 32.376C292.036 32.4796 292.412 32.5832 292.8 32.6868C293.215 32.7645 293.655 32.8034 294.121 32.8034C294.821 32.8034 295.391 32.6868 295.831 32.4537C296.271 32.1946 296.492 31.7931 296.492 31.2491C296.492 30.8864 296.401 30.6274 296.22 30.4719C296.064 30.2906 295.883 30.1352 295.676 30.0057C295.054 29.643 294.264 29.3451 293.305 29.1119C292.373 28.8529 291.466 28.5032 290.585 28.0628C289.73 27.6224 288.992 27.0266 288.37 26.2753C287.749 25.4982 287.438 24.4361 287.438 23.089Z" fill="#1A2730"/>
<path id="Fill 2" fill-rule="evenodd" clip-rule="evenodd" d="M49.8326 10.3777L36.4981 0.243652L25.8691 9.09465L39.6051 20.8892L49.8326 10.3777Z" fill="#80C675"/>
<path id="Fill 3" fill-rule="evenodd" clip-rule="evenodd" d="M0 30.6366L14.1795 46.7166L26.4845 34.1751L12.419 20.2946L0 30.6366Z" fill="#F14A47"/>
<path id="Fill 4" fill-rule="evenodd" clip-rule="evenodd" d="M16.6814 1.23425L3.06543 11.0643L12.4189 20.2948L25.8684 9.09475L16.6814 1.23425Z" fill="#538BBE"/>
<path id="Fill 5" fill-rule="evenodd" clip-rule="evenodd" d="M51.6609 31.1628L39.6054 20.8893L26.4844 34.1748L39.0324 46.5578L51.6609 31.1628Z" fill="#FFBF36"/>
</g>
</svg>
