<svg width="48" height="48" viewBox="0 0 48 48" fill="none" xmlns="http://www.w3.org/2000/svg">
<path d="M38 15.0003V36.6003C38 39.5603 35.56 42.0003 32.58 42.0003H15.42C12.44 42.0003 10 39.5603 10 36.6003V15.0003C10 12.0203 12.44 9.60034 15.42 9.60034H16.78V13.2003C16.78 14.1803 17.6 15.0003 18.58 15.0003H29.42C30.42 15.0003 31.22 14.1803 31.22 13.2003V9.60034H32.58C35.56 9.60034 38 12.0203 38 15.0003V15.0003Z" stroke="#121720" stroke-width="3" stroke-linecap="round" stroke-linejoin="round"/>
<path d="M31.2198 9.60001V13.2C31.2198 14.18 30.3999 15 29.4199 15H18.5798C17.5798 15 16.7799 14.2 16.7799 13.2V9.60001H18.8599C19.6199 9.60001 20.3398 9.17999 20.5798 8.45999C21.0598 7.03999 22.4199 6 23.9999 6C24.9999 6 25.8999 6.4 26.5399 7.06C26.9399 7.44 27.2399 7.91999 27.4199 8.45999C27.6599 9.15999 28.3799 9.60001 29.1399 9.60001H31.2198V9.60001Z" stroke="#121720" stroke-width="3" stroke-linecap="round" stroke-linejoin="round"/>
<path d="M17.6803 27.6003H22.2002" stroke="#121720" stroke-width="3" stroke-linecap="round" stroke-linejoin="round"/>
<path d="M17.6803 33H27.6202" stroke="#121720" stroke-width="3" stroke-linecap="round" stroke-linejoin="round"/>
</svg>
