<svg width="48" height="48" viewBox="0 0 48 48" fill="none" xmlns="http://www.w3.org/2000/svg">
<g clip-path="url(#clip0_1196_30964)">
<path d="M24.02 28.8C26.7 28.8 28.88 26.6201 28.88 23.9401C28.88 21.2601 26.7 19.0801 24.02 19.0801C21.34 19.0801 19.16 21.2601 19.16 23.9401C19.16 26.6201 21.34 28.8 24.02 28.8Z" stroke="#121720" stroke-width="3" stroke-linecap="round" stroke-linejoin="round"/>
<path d="M28.2601 9.30023C28.6201 10.5802 29.46 11.6802 30.6 12.3602C31.74 13.0402 33.08 13.2402 34.36 12.9202C35.3 12.6402 36.32 12.6802 37.24 13.0602C38.16 13.4402 38.9201 14.1202 39.4201 14.9802C39.9201 15.8402 40.1 16.8602 39.96 17.8602C39.82 18.8602 39.34 19.7602 38.62 20.4402C37.7 21.4002 37.1801 22.7002 37.1801 24.0402C37.1801 25.3802 37.7 26.6803 38.62 27.6403C39.34 28.3203 39.8 29.2402 39.96 30.2202C40.1 31.2202 39.9201 32.2202 39.4201 33.1002C38.9201 33.9602 38.16 34.6403 37.24 35.0203C36.32 35.4003 35.32 35.4402 34.36 35.1602C33.08 34.8402 31.7201 35.0203 30.5601 35.7003C29.4201 36.3803 28.56 37.4603 28.2 38.7603C27.94 39.7003 27.38 40.5202 26.62 41.1002C25.86 41.6802 24.92 42.0002 23.96 42.0002C23 42.0002 22.0801 41.6802 21.3001 41.1002C20.5401 40.5202 19.98 39.7003 19.72 38.7603C19.36 37.4603 18.5 36.3803 17.36 35.7003C16.22 35.0403 14.8601 34.8402 13.5601 35.1602C12.6201 35.4402 11.6 35.3802 10.7 35.0002C9.77999 34.6202 9.02008 33.9403 8.54008 33.0803C8.06008 32.2203 7.86006 31.2002 8.02006 30.2202C8.16006 29.2402 8.64001 28.3203 9.34001 27.6403C10.26 26.6803 10.7801 25.3802 10.7801 24.0402C10.7801 22.7002 10.26 21.4002 9.34001 20.4402C8.62001 19.7602 8.16006 18.8402 8.02006 17.8602C7.88006 16.8802 8.06008 15.8602 8.54008 15.0002C9.02008 14.1402 9.77999 13.4603 10.7 13.0803C11.62 12.7003 12.6201 12.6402 13.5601 12.9202C14.8401 13.2402 16.22 13.0402 17.36 12.3802C18.5 11.7002 19.36 10.6003 19.72 9.32025C19.96 8.38025 20.5201 7.54025 21.2801 6.94025C22.0401 6.34025 23 6.02026 23.96 6.02026C24.92 6.02026 25.8801 6.34025 26.6401 6.94025C27.4001 7.54025 27.96 8.38025 28.2 9.32025L28.2601 9.30023Z" stroke="#121720" stroke-width="3" stroke-linecap="round" stroke-linejoin="round"/>
</g>
<defs>
<clipPath id="clip0_1196_30964">
<rect width="48" height="48" fill="white"/>
</clipPath>
</defs>
</svg>
