<svg width="380.000000" height="500.000000" viewBox="0 0 380 500" fill="none" xmlns="http://www.w3.org/2000/svg" xmlns:xlink="http://www.w3.org/1999/xlink">
	<desc>
			Created with Pixso.
	</desc>
	<defs/>
	<rect id="фон" rx="5.000000" width="380.000000" height="500.000000" fill="#F0F6FE" fill-opacity="1.000000"/>
	<path id="Vector" d="M269.63 118.86C249.76 118.86 194 127.97 194 94.52C194 66.15 221.24 68.17 221.24 68.17C221.24 68.17 220.47 43.57 244.75 40.29C269.63 36.95 273.39 63.51 273.39 63.51C273.39 63.51 316.62 46.58 310.05 89.08C310.05 89.08 334 84.36 334 103.49C334 124.93 288.9 118.8 269.63 118.86Z" fill="#FFFFFF" fill-opacity="1.000000" fill-rule="nonzero"/>
	<path id="Vector" d="M104.56 209.61C129.44 209.61 199.2 220.87 199.2 179.16C199.2 143.64 165.06 146.25 165.06 146.25C165.06 146.25 166.04 115.46 135.67 111.36C104.52 107.17 99.81 140.44 99.81 140.44C99.81 140.44 45.75 119.26 53.97 172.41C53.97 172.41 24 166.49 24 190.41C24.04 217.24 80.46 209.52 104.56 209.61Z" fill="#FFFFFF" fill-opacity="1.000000" fill-rule="nonzero"/>
	<g opacity="0.200000">
		<path id="Vector" d="M303.44 419.21C298.91 418.38 290.15 426.72 285.86 424.99C282.57 423.66 281.95 414.86 279.36 412.44C275.81 409.14 262.95 409.35 261.48 404.76C258.46 395.28 272.72 373.26 282.46 370.85C289.46 369.12 300.59 382.84 307.32 385.32C313.58 387.62 329.2 385.08 333.61 390.03C338.74 395.75 337.76 414.18 333.61 420.64C330.94 424.79 320.45 429.97 315.57 428.99C311.81 428.24 307.27 419.88 303.44 419.21Z" fill="#00ACF4" fill-opacity="1.000000" fill-rule="nonzero"/>
		<g opacity="0.200000">
			<path id="Vector" d="M303.44 419.21C298.91 418.38 290.15 426.72 285.86 424.99C282.57 423.66 281.95 414.86 279.36 412.44C275.81 409.14 262.95 409.35 261.48 404.76C258.46 395.28 272.72 373.26 282.46 370.85C289.46 369.12 300.59 382.84 307.32 385.32C313.58 387.62 329.2 385.08 333.61 390.03C338.74 395.75 337.76 414.18 333.61 420.64C330.94 424.79 320.45 429.97 315.57 428.99C311.81 428.24 307.27 419.88 303.44 419.21Z" fill="#FFFFFF" fill-opacity="1.000000" fill-rule="nonzero"/>
		</g>
		<path id="Vector" d="M286.11 406.94C284.3 405.04 278.35 400.66 278.35 400.66L278.56 399.96L287.07 405.64L290.53 395.58L291.1 396.04C291.1 396.04 288.33 403.5 288.75 406.13C289.66 411.81 301.7 424.48 301.7 424.48C301.7 424.48 310.32 414.75 311.92 410.8C313.25 407.55 313.74 396.86 313.74 396.86L314.3 396.95L313.62 409.41L326.31 399.07L326.54 399.77C326.54 399.77 316.25 407.84 313.47 411.16C311.31 413.71 307.26 420.85 305.23 424.55C304.41 426.03 304.01 427.7 304.06 429.38L305.09 499.51L299.12 499.51L300.11 430.74C300.18 428.53 299.06 426.35 297.92 424.46C295.02 419.63 289.29 410.3 286.11 406.94Z" fill="#00ACF4" fill-opacity="1.000000" fill-rule="nonzero"/>
		<path id="Vector" d="M127.77 398.45C123.67 398.88 117.85 393.56 113.83 394.45C105.67 396.24 85.5 397.06 80.58 390.37C74.13 381.61 80.58 355 88.8 347.85C95.65 341.88 125.27 345.59 125.27 345.59C125.27 345.59 136.84 330.01 142.79 329.45C152.16 328.55 171.61 340.46 174.62 349.27C177.49 357.66 164.37 373.88 162.1 382.45C161.37 385.21 162.72 392.15 160.29 393.73C153.32 398.31 136.1 397.58 127.77 398.45Z" fill="#00ACF4" fill-opacity="1.000000" fill-rule="nonzero"/>
		<g opacity="0.300000">
			<path id="Vector" d="M127.77 398.45C123.67 398.88 117.85 393.56 113.83 394.45C105.67 396.24 85.5 397.06 80.58 390.37C74.13 381.61 80.58 355 88.8 347.85C95.65 341.88 125.27 345.59 125.27 345.59C125.27 345.59 136.84 330.01 142.79 329.45C152.16 328.55 171.61 340.46 174.62 349.27C177.49 357.66 164.37 373.88 162.1 382.45C161.37 385.21 162.72 392.15 160.29 393.73C153.32 398.31 136.1 397.58 127.77 398.45Z" fill="#FFFFFF" fill-opacity="1.000000" fill-rule="nonzero"/>
		</g>
		<path id="Vector" d="M146.07 375.44C148.35 373.02 155.99 367.37 155.99 367.37L155.71 366.47L144.83 373.73L140.46 360.9L139.75 361.49C139.75 361.49 143.28 371.01 142.73 374.36C141.54 381.61 126.21 397.78 126.21 397.78C126.21 397.78 115.22 385.36 113.18 380.32C111.45 376.16 110.81 362.5 110.81 362.5L110.08 362.61L110.99 378.57L94.77 365.37L94.49 366.26C94.49 366.26 107.62 376.57 111.17 380.79C113.89 384.05 119.07 393.16 121.67 397.88C122.72 399.76 123.23 401.89 123.16 404.04L121.85 499.48L129.49 499.48L128.22 405.78C128.13 402.95 129.56 400.17 131.01 397.71C134.72 391.63 142.02 379.72 146.07 375.44Z" fill="#00ACF4" fill-opacity="1.000000" fill-rule="nonzero"/>
		<path id="Vector" d="M292.05 498.79L292.05 354.74C292.05 353.62 292.36 352.05 291.99 350.91C291.62 349.78 289.81 350.28 290.18 351.41C290.18 351.53 290.18 353.61 290.18 354.3L290.18 498.79C290.18 499.02 290.27 499.25 290.44 499.42C290.61 499.59 290.84 499.68 291.08 499.68C291.32 499.68 291.55 499.59 291.72 499.42C291.89 499.25 291.99 499.02 291.99 498.79L292.05 498.79Z" fill="#00ACF4" fill-opacity="1.000000" fill-rule="nonzero"/>
		<g opacity="0.400000">
			<path id="Vector" d="M292.05 498.79L292.05 354.74C292.05 353.62 292.36 352.05 291.99 350.91C291.62 349.78 289.81 350.28 290.18 351.41C290.18 351.53 290.18 353.61 290.18 354.3L290.18 498.79C290.18 499.02 290.27 499.25 290.44 499.42C290.61 499.59 290.84 499.68 291.08 499.68C291.32 499.68 291.55 499.59 291.72 499.42C291.89 499.25 291.99 499.02 291.99 498.79L292.05 498.79Z" fill="#00ACF4" fill-opacity="1.000000" fill-rule="nonzero"/>
		</g>
		<path id="Vector" d="M291.09 350.28L330.21 350.28L330.21 352.27L291.09 352.27L291.09 350.28Z" fill="#00ACF4" fill-opacity="1.000000" fill-rule="evenodd"/>
		<g opacity="0.400000">
			<path id="Vector" d="M291.09 350.28L330.21 350.28L330.21 352.27L291.09 352.27L291.09 350.28Z" fill="#00ACF4" fill-opacity="1.000000" fill-rule="evenodd"/>
		</g>
		<path id="Vector" d="M297.11 343.33L308.31 328.54L301.46 326.75L294.97 342.08C295.73 342.41 296.45 342.83 297.11 343.33Z" fill="#00ACF4" fill-opacity="1.000000" fill-rule="nonzero"/>
		<path id="Vector" d="M287.14 342.14L279.79 325.17L274.82 330.14L285.01 343.37C285.66 342.88 286.38 342.46 287.14 342.14Z" fill="#00ACF4" fill-opacity="1.000000" fill-rule="nonzero"/>
		<path id="Vector" d="M281.04 351.28C281.04 350.89 281.07 350.49 281.12 350.1L262.59 347.9L264.45 354.65L281.13 352.54C281.07 352.12 281.04 351.7 281.04 351.28Z" fill="#00ACF4" fill-opacity="1.000000" fill-rule="nonzero"/>
		<path id="Vector" d="M301.15 351.28C301.14 351.67 301.12 352.07 301.07 352.46L319.6 354.65L317.75 347.9L301.06 350.02C301.11 350.44 301.14 350.86 301.15 351.28Z" fill="#00ACF4" fill-opacity="1.000000" fill-rule="nonzero"/>
		<path id="Vector" d="M285.07 359.23L273.88 374.01L280.73 375.8L287.21 360.47C286.45 360.14 285.73 359.73 285.07 359.23Z" fill="#00ACF4" fill-opacity="1.000000" fill-rule="nonzero"/>
		<path id="Vector" d="M291.09 341.34C291.49 341.34 291.89 341.36 292.29 341.41L294.51 323.05L287.68 324.89L289.82 341.39C290.24 341.35 290.67 341.33 291.09 341.34Z" fill="#00ACF4" fill-opacity="1.000000" fill-rule="nonzero"/>
		<g opacity="0.500000">
			<path id="Vector" d="M291.09 341.34C291.49 341.34 291.89 341.36 292.29 341.41L294.51 323.05L287.68 324.89L289.82 341.39C290.24 341.35 290.67 341.33 291.09 341.34Z" fill="#FFFFFF" fill-opacity="1.000000" fill-rule="nonzero"/>
		</g>
		<path id="Vector" d="M299.11 357.24L314.06 368.3L315.88 361.53L300.37 355.12C300.04 355.87 299.62 356.58 299.11 357.24Z" fill="#00ACF4" fill-opacity="1.000000" fill-rule="nonzero"/>
		<g opacity="0.500000">
			<path id="Vector" d="M299.11 357.24L314.06 368.3L315.88 361.53L300.37 355.12C300.04 355.87 299.62 356.58 299.11 357.24Z" fill="#FFFFFF" fill-opacity="1.000000" fill-rule="nonzero"/>
		</g>
		<path id="Vector" d="M291.09 361.22C290.69 361.22 290.3 361.19 289.9 361.14L287.68 379.47L294.51 377.63L292.37 361.14C291.95 361.19 291.52 361.21 291.09 361.22Z" fill="#00ACF4" fill-opacity="1.000000" fill-rule="nonzero"/>
		<g opacity="0.500000">
			<path id="Vector" d="M291.09 361.22C290.69 361.22 290.3 361.19 289.9 361.14L287.68 379.47L294.51 377.63L292.37 361.14C291.95 361.19 291.52 361.21 291.09 361.22Z" fill="#FFFFFF" fill-opacity="1.000000" fill-rule="nonzero"/>
		</g>
		<path id="Vector" d="M281.89 355.19L264.67 362.5L269.69 367.42L283.07 357.34C282.59 356.68 282.19 355.95 281.89 355.19Z" fill="#00ACF4" fill-opacity="1.000000" fill-rule="nonzero"/>
		<g opacity="0.500000">
			<path id="Vector" d="M281.89 355.19L264.67 362.5L269.69 367.42L283.07 357.34C282.59 356.68 282.19 355.95 281.89 355.19Z" fill="#FFFFFF" fill-opacity="1.000000" fill-rule="nonzero"/>
		</g>
		<path id="Vector" d="M300.34 347.36L317.49 340.1L312.47 335.18L299.11 345.26C299.61 345.91 300.02 346.61 300.34 347.36Z" fill="#00ACF4" fill-opacity="1.000000" fill-rule="nonzero"/>
		<g opacity="0.500000">
			<path id="Vector" d="M300.34 347.36L317.49 340.1L312.47 335.18L299.11 345.26C299.61 345.91 300.02 346.61 300.34 347.36Z" fill="#FFFFFF" fill-opacity="1.000000" fill-rule="nonzero"/>
		</g>
		<path id="Vector" d="M283.06 345.33L268.11 334.26L266.3 341.02L281.8 347.44C282.13 346.69 282.55 345.98 283.06 345.33Z" fill="#00ACF4" fill-opacity="1.000000" fill-rule="nonzero"/>
		<g opacity="0.500000">
			<path id="Vector" d="M283.06 345.33L268.11 334.26L266.3 341.02L281.8 347.44C282.13 346.69 282.55 345.98 283.06 345.33Z" fill="#FFFFFF" fill-opacity="1.000000" fill-rule="nonzero"/>
		</g>
		<path id="Vector" d="M297.18 359.18C296.53 359.68 295.81 360.09 295.05 360.42L302.4 377.38L307.37 372.41L297.18 359.18Z" fill="#00ACF4" fill-opacity="1.000000" fill-rule="nonzero"/>
		<path id="Vector" d="M297.11 351.28C297.11 354.57 294.42 357.24 291.09 357.24C287.77 357.24 285.07 354.57 285.07 351.28C285.07 347.99 287.77 345.33 291.09 345.33C294.42 345.33 297.11 347.99 297.11 351.28Z" fill="#00ACF4" fill-opacity="1.000000" fill-rule="evenodd"/>
		<g opacity="0.200000">
			<path id="Vector" d="M297.11 351.28C297.11 354.57 294.42 357.24 291.09 357.24C287.77 357.24 285.07 354.57 285.07 351.28C285.07 347.99 287.77 345.33 291.09 345.33C294.42 345.33 297.11 347.99 297.11 351.28Z" fill="#00ACF4" fill-opacity="1.000000" fill-rule="evenodd"/>
		</g>
		<path id="Vector" d="M351.72 361.15L322.14 351.28L351.72 341.4L349 351.28L351.72 361.15Z" fill="#00ACF4" fill-opacity="1.000000" fill-rule="nonzero"/>
		<g opacity="0.200000">
			<path id="Vector" d="M322.21 351.26L322.14 351.28L351.72 361.15L349 351.26L322.21 351.26Z" fill="#00ACF4" fill-opacity="1.000000" fill-rule="nonzero"/>
		</g>
		<path id="Vector" d="M298.63 459.58L293.27 397.47C292.85 392.68 292.44 387.9 292.03 383.12C292.03 382.88 291.93 382.64 291.75 382.47C291.58 382.3 291.34 382.2 291.1 382.2C290.85 382.2 290.61 382.3 290.44 382.47C290.26 382.64 290.17 382.88 290.17 383.12C289.04 396.19 287.91 409.27 286.78 422.34L281.42 484.44C281 489.22 280.59 494 280.18 498.79C280.08 499.97 281.94 499.96 282.04 498.79C283.17 485.71 284.3 472.64 285.43 459.57L290.78 397.47C290.89 396.28 290.99 395.09 291.09 393.88C291.92 403.36 292.74 412.84 293.55 422.31C295.36 443.04 297.15 463.76 298.92 484.47L300.15 498.82C300.25 500 302.12 500 302.02 498.82C300.89 485.74 299.76 472.66 298.63 459.58Z" fill="#00ACF4" fill-opacity="1.000000" fill-rule="nonzero"/>
		<g opacity="0.200000">
			<path id="Vector" d="M287.82 410.23C287.76 410.84 287.71 411.46 287.66 412.07L289.52 412.07C289.58 411.46 289.63 410.84 289.68 410.23L287.82 410.23Z" fill="#00ACF4" fill-opacity="1.000000" fill-rule="nonzero"/>
			<path id="Vector" d="M294.37 410.23L292.51 410.23L292.67 412.07L294.53 412.07C294.47 411.46 294.42 410.84 294.37 410.23Z" fill="#00ACF4" fill-opacity="1.000000" fill-rule="nonzero"/>
		</g>
		<g opacity="0.200000">
			<path id="Vector" d="M298.44 457.48L296.59 457.48C296.64 458.1 296.69 458.71 296.74 459.33L298.61 459.33L298.44 457.48Z" fill="#00ACF4" fill-opacity="1.000000" fill-rule="nonzero"/>
			<path id="Vector" d="M283.59 459.33L285.44 459.33L285.61 457.49L283.7 457.49L283.59 459.33Z" fill="#00ACF4" fill-opacity="1.000000" fill-rule="nonzero"/>
		</g>
		<path id="Vector" d="M282.71 410.84L299.53 410.84C299.78 410.84 300.01 410.75 300.19 410.58C300.36 410.4 300.46 410.17 300.46 409.93C300.46 409.68 300.36 409.45 300.19 409.28C300.01 409.1 299.78 409.01 299.53 409.01L282.71 409.01C282.46 409.01 282.22 409.1 282.05 409.28C281.87 409.45 281.78 409.68 281.78 409.93C281.78 410.17 281.87 410.4 282.05 410.58C282.22 410.75 282.46 410.84 282.71 410.84Z" fill="#00ACF4" fill-opacity="1.000000" fill-rule="nonzero"/>
		<path id="Vector" d="M280.85 458.1L301.39 458.1C301.64 458.1 301.87 458 302.05 457.83C302.22 457.65 302.32 457.42 302.32 457.18C302.32 456.93 302.22 456.7 302.05 456.53C301.87 456.35 301.64 456.26 301.39 456.26L280.85 456.26C280.6 456.26 280.36 456.35 280.19 456.53C280.02 456.7 279.92 456.93 279.92 457.18C279.92 457.42 280.02 457.65 280.19 457.83C280.36 458 280.6 458.1 280.85 458.1Z" fill="#00ACF4" fill-opacity="1.000000" fill-rule="nonzero"/>
		<path id="Vector" d="M349.15 438.89L342.36 438.89L342.36 441.54L343.46 441.54L343.46 453.43L348.03 453.43L348.03 441.54L349.15 441.54L349.15 438.89Z" fill="#00ACF4" fill-opacity="1.000000" fill-rule="nonzero"/>
		<g opacity="0.200000">
			<path id="Vector" d="M349.15 438.89L342.36 438.89L342.36 441.54L343.46 441.54L343.46 453.43L348.03 453.43L348.03 441.54L349.15 441.54L349.15 438.89Z" fill="#00ACF4" fill-opacity="1.000000" fill-rule="nonzero"/>
		</g>
		<path id="Vector" d="M309.01 430.42L284.92 467.08L284.92 500L341.98 500L341.98 467.08L309.01 430.42Z" fill="#00ACF4" fill-opacity="1.000000" fill-rule="nonzero"/>
		<g opacity="0.500000">
			<path id="Vector" d="M309.01 430.42L284.92 467.08L284.92 500L341.98 500L341.98 467.08L309.01 430.42Z" fill="#FFFFFF" fill-opacity="1.000000" fill-rule="nonzero"/>
		</g>
		<path id="Vector" d="M335.49 431.91L331.82 426.34L309.01 426.34L282.16 467.08L304.96 467.08L335.49 467.08L335.49 431.91Z" fill="#00ACF4" fill-opacity="1.000000" fill-rule="nonzero"/>
		<g opacity="0.200000">
			<path id="Vector" d="M335.49 431.91L331.82 426.34L309.01 426.34L282.16 467.08L304.96 467.08L335.49 467.08L335.49 431.91Z" fill="#00ACF4" fill-opacity="1.000000" fill-rule="nonzero"/>
		</g>
		<path id="Vector" d="M304.96 467.08L331.82 426.34L358.68 467.08L304.96 467.08Z" fill="#00ACF4" fill-opacity="1.000000" fill-rule="nonzero"/>
		<path id="Vector" d="M331.82 430.42L307.72 467.08L307.72 500L355.91 500L355.91 467.08L331.82 430.42Z" fill="#00ACF4" fill-opacity="1.000000" fill-rule="nonzero"/>
		<g opacity="0.800000">
			<path id="Vector" d="M331.82 430.42L307.72 467.08L307.72 500L355.91 500L355.91 467.08L331.82 430.42Z" fill="#FFFFFF" fill-opacity="1.000000" fill-rule="nonzero"/>
		</g>
		<path id="Vector" d="M323.6 476.72L340.35 476.72L340.35 499.82L323.6 499.82L323.6 476.72Z" fill="#00ACF4" fill-opacity="1.000000" fill-rule="evenodd"/>
		<g opacity="0.400000">
			<path id="Vector" d="M323.6 476.72L340.35 476.72L340.35 499.82L323.6 499.82L323.6 476.72Z" fill="#FFFFFF" fill-opacity="1.000000" fill-rule="evenodd"/>
		</g>
		<path id="Vector" d="M339.31 471.89L324.64 471.89L321.07 477.54L342.88 477.54L339.31 471.89Z" fill="#00ACF4" fill-opacity="1.000000" fill-rule="nonzero"/>
		<path id="Vector" d="M326.53 480.65L331.66 480.65L331.66 486.63L326.53 486.63L326.53 480.65Z" fill="#00ACF4" fill-opacity="1.000000" fill-rule="evenodd"/>
		<path id="Vector" d="M332.3 480.65L337.43 480.65L337.43 486.63L332.3 486.63L332.3 480.65Z" fill="#00ACF4" fill-opacity="1.000000" fill-rule="evenodd"/>
		<path id="Vector" d="M326.53 487.25L331.66 487.25L331.66 493.23L326.53 493.23L326.53 487.25Z" fill="#00ACF4" fill-opacity="1.000000" fill-rule="evenodd"/>
		<path id="Vector" d="M332.3 487.25L337.43 487.25L337.43 493.23L332.3 493.23L332.3 487.25Z" fill="#00ACF4" fill-opacity="1.000000" fill-rule="evenodd"/>
		<path id="Vector" d="M326.53 493.84L331.66 493.84L331.66 499.82L326.53 499.82L326.53 493.84Z" fill="#00ACF4" fill-opacity="1.000000" fill-rule="evenodd"/>
		<path id="Vector" d="M332.3 493.84L337.43 493.84L337.43 499.82L332.3 499.82L332.3 493.84Z" fill="#00ACF4" fill-opacity="1.000000" fill-rule="evenodd"/>
		<path id="Vector" d="M321.01 451.52L325.89 451.52L325.89 464.29L321.01 464.29L321.01 451.52Z" fill="#00ACF4" fill-opacity="1.000000" fill-rule="evenodd"/>
		<path id="Vector" d="M338.07 451.52L342.95 451.52L342.95 464.29L338.07 464.29L338.07 451.52Z" fill="#00ACF4" fill-opacity="1.000000" fill-rule="evenodd"/>
		<path id="Vector" d="M325.89 450.91L338.07 450.91L338.07 464.89L325.89 464.89L325.89 450.91Z" fill="#00ACF4" fill-opacity="1.000000" fill-rule="evenodd"/>
		<g opacity="0.400000">
			<path id="Vector" d="M325.89 450.91L338.07 450.91L338.07 464.89L325.89 464.89L325.89 450.91Z" fill="#FFFFFF" fill-opacity="1.000000" fill-rule="evenodd"/>
		</g>
		<path id="Vector" d="M327.41 452.42L331.68 452.42L331.68 457.6L327.41 457.6L327.41 452.42Z" fill="#00ACF4" fill-opacity="1.000000" fill-rule="evenodd"/>
		<path id="Vector" d="M332.28 452.42L336.55 452.42L336.55 457.6L332.28 457.6L332.28 452.42Z" fill="#00ACF4" fill-opacity="1.000000" fill-rule="evenodd"/>
		<path id="Vector" d="M327.41 458.21L331.68 458.21L331.68 463.4L327.41 463.4L327.41 458.21Z" fill="#00ACF4" fill-opacity="1.000000" fill-rule="evenodd"/>
		<path id="Vector" d="M332.28 458.21L336.55 458.21L336.55 463.4L332.28 463.4L332.28 458.21Z" fill="#00ACF4" fill-opacity="1.000000" fill-rule="evenodd"/>
		<path id="Vector" d="M181.97 375.14L212.75 375.14L212.75 499.89L181.97 499.89L181.97 375.14Z" fill="#00ACF4" fill-opacity="1.000000" fill-rule="evenodd"/>
		<g opacity="0.500000">
			<path id="Vector" d="M181.97 375.14L212.75 375.14L212.75 499.89L181.97 499.89L181.97 375.14Z" fill="#FFFFFF" fill-opacity="1.000000" fill-rule="evenodd"/>
		</g>
		<path id="Vector" d="M190.24 362.61L181.97 375.14L212.75 375.14L204.49 362.61L190.24 362.61Z" fill="#00ACF4" fill-opacity="1.000000" fill-rule="nonzero"/>
		<g opacity="0.200000">
			<path id="Vector" d="M190.24 362.61L181.97 375.14L212.75 375.14L204.49 362.61L190.24 362.61Z" fill="#00ACF4" fill-opacity="1.000000" fill-rule="nonzero"/>
		</g>
		<path id="Vector" d="M204.49 362.61L196.22 375.14L227 375.14L218.74 362.61L204.49 362.61Z" fill="#00ACF4" fill-opacity="1.000000" fill-rule="nonzero"/>
		<path id="Vector" d="M204.49 342.58L218.74 342.58L218.74 362.6L204.49 362.6L204.49 342.58Z" fill="#00ACF4" fill-opacity="1.000000" fill-rule="evenodd"/>
		<g opacity="0.800000">
			<path id="Vector" d="M204.49 342.58L218.74 342.58L218.74 362.6L204.49 362.6L204.49 342.58Z" fill="#FFFFFF" fill-opacity="1.000000" fill-rule="evenodd"/>
		</g>
		<path id="Vector" d="M215.44 348.57C215.31 347.72 214.87 346.94 214.22 346.38C213.56 345.82 212.72 345.52 211.85 345.52C210.98 345.52 210.15 345.82 209.49 346.38C208.83 346.94 208.4 347.72 208.27 348.57L208.27 360.04L215.44 360.04L215.44 348.57Z" fill="#00ACF4" fill-opacity="1.000000" fill-rule="nonzero"/>
		<path id="Vector" d="M211.85 345.02C211.54 345.03 211.24 345.07 210.94 345.16C211.71 345.34 212.4 345.78 212.89 346.4C213.39 347.02 213.66 347.78 213.66 348.57L213.66 360.04L215.47 360.04L215.47 348.57C215.46 347.62 215.07 346.72 214.4 346.06C213.72 345.4 212.8 345.02 211.85 345.02Z" fill="#00ACF4" fill-opacity="1.000000" fill-rule="nonzero"/>
		<g opacity="0.500000">
			<path id="Vector" d="M211.85 345.02C211.54 345.03 211.24 345.07 210.94 345.16C211.71 345.34 212.4 345.78 212.89 346.4C213.39 347.02 213.66 347.78 213.66 348.57L213.66 360.04L215.47 360.04L215.47 348.57C215.46 347.62 215.07 346.72 214.4 346.06C213.72 345.4 212.8 345.02 211.85 345.02Z" fill="#FFFFFF" fill-opacity="1.000000" fill-rule="nonzero"/>
		</g>
		<path id="Vector" d="M190.24 342.58L204.49 342.58L204.49 362.6L190.24 362.6L190.24 342.58Z" fill="#00ACF4" fill-opacity="1.000000" fill-rule="evenodd"/>
		<g opacity="0.500000">
			<path id="Vector" d="M190.24 342.58L204.49 342.58L204.49 362.6L190.24 362.6L190.24 342.58Z" fill="#FFFFFF" fill-opacity="1.000000" fill-rule="evenodd"/>
		</g>
		<path id="Vector" d="M193.54 348.57C193.66 347.72 194.1 346.94 194.76 346.38C195.41 345.82 196.25 345.52 197.12 345.52C197.99 345.52 198.83 345.82 199.49 346.38C200.14 346.94 200.58 347.72 200.71 348.57L200.71 360.04L193.54 360.04L193.54 348.57Z" fill="#00ACF4" fill-opacity="1.000000" fill-rule="nonzero"/>
		<path id="Vector" d="M197.12 345.02C197.42 345.03 197.73 345.07 198.02 345.16C197.25 345.35 196.56 345.78 196.07 346.4C195.58 347.02 195.31 347.78 195.3 348.57L195.3 360.04L193.49 360.04L193.49 348.57C193.5 347.62 193.89 346.72 194.57 346.06C195.25 345.4 196.16 345.02 197.12 345.02Z" fill="#00ACF4" fill-opacity="1.000000" fill-rule="nonzero"/>
		<g opacity="0.500000">
			<path id="Vector" d="M197.12 345.02C197.42 345.03 197.73 345.07 198.02 345.16C197.25 345.35 196.56 345.78 196.07 346.4C195.58 347.02 195.31 347.78 195.3 348.57L195.3 360.04L193.49 360.04L193.49 348.57C193.5 347.62 193.89 346.72 194.57 346.06C195.25 345.4 196.16 345.02 197.12 345.02Z" fill="#FFFFFF" fill-opacity="1.000000" fill-rule="nonzero"/>
		</g>
		<path id="Vector" d="M189.85 342.76L204.45 300L219.04 342.76L189.85 342.76Z" fill="#00ACF4" fill-opacity="1.000000" fill-rule="nonzero"/>
		<g opacity="0.200000">
			<path id="Vector" d="M204.49 300.1L204.45 300L189.85 342.76L204.49 342.76L204.49 300.1Z" fill="#00ACF4" fill-opacity="1.000000" fill-rule="nonzero"/>
		</g>
		<path id="Vector" d="M196.22 375.14L227 375.14L227 499.89L196.22 499.89L196.22 375.14Z" fill="#00ACF4" fill-opacity="1.000000" fill-rule="evenodd"/>
		<g opacity="0.800000">
			<path id="Vector" d="M196.22 375.14L227 375.14L227 499.89L196.22 499.89L196.22 375.14Z" fill="#FFFFFF" fill-opacity="1.000000" fill-rule="evenodd"/>
		</g>
		<path id="Vector" d="M201.3 383.61L205.99 383.61L205.99 395.91L201.3 395.91L201.3 383.61Z" fill="#00ACF4" fill-opacity="1.000000" fill-rule="evenodd"/>
		<path id="Vector" d="M217.71 383.61L222.41 383.61L222.41 395.91L217.71 395.91L217.71 383.61Z" fill="#00ACF4" fill-opacity="1.000000" fill-rule="evenodd"/>
		<path id="Vector" d="M205.98 383.02L217.71 383.02L217.71 396.48L205.98 396.48L205.98 383.02Z" fill="#00ACF4" fill-opacity="1.000000" fill-rule="evenodd"/>
		<g opacity="0.300000">
			<path id="Vector" d="M205.98 383.02L217.71 383.02L217.71 396.48L205.98 396.48L205.98 383.02Z" fill="#FFFFFF" fill-opacity="1.000000" fill-rule="evenodd"/>
		</g>
		<path id="Vector" d="M207.45 384.47L211.56 384.47L211.56 389.46L207.45 389.46L207.45 384.47Z" fill="#00ACF4" fill-opacity="1.000000" fill-rule="evenodd"/>
		<path id="Vector" d="M212.15 384.47L216.25 384.47L216.25 389.46L212.15 389.46L212.15 384.47Z" fill="#00ACF4" fill-opacity="1.000000" fill-rule="evenodd"/>
		<path id="Vector" d="M207.45 390.04L211.56 390.04L211.56 395.03L207.45 395.03L207.45 390.04Z" fill="#00ACF4" fill-opacity="1.000000" fill-rule="evenodd"/>
		<path id="Vector" d="M212.15 390.04L216.25 390.04L216.25 395.03L212.15 395.03L212.15 390.04Z" fill="#00ACF4" fill-opacity="1.000000" fill-rule="evenodd"/>
		<path id="Vector" d="M201.3 442.05L205.99 442.05L205.99 454.35L201.3 454.35L201.3 442.05Z" fill="#00ACF4" fill-opacity="1.000000" fill-rule="evenodd"/>
		<path id="Vector" d="M217.71 442.05L222.41 442.05L222.41 454.35L217.71 454.35L217.71 442.05Z" fill="#00ACF4" fill-opacity="1.000000" fill-rule="evenodd"/>
		<path id="Vector" d="M205.98 441.47L217.71 441.47L217.71 454.93L205.98 454.93L205.98 441.47Z" fill="#00ACF4" fill-opacity="1.000000" fill-rule="evenodd"/>
		<g opacity="0.300000">
			<path id="Vector" d="M205.98 441.47L217.71 441.47L217.71 454.93L205.98 454.93L205.98 441.47Z" fill="#FFFFFF" fill-opacity="1.000000" fill-rule="evenodd"/>
		</g>
		<path id="Vector" d="M207.45 442.92L211.56 442.92L211.56 447.9L207.45 447.9L207.45 442.92Z" fill="#00ACF4" fill-opacity="1.000000" fill-rule="evenodd"/>
		<path id="Vector" d="M212.15 442.92L216.25 442.92L216.25 447.9L212.15 447.9L212.15 442.92Z" fill="#00ACF4" fill-opacity="1.000000" fill-rule="evenodd"/>
		<path id="Vector" d="M207.45 448.48L211.56 448.48L211.56 453.47L207.45 453.47L207.45 448.48Z" fill="#00ACF4" fill-opacity="1.000000" fill-rule="evenodd"/>
		<path id="Vector" d="M212.15 448.48L216.25 448.48L216.25 453.47L212.15 453.47L212.15 448.48Z" fill="#00ACF4" fill-opacity="1.000000" fill-rule="evenodd"/>
		<path id="Vector" d="M183.78 412.24L192.85 412.24L192.85 425.7L183.78 425.7L183.78 412.24Z" fill="#00ACF4" fill-opacity="1.000000" fill-rule="evenodd"/>
		<g opacity="0.800000">
			<path id="Vector" d="M183.78 412.24L192.85 412.24L192.85 425.7L183.78 425.7L183.78 412.24Z" fill="#FFFFFF" fill-opacity="1.000000" fill-rule="evenodd"/>
		</g>
		<path id="Vector" d="M184.9 413.7L188.08 413.7L188.08 418.68L184.9 418.68L184.9 413.7Z" fill="#00ACF4" fill-opacity="1.000000" fill-rule="evenodd"/>
		<path id="Vector" d="M188.53 413.7L191.7 413.7L191.7 418.68L188.53 418.68L188.53 413.7Z" fill="#00ACF4" fill-opacity="1.000000" fill-rule="evenodd"/>
		<path id="Vector" d="M184.9 419.26L188.08 419.26L188.08 424.25L184.9 424.25L184.9 419.26Z" fill="#00ACF4" fill-opacity="1.000000" fill-rule="evenodd"/>
		<path id="Vector" d="M188.53 419.26L191.7 419.26L191.7 424.25L188.53 424.25L188.53 419.26Z" fill="#00ACF4" fill-opacity="1.000000" fill-rule="evenodd"/>
		<path id="Vector" d="M183.78 470.69L192.85 470.69L192.85 484.15L183.78 484.15L183.78 470.69Z" fill="#00ACF4" fill-opacity="1.000000" fill-rule="evenodd"/>
		<g opacity="0.800000">
			<path id="Vector" d="M183.78 470.69L192.85 470.69L192.85 484.15L183.78 484.15L183.78 470.69Z" fill="#FFFFFF" fill-opacity="1.000000" fill-rule="evenodd"/>
		</g>
		<path id="Vector" d="M184.9 472.15L188.08 472.15L188.08 477.13L184.9 477.13L184.9 472.15Z" fill="#00ACF4" fill-opacity="1.000000" fill-rule="evenodd"/>
		<path id="Vector" d="M188.53 472.15L191.7 472.15L191.7 477.13L188.53 477.13L188.53 472.15Z" fill="#00ACF4" fill-opacity="1.000000" fill-rule="evenodd"/>
		<path id="Vector" d="M184.9 477.71L188.08 477.71L188.08 482.7L184.9 482.7L184.9 477.71Z" fill="#00ACF4" fill-opacity="1.000000" fill-rule="evenodd"/>
		<path id="Vector" d="M188.53 477.71L191.7 477.71L191.7 482.7L188.53 482.7L188.53 477.71Z" fill="#00ACF4" fill-opacity="1.000000" fill-rule="evenodd"/>
		<path id="Vector" d="M31.09 385.51L38.27 385.51L38.27 388.31L37.1 388.31L37.1 398.72L32.25 398.72L32.25 388.31L31.09 388.31L31.09 385.51Z" fill="#00ACF4" fill-opacity="1.000000" fill-rule="nonzero"/>
		<g opacity="0.200000">
			<path id="Vector" d="M31.09 385.51L38.27 385.51L38.27 388.31L37.1 388.31L37.1 398.72L32.25 398.72L32.25 388.31L31.09 388.31L31.09 385.51Z" fill="#00ACF4" fill-opacity="1.000000" fill-rule="nonzero"/>
		</g>
		<path id="Vector" d="M64.18 376.24L89.7 415.07L89.7 500L38.67 500L38.67 415.07L64.18 376.24Z" fill="#00ACF4" fill-opacity="1.000000" fill-rule="nonzero"/>
		<g opacity="0.800000">
			<path id="Vector" d="M64.18 376.24L89.7 415.07L89.7 500L38.67 500L38.67 415.07L64.18 376.24Z" fill="#FFFFFF" fill-opacity="1.000000" fill-rule="nonzero"/>
		</g>
		<path id="Vector" d="M45.55 377.82L49.43 371.93L64.18 371.93L92.62 415.07L77.86 415.07L45.55 415.07L45.55 377.82Z" fill="#00ACF4" fill-opacity="1.000000" fill-rule="nonzero"/>
		<g opacity="0.200000">
			<path id="Vector" d="M45.55 377.82L49.43 371.93L64.18 371.93L92.62 415.07L77.86 415.07L45.55 415.07L45.55 377.82Z" fill="#00ACF4" fill-opacity="1.000000" fill-rule="nonzero"/>
		</g>
		<path id="Vector" d="M77.86 415.07L49.43 371.93L21 415.07L77.86 415.07Z" fill="#00ACF4" fill-opacity="1.000000" fill-rule="nonzero"/>
		<path id="Vector" d="M49.43 376.24L74.95 415.07L74.95 500L23.91 500L23.91 415.07L49.43 376.24Z" fill="#00ACF4" fill-opacity="1.000000" fill-rule="nonzero"/>
		<g opacity="0.500000">
			<path id="Vector" d="M49.43 376.24L74.95 415.07L74.95 500L23.91 500L23.91 415.07L49.43 376.24Z" fill="#FFFFFF" fill-opacity="1.000000" fill-rule="nonzero"/>
		</g>
		<path id="Vector" d="M43.42 393.88L55.45 393.88L55.45 407.34L43.42 407.34L43.42 393.88Z" fill="#00ACF4" fill-opacity="1.000000" fill-rule="evenodd"/>
		<g opacity="0.700000">
			<path id="Vector" d="M43.42 393.88L55.45 393.88L55.45 407.34L43.42 407.34L43.42 393.88Z" fill="#FFFFFF" fill-opacity="1.000000" fill-rule="evenodd"/>
		</g>
		<path id="Vector" d="M49.72 395.32L53.83 395.32L53.83 400.31L49.72 400.31L49.72 395.32Z" fill="#00ACF4" fill-opacity="1.000000" fill-rule="evenodd"/>
		<path id="Vector" d="M45.03 395.32L49.14 395.32L49.14 400.31L45.03 400.31L45.03 395.32Z" fill="#00ACF4" fill-opacity="1.000000" fill-rule="evenodd"/>
		<path id="Vector" d="M49.72 400.9L53.83 400.9L53.83 405.89L49.72 405.89L49.72 400.9Z" fill="#00ACF4" fill-opacity="1.000000" fill-rule="evenodd"/>
		<path id="Vector" d="M45.03 400.9L49.14 400.9L49.14 405.89L45.03 405.89L45.03 400.9Z" fill="#00ACF4" fill-opacity="1.000000" fill-rule="evenodd"/>
		<path id="Vector" d="M34.68 417.72L64.18 417.72L64.18 436.8L34.68 436.8L34.68 417.72Z" fill="#00ACF4" fill-opacity="1.000000" fill-rule="evenodd"/>
		<g opacity="0.700000">
			<path id="Vector" d="M34.68 417.72L64.18 417.72L64.18 436.8L34.68 436.8L34.68 417.72Z" fill="#FFFFFF" fill-opacity="1.000000" fill-rule="evenodd"/>
		</g>
		<path id="Vector" d="M56.81 419.77L62.25 419.77L62.25 426.85L56.81 426.85L56.81 419.77Z" fill="#00ACF4" fill-opacity="1.000000" fill-rule="evenodd"/>
		<path id="Vector" d="M50.59 419.77L56.03 419.77L56.03 426.85L50.59 426.85L50.59 419.77Z" fill="#00ACF4" fill-opacity="1.000000" fill-rule="evenodd"/>
		<path id="Vector" d="M56.81 427.67L62.25 427.67L62.25 434.75L56.81 434.75L56.81 427.67Z" fill="#00ACF4" fill-opacity="1.000000" fill-rule="evenodd"/>
		<path id="Vector" d="M50.59 427.67L56.03 427.67L56.03 434.75L50.59 434.75L50.59 427.67Z" fill="#00ACF4" fill-opacity="1.000000" fill-rule="evenodd"/>
		<path id="Vector" d="M64.18 418.55L70.39 418.55L70.39 435.98L64.18 435.98L64.18 418.55Z" fill="#00ACF4" fill-opacity="1.000000" fill-rule="evenodd"/>
		<path id="Vector" d="M28.47 418.55L34.68 418.55L34.68 435.98L28.47 435.98L28.47 418.55Z" fill="#00ACF4" fill-opacity="1.000000" fill-rule="evenodd"/>
		<path id="Vector" d="M42.83 419.77L48.27 419.77L48.27 426.85L42.83 426.85L42.83 419.77Z" fill="#00ACF4" fill-opacity="1.000000" fill-rule="evenodd"/>
		<path id="Vector" d="M36.62 419.77L42.05 419.77L42.05 426.85L36.62 426.85L36.62 419.77Z" fill="#00ACF4" fill-opacity="1.000000" fill-rule="evenodd"/>
		<path id="Vector" d="M42.83 427.67L48.27 427.67L48.27 434.75L42.83 434.75L42.83 427.67Z" fill="#00ACF4" fill-opacity="1.000000" fill-rule="evenodd"/>
		<path id="Vector" d="M36.62 427.67L42.05 427.67L42.05 434.75L36.62 434.75L36.62 427.67Z" fill="#00ACF4" fill-opacity="1.000000" fill-rule="evenodd"/>
		<path id="Vector" d="M34.68 446.44L64.18 446.44L64.18 465.52L34.68 465.52L34.68 446.44Z" fill="#00ACF4" fill-opacity="1.000000" fill-rule="evenodd"/>
		<g opacity="0.700000">
			<path id="Vector" d="M34.68 446.44L64.18 446.44L64.18 465.52L34.68 465.52L34.68 446.44Z" fill="#FFFFFF" fill-opacity="1.000000" fill-rule="evenodd"/>
		</g>
		<path id="Vector" d="M56.81 448.49L62.25 448.49L62.25 455.57L56.81 455.57L56.81 448.49Z" fill="#00ACF4" fill-opacity="1.000000" fill-rule="evenodd"/>
		<path id="Vector" d="M50.59 448.49L56.03 448.49L56.03 455.57L50.59 455.57L50.59 448.49Z" fill="#00ACF4" fill-opacity="1.000000" fill-rule="evenodd"/>
		<path id="Vector" d="M56.81 456.39L62.25 456.39L62.25 463.47L56.81 463.47L56.81 456.39Z" fill="#00ACF4" fill-opacity="1.000000" fill-rule="evenodd"/>
		<path id="Vector" d="M50.59 456.39L56.03 456.39L56.03 463.47L50.59 463.47L50.59 456.39Z" fill="#00ACF4" fill-opacity="1.000000" fill-rule="evenodd"/>
		<path id="Vector" d="M64.18 447.27L70.39 447.27L70.39 464.7L64.18 464.7L64.18 447.27Z" fill="#00ACF4" fill-opacity="1.000000" fill-rule="evenodd"/>
		<path id="Vector" d="M28.47 447.27L34.68 447.27L34.68 464.7L28.47 464.7L28.47 447.27Z" fill="#00ACF4" fill-opacity="1.000000" fill-rule="evenodd"/>
		<path id="Vector" d="M42.83 448.49L48.27 448.49L48.27 455.57L42.83 455.57L42.83 448.49Z" fill="#00ACF4" fill-opacity="1.000000" fill-rule="evenodd"/>
		<path id="Vector" d="M36.62 448.49L42.05 448.49L42.05 455.57L36.62 455.57L36.62 448.49Z" fill="#00ACF4" fill-opacity="1.000000" fill-rule="evenodd"/>
		<path id="Vector" d="M42.83 456.39L48.27 456.39L48.27 463.47L42.83 463.47L42.83 456.39Z" fill="#00ACF4" fill-opacity="1.000000" fill-rule="evenodd"/>
		<path id="Vector" d="M36.62 456.39L42.05 456.39L42.05 463.47L36.62 463.47L36.62 456.39Z" fill="#00ACF4" fill-opacity="1.000000" fill-rule="evenodd"/>
		<path id="Vector" d="M58.29 500L40.56 500L40.56 475.54L58.29 475.54L58.29 500Z" fill="#00ACF4" fill-opacity="1.000000" fill-rule="evenodd"/>
		<g opacity="0.700000">
			<path id="Vector" d="M58.29 500L40.56 500L40.56 475.54L58.29 475.54L58.29 500Z" fill="#FFFFFF" fill-opacity="1.000000" fill-rule="evenodd"/>
		</g>
		<path id="Vector" d="M41.67 470.41L57.19 470.41L60.98 476.4L37.89 476.4L41.67 470.41Z" fill="#00ACF4" fill-opacity="1.000000" fill-rule="nonzero"/>
		<path id="Vector" d="M49.77 479.69L55.2 479.69L55.2 486.03L49.77 486.03L49.77 479.69Z" fill="#00ACF4" fill-opacity="1.000000" fill-rule="evenodd"/>
		<path id="Vector" d="M43.66 479.69L49.09 479.69L49.09 486.03L43.66 486.03L43.66 479.69Z" fill="#00ACF4" fill-opacity="1.000000" fill-rule="evenodd"/>
		<path id="Vector" d="M49.77 486.67L55.2 486.67L55.2 493.01L49.77 493.01L49.77 486.67Z" fill="#00ACF4" fill-opacity="1.000000" fill-rule="evenodd"/>
		<path id="Vector" d="M43.66 486.67L49.09 486.67L49.09 493.01L43.66 493.01L43.66 486.67Z" fill="#00ACF4" fill-opacity="1.000000" fill-rule="evenodd"/>
		<path id="Vector" d="M49.77 493.66L55.2 493.66L55.2 500L49.77 500L49.77 493.66Z" fill="#00ACF4" fill-opacity="1.000000" fill-rule="evenodd"/>
		<path id="Vector" d="M43.66 493.66L49.09 493.66L49.09 500L43.66 500L43.66 493.66Z" fill="#00ACF4" fill-opacity="1.000000" fill-rule="evenodd"/>
		<path id="Vector" d="M209.69 414.53L282.59 414.53L282.59 500L209.69 500L209.69 414.53Z" fill="#00ACF4" fill-opacity="1.000000" fill-rule="evenodd"/>
		<g opacity="0.600000">
			<path id="Vector" d="M209.69 414.53L282.59 414.53L282.59 500L209.69 500L209.69 414.53Z" fill="#FFFFFF" fill-opacity="1.000000" fill-rule="evenodd"/>
		</g>
		<path id="Vector" d="M263.61 414.53L299.61 414.53L299.61 500L263.61 500L263.61 414.53Z" fill="#00ACF4" fill-opacity="1.000000" fill-rule="evenodd"/>
		<g opacity="0.800000">
			<path id="Vector" d="M263.61 414.53L299.61 414.53L299.61 500L263.61 500L263.61 414.53Z" fill="#FFFFFF" fill-opacity="1.000000" fill-rule="evenodd"/>
		</g>
		<path id="Vector" d="M290.71 417.69L276.47 391.54L215.82 391.54L201.58 417.69L290.71 417.69Z" fill="#00ACF4" fill-opacity="1.000000" fill-rule="nonzero"/>
		<g opacity="0.300000">
			<path id="Vector" d="M290.71 417.69L276.47 391.54L215.82 391.54L201.58 417.69L290.71 417.69Z" fill="#00ACF4" fill-opacity="1.000000" fill-rule="nonzero"/>
		</g>
		<path id="Vector" d="M307.74 417.69L293.49 391.54L269.74 391.54L255.5 417.69L307.74 417.69Z" fill="#00ACF4" fill-opacity="1.000000" fill-rule="nonzero"/>
		<g opacity="0.200000">
			<path id="Vector" d="M307.74 417.69L293.49 391.54L269.74 391.54L255.5 417.69L307.74 417.69Z" fill="#00ACF4" fill-opacity="1.000000" fill-rule="nonzero"/>
		</g>
		<path id="Vector" d="M217.46 424.77L230.5 424.77L230.5 439.72L217.46 439.72L217.46 424.77Z" fill="#00ACF4" fill-opacity="1.000000" fill-rule="evenodd"/>
		<g opacity="0.300000">
			<path id="Vector" d="M217.46 424.77L230.5 424.77L230.5 439.72L217.46 439.72L217.46 424.77Z" fill="#FFFFFF" fill-opacity="1.000000" fill-rule="evenodd"/>
		</g>
		<path id="Vector" d="M219.08 426.38L223.64 426.38L223.64 431.92L219.08 431.92L219.08 426.38Z" fill="#00ACF4" fill-opacity="1.000000" fill-rule="evenodd"/>
		<path id="Vector" d="M224.3 426.38L228.86 426.38L228.86 431.92L224.3 431.92L224.3 426.38Z" fill="#00ACF4" fill-opacity="1.000000" fill-rule="evenodd"/>
		<path id="Vector" d="M219.08 432.57L223.64 432.57L223.64 438.11L219.08 438.11L219.08 432.57Z" fill="#00ACF4" fill-opacity="1.000000" fill-rule="evenodd"/>
		<path id="Vector" d="M224.3 432.57L228.86 432.57L228.86 438.11L224.3 438.11L224.3 432.57Z" fill="#00ACF4" fill-opacity="1.000000" fill-rule="evenodd"/>
		<path id="Vector" d="M243.14 424.77L256.18 424.77L256.18 439.72L243.14 439.72L243.14 424.77Z" fill="#00ACF4" fill-opacity="1.000000" fill-rule="evenodd"/>
		<g opacity="0.300000">
			<path id="Vector" d="M243.14 424.77L256.18 424.77L256.18 439.72L243.14 439.72L243.14 424.77Z" fill="#FFFFFF" fill-opacity="1.000000" fill-rule="evenodd"/>
		</g>
		<path id="Vector" d="M244.77 426.38L249.33 426.38L249.33 431.92L244.77 431.92L244.77 426.38Z" fill="#00ACF4" fill-opacity="1.000000" fill-rule="evenodd"/>
		<path id="Vector" d="M249.99 426.38L254.55 426.38L254.55 431.92L249.99 431.92L249.99 426.38Z" fill="#00ACF4" fill-opacity="1.000000" fill-rule="evenodd"/>
		<path id="Vector" d="M244.77 432.57L249.33 432.57L249.33 438.11L244.77 438.11L244.77 432.57Z" fill="#00ACF4" fill-opacity="1.000000" fill-rule="evenodd"/>
		<path id="Vector" d="M249.99 432.57L254.55 432.57L254.55 438.11L249.99 438.11L249.99 432.57Z" fill="#00ACF4" fill-opacity="1.000000" fill-rule="evenodd"/>
		<path id="Vector" d="M269.72 425.41L274.94 425.41L274.94 439.08L269.72 439.08L269.72 425.41Z" fill="#00ACF4" fill-opacity="1.000000" fill-rule="evenodd"/>
		<path id="Vector" d="M287.97 425.41L293.19 425.41L293.19 439.08L287.97 439.08L287.97 425.41Z" fill="#00ACF4" fill-opacity="1.000000" fill-rule="evenodd"/>
		<path id="Vector" d="M274.94 424.77L287.97 424.77L287.97 439.72L274.94 439.72L274.94 424.77Z" fill="#00ACF4" fill-opacity="1.000000" fill-rule="evenodd"/>
		<g opacity="0.300000">
			<path id="Vector" d="M274.94 424.77L287.97 424.77L287.97 439.72L274.94 439.72L274.94 424.77Z" fill="#FFFFFF" fill-opacity="1.000000" fill-rule="evenodd"/>
		</g>
		<path id="Vector" d="M276.57 426.38L281.13 426.38L281.13 431.92L276.57 431.92L276.57 426.38Z" fill="#00ACF4" fill-opacity="1.000000" fill-rule="evenodd"/>
		<path id="Vector" d="M281.78 426.38L286.34 426.38L286.34 431.92L281.78 431.92L281.78 426.38Z" fill="#00ACF4" fill-opacity="1.000000" fill-rule="evenodd"/>
		<path id="Vector" d="M276.57 432.57L281.13 432.57L281.13 438.11L276.57 438.11L276.57 432.57Z" fill="#00ACF4" fill-opacity="1.000000" fill-rule="evenodd"/>
		<path id="Vector" d="M281.78 432.57L286.34 432.57L286.34 438.11L281.78 438.11L281.78 432.57Z" fill="#00ACF4" fill-opacity="1.000000" fill-rule="evenodd"/>
		<path id="Vector" d="M217.46 445.79L230.5 445.79L230.5 460.74L217.46 460.74L217.46 445.79Z" fill="#00ACF4" fill-opacity="1.000000" fill-rule="evenodd"/>
		<g opacity="0.300000">
			<path id="Vector" d="M217.46 445.79L230.5 445.79L230.5 460.74L217.46 460.74L217.46 445.79Z" fill="#FFFFFF" fill-opacity="1.000000" fill-rule="evenodd"/>
		</g>
		<path id="Vector" d="M219.08 447.4L223.64 447.4L223.64 452.94L219.08 452.94L219.08 447.4Z" fill="#00ACF4" fill-opacity="1.000000" fill-rule="evenodd"/>
		<path id="Vector" d="M224.3 447.4L228.86 447.4L228.86 452.94L224.3 452.94L224.3 447.4Z" fill="#00ACF4" fill-opacity="1.000000" fill-rule="evenodd"/>
		<path id="Vector" d="M219.08 453.59L223.64 453.59L223.64 459.13L219.08 459.13L219.08 453.59Z" fill="#00ACF4" fill-opacity="1.000000" fill-rule="evenodd"/>
		<path id="Vector" d="M224.3 453.59L228.86 453.59L228.86 459.13L224.3 459.13L224.3 453.59Z" fill="#00ACF4" fill-opacity="1.000000" fill-rule="evenodd"/>
		<path id="Vector" d="M243.14 445.79L256.18 445.79L256.18 460.74L243.14 460.74L243.14 445.79Z" fill="#00ACF4" fill-opacity="1.000000" fill-rule="evenodd"/>
		<g opacity="0.300000">
			<path id="Vector" d="M243.14 445.79L256.18 445.79L256.18 460.74L243.14 460.74L243.14 445.79Z" fill="#FFFFFF" fill-opacity="1.000000" fill-rule="evenodd"/>
		</g>
		<path id="Vector" d="M244.77 447.4L249.33 447.4L249.33 452.94L244.77 452.94L244.77 447.4Z" fill="#00ACF4" fill-opacity="1.000000" fill-rule="evenodd"/>
		<path id="Vector" d="M249.99 447.4L254.55 447.4L254.55 452.94L249.99 452.94L249.99 447.4Z" fill="#00ACF4" fill-opacity="1.000000" fill-rule="evenodd"/>
		<path id="Vector" d="M244.77 453.59L249.33 453.59L249.33 459.13L244.77 459.13L244.77 453.59Z" fill="#00ACF4" fill-opacity="1.000000" fill-rule="evenodd"/>
		<path id="Vector" d="M249.99 453.59L254.55 453.59L254.55 459.13L249.99 459.13L249.99 453.59Z" fill="#00ACF4" fill-opacity="1.000000" fill-rule="evenodd"/>
		<path id="Vector" d="M269.72 446.43L274.94 446.43L274.94 460.1L269.72 460.1L269.72 446.43Z" fill="#00ACF4" fill-opacity="1.000000" fill-rule="evenodd"/>
		<path id="Vector" d="M287.97 446.43L293.19 446.43L293.19 460.1L287.97 460.1L287.97 446.43Z" fill="#00ACF4" fill-opacity="1.000000" fill-rule="evenodd"/>
		<path id="Vector" d="M274.94 445.79L287.97 445.79L287.97 460.74L274.94 460.74L274.94 445.79Z" fill="#00ACF4" fill-opacity="1.000000" fill-rule="evenodd"/>
		<g opacity="0.300000">
			<path id="Vector" d="M274.94 445.79L287.97 445.79L287.97 460.74L274.94 460.74L274.94 445.79Z" fill="#FFFFFF" fill-opacity="1.000000" fill-rule="evenodd"/>
		</g>
		<path id="Vector" d="M276.57 447.4L281.13 447.4L281.13 452.94L276.57 452.94L276.57 447.4Z" fill="#00ACF4" fill-opacity="1.000000" fill-rule="evenodd"/>
		<path id="Vector" d="M281.78 447.4L286.34 447.4L286.34 452.94L281.78 452.94L281.78 447.4Z" fill="#00ACF4" fill-opacity="1.000000" fill-rule="evenodd"/>
		<path id="Vector" d="M276.57 453.59L281.13 453.59L281.13 459.13L276.57 459.13L276.57 453.59Z" fill="#00ACF4" fill-opacity="1.000000" fill-rule="evenodd"/>
		<path id="Vector" d="M281.78 453.59L286.34 453.59L286.34 459.13L281.78 459.13L281.78 453.59Z" fill="#00ACF4" fill-opacity="1.000000" fill-rule="evenodd"/>
		<path id="Vector" d="M209.69 477.44L299.61 477.44L299.61 500L209.69 500L209.69 477.44Z" fill="#00ACF4" fill-opacity="1.000000" fill-rule="evenodd"/>
		<g opacity="0.100000">
			<path id="Vector" d="M209.69 477.44L263.61 477.44L263.61 500L209.69 500L209.69 477.44Z" fill="#00ACF4" fill-opacity="1.000000" fill-rule="evenodd"/>
		</g>
		<path id="Vector" d="M226.54 472.82L243.57 472.82L243.57 500L226.54 500L226.54 472.82Z" fill="#00ACF4" fill-opacity="1.000000" fill-rule="evenodd"/>
		<g opacity="0.300000">
			<path id="Vector" d="M226.54 472.82L243.57 472.82L243.57 500L226.54 500L226.54 472.82Z" fill="#FFFFFF" fill-opacity="1.000000" fill-rule="evenodd"/>
		</g>
		<path id="Vector" d="M242.52 467.13L227.6 467.13L223.98 473.78L246.14 473.78L242.52 467.13Z" fill="#00ACF4" fill-opacity="1.000000" fill-rule="nonzero"/>
		<path id="Vector" d="M229.52 477.44L234.73 477.44L234.73 484.47L229.52 484.47L229.52 477.44Z" fill="#00ACF4" fill-opacity="1.000000" fill-rule="evenodd"/>
		<path id="Vector" d="M235.38 477.44L240.6 477.44L240.6 484.47L235.38 484.47L235.38 477.44Z" fill="#00ACF4" fill-opacity="1.000000" fill-rule="evenodd"/>
		<path id="Vector" d="M229.52 485.19L234.73 485.19L234.73 492.23L229.52 492.23L229.52 485.19Z" fill="#00ACF4" fill-opacity="1.000000" fill-rule="evenodd"/>
		<path id="Vector" d="M235.38 485.19L240.6 485.19L240.6 492.23L235.38 492.23L235.38 485.19Z" fill="#00ACF4" fill-opacity="1.000000" fill-rule="evenodd"/>
		<path id="Vector" d="M229.52 492.96L234.73 492.96L234.73 500L229.52 500L229.52 492.96Z" fill="#00ACF4" fill-opacity="1.000000" fill-rule="evenodd"/>
		<path id="Vector" d="M235.38 492.96L240.6 492.96L240.6 500L235.38 500L235.38 492.96Z" fill="#00ACF4" fill-opacity="1.000000" fill-rule="evenodd"/>
		<path id="Vector" d="M229.41 413.21L229.41 391.54L257.44 391.54L245.64 413.21L229.41 413.21Z" fill="#00ACF4" fill-opacity="1.000000" fill-rule="nonzero"/>
		<g opacity="0.800000">
			<path id="Vector" d="M229.41 413.21L229.41 391.54L257.44 391.54L245.64 413.21L229.41 413.21Z" fill="#FFFFFF" fill-opacity="1.000000" fill-rule="nonzero"/>
		</g>
		<path id="Vector" d="M245.61 413.22L228.58 413.22L228.58 396.38L245.61 396.38L245.61 413.22Z" fill="#00ACF4" fill-opacity="1.000000" fill-rule="evenodd"/>
		<g opacity="0.600000">
			<path id="Vector" d="M245.61 413.22L228.58 413.22L228.58 396.38L245.61 396.38L245.61 413.22Z" fill="#FFFFFF" fill-opacity="1.000000" fill-rule="evenodd"/>
		</g>
		<path id="Vector" d="M240.69 411.22L233.51 411.22C233.35 411.22 233.2 411.19 233.06 411.13C232.91 411.07 232.78 410.99 232.67 410.88C232.56 410.77 232.48 410.64 232.42 410.5C232.36 410.36 232.33 410.21 232.33 410.06L232.33 409.2L241.86 409.2L241.86 410.06C241.86 410.36 241.74 410.66 241.52 410.88C241.3 411.1 241 411.22 240.69 411.22Z" fill="#00ACF4" fill-opacity="1.000000" fill-rule="nonzero"/>
		<path id="Vector" d="M237.34 402.72L240.12 402.72L240.12 405.46L237.34 405.46L237.34 402.72Z" fill="#00ACF4" fill-opacity="1.000000" fill-rule="evenodd"/>
		<path id="Vector" d="M234.09 402.72L236.86 402.72L236.86 405.46L234.09 405.46L234.09 402.72Z" fill="#00ACF4" fill-opacity="1.000000" fill-rule="evenodd"/>
		<path id="Vector" d="M237.34 405.95L240.12 405.95L240.12 408.69L237.34 408.69L237.34 405.95Z" fill="#00ACF4" fill-opacity="1.000000" fill-rule="evenodd"/>
		<path id="Vector" d="M234.09 405.95L236.86 405.95L236.86 408.69L234.09 408.69L234.09 405.95Z" fill="#00ACF4" fill-opacity="1.000000" fill-rule="evenodd"/>
		<path id="Vector" d="M240.11 402.26C240.14 401.85 240.08 401.44 239.93 401.06C239.79 400.68 239.58 400.33 239.29 400.04C239.01 399.74 238.67 399.51 238.29 399.35C237.92 399.19 237.51 399.11 237.1 399.11C236.69 399.11 236.28 399.19 235.91 399.35C235.53 399.51 235.19 399.74 234.91 400.04C234.63 400.33 234.41 400.68 234.27 401.06C234.13 401.44 234.06 401.85 234.09 402.26L240.11 402.26Z" fill="#00ACF4" fill-opacity="1.000000" fill-rule="nonzero"/>
		<path id="Vector" d="M240.12 397.34L243.27 391.54L257.44 391.54L254.28 397.34L240.12 397.34Z" fill="#00ACF4" fill-opacity="1.000000" fill-rule="nonzero"/>
		<g opacity="0.200000">
			<path id="Vector" d="M240.12 397.34L243.27 391.54L257.44 391.54L254.28 397.34L240.12 397.34Z" fill="#00ACF4" fill-opacity="1.000000" fill-rule="nonzero"/>
		</g>
		<path id="Vector" d="M245.02 391.54L248.18 397.34L226.01 397.34L229.17 391.54L245.02 391.54Z" fill="#00ACF4" fill-opacity="1.000000" fill-rule="nonzero"/>
		<path id="Vector" d="M82.43 427.42L168.47 427.42L168.47 500L82.43 500L82.43 427.42Z" fill="#00ACF4" fill-opacity="1.000000" fill-rule="evenodd"/>
		<g opacity="0.500000">
			<path id="Vector" d="M82.43 427.42L168.47 427.42L168.47 500L82.43 500L82.43 427.42Z" fill="#FFFFFF" fill-opacity="1.000000" fill-rule="evenodd"/>
		</g>
		<path id="Vector" d="M176.58 430.58L162.34 404.43L88.56 404.43L74.32 430.58L176.58 430.58Z" fill="#00ACF4" fill-opacity="1.000000" fill-rule="nonzero"/>
		<g opacity="0.300000">
			<path id="Vector" d="M176.58 430.58L162.34 404.43L88.56 404.43L74.32 430.58L176.58 430.58Z" fill="#00ACF4" fill-opacity="1.000000" fill-rule="nonzero"/>
		</g>
		<path id="Vector" d="M99.46 427.42L185.49 427.42L185.49 500L99.46 500L99.46 427.42Z" fill="#00ACF4" fill-opacity="1.000000" fill-rule="evenodd"/>
		<g opacity="0.800000">
			<path id="Vector" d="M99.46 427.42L185.49 427.42L185.49 500L99.46 500L99.46 427.42Z" fill="#FFFFFF" fill-opacity="1.000000" fill-rule="evenodd"/>
		</g>
		<path id="Vector" d="M168.01 394.46L160.02 394.46L160.02 397.58L161.32 397.58L161.32 405.42L166.7 405.42L166.7 397.58L168.01 397.58L168.01 394.46Z" fill="#00ACF4" fill-opacity="1.000000" fill-rule="nonzero"/>
		<path id="Vector" d="M193.61 430.58L179.37 404.43L105.59 404.43L91.35 430.58L193.61 430.58Z" fill="#00ACF4" fill-opacity="1.000000" fill-rule="nonzero"/>
		<g opacity="0.200000">
			<path id="Vector" d="M193.61 430.58L179.37 404.43L105.59 404.43L91.35 430.58L193.61 430.58Z" fill="#00ACF4" fill-opacity="1.000000" fill-rule="nonzero"/>
		</g>
		<path id="Vector" d="M133.96 472.82L150.99 472.82L150.99 500L133.96 500L133.96 472.82Z" fill="#00ACF4" fill-opacity="1.000000" fill-rule="evenodd"/>
		<g opacity="0.400000">
			<path id="Vector" d="M133.96 472.82L150.99 472.82L150.99 500L133.96 500L133.96 472.82Z" fill="#FFFFFF" fill-opacity="1.000000" fill-rule="evenodd"/>
		</g>
		<path id="Vector" d="M149.93 467.13L135.02 467.13L131.39 473.78L153.56 473.78L149.93 467.13Z" fill="#00ACF4" fill-opacity="1.000000" fill-rule="nonzero"/>
		<path id="Vector" d="M136.94 477.44L142.15 477.44L142.15 484.47L136.94 484.47L136.94 477.44Z" fill="#00ACF4" fill-opacity="1.000000" fill-rule="evenodd"/>
		<path id="Vector" d="M142.8 477.44L148.02 477.44L148.02 484.47L142.8 484.47L142.8 477.44Z" fill="#00ACF4" fill-opacity="1.000000" fill-rule="evenodd"/>
		<path id="Vector" d="M136.94 485.19L142.15 485.19L142.15 492.23L136.94 492.23L136.94 485.19Z" fill="#00ACF4" fill-opacity="1.000000" fill-rule="evenodd"/>
		<path id="Vector" d="M142.8 485.19L148.02 485.19L148.02 492.23L142.8 492.23L142.8 485.19Z" fill="#00ACF4" fill-opacity="1.000000" fill-rule="evenodd"/>
		<path id="Vector" d="M136.94 492.96L142.15 492.96L142.15 500L136.94 500L136.94 492.96Z" fill="#00ACF4" fill-opacity="1.000000" fill-rule="evenodd"/>
		<path id="Vector" d="M142.8 492.96L148.02 492.96L148.02 500L142.8 500L142.8 492.96Z" fill="#00ACF4" fill-opacity="1.000000" fill-rule="evenodd"/>
		<path id="Vector" d="M108.55 436.56L133.32 436.56L133.32 451.52L108.55 451.52L108.55 436.56Z" fill="#00ACF4" fill-opacity="1.000000" fill-rule="evenodd"/>
		<g opacity="0.400000">
			<path id="Vector" d="M108.55 436.56L133.32 436.56L133.32 451.52L108.55 451.52L108.55 436.56Z" fill="#FFFFFF" fill-opacity="1.000000" fill-rule="evenodd"/>
		</g>
		<path id="Vector" d="M110.18 438.16L114.74 438.16L114.74 443.71L110.18 443.71L110.18 438.16Z" fill="#00ACF4" fill-opacity="1.000000" fill-rule="evenodd"/>
		<path id="Vector" d="M115.4 438.16L119.96 438.16L119.96 443.71L115.4 443.71L115.4 438.16Z" fill="#00ACF4" fill-opacity="1.000000" fill-rule="evenodd"/>
		<path id="Vector" d="M110.18 444.35L114.74 444.35L114.74 449.89L110.18 449.89L110.18 444.35Z" fill="#00ACF4" fill-opacity="1.000000" fill-rule="evenodd"/>
		<path id="Vector" d="M115.4 444.35L119.96 444.35L119.96 449.89L115.4 449.89L115.4 444.35Z" fill="#00ACF4" fill-opacity="1.000000" fill-rule="evenodd"/>
		<path id="Vector" d="M103.34 437.2L108.55 437.2L108.55 450.86L103.34 450.86L103.34 437.2Z" fill="#00ACF4" fill-opacity="1.000000" fill-rule="evenodd"/>
		<path id="Vector" d="M133.32 437.2L138.53 437.2L138.53 450.86L133.32 450.86L133.32 437.2Z" fill="#00ACF4" fill-opacity="1.000000" fill-rule="evenodd"/>
		<path id="Vector" d="M121.92 438.16L126.48 438.16L126.48 443.71L121.92 443.71L121.92 438.16Z" fill="#00ACF4" fill-opacity="1.000000" fill-rule="evenodd"/>
		<path id="Vector" d="M127.13 438.16L131.69 438.16L131.69 443.71L127.13 443.71L127.13 438.16Z" fill="#00ACF4" fill-opacity="1.000000" fill-rule="evenodd"/>
		<path id="Vector" d="M121.92 444.35L126.48 444.35L126.48 449.89L121.92 449.89L121.92 444.35Z" fill="#00ACF4" fill-opacity="1.000000" fill-rule="evenodd"/>
		<path id="Vector" d="M127.13 444.35L131.69 444.35L131.69 449.89L127.13 449.89L127.13 444.35Z" fill="#00ACF4" fill-opacity="1.000000" fill-rule="evenodd"/>
		<path id="Vector" d="M151.62 436.56L176.39 436.56L176.39 451.52L151.62 451.52L151.62 436.56Z" fill="#00ACF4" fill-opacity="1.000000" fill-rule="evenodd"/>
		<g opacity="0.400000">
			<path id="Vector" d="M151.62 436.56L176.39 436.56L176.39 451.52L151.62 451.52L151.62 436.56Z" fill="#FFFFFF" fill-opacity="1.000000" fill-rule="evenodd"/>
		</g>
		<path id="Vector" d="M153.25 438.16L157.82 438.16L157.82 443.71L153.25 443.71L153.25 438.16Z" fill="#00ACF4" fill-opacity="1.000000" fill-rule="evenodd"/>
		<path id="Vector" d="M158.47 438.16L163.03 438.16L163.03 443.71L158.47 443.71L158.47 438.16Z" fill="#00ACF4" fill-opacity="1.000000" fill-rule="evenodd"/>
		<path id="Vector" d="M153.25 444.35L157.82 444.35L157.82 449.89L153.25 449.89L153.25 444.35Z" fill="#00ACF4" fill-opacity="1.000000" fill-rule="evenodd"/>
		<path id="Vector" d="M158.47 444.35L163.03 444.35L163.03 449.89L158.47 449.89L158.47 444.35Z" fill="#00ACF4" fill-opacity="1.000000" fill-rule="evenodd"/>
		<path id="Vector" d="M146.41 437.2L151.62 437.2L151.62 450.86L146.41 450.86L146.41 437.2Z" fill="#00ACF4" fill-opacity="1.000000" fill-rule="evenodd"/>
		<path id="Vector" d="M176.39 437.2L181.6 437.2L181.6 450.86L176.39 450.86L176.39 437.2Z" fill="#00ACF4" fill-opacity="1.000000" fill-rule="evenodd"/>
		<path id="Vector" d="M164.99 438.16L169.55 438.16L169.55 443.71L164.99 443.71L164.99 438.16Z" fill="#00ACF4" fill-opacity="1.000000" fill-rule="evenodd"/>
		<path id="Vector" d="M170.2 438.16L174.76 438.16L174.76 443.71L170.2 443.71L170.2 438.16Z" fill="#00ACF4" fill-opacity="1.000000" fill-rule="evenodd"/>
		<path id="Vector" d="M164.99 444.35L169.55 444.35L169.55 449.89L164.99 449.89L164.99 444.35Z" fill="#00ACF4" fill-opacity="1.000000" fill-rule="evenodd"/>
		<path id="Vector" d="M170.2 444.35L174.76 444.35L174.76 449.89L170.2 449.89L170.2 444.35Z" fill="#00ACF4" fill-opacity="1.000000" fill-rule="evenodd"/>
		<path id="Vector" d="M103.34 468.46L108.55 468.46L108.55 482.13L103.34 482.13L103.34 468.46Z" fill="#00ACF4" fill-opacity="1.000000" fill-rule="evenodd"/>
		<path id="Vector" d="M121.59 468.46L126.8 468.46L126.8 482.13L121.59 482.13L121.59 468.46Z" fill="#00ACF4" fill-opacity="1.000000" fill-rule="evenodd"/>
		<path id="Vector" d="M108.55 467.82L121.59 467.82L121.59 482.77L108.55 482.77L108.55 467.82Z" fill="#00ACF4" fill-opacity="1.000000" fill-rule="evenodd"/>
		<g opacity="0.400000">
			<path id="Vector" d="M108.55 467.82L121.59 467.82L121.59 482.77L108.55 482.77L108.55 467.82Z" fill="#FFFFFF" fill-opacity="1.000000" fill-rule="evenodd"/>
		</g>
		<path id="Vector" d="M110.18 469.43L114.74 469.43L114.74 474.97L110.18 474.97L110.18 469.43Z" fill="#00ACF4" fill-opacity="1.000000" fill-rule="evenodd"/>
		<path id="Vector" d="M115.4 469.43L119.96 469.43L119.96 474.97L115.4 474.97L115.4 469.43Z" fill="#00ACF4" fill-opacity="1.000000" fill-rule="evenodd"/>
		<path id="Vector" d="M110.18 475.62L114.74 475.62L114.74 481.16L110.18 481.16L110.18 475.62Z" fill="#00ACF4" fill-opacity="1.000000" fill-rule="evenodd"/>
		<path id="Vector" d="M115.4 475.62L119.96 475.62L119.96 481.16L115.4 481.16L115.4 475.62Z" fill="#00ACF4" fill-opacity="1.000000" fill-rule="evenodd"/>
		<path id="Vector" d="M158.14 468.46L163.36 468.46L163.36 482.13L158.14 482.13L158.14 468.46Z" fill="#00ACF4" fill-opacity="1.000000" fill-rule="evenodd"/>
		<path id="Vector" d="M176.39 468.46L181.6 468.46L181.6 482.13L176.39 482.13L176.39 468.46Z" fill="#00ACF4" fill-opacity="1.000000" fill-rule="evenodd"/>
		<path id="Vector" d="M163.36 467.82L176.39 467.82L176.39 482.77L163.36 482.77L163.36 467.82Z" fill="#00ACF4" fill-opacity="1.000000" fill-rule="evenodd"/>
		<g opacity="0.400000">
			<path id="Vector" d="M163.36 467.82L176.39 467.82L176.39 482.77L163.36 482.77L163.36 467.82Z" fill="#FFFFFF" fill-opacity="1.000000" fill-rule="evenodd"/>
		</g>
		<path id="Vector" d="M164.99 469.43L169.55 469.43L169.55 474.97L164.99 474.97L164.99 469.43Z" fill="#00ACF4" fill-opacity="1.000000" fill-rule="evenodd"/>
		<path id="Vector" d="M170.2 469.43L174.76 469.43L174.76 474.97L170.2 474.97L170.2 469.43Z" fill="#00ACF4" fill-opacity="1.000000" fill-rule="evenodd"/>
		<path id="Vector" d="M164.99 475.62L169.55 475.62L169.55 481.16L164.99 481.16L164.99 475.62Z" fill="#00ACF4" fill-opacity="1.000000" fill-rule="evenodd"/>
		<path id="Vector" d="M170.2 475.62L174.76 475.62L174.76 481.16L170.2 481.16L170.2 475.62Z" fill="#00ACF4" fill-opacity="1.000000" fill-rule="evenodd"/>
		<path id="Vector" d="M150.16 426.11L150.16 404.43L122.13 404.43L133.94 426.11L150.16 426.11Z" fill="#00ACF4" fill-opacity="1.000000" fill-rule="nonzero"/>
		<g opacity="0.500000">
			<path id="Vector" d="M150.16 426.11L150.16 404.43L122.13 404.43L133.94 426.11L150.16 426.11Z" fill="#FFFFFF" fill-opacity="1.000000" fill-rule="nonzero"/>
		</g>
		<path id="Vector" d="M133.96 409.27L150.99 409.27L150.99 426.1L133.96 426.1L133.96 409.27Z" fill="#00ACF4" fill-opacity="1.000000" fill-rule="evenodd"/>
		<g opacity="0.800000">
			<path id="Vector" d="M133.96 409.27L150.99 409.27L150.99 426.1L133.96 426.1L133.96 409.27Z" fill="#FFFFFF" fill-opacity="1.000000" fill-rule="evenodd"/>
		</g>
		<path id="Vector" d="M137.74 422.05L147.27 422.05L147.27 422.9C147.27 423.21 147.15 423.51 146.93 423.73C146.71 423.95 146.41 424.07 146.09 424.07L138.91 424.07C138.6 424.07 138.3 423.95 138.08 423.73C137.86 423.51 137.74 423.21 137.74 422.9L137.74 422.05L137.74 422.05Z" fill="#00ACF4" fill-opacity="1.000000" fill-rule="nonzero"/>
		<path id="Vector" d="M139.46 415.61L142.23 415.61L142.23 418.36L139.46 418.36L139.46 415.61Z" fill="#00ACF4" fill-opacity="1.000000" fill-rule="evenodd"/>
		<path id="Vector" d="M142.72 415.61L145.5 415.61L145.5 418.36L142.72 418.36L142.72 415.61Z" fill="#00ACF4" fill-opacity="1.000000" fill-rule="evenodd"/>
		<path id="Vector" d="M139.46 418.84L142.23 418.84L142.23 421.59L139.46 421.59L139.46 418.84Z" fill="#00ACF4" fill-opacity="1.000000" fill-rule="evenodd"/>
		<path id="Vector" d="M142.72 418.84L145.5 418.84L145.5 421.59L142.72 421.59L142.72 418.84Z" fill="#00ACF4" fill-opacity="1.000000" fill-rule="evenodd"/>
		<path id="Vector" d="M139.46 415.15C139.44 414.74 139.5 414.34 139.64 413.96C139.78 413.58 140 413.23 140.28 412.93C140.56 412.64 140.9 412.4 141.28 412.24C141.66 412.08 142.06 412 142.47 412C142.88 412 143.29 412.08 143.67 412.24C144.04 412.4 144.38 412.64 144.66 412.93C144.95 413.23 145.17 413.58 145.31 413.96C145.45 414.34 145.51 414.74 145.49 415.15L139.46 415.15Z" fill="#00ACF4" fill-opacity="1.000000" fill-rule="nonzero"/>
		<path id="Vector" d="M139.46 410.23L136.3 404.43L122.13 404.43L125.29 410.23L139.46 410.23Z" fill="#00ACF4" fill-opacity="1.000000" fill-rule="nonzero"/>
		<g opacity="0.300000">
			<path id="Vector" d="M139.46 410.23L136.3 404.43L122.13 404.43L125.29 410.23L139.46 410.23Z" fill="#00ACF4" fill-opacity="1.000000" fill-rule="nonzero"/>
		</g>
		<path id="Vector" d="M134.54 404.43L131.39 410.23L153.56 410.23L150.4 404.43L134.54 404.43Z" fill="#00ACF4" fill-opacity="1.000000" fill-rule="nonzero"/>
		<path id="Vector" d="M86.82 485.34C86.82 485.34 70.89 483.54 69.25 479.19C67.93 475.7 75.74 469.79 76.65 466.16C77.35 463.36 75.46 457.37 76.32 454.61C77.09 452.17 81.85 448.84 82.43 446.35C82.71 445.17 81.28 442.76 81.53 441.58C82.2 438.89 85.63 432.45 88.39 432.89C92.72 433.58 94.57 444.76 94.74 449.1C94.8 450.74 92.62 453.73 92.79 455.38C93.09 458.29 98.57 462.73 98.46 465.65C98.46 466.88 95.82 468.56 95.74 469.79C95.68 472 100.72 475.38 100.13 477.53C99.21 481.19 86.82 485.34 86.82 485.34Z" fill="#00ACF4" fill-opacity="1.000000" fill-rule="nonzero"/>
		<path id="Vector" d="M91.34 462.17L93.33 460.28L93.24 460.07L91.51 461.72C91.39 461.83 91.25 461.91 91.09 461.96C90.93 462.01 90.76 462.02 90.6 462L87.51 461.4L87.06 443.75L86.41 443.75L85.66 472.5C83.28 473.24 80.86 473.87 78.41 474.37C77.43 474.5 74.45 474.37 74.45 474.37L74.45 474.72C74.45 474.72 77.58 474.94 78.63 474.86C79.14 474.86 80.67 474.48 80.67 474.48L78.63 476.37L78.84 476.61L81.39 474.36L85.59 473.34L84.89 499.98L88.45 499.98L87.47 461.88C87.47 461.88 90.27 462.42 91.21 462.44C92.15 462.47 94.65 462.11 94.65 462.11L94.77 461.94L91.34 462.17Z" fill="#00ACF4" fill-opacity="1.000000" fill-rule="nonzero"/>
	</g>
</svg>
