<svg width="54" height="54" viewBox="0 0 54 54" fill="none" xmlns="http://www.w3.org/2000/svg">
<path d="M47.4358 47.0534L41.4919 35.0992L42.789 34.4746C43.2517 34.2517 43.5877 33.8304 43.702 33.3297L44.5945 29.4197L47.0951 26.2841C47.4153 25.8826 47.5352 25.3571 47.4209 24.8565L46.5285 20.9465L47.4209 17.0365C47.5351 16.5357 47.4153 16.0104 47.0951 15.6087L44.5945 12.4733L43.702 8.56322C43.5878 8.06256 43.2517 7.64121 42.789 7.41836L39.1756 5.67823L36.6751 2.54264C36.3549 2.14112 35.8693 1.9073 35.3558 1.9073H31.3452L27.7316 0.167063C27.2688 -0.0556875 26.73 -0.0556875 26.2672 0.167063L22.6538 1.90719H18.6433C18.1298 1.90719 17.6441 2.14102 17.324 2.54254L14.8234 5.67812L11.2101 7.41825C10.7474 7.64111 10.4113 8.06245 10.297 8.56311L9.40454 12.4732L6.90398 15.6086C6.58378 16.0102 6.46386 16.5356 6.57819 17.0364L7.47056 20.9464L6.57819 24.8563C6.46397 25.357 6.58378 25.8825 6.90398 26.284L9.40454 29.4196L10.297 33.3296C10.4112 33.8303 10.7474 34.2516 11.2101 34.4745L12.5071 35.099L6.56322 47.0533C6.30281 47.577 6.33213 48.1982 6.64073 48.6949C6.9487 49.1907 7.49081 49.4921 8.07427 49.4921H8.07806L12.8947 49.4813L15.7926 53.3277C16.1131 53.7532 16.6134 53.9998 17.1401 53.9998C17.1917 53.9998 17.2436 53.9975 17.2957 53.9926C17.878 53.9388 18.3911 53.5873 18.6514 53.0635L24.671 40.9568L26.2674 41.7255C26.4988 41.8369 26.7492 41.8926 26.9996 41.8926C27.25 41.8926 27.5005 41.8369 27.7317 41.7255L29.3281 40.9568L35.3477 53.0635C35.6082 53.5872 36.1212 53.9387 36.7034 53.9926C36.7554 53.9974 36.8073 53.9998 36.859 53.9998C37.3857 53.9998 37.8861 53.7531 38.2066 53.3277L41.1044 49.4813L45.9211 49.4921C46.5034 49.4974 47.0497 49.1917 47.3583 48.6949C47.6669 48.1982 47.6962 47.5771 47.4358 47.0534ZM16.845 49.1161L15.0826 46.7767C14.7629 46.3524 14.2644 46.1058 13.731 46.1045L10.8009 46.111L15.3767 36.9083L17.3241 39.3502C17.6443 39.7517 18.1299 39.9855 18.6434 39.9855H21.3847L16.845 49.116V49.1161ZM26.9996 38.3324L23.7713 36.7778C23.5428 36.6678 23.2927 36.6107 23.0391 36.6107H19.456L17.222 33.8094C17.0639 33.6112 16.8633 33.4511 16.6348 33.3411L13.4067 31.7865L12.6093 28.2933C12.5529 28.0461 12.4415 27.8148 12.2835 27.6167L10.0495 24.8152L10.8468 21.322C10.9033 21.0748 10.9033 20.8182 10.8468 20.5709L10.0495 17.0777L12.2835 14.2764C12.4416 14.0782 12.553 13.8469 12.6093 13.5997L13.4067 10.1063L16.6348 8.55172C16.8633 8.44172 17.064 8.28162 17.222 8.08355L19.456 5.28219H23.0391C23.2927 5.28219 23.5428 5.22503 23.7713 5.11513L26.9996 3.56052L30.2279 5.11513C30.4563 5.22513 30.7065 5.28219 30.96 5.28219H34.5431L36.7772 8.08355C36.9353 8.28172 37.1359 8.44172 37.3643 8.55172L40.5925 10.1063L41.3898 13.5997C41.4463 13.8468 41.5576 14.0781 41.7156 14.2764L43.9497 17.0777L43.1523 20.5709C43.0959 20.8182 43.0959 21.0748 43.1523 21.322L43.9497 24.8152L41.7156 27.6167C41.5575 27.8148 41.4462 28.0461 41.3898 28.2933L40.5925 31.7865L37.3643 33.3411C37.1359 33.4511 36.9352 33.6112 36.7772 33.8094L34.5431 36.6107H30.96C30.7065 36.6107 30.4563 36.6679 30.2279 36.7778L26.9996 38.3324ZM40.2682 46.1046C39.7349 46.1079 39.2363 46.3525 38.9166 46.7768L37.1541 49.1162L32.6144 39.9857H35.3558C35.8693 39.9857 36.355 39.7519 36.6751 39.3504L38.6224 36.9085L43.1982 46.1113L40.2682 46.1046Z" fill="#DCBDA1"/>
<path d="M40.0781 20.9465C40.0781 13.7352 34.2113 7.86838 27 7.86838C19.7887 7.86838 13.9219 13.7352 13.9219 20.9465C13.9219 28.1578 19.7887 34.0246 27 34.0246C34.2113 34.0246 40.0781 28.1578 40.0781 20.9465ZM27 30.6496C21.6497 30.6496 17.2969 26.2968 17.2969 20.9465C17.2969 15.5962 21.6497 11.2434 27 11.2434C32.3503 11.2434 36.7031 15.5962 36.7031 20.9465C36.7031 26.2968 32.3503 30.6496 27 30.6496Z" fill="#DCBDA1"/>
<path d="M26.0304 21.3637L22.9911 18.9323L20.8828 21.5676L25.1016 24.9426C25.4112 25.1904 25.7839 25.3124 26.1553 25.3124C26.5892 25.3124 27.0213 25.1457 27.3489 24.8181L33.2551 18.9118L30.8687 16.5254L26.0304 21.3637Z" fill="#DCBDA1"/>
</svg>
