<svg width="67" height="67" viewBox="0 0 67 67" fill="none" xmlns="http://www.w3.org/2000/svg">
<path d="M41.8426 40.5793C46.0284 40.5793 49.4216 37.1861 49.4216 33.0004C49.4216 28.8146 46.0284 25.4214 41.8426 25.4214C37.6569 25.4214 34.2637 28.8146 34.2637 33.0004C34.2637 37.1861 37.6569 40.5793 41.8426 40.5793Z" stroke="#2E8647" stroke-width="2" stroke-linecap="round" stroke-linejoin="round"/>
<path d="M46.8953 38.6338V51.9475L41.8427 49.4212L36.79 51.9475V38.6338" stroke="#2E8647" stroke-width="2" stroke-linecap="round" stroke-linejoin="round"/>
<path d="M46.8949 46.895H51.9475C54.7391 46.895 57.0002 44.6339 57.0002 41.8423V19.1054C57.0002 16.3138 54.7391 14.0527 51.9475 14.0527H14.0527C11.2611 14.0527 9 16.3138 9 19.1054V41.8423C9 44.6339 11.2611 46.895 14.0527 46.895H36.7896" stroke="#2E8647" stroke-width="2" stroke-linecap="round" stroke-linejoin="round"/>
</svg>
