<svg width="67" height="67" viewBox="0 0 67 67" fill="none" xmlns="http://www.w3.org/2000/svg">
<path d="M27.75 27.75C32.0992 27.75 35.625 24.2242 35.625 19.875C35.625 15.5258 32.0992 12 27.75 12C23.4008 12 19.875 15.5258 19.875 19.875C19.875 24.2242 23.4008 27.75 27.75 27.75Z" stroke="#2E8647" stroke-width="2" stroke-linecap="round" stroke-linejoin="round"/>
<path d="M12 54V46.125C12 40.3237 16.6987 35.625 22.5 35.625H27.75" stroke="#2E8647" stroke-width="2" stroke-linecap="round" stroke-linejoin="round"/>
<path d="M44.8123 41.1767C45.9935 39.2604 47.9887 38.1317 49.8524 38.3154C52.4118 38.5779 53.5929 41.216 53.6585 41.3473C55.1942 44.7466 51.5323 49.091 44.7729 53.9998C38.0135 49.091 34.4436 44.8123 35.9792 41.4129C36.0579 41.2554 37.213 38.5254 39.7855 38.2629C41.6361 38.0792 43.6442 39.2211 44.8254 41.1767H44.8123Z" stroke="#2E8647" stroke-width="2" stroke-linecap="round" stroke-linejoin="round"/>
</svg>
