<svg width="46" height="46" viewBox="0 0 46 46" fill="none" xmlns="http://www.w3.org/2000/svg">
<path d="M16.1538 36.0643L9.29089 39.8078C8.88816 40.0274 8.52622 40.2973 8.18945 40.5915C12.1907 43.9653 17.356 46.0007 22.9994 46.0007C28.6012 46.0007 33.7335 43.9957 37.7235 40.6679C37.3555 40.3572 36.9562 40.0777 36.5136 39.8572L29.1646 36.1832C28.215 35.7084 27.6152 34.738 27.6152 33.6765V30.7931C27.8218 30.5579 28.0579 30.2559 28.3105 29.8991C29.3121 28.4844 30.0698 26.9281 30.5949 25.2955C31.5376 25.0047 32.2319 24.1342 32.2319 23.0996V20.0218C32.2319 19.3448 31.9307 18.7398 31.4629 18.3162V13.8671C31.4629 13.8671 32.3769 6.94336 23.0003 6.94336C13.6237 6.94336 14.5377 13.8671 14.5377 13.8671V18.3162C14.069 18.7398 13.7687 19.3448 13.7687 20.0218V23.0996C13.7687 23.9102 14.1949 24.6237 14.8328 25.036C15.6018 28.3837 17.6155 30.7931 17.6155 30.7931V33.6053C17.6146 34.6295 17.0539 35.573 16.1538 36.0643Z" fill="#F6F6FF"/>
<path d="M23.3941 0.00342511C10.6932 -0.213565 0.220417 9.90684 0.00342737 22.6077C-0.119823 29.8091 3.08989 36.2815 8.20043 40.5857C8.5346 40.2941 8.89307 40.0268 9.29146 39.8098L16.1544 36.0663C17.0545 35.575 17.6152 34.6315 17.6152 33.6056V30.7934C17.6152 30.7934 15.6007 28.384 14.8325 25.0362C14.1954 24.624 13.7684 23.9114 13.7684 23.0998V20.022C13.7684 19.345 14.0696 18.7401 14.5374 18.3165V13.8673C14.5374 13.8673 13.6234 6.94363 23 6.94363C32.3766 6.94363 31.4626 13.8673 31.4626 13.8673V18.3165C31.9313 18.7401 32.2316 19.345 32.2316 20.022V23.0998C32.2316 24.1344 31.5373 25.005 30.5947 25.2958C30.0695 26.9284 29.3118 28.4846 28.3102 29.8994C28.0576 30.2561 27.8215 30.5582 27.6149 30.7934V33.6768C27.6149 34.7383 28.2147 35.7095 29.1643 36.1834L36.5133 39.8575C36.9542 40.078 37.3526 40.3566 37.7197 40.6664C42.6758 36.5332 45.8777 30.3534 45.9966 23.3941C46.2153 10.6932 36.0958 0.220415 23.3941 0.00342511Z" fill="#B9A6FA"/>
</svg>
