<svg width="68" height="69" viewBox="0 0 68 69" fill="none" xmlns="http://www.w3.org/2000/svg">
<g>
<path fill-rule="evenodd" clip-rule="evenodd" d="M34 68.387C52.7777 68.387 68 53.1646 68 34.387C68 15.6093 52.7777 0.386963 34 0.386963C15.2223 0.386963 0 15.6093 0 34.387C0 53.1646 15.2223 68.387 34 68.387ZM30.6772 22.9175C30.0737 22.314 29.0952 22.314 28.4916 22.9175C27.8881 23.5211 27.8881 24.4996 28.4916 25.1031L37.5547 34.1662L28.4916 43.2292C27.8881 43.8328 27.8881 44.8113 28.4916 45.4148C29.0952 46.0184 30.0737 46.0184 30.6772 45.4148L40.8331 35.259C41.4366 34.6554 41.4366 33.6769 40.8331 33.0734L30.6772 22.9175Z" fill="#D8E3F1" fill-opacity="0.8"/>
</g>
</svg>
