<svg width="69" height="68" viewBox="0 0 69 68" fill="none" xmlns="http://www.w3.org/2000/svg">
<g>
<path fill-rule="evenodd" clip-rule="evenodd" d="M34.2847 0C15.507 0 0.284668 15.2223 0.284668 34C0.284668 52.7777 15.507 68 34.2847 68C53.0623 68 68.2847 52.7777 68.2847 34C68.2847 15.2223 53.0623 0 34.2847 0ZM37.6074 45.4694C38.211 46.073 39.1895 46.073 39.7931 45.4694C40.3966 44.8659 40.3966 43.8874 39.7931 43.2838L30.73 34.2208L39.7931 25.1577C40.3966 24.5542 40.3966 23.5757 39.7931 22.9721C39.1895 22.3686 38.211 22.3686 37.6074 22.9721L27.4516 33.128C26.8481 33.7315 26.8481 34.71 27.4516 35.3136L37.6074 45.4694Z" fill="#D8E3F1" fill-opacity="0.8"/>
</g>
</svg>
