<svg xmlns="http://www.w3.org/2000/svg" id="pay_variants" data-name="pay variants" viewBox="0 0 94 88">
    <defs>
        <style>
            .cls-1{fill:#0dc3f4}.cls-2{fill:#0060c6}
        </style>
    </defs>
    <path id="Path_106" d="M50.123 50.764H0V0h74.058v23.453A22.741 22.741 0 0 1 87.4 29.646 21.272 21.272 0 0 1 94 45c0 6.8-4.813 14.239-8.909 20.56-.973 1.5-1.92 2.944-2.714 4.264L73.853 84.04 71.473 88l-2.355-3.985L60.593 69.8c-.845-1.421-1.69-2.716-2.534-4.061-2.944-4.569-6.3-9.823-7.936-14.975zM68.529 23.5V5.483h-63v39.8H49.15v-.3a21.315 21.315 0 0 1 6.6-15.356A22.861 22.861 0 0 1 68.529 23.5zm15.027 10.055a17.425 17.425 0 0 0-23.961 0 15.75 15.75 0 0 0-4.915 11.422c0 5.33 4.352 12.133 8.038 17.844 1 1.548 1.946 3.046 2.637 4.213L71.5 77.289l6.144-10.254c.845-1.4 1.792-2.894 2.816-4.442 3.686-5.686 8.013-12.387 8.013-17.59a15.808 15.808 0 0 0-4.915-11.447z" class="cls-1" data-name="Path 106"/>
    <path id="Path_107" d="M31.789 71.492h18.534v5.483H31.789v-5.483zM3.63 2.96h16.076v5.483H3.63V2.96zm39.37 0h16.078v5.483H43V2.96zM31.354 9.255a11.7 11.7 0 0 1 8.269 3.4 11.452 11.452 0 0 1 0 16.346 11.72 11.72 0 0 1-16.511 0 11.452 11.452 0 0 1 0-16.346 11.682 11.682 0 0 1 8.243-3.4zm4.352 7.259a6.218 6.218 0 0 0-8.7 0 6.091 6.091 0 0 0 0 8.63 6.156 6.156 0 0 0 4.352 1.777 6.248 6.248 0 0 0 4.352-1.777 6.052 6.052 0 0 0 1.79-4.315 5.891 5.891 0 0 0-1.792-4.315zM3.63 33.216h16.076V38.7H3.63v-5.484zm62.283-4.746a11.271 11.271 0 0 1 7.961 3.274 11.147 11.147 0 0 1 0 15.838 11.347 11.347 0 0 1-15.948 0 11.116 11.116 0 0 1 0-15.813 11.292 11.292 0 0 1 7.987-3.3zm4.07 7.132a5.814 5.814 0 0 0-8.141.025 5.665 5.665 0 0 0 0 8.072 5.814 5.814 0 0 0 8.141.025 5.726 5.726 0 0 0 0-8.122zM13.025 53.217h28.082V58.7H13.025v-5.483zm9.446 9.138h24.166v5.483H22.471v-5.484z" class="cls-2" data-name="Path 107" transform="translate(5.662 4.553)"/>
</svg>
