<svg xmlns="http://www.w3.org/2000/svg" id="target" viewBox="0 0 94 94">
    <defs>
        <style>
            .cls-1{fill:#0dc3f4}.cls-2{fill:#0060c6;fill-rule:evenodd}
        </style>
    </defs>
    <path id="Path_114" d="M47 0a47.022 47.022 0 1 1-33.228 13.772A46.859 46.859 0 0 1 47 0zm0 30.489a16.508 16.508 0 0 1 11.673 28.184 16.5 16.5 0 0 1-23.346 0 16.5 16.5 0 0 1 0-23.346A16.444 16.444 0 0 1 47 30.489zm7.782 8.729a11.032 11.032 0 0 0-15.564-.026 11.032 11.032 0 0 0-.026 15.564 11.032 11.032 0 0 0 15.564-.026 10.988 10.988 0 0 0 3.2-7.782 10.873 10.873 0 0 0-3.174-7.731zm21.555-21.555A41.531 41.531 0 1 0 88.471 47a41.34 41.34 0 0 0-12.134-29.337z" class="cls-1" data-name="Path 114"/>
    <path id="Path_115" d="M37.485 32.774a4.71 4.71 0 1 1-4.71 4.71 4.7 4.7 0 0 1 4.71-4.71zm0-26.674a31.377 31.377 0 1 1-22.195 9.19A31.306 31.306 0 0 1 37.485 6.1zm18.277 13.107a25.833 25.833 0 1 0 7.578 18.278 25.749 25.749 0 0 0-7.577-18.278z" class="cls-2" data-name="Path 115" transform="translate(9.515 9.515)"/>
</svg>
