<svg xmlns="http://www.w3.org/2000/svg" id="prices" viewBox="0 0 94 94">
    <defs>
        <style>
            .cls-1{fill:#0dc3f4}.cls-2{fill:#0060c6}
        </style>
    </defs>
    <path id="Path_104" d="M47 0a47.022 47.022 0 1 1-33.228 13.772A46.859 46.859 0 0 1 47 0zm0 9.984a37.058 37.058 0 0 1 37.042 37.042h-5.529a31.464 31.464 0 0 0-31.487-31.487V9.984zm29.337 7.68A41.531 41.531 0 1 0 88.471 47a41.34 41.34 0 0 0-12.134-29.337z" class="cls-1" data-name="Path 104"/>
    <path id="Path_105" d="M21.833 10.656H32.15a12.061 12.061 0 0 1 12.057 12.057 12.126 12.126 0 0 1-3.533 8.525 12.08 12.08 0 0 1-8.524 3.532H24.6v2.509h17.559v5.529H24.6v7.347h-5.531v-7.347H12.08v-5.529h6.989V34.77H12.08v-5.529h6.989V10.63h2.765zm2.767 18.61h7.55a6.523 6.523 0 0 0 4.608-1.92 6.523 6.523 0 0 0 1.92-4.608 6.555 6.555 0 0 0-6.528-6.528H24.6v13.056z" class="cls-2" data-name="Path 105" transform="translate(18.844 16.582)"/>
</svg>
