<svg xmlns="http://www.w3.org/2000/svg" id="assortiment" viewBox="0 0 94 82">
    <defs>
        <style>
            .cls-1{fill:#0dc3f4}.cls-2{fill:#0060c6}
        </style>
    </defs>
    <path id="Path_101" d="M.787 39.62L11.75 20.5 22.713 1.38 23.5 0h47l.787 1.38L82.25 20.5l10.963 19.12L94 41l-.787 1.38L82.25 61.5 71.287 80.62 70.5 82h-47l-.787-1.38L11.75 61.5.787 42.38 0 41l.787-1.38zM16.5 23.261L6.319 41 16.5 58.739l10.172 17.74h40.707l10.176-17.74L87.732 41 77.53 23.261 67.353 5.521H26.647L16.5 23.261z" class="cls-1" data-name="Path 101"/>
    <path id="Path_102" d="M47.223 12.321l.279.281v.026a15.148 15.148 0 0 1-.3 20.96l-11.319 11.4a14.874 14.874 0 0 1-21.114 0 15.1 15.1 0 0 1 0-21.241l11.319-11.4a14.857 14.857 0 0 1 10.557-4.4 14.637 14.637 0 0 1 10.583 4.371zm-3.959 3.809a9.451 9.451 0 0 0-13.273.077l-11.319 11.4a9.615 9.615 0 0 0 0 13.445 9.449 9.449 0 0 0 13.349 0l11.319-11.4a9.615 9.615 0 0 0 0-13.445l-.076-.077z" class="cls-2" data-name="Path 102" transform="translate(15.993 12.371)"/>
    <path id="Path_103" d="M31.263 32.789L14.59 16.021l3.883-3.911L35.121 28.9z" class="cls-2" data-name="Path 103" transform="translate(22.436 18.844)"/>
</svg>
