<svg xmlns="http://www.w3.org/2000/svg" id="time" viewBox="0 0 90 94">
    <defs>
        <style>
            .cls-1{fill:#0dc3f4}.cls-2{fill:#0060c6}
        </style>
    </defs>
    <path id="Path_108" d="M66.36 70.724l6.659-8.057 4.252 3.53-6.659 8.057-4.252-3.53zm-.56-48.906H52.863V5.525H5.532v82.95h63.031V94H0V0h56.961l.845 1.049L70.74 17.342l.615.767v35.35h-5.533V21.818zm-7.4-11.127v5.627h4.456L58.4 10.691z" class="cls-1" data-name="Path 108"/>
    <path id="Path_109" d="M5.6 13.17h30.862v5.525H5.6V13.17zm54.143 17.291a21.461 21.461 0 0 1 15.213 6.292 21.47 21.47 0 0 1 0 30.387A21.537 21.537 0 1 1 44.479 36.7a21.847 21.847 0 0 1 15.265-6.241zm11.32 10.206a16.029 16.029 0 0 0-22.641 0 16 16 0 0 0 22.642 22.611 15.979 15.979 0 0 0 0-22.611zM5.6 35.27h30.862v5.525H5.6V35.27zm0 11.05h21.9v5.525H5.6v-5.526zm0-22.1h21.9v5.525H5.6V24.22z" class="cls-2" data-name="Path 109" transform="translate(8.743 20.517)"/>
</svg>
