<svg xmlns="http://www.w3.org/2000/svg" id="geography" viewBox="0 0 94 94">
    <defs>
        <style>
            .cls-1{fill:#0dc3f4}.cls-2{fill:#0060c6}
        </style>
    </defs>
    <path id="Path_118" d="M47 0a47.022 47.022 0 1 1-33.228 13.772A46.859 46.859 0 0 1 47 0zm29.337 17.663A41.531 41.531 0 1 0 88.471 47a41.34 41.34 0 0 0-12.134-29.337z" class="cls-1" data-name="Path 118"/>
    <path id="Path_119" d="M27.5 23.612a11.133 11.133 0 0 1 5.785-1.587 11.38 11.38 0 0 1 5.785 1.587l9.292-9.292H42.99V8.79h14.822v14.822h-5.529v-5.376l-9.293 9.293a11.338 11.338 0 0 1 0 11.571l9.292 9.292v-5.376h5.529v14.822H42.99v-5.529h5.376l-9.292-9.292a11.133 11.133 0 0 1-5.786 1.583 11.38 11.38 0 0 1-5.788-1.584l-9.29 9.293h5.376v5.529H8.79V43.016h5.529v5.376l9.293-9.292a11.338 11.338 0 0 1 0-11.571l-9.292-9.292v5.376H8.79V8.79h14.822v5.529h-5.376l9.264 9.293zm5.785 3.917a5.76 5.76 0 0 0 0 11.52 5.8 5.8 0 0 0 4.07-1.664 5.779 5.779 0 0 0-.026-8.141 5.541 5.541 0 0 0-4.045-1.715z" class="cls-2" data-name="Path 119" transform="translate(13.712 13.712)"/>
</svg>
