<svg xmlns="http://www.w3.org/2000/svg" viewBox="0 0 96.873 12.08">
    <defs>
        <style>
            .cls-1{fill:#0dc3f4}
        </style>
    </defs>
    <path id="diagonal" d="M-3808 12.08l3.874-12.08h1L-3807 12.08zm-4 0l3.873-12.08h1L-3811 12.08zm-4 0l3.873-12.08h1L-3815 12.08zm-4 0l3.873-12.08h1L-3819 12.08zm-4 0l3.873-12.08h1L-3823 12.08zm-4 0l3.873-12.08h1L-3827 12.08zm-4 0l3.874-12.08h1L-3831 12.08zm-4 0l3.874-12.08h1L-3835 12.08zm-4 0l3.873-12.08h1L-3839 12.08zm-4 0l3.873-12.08h1L-3843 12.08zm-4 0l3.874-12.08h1L-3847 12.08zm-4 0l3.874-12.08h1L-3851 12.08zm-4 0l3.874-12.08h1L-3855 12.08zm-4 0l3.873-12.08h1L-3859 12.08zm-4 0l3.873-12.08h1L-3863 12.08zm-4 0l3.873-12.08h1L-3867 12.08zm-4 0l3.873-12.08h1L-3871 12.08zm-4 0l3.873-12.08h1L-3875 12.08zm-4 0l3.874-12.08h1L-3879 12.08zm-4 0l3.874-12.08h1L-3883 12.08zm-4 0l3.873-12.08h1L-3887 12.08zm-4 0l3.873-12.08h1L-3891 12.08zm-4 0l3.874-12.08h1L-3895 12.08zm-4 0l3.874-12.08h1L-3899 12.08z" class="cls-1" transform="translate(3900)"/>
</svg>
