<svg xmlns="http://www.w3.org/2000/svg" id="pick" viewBox="0 0 56 94">
    <defs>
        <style>
            .cls-1{fill:#0060c6}.cls-2{fill:#0dc3f4}
        </style>
    </defs>
    <path id="Path_55" d="M19.384 5.01a13.439 13.439 0 0 1 9.66 4.1 14.106 14.106 0 0 1 0 19.711 13.438 13.438 0 0 1-19.319 0 14.106 14.106 0 0 1 0-19.711 13.482 13.482 0 0 1 9.659-4.1zm5.816 8.013a8.152 8.152 0 0 0-11.667 0 8.558 8.558 0 0 0 0 11.9 8.122 8.122 0 0 0 11.642 0 8.462 8.462 0 0 0 2.409-5.939 8.148 8.148 0 0 0-2.384-5.961z" class="cls-1" data-name="Path 55" transform="translate(8.616 7.815)"/>
    <path id="Path_56" d="M28 0a27.947 27.947 0 0 1 19.771 8.141A27.613 27.613 0 0 1 56 27.826c0 8.755-6.122 18.483-11.315 26.751-1.254 2-2.459 3.917-3.487 5.683L30.233 79.076 27.9 83.069l-2.333-3.993L14.6 60.26c-1.079-1.843-2.158-3.558-3.287-5.376C6.172 46.565 0 36.684 0 27.826A27.524 27.524 0 0 1 8.229 8.141 27.947 27.947 0 0 1 28 0zm16.007 12.083a22.826 22.826 0 0 0-32.014 0 22.084 22.084 0 0 0-6.574 15.743c0 7.3 5.7 16.409 10.462 24.089 1.254 2.022 2.484 3.968 3.387 5.529L27.9 72.266l8.63-14.822c1.079-1.843 2.308-3.814 3.588-5.862 4.792-7.629 10.437-16.614 10.437-23.756a21.96 21.96 0 0 0-6.548-15.743z" class="cls-2" data-name="Path 56"/>
    <path id="Path_57" d="M38.738 30.216a51.808 51.808 0 0 1 11.441 2.3C53.867 33.851 56 35.8 56 38.279c0 3.072-3.638 5.478-9.534 6.835A86.064 86.064 0 0 1 28 46.906a86.064 86.064 0 0 1-18.466-1.792C3.638 43.758 0 41.377 0 38.279c0-2.509 2.183-4.48 5.9-5.785a52.165 52.165 0 0 1 11.616-2.3l.527 5.478a47.2 47.2 0 0 0-10.366 2.019c-1.43.512-2.258.435-2.258.589s2.032.691 5.294 1.459A79.893 79.893 0 0 0 28 41.377a81.546 81.546 0 0 0 17.287-1.638c3.262-.768 5.294-1.306 5.294-1.459s-.8-.051-2.208-.563a45.943 45.943 0 0 0-10.186-2.022l.552-5.478z" class="cls-1" data-name="Path 57" transform="translate(0 47.094)"/>
</svg>
