<svg xmlns="http://www.w3.org/2000/svg" id="moscow" viewBox="0 0 78 94">
    <defs>
        <style>
            .cls-1,.cls-4{fill:#0dc3f4}.cls-2,.cls-3{fill:#0060c6}.cls-3,.cls-4{fill-rule:evenodd}
        </style>
    </defs>
    <path id="Path_65" d="M6.3 23.62h45.108v5.7H6.3v-5.7zm45.108 31.7H6.3v-5.7h45.108v5.7z" class="cls-1" data-name="Path 65" transform="translate(10.146 38.677)"/>
    <path id="Path_66" d="M2.819 22.23H19V57.6H0V22.23zm10.546 5.7H5.639V51.9h7.727V27.927z" class="cls-2" data-name="Path 66" transform="translate(0 36.401)"/>
    <path id="Path_67" d="M25.419 22.23H41.6V57.6h-19V22.23zm10.546 5.7h-7.726V51.9h7.727V27.927z" class="cls-2" data-name="Path 67" transform="translate(36.396 36.401)"/>
    <path id="Path_68" d="M10.592 22.331l9.972-14.559 2.323-3.4 2.3 3.429L34.95 22.36l.5.738v37.741H10.07V23.07l.522-.738zm12.269-7.939l-7.126 10.392v30.331h14.1V24.784l-6.97-10.392z" class="cls-1" data-name="Path 68" transform="translate(16.217 7.156)"/>
    <path id="Path_69" d="M20.158 0l2.271 5.934 6.187.4-4.777 4.088 1.54 6.172-5.221-3.4-5.221 3.4 1.514-6.172L11.7 6.33l6.161-.4z" class="cls-3" data-name="Path 69" transform="translate(18.842)"/>
    <path id="Path_70" d="M31.394 7.79a8.321 8.321 0 0 1 8.406 8.229c0 3.3-3.08 7.279-4.777 10.207L31.394 32.4l-3.629-6.172c-1.7-2.9-4.725-6.91-4.725-10.207a8.243 8.243 0 0 1 8.354-8.231z" class="cls-4" data-name="Path 70" transform="translate(37.104 12.756)"/>
    <path id="Path_71" d="M18.064 14.44A5.117 5.117 0 1 1 13 19.557a5.1 5.1 0 0 1 5.064-5.117z" class="cls-4" data-name="Path 71" transform="translate(20.936 23.645)"/>
    <path id="Path_72" d="M9.62 28.55H37.4v5.7H9.62z" class="cls-2" data-name="Path 72" transform="translate(15.492 46.75)"/>
</svg>
