<svg xmlns="http://www.w3.org/2000/svg" id="delivery" viewBox="0 0 94 80">
    <defs>
        <style>
            .cls-1,.cls-3{fill:#0dc3f4}.cls-2{fill:#0060c6}.cls-3{fill-rule:evenodd}
        </style>
    </defs>
    <path id="Path_58" d="M10.88 58.957H0V8.8h12.339v5.519h-6.81v39.119h5.35v5.519zM28.927 8.8h34.712v50.157H25.19v-5.519h32.92V14.319H28.927V8.8z" class="cls-1" data-name="Path 58" transform="translate(0 13.685)"/>
    <path id="Path_59" d="M32.76 52.985H22.7V12.64h23.782l.845.971L57.9 25.645l.691.792v26.548H47.557v-5.519h5.5V28.482L44 18.159H28.229v29.307h4.531z" class="cls-1" data-name="Path 59" transform="translate(35.41 19.656)"/>
    <path id="Path_60" d="M13.323 23.39a10.173 10.173 0 1 1-7.168 2.964 10.11 10.11 0 0 1 7.168-2.964zm3.277 6.873a4.621 4.621 0 1 0 1.331 3.245 4.367 4.367 0 0 0-1.331-3.245z" class="cls-2" data-name="Path 60" transform="translate(4.929 36.374)"/>
    <path id="Path_61" d="M35.9 23.39a10.173 10.173 0 1 1-7.168 2.964A10.11 10.11 0 0 1 35.9 23.39zm3.277 6.873a4.621 4.621 0 1 0 1.331 3.245 4.367 4.367 0 0 0-1.331-3.245z" class="cls-2" data-name="Path 61" transform="translate(40.152 36.374)"/>
    <path id="Path_62" d="M17.4 0a15.152 15.152 0 0 1 10.574 4.267A14.369 14.369 0 0 1 32.4 14.615c0 4.548-3.072 9.352-5.709 13.414-.589.945-1.178 1.814-1.664 2.632l-5.3 8.892-2.377 3.986-2.381-3.986-5.3-8.892a72.413 72.413 0 0 0-1.562-2.5C5.5 24.069 2.4 19.214 2.4 14.615A14.369 14.369 0 0 1 6.829 4.267 15.152 15.152 0 0 1 17.4 0zm6.707 8.2a9.725 9.725 0 0 0-13.414 0 8.808 8.808 0 0 0-2.739 6.413c0 3.041 2.611 7.154 4.813 10.6.64 1.022 1.28 1.993 1.664 2.657l2.918 4.906 2.918-4.906a80.85 80.85 0 0 1 1.766-2.811c2.2-3.449 4.813-7.486 4.813-10.45A8.908 8.908 0 0 0 24.108 8.2z" class="cls-2" data-name="Path 62" transform="translate(3.744)"/>
    <path id="Path_63" d="M11.552 3.78a5.391 5.391 0 1 1-5.4 5.391 5.4 5.4 0 0 1 5.4-5.391z" class="cls-3" data-name="Path 63" transform="translate(9.593 5.878)"/>
    <path id="Path_64" d="M16.49 22.83H28.8v5.519H16.49z" class="cls-2" data-name="Path 64" transform="translate(25.723 35.503)"/>
</svg>
