<svg xmlns="http://www.w3.org/2000/svg" id="logo" viewBox="0 0 170 62.423">
    <defs>
        <style>
            .cls-1{fill:#fff}.cls-2{fill:#0dc3f4}
        </style>
    </defs>
    <g id="Group_1" data-name="Group 1" transform="translate(64.424 8.93)">
        <path id="Path_1" d="M30.59 21.088V4.24h12.341v3.791h-8v2.633h7.834v3.791h-7.837v6.634z" class="cls-1" data-name="Path 1" transform="translate(-30.59 -4.24)"/>
        <path id="Path_2" d="M49.957 21.088l-.842-2.422h-6.634l-.842 2.422H36.71L43.049 4.24H48.5l6.36 16.848zM45.808 8.536l-2.148 6.339h4.3z" class="cls-1" data-name="Path 2" transform="translate(-23.821 -4.24)"/>
        <path id="Path_3" d="M55.333 21.088l-2.822-5.665h-2.233v5.665H45.94V4.24h8.445c3.728 0 5.855 2.485 5.855 5.6a5.114 5.114 0 0 1-3.37 5.06l3.43 6.188zm.484-11.267a1.888 1.888 0 0 0-2.106-1.79h-3.433v3.622h3.433a1.882 1.882 0 0 0 2.106-1.832z" class="cls-1" data-name="Path 3" transform="translate(-13.612 -4.24)"/>
        <path id="Path_4" d="M68.633 21.077V10.126L64.358 21.1h-1.916l-4.234-10.974V21.1H53.87V4.25h6.044l3.517 9.14 3.539-9.14h6.044V21.1h-4.381z" class="cls-1" data-name="Path 4" transform="translate(-4.841 -4.229)"/>
        <path id="Path_5" d="M76.777 21.088l-.842-2.422H69.3l-.842 2.422H63.53L69.869 4.24h5.455l6.36 16.848zM72.628 8.536l-2.148 6.339h4.3z" class="cls-1" data-name="Path 5" transform="translate(5.843 -4.24)"/>
        <path id="Path_6" d="M45.149 33.088V18.22L39.02 33.088h-.548L32.3 18.22v14.868h-1.43V16.24h2.148l5.728 13.9 5.707-13.9h2.169v16.848z" class="cls-1" data-name="Path 6" transform="translate(-30.28 9.032)"/>
        <path id="Path_7" d="M40.34 33.088V16.24h10.678v1.306h-9.246v6.234h9.077v1.306h-9.077v6.676h9.245v1.306H40.34z" class="cls-1" data-name="Path 7" transform="translate(-19.806 9.032)"/>
        <path id="Path_8" d="M47.11 33.088V16.24h5.37a8.178 8.178 0 0 1 8.508 8.445 8.122 8.122 0 0 1-8.508 8.4zm12.384-8.4c0-3.938-2.527-7.118-6.992-7.118h-3.939v14.213H52.5c4.445 0 6.994-3.16 6.994-7.098z" class="cls-1" data-name="Path 8" transform="translate(-12.318 9.032)"/>
        <path id="Path_9" d="M55.42 33.088V16.24h1.432v16.848z" class="cls-1" data-name="Path 9" transform="translate(-3.127 9.032)"/>
        <path id="Path_10" d="M57.79 24.829a8.374 8.374 0 0 1 8.529-8.719 7.534 7.534 0 0 1 6.129 2.99l-1.222.779a6.083 6.083 0 0 0-4.926-2.442c-3.959 0-7.013 3.012-7.013 7.392 0 4.338 3.054 7.392 7.013 7.392a6.172 6.172 0 0 0 4.928-2.443l1.222.758a7.523 7.523 0 0 1-6.129 3.012 8.374 8.374 0 0 1-8.531-8.719z" class="cls-1" data-name="Path 10" transform="translate(-.506 8.889)"/>
        <path id="Path_11" d="M79.25 33.088l-1.664-4.149h-8.908l-1.664 4.149H65.35l6.887-16.848h1.79l6.887 16.848zM73.1 17.777l-3.959 9.856H77.1z" class="cls-1" data-name="Path 11" transform="translate(7.856 9.032)"/>
        <path id="Path_12" d="M73.92 33.088V16.24h1.432v15.543H83.5v1.306z" class="cls-1" data-name="Path 12" transform="translate(17.335 9.032)"/>
    </g>
    <g id="Group_2" data-name="Group 2">
        <path id="Path_13" d="M166.293 26.283a3.743 3.743 0 0 0-3.559 2.611H56.568l-9.33-16.238 3.917-6.529c.084 0 .168.021.253.021a3.075 3.075 0 1 0-3.054-3.075 3.111 3.111 0 0 0 .885 2.169l-3.917 6.529H27.9a5.675 5.675 0 0 0 1.622-3.98A5.718 5.718 0 1 0 23.8 13.5a5.185 5.185 0 0 0 1.516-.232l-8.973 15.627H7.455A3.781 3.781 0 1 0 7.076 31h9.6L25.5 46.375l-2.759 6.192a4.632 4.632 0 0 0-1.348-.211 5.092 5.092 0 1 0 3.2 1.179l2.675-6.023h16.769a5.708 5.708 0 1 0 4.8-2.654c-.232 0-.463.042-.695.063l8.15-14.174v.211h106.357A3.737 3.737 0 0 0 170 29.99a3.685 3.685 0 0 0-3.707-3.707zM51.429 2.106a.969.969 0 1 1-.969.969.966.966 0 0 1 .969-.969zM3.749 30.98a1.643 1.643 0 1 1 1.643-1.643 1.645 1.645 0 0 1-1.643 1.643zm17.67 29.358a2.927 2.927 0 1 1 2.927-2.927 2.935 2.935 0 0 1-2.928 2.927zM23.8 11.394a3.622 3.622 0 1 1 3.622-3.622 3.622 3.622 0 0 1-3.622 3.622zm25.1 35.592a3.622 3.622 0 1 1-3.622 3.622 3.622 3.622 0 0 1 3.622-3.622zm-3.391-1.558H27.4l-9.056-15.775L27.4 13.879h18.111l9.056 15.774zm120.784-13.753a1.643 1.643 0 1 1 1.643-1.643 1.645 1.645 0 0 1-1.643 1.643z" class="cls-2" data-name="Path 13"/>
        <path id="Path_14" d="M17.731 7.33L9.56 21.546l8.171 14.216h16.3L42.2 21.546 34.032 7.33zm15.079 26.3H18.953L12 21.525l6.95-12.11h13.861l6.95 12.11z" class="cls-2" data-name="Path 14" transform="translate(10.574 8.107)"/>
    </g>
</svg>
