<svg xmlns="http://www.w3.org/2000/svg" id="pay1" viewBox="0 0 94 80">
    <defs>
        <style>
            .cls-1{fill:#0dc3f4}.cls-2{fill:#0060c6}
        </style>
    </defs>
    <path id="Path_85" d="M93.974 22.464v47.78H32.3v-5.4h56.147v-42.38zm-73.935 47.78H0V0h71.5v5.4H5.528v59.441h14.511v5.4z" class="cls-1" data-name="Path 85"/>
    <path id="Path_86" d="M25.2 55.635V79.75l-4.453-3.377-4.351-3.3-3.996 3.25L7.873 80V55.66a9.82 9.82 0 0 1 1.458-12.333 10.361 10.361 0 0 1 14.434 0 9.854 9.854 0 0 1 2.994 7.054 9.988 9.988 0 0 1-1.559 5.254zM6.03 15.21h27.2v5.4H6.03v-5.4zm0 12.383h38.951V33H6.03v-5.4zM63.561.8l20.218 19.763.819.8v3.827H58.852V0h3.916l.793.8zm11.568 18.962L64.355 9.231v10.531zM13.4 59.862v8.605l1.177-.951 1.715-1.4 1.74 1.326 1.638 1.251v-8.831a10.881 10.881 0 0 1-3.148.475 9.163 9.163 0 0 1-3.122-.475zm6.424-12.708a4.773 4.773 0 0 0-6.6 0 4.517 4.517 0 0 0 0 6.454 4.773 4.773 0 0 0 6.6 0 4.517 4.517 0 0 0 0-6.454z" class="cls-2" data-name="Path 86" transform="translate(9.402)"/>
</svg>
