<svg xmlns="http://www.w3.org/2000/svg" id="returns" viewBox="0 0 70 56">
    <defs>
        <style>
            .cls-1{fill:#0dc3f4}.cls-2{fill:#0060c6}
        </style>
    </defs>
    <path id="Path_89" d="M4.052 31.868c-.1-.648-.155-1.3-.194-1.944-.039-.668-.078-1.316-.078-1.944a28.063 28.063 0 0 1 8.112-19.792A27.51 27.51 0 0 1 31.454 0a27.194 27.194 0 0 1 12.983 3.279 27.875 27.875 0 0 1 9.975 9.091l-3.474 2.356a23.818 23.818 0 0 0-8.461-7.736 23.3 23.3 0 0 0-27.616 4.182 23.794 23.794 0 0 0-6.87 16.788 22.653 22.653 0 0 0 .233 3.299l-4.172.609zm54.824-7.618c.078.648.155 1.276.194 1.865q.058 1 .058 1.885a28.063 28.063 0 0 1-8.112 19.792 27.4 27.4 0 0 1-32.37 5.027 27.828 27.828 0 0 1-9.936-8.875l3.435-2.4a23.684 23.684 0 0 0 8.423 7.54 23.316 23.316 0 0 0 27.48-4.261 23.794 23.794 0 0 0 6.87-16.788c0-.569-.019-1.1-.058-1.61-.039-.569-.1-1.1-.155-1.61l4.172-.569z" class="cls-1" data-name="Path 89" transform="translate(3.556)"/>
    <path id="Path_90" d="M51.137 20.223l7.957-8.05 1.475-1.492 1.475 1.492L70 20.223l-2.969 3-6.482-6.558-6.482 6.558-2.93-3zm-32.254-5.047l-7.957 8.05-1.475 1.493-1.494-1.492L0 15.176l2.969-3 6.482 6.554 6.482-6.558 2.95 3z" class="cls-2" data-name="Path 90" transform="translate(0 10.291)"/>
</svg>
