<svg xmlns="http://www.w3.org/2000/svg" id="pin" viewBox="0 0 16.508 24">
    <defs>
        <style>
            .cls-1{fill:#0060c6}.cls-2{fill:#0dc3f4}
        </style>
    </defs>
    <path id="Path_94" d="M9.741 5.01a4.027 4.027 0 0 1 2.847 6.878 4.027 4.027 0 1 1-5.695-5.695A4.014 4.014 0 0 1 9.741 5.01zm1.716 2.315a2.433 2.433 0 1 0-.007 3.439 2.42 2.42 0 0 0 .71-1.716 2.33 2.33 0 0 0-.7-1.723z" class="cls-1" data-name="Path 94" transform="translate(-1.487 -1.305)"/>
    <path id="Path_95" d="M8.254 0a8.324 8.324 0 0 1 5.828 2.352 7.9 7.9 0 0 1 2.426 5.688c0 2.529-1.8 5.34-3.336 7.729a58.84 58.84 0 0 0-1.028 1.642l-3.232 5.435L8.224 24l-.688-1.154L4.3 17.41c-.318-.533-.636-1.028-.969-1.553C1.819 13.453 0 10.6 0 8.039a7.875 7.875 0 0 1 2.426-5.687A8.324 8.324 0 0 1 8.254 0zm4.719 3.491a6.827 6.827 0 0 0-9.437 0A6.318 6.318 0 0 0 1.6 8.039c0 2.108 1.679 4.741 3.084 6.96.37.584.732 1.146 1 1.6l2.544 4.282 2.541-4.281c.318-.533.68-1.1 1.058-1.694 1.413-2.2 3.077-4.8 3.077-6.863a6.282 6.282 0 0 0-1.93-4.549z" class="cls-2" data-name="Path 95"/>
</svg>
