<svg width="40" height="41" viewBox="0 0 40 41" fill="none" xmlns="http://www.w3.org/2000/svg">
<path d="M38.6673 24.8918C38.6673 24.2854 38.1757 23.7938 37.5693 23.7938C36.9628 23.7938 36.4712 23.3022 36.4712 22.6958V5.12712C36.4712 3.30783 34.9964 1.83301 33.1771 1.83301H30.981C30.3746 1.83301 29.883 2.32462 29.883 2.93105C29.883 3.53748 29.3914 4.02909 28.785 4.02909H26.5889C25.9825 4.02909 25.4908 3.53748 25.4908 2.93105C25.4908 2.32462 24.9992 1.83301 24.3928 1.83301H15.6085C15.0021 1.83301 14.5105 2.32462 14.5105 2.93105C14.5105 3.53748 14.0188 4.02909 13.4124 4.02909H11.2163C10.6099 4.02909 10.1183 3.53748 10.1183 2.93105C10.1183 2.32462 9.62669 1.83301 9.02026 1.83301H6.82418C5.00489 1.83301 3.53006 3.30783 3.53006 5.12713V22.6958C3.53006 23.3022 3.03845 23.7938 2.43202 23.7938C1.82559 23.7938 1.33398 24.2854 1.33398 24.8918V33.1271C1.33398 34.0368 2.0714 34.7742 2.98104 34.7742C3.89069 34.7742 4.6281 35.5116 4.6281 36.4212V36.9703C4.6281 38.1831 5.61132 39.1663 6.82418 39.1663H10.5377C12.0424 39.1663 13.4181 38.3162 14.091 36.9703C14.764 35.6244 16.1396 34.7742 17.6443 34.7742H23.4549C24.9597 34.7742 26.3353 35.6244 27.0083 36.9703C27.6812 38.3162 29.0568 39.1663 30.5616 39.1663H34.2752C35.488 39.1663 36.4712 38.1831 36.4712 36.9703V35.8722C36.4712 35.2658 36.9628 34.7742 37.5693 34.7742C38.1757 34.7742 38.6673 34.2826 38.6673 33.6761V24.8918ZM32.0791 5.12713C32.0791 4.5207 32.5707 4.02909 33.1771 4.02909C33.7836 4.02909 34.2752 4.5207 34.2752 5.12713V22.6958C34.2752 23.3022 33.7836 23.7938 33.1771 23.7938C32.5707 23.7938 32.0791 23.3022 32.0791 22.6958V5.12713ZM16.7065 5.67615C16.7065 4.7665 17.4439 4.02909 18.3536 4.02909H21.6477C22.5574 4.02909 23.2948 4.7665 23.2948 5.67615C23.2948 6.58579 22.5574 7.3232 21.6477 7.3232H18.3536C17.4439 7.3232 16.7065 6.58579 16.7065 5.67615ZM20.0007 11.7154C19.3942 11.7154 18.9026 11.2238 18.9026 10.6173C18.9026 10.0109 19.3942 9.51928 20.0007 9.51928C20.6071 9.51928 21.0987 10.0109 21.0987 10.6173C21.0987 11.2238 20.6071 11.7154 20.0007 11.7154ZM12.8634 6.22516C13.773 6.22516 14.5105 6.96258 14.5105 7.87222V8.42124C14.5105 9.02767 15.0021 9.51928 15.6085 9.51928C16.2149 9.51928 16.7065 10.0109 16.7065 10.6173V12.8134C16.7065 13.4198 17.1981 13.9114 17.8046 13.9114C18.411 13.9114 18.9026 14.403 18.9026 15.0095V16.1075C18.9026 16.7139 19.3942 17.2056 20.0007 17.2056C20.6071 17.2056 21.0987 16.7139 21.0987 16.1075V15.0095C21.0987 14.403 21.5903 13.9114 22.1967 13.9114C22.8032 13.9114 23.2948 13.4198 23.2948 12.8134V10.6173C23.2948 10.0109 23.7864 9.51928 24.3928 9.51928C24.9992 9.51928 25.4908 9.02767 25.4908 8.42124V7.87222C25.4908 6.96258 26.2283 6.22516 27.1379 6.22516H27.6869C28.8998 6.22516 29.883 7.20838 29.883 8.42124V22.6958C29.883 23.3022 29.3914 23.7938 28.785 23.7938C28.1785 23.7938 27.6869 23.3022 27.6869 22.6958V21.5977C27.6869 20.3849 26.7037 19.4016 25.4908 19.4016H14.5105C13.2976 19.4016 12.3144 20.3849 12.3144 21.5977V22.6958C12.3144 23.3022 11.8228 23.7938 11.2163 23.7938C10.6099 23.7938 10.1183 23.3022 10.1183 22.6958V8.42125C10.1183 7.20838 11.1015 6.22516 12.3144 6.22516H12.8634ZM25.4908 22.6958C25.4908 23.3022 24.9992 23.7938 24.3928 23.7938H15.6085C15.0021 23.7938 14.5105 23.3022 14.5105 22.6958C14.5105 22.0893 15.0021 21.5977 15.6085 21.5977H24.3928C24.9992 21.5977 25.4908 22.0893 25.4908 22.6958ZM5.72614 5.12713C5.72614 4.5207 6.21775 4.02909 6.82418 4.02909C7.43061 4.02909 7.92222 4.5207 7.92222 5.12713V22.6958C7.92222 23.3022 7.43061 23.7938 6.82418 23.7938C6.21775 23.7938 5.72614 23.3022 5.72614 22.6958V5.12713ZM11.9393 36.3633C11.7533 36.7353 11.3731 36.9703 10.9572 36.9703H7.92222C7.31579 36.9703 6.82418 36.4787 6.82418 35.8722C6.82418 35.2658 7.31579 34.7742 7.92222 34.7742H10.9572C11.7734 34.7742 12.3043 35.6332 11.9393 36.3633ZM34.2752 35.8722C34.2752 36.4787 33.7836 36.9703 33.1771 36.9703H30.1423C29.7263 36.9703 29.3461 36.7353 29.1601 36.3633C28.7951 35.6332 29.326 34.7742 30.1423 34.7742H33.1771C33.7836 34.7742 34.2752 35.2658 34.2752 35.8722ZM36.4712 29.284C36.4712 31.1033 35.0027 32.5781 33.1834 32.5781C26.8513 32.5781 13.1531 32.5781 6.81562 32.5781C4.99633 32.5781 3.53006 31.1033 3.53006 29.284C3.53006 27.4647 5.00489 25.9899 6.82418 25.9899H33.1771C34.9964 25.9899 36.4712 27.4647 36.4712 29.284Z" fill="#DCBDA1"/>
<path d="M5.72656 29.2836C5.72656 28.6772 6.21817 28.1855 6.8246 28.1855C7.43103 28.1855 7.92264 28.6772 7.92264 29.2836C7.92264 29.89 7.43103 30.3816 6.8246 30.3816C6.21817 30.3816 5.72656 29.89 5.72656 29.2836Z" fill="#DCBDA1"/>
<path d="M10.1191 29.2836C10.1191 28.6772 10.6108 28.1855 11.2172 28.1855C11.8236 28.1855 12.3152 28.6772 12.3152 29.2836C12.3152 29.89 11.8236 30.3816 11.2172 30.3816C10.6108 30.3816 10.1191 29.89 10.1191 29.2836Z" fill="#DCBDA1"/>
<path d="M14.5098 29.2836C14.5098 28.6772 15.0014 28.1855 15.6078 28.1855C16.2142 28.1855 16.7058 28.6772 16.7058 29.2836C16.7058 29.89 16.2142 30.3816 15.6078 30.3816C15.0014 30.3816 14.5098 29.89 14.5098 29.2836Z" fill="#DCBDA1"/>
</svg>
