<svg width="20" height="20" viewBox="0 0 20 20" fill="none" xmlns="http://www.w3.org/2000/svg">
<path d="M18.7496 5.625C18.7496 6.96063 18.2296 8.21625 17.2852 9.16062L8.27899 18.2738C7.54649 19.0063 6.58461 19.3725 5.62336 19.3725C4.66336 19.3725 3.70336 19.0069 2.97274 18.2763C1.51086 16.8138 1.51086 14.435 2.97274 12.9731L9.47899 6.50375C10.4559 5.53312 12.0084 5.50125 12.9415 6.43313C13.3971 6.88875 13.6371 7.50375 13.6177 8.16562C13.5984 8.81312 13.3315 9.42688 12.8659 9.8925L6.69149 16.0669C6.44711 16.3113 6.05211 16.3113 5.80774 16.0669C5.56336 15.8225 5.56336 15.4275 5.80774 15.1831L11.9821 9.00875C12.2215 8.76937 12.359 8.45687 12.3684 8.12875C12.3777 7.815 12.2671 7.52625 12.0577 7.31687C11.6109 6.87187 10.8496 6.90375 10.3609 7.39L3.85524 13.8581C2.88211 14.8319 2.88211 16.4181 3.85649 17.3925C4.83149 18.3669 6.41711 18.3669 7.39211 17.3925L16.3984 8.27938C17.1096 7.56812 17.4996 6.62687 17.4996 5.625C17.4996 4.62313 17.1096 3.68187 16.4015 2.97375C15.6927 2.265 14.7515 1.875 13.7496 1.875C12.7477 1.875 11.8065 2.265 11.0977 2.97375L2.31524 11.6937C2.06961 11.9369 1.67461 11.9356 1.43149 11.69C1.18836 11.445 1.18961 11.05 1.43461 10.8063L10.2159 2.08812C11.1584 1.145 12.414 0.625 13.7496 0.625C15.0852 0.625 16.3409 1.145 17.2852 2.09C18.2296 3.03375 18.7496 4.28937 18.7496 5.625Z" fill="white"/>
</svg>
