<svg width="14" height="14" viewBox="0 0 14 14" fill="none" xmlns="http://www.w3.org/2000/svg">
<path d="M13.5389 3.12331C13.4819 2.74219 13.2902 2.39411 12.9986 2.14217C12.707 1.89022 12.3348 1.75109 11.9495 1.75H2.05233C1.66697 1.75109 1.29476 1.89022 1.00316 2.14217C0.711571 2.39411 0.519898 2.74219 0.462891 3.12331L7.00089 7.35394L13.5389 3.12331Z" fill="white"/>
<path d="M7.23756 8.24223C7.16678 8.288 7.08429 8.31234 7 8.31234C6.91571 8.31234 6.83322 8.288 6.76244 8.24223L0.4375 4.14985V10.6358C0.437963 11.0637 0.608151 11.4739 0.910723 11.7765C1.21329 12.0791 1.62354 12.2493 2.05144 12.2497H11.9486C12.3765 12.2493 12.7867 12.0791 13.0893 11.7765C13.3918 11.4739 13.562 11.0637 13.5625 10.6358V4.14941L7.23756 8.24223Z" fill="white"/>
</svg>
