<svg width="14" height="14" viewBox="0 0 14 14" fill="none" xmlns="http://www.w3.org/2000/svg">
<path d="M0.247281 6.75002L3.47316 7.95402L4.72177 11.9695C4.80167 12.2267 5.11615 12.3218 5.32489 12.1511L7.12305 10.6852C7.31154 10.5316 7.58001 10.524 7.77699 10.667L11.0202 13.0216C11.2435 13.1839 11.5599 13.0616 11.6159 12.7918L13.9917 1.36351C14.0529 1.06877 13.7633 0.822882 13.4826 0.931428L0.243501 6.03867C-0.083212 6.16467 -0.0803654 6.62724 0.247281 6.75002ZM4.52055 7.31309L10.8251 3.4301C10.9384 3.36052 11.055 3.51373 10.9577 3.60398L5.7546 8.44051C5.57171 8.61075 5.45374 8.83858 5.42033 9.08587L5.24309 10.3993C5.21961 10.5747 4.97326 10.5921 4.92487 10.4224L4.24321 8.02724C4.16513 7.75405 4.27891 7.46224 4.52055 7.31309Z" fill="white"/>
</svg>
