<svg width="161" height="55" viewBox="0 0 161 55" fill="none" xmlns="http://www.w3.org/2000/svg">
  <g clip-path="url(#clip0_1624_710)">
    <path d="M54.8585 24.7333C54.217 18.4051 51.4012 12.495 46.8907 8.01023C42.3802 3.52543 36.4542 0.743335 30.1225 0.138007C23.7907 -0.467321 17.4449 1.14157 12.1664 4.69054C6.88787 8.2395 3.00324 13.5089 1.17441 19.601C-0.654423 25.6931 -0.314298 32.2308 2.13683 38.1002C4.58795 43.9695 8.99842 48.8074 14.6167 51.7895C20.235 54.7716 26.7135 55.7133 32.9483 54.4542C39.183 53.1951 44.7884 49.8131 48.8091 44.8844C51.0944 42.0892 52.8051 38.8702 53.8432 35.4121C54.8814 31.954 55.2264 28.325 54.8585 24.7333ZM48.6539 14.7929C50.2355 17.43 51.3106 20.3393 51.8238 23.3712C51.4131 26.2056 47.6924 27.5977 44.1569 28.7946C43.5972 25.9655 43.7399 23.0424 44.5725 20.2814C45.2678 18.0403 46.7077 16.1039 48.6539 14.7929ZM43.1003 8.38802C44.6304 9.6314 46.0042 11.0556 47.1916 12.6296C44.7594 14.2579 42.9584 16.6704 42.0887 19.4651C41.9785 19.8007 41.8834 20.1462 41.7982 20.4917C41.5946 20.2397 41.3737 20.0021 41.1372 19.7806C41.1965 19.7046 41.2407 19.6179 41.2674 19.5252C41.4277 19.0245 41.4327 18.113 40.7316 17.7174C40.0305 17.3218 39.9253 18.058 39.8252 18.3935C39.725 18.729 39.5748 18.4385 39.5798 18.2533C39.6181 17.77 39.5192 17.2856 39.2944 16.8561C39.2466 16.7445 39.1713 16.6467 39.0757 16.5719C38.98 16.4971 38.867 16.4476 38.7471 16.4281C38.6272 16.4087 38.5044 16.4198 38.3899 16.4604C38.2755 16.5011 38.1732 16.57 38.0925 16.6608C37.9776 16.9744 37.9776 17.3187 38.0925 17.6323C38.1626 17.8426 38.0174 17.9728 37.9222 17.8977C37.8271 17.8226 37.6168 17.6423 37.4715 17.5121C37.3263 17.3819 36.7705 16.8912 36.2146 17.2567C35.9774 17.4353 35.8084 17.6896 35.7355 17.9774C35.6626 18.2652 35.6903 18.5693 35.814 18.8392C36.1062 19.1997 36.4928 19.4719 36.9307 19.6254C37.2011 19.7155 37.0609 19.9509 36.9307 20.006C36.7328 20.1866 36.6007 20.428 36.5551 20.692C36.6007 20.8941 36.7197 21.072 36.889 21.1914C37.0583 21.3107 37.2659 21.363 37.4715 21.338C38.0124 21.293 38.4731 20.657 38.6383 20.4867C38.8036 20.3165 38.9438 20.5668 38.8186 20.7471C38.6741 20.9953 38.5582 21.259 38.4731 21.5333C38.388 21.7787 38.5031 22.3145 39.1842 22.4848C39.685 22.615 40.1407 22.2544 40.4411 21.6986C40.4709 21.4964 40.4519 21.2899 40.3857 21.0966C40.3195 20.9032 40.208 20.7284 40.0605 20.5869C39.4773 19.9747 38.831 19.4258 38.1326 18.9493C39.1993 19.3645 40.1618 20.009 40.9519 20.8373C41.4527 21.5484 41.4227 22.1843 41.3375 23.241C41.1447 25.3817 41.2627 27.539 41.6881 29.6459L39.9554 30.2618L38.1225 30.9128C38.3078 28.9097 37.3013 26.5711 36.2096 24.0823C35.0728 21.4833 33.8259 18.6339 34.2065 15.9647C34.4884 13.449 35.5575 11.0866 37.2612 9.21429C38.2697 8.15119 39.4802 7.29995 40.8217 6.71042C41.6122 7.22631 42.3729 7.7864 43.1003 8.38802ZM25.0073 2.95462C26.2833 2.82446 27.5675 2.79432 28.8482 2.86448C28.9433 7.68193 27.1606 10.2108 25.0623 12.7448C24.9939 11.8508 24.8259 10.9673 24.5616 10.1107C24.2588 9.24914 23.8905 8.41206 23.4599 7.60681C23.9848 8.18499 24.4233 8.83606 24.7619 9.5398C24.7847 9.62948 24.8284 9.71248 24.8895 9.78201C24.9505 9.85153 25.0272 9.90561 25.1132 9.93981C25.1992 9.97401 25.292 9.98735 25.3841 9.97875C25.4763 9.97015 25.5651 9.93986 25.6432 9.89034C26.114 9.67501 26.7499 9.0891 26.4495 8.41806C26.149 7.74703 25.5581 8.14765 25.2476 8.29788C24.9371 8.44811 25.0073 8.17269 25.1425 8.06252C25.4836 7.79495 25.7323 7.42716 25.8536 7.01089C26.0088 6.41497 25.3227 6.08947 25.0073 6.16458C24.7139 6.27192 24.4722 6.48672 24.3312 6.76551C24.2411 6.94078 24.0357 6.93577 24.0107 6.83061C23.9857 6.72545 23.9356 6.48508 23.9055 6.32984C23.8681 6.11735 23.7631 5.92263 23.6061 5.77465C23.4491 5.62667 23.2485 5.53335 23.0342 5.50857C22.3331 5.3984 21.7021 5.79902 21.637 6.16458C21.6472 6.57854 21.7854 6.97918 22.0326 7.31135C22.1929 7.53169 21.9175 7.59179 21.7923 7.56675C21.6416 7.56329 21.4938 7.6085 21.3708 7.69567C21.2478 7.78284 21.1562 7.90732 21.1095 8.05066C21.0629 8.19399 21.0637 8.34855 21.1118 8.49141C21.1599 8.63426 21.2528 8.75781 21.3766 8.84372C21.6971 9.16922 22.6035 8.89881 22.879 8.90382C23.1544 8.90882 23.0693 9.13918 22.8439 9.17924C22.5605 9.23834 22.2837 9.32557 22.0176 9.43964C21.7823 9.54481 21.5169 9.94042 21.9475 10.4412C22.278 10.8318 23.0592 10.7366 23.6852 10.5714C23.8204 10.5313 24.0357 11.1924 24.0758 11.5329C24.2551 12.5302 24.1039 13.5589 23.6451 14.4624C23.2646 14.9281 22.884 15.4039 22.5084 15.9096C22.1861 14.4481 21.5952 13.0591 20.7657 11.8133C19.1945 9.46132 16.9139 7.67193 14.2556 6.70542H14.2206C17.4736 4.62946 21.168 3.34484 25.0073 2.95462ZM8.38653 11.9035C9.33057 10.741 10.3781 9.6666 11.5164 8.69349C12.1305 8.80875 12.7336 8.97629 13.3192 9.19426C15.4517 9.96913 17.2815 11.4042 18.5422 13.2906C19.7482 15.0484 20.2814 17.1814 20.0446 19.2999C19.9714 19.9204 19.8269 20.5303 19.6139 21.1177V21.1678C18.5424 23.9092 18.0629 26.8462 18.2067 29.7861C18.2519 30.3642 18.3389 30.9382 18.4671 31.5037C17.3855 31.0881 16.2487 30.6875 15.0869 30.2768L13.3592 29.6659C14.082 26.2877 13.9356 22.7813 12.9336 19.4752C12.5694 18.3574 12.0646 17.2906 11.4312 16.3002C11.4267 16.0471 11.4731 15.7956 11.5677 15.5607C11.6624 15.3258 11.8033 15.1124 11.9821 14.9331C12.5674 14.2977 13.2927 13.8074 14.1004 13.5009C13.5561 13.9287 13.0531 14.4065 12.598 14.9281C12.3577 15.1885 12.2876 15.5541 12.3927 15.6893C12.7132 16.0949 13.189 16.5156 13.6397 16.3904C14.2406 16.2201 14.2857 15.8045 14.1905 15.6242C14.0775 15.4218 13.9432 15.2321 13.7899 15.0583C13.6597 14.9331 13.7448 14.7328 13.9251 14.853C14.1903 15.1002 14.5305 15.2518 14.8916 15.2837C15.0635 15.2961 15.2334 15.2398 15.3639 15.1271C15.4944 15.0145 15.5749 14.8547 15.5877 14.6827C15.5426 14.4969 15.4255 14.3366 15.2622 14.2371C15.162 14.202 15.0168 14.0317 15.2622 13.9466C15.6277 13.8139 15.9498 13.5835 16.1936 13.2806C16.2751 13.0568 16.2688 12.8104 16.1758 12.5911C16.0829 12.3718 15.9103 12.1959 15.6928 12.0988C15.5013 12.0311 15.2942 12.0206 15.0968 12.0686C14.8993 12.1166 14.7202 12.2211 14.5811 12.3692C14.4609 12.4793 14.2907 12.6296 14.2105 12.6897C14.1304 12.7498 13.9852 12.6646 14.0303 12.4994C14.0652 12.3761 14.0738 12.247 14.0557 12.1202C14.0376 11.9934 13.9931 11.8718 13.9251 11.7632C13.8437 11.6989 13.7491 11.6532 13.6481 11.6292C13.5471 11.6053 13.4421 11.6038 13.3404 11.6248C13.2388 11.6458 13.1429 11.6888 13.0597 11.7508C12.9764 11.8128 12.9077 11.8922 12.8585 11.9836C12.6985 12.3186 12.6528 12.6968 12.7282 13.0602C12.7533 13.2005 12.6481 13.4308 12.5229 13.1854C12.3977 12.9401 12.2375 12.3842 11.6416 12.7247C11.0456 13.0652 11.2109 13.9316 11.3962 14.2971C11.4328 14.3673 11.4821 14.4301 11.5414 14.4824C11.2859 14.7363 11.0561 15.0147 10.8554 15.3137V15.4339C10.0172 14.3409 9.00154 13.3964 7.8507 12.6396C8.01095 12.3842 8.19123 12.1438 8.38653 11.9035ZM6.34838 14.7929C8.29814 16.1089 9.73847 18.0529 10.4297 20.3014C10.5248 20.5919 10.605 20.8873 10.6801 21.1828C10.406 21.045 10.1213 20.9295 9.82876 20.8373C9.86181 20.7494 9.87548 20.6555 9.86882 20.5618C9.86882 20.0611 9.58338 19.2849 8.86727 19.2548C8.15117 19.2248 8.26634 19.8908 8.27636 20.2213C8.28638 20.5518 8.07104 20.3715 8.02096 20.2213C7.90917 19.8027 7.67142 19.4286 7.33991 19.1496C7.24771 19.0823 7.14094 19.0377 7.02825 19.0193C6.91556 19.001 6.80014 19.0095 6.69135 19.0441C6.58256 19.0788 6.48347 19.1386 6.40213 19.2187C6.32078 19.2988 6.25948 19.397 6.22318 19.5052C6.21809 19.7996 6.31945 20.0859 6.50862 20.3114C6.63382 20.4617 6.54869 20.6319 6.43852 20.6119C6.32835 20.5919 6.09298 20.5268 5.93774 20.4767C5.73252 20.3924 5.50511 20.3786 5.29121 20.4375C5.07731 20.4964 4.88903 20.6247 4.75591 20.8022C4.59734 21.0325 4.52364 21.3106 4.54738 21.5892C4.57113 21.8678 4.69086 22.1295 4.88611 22.3296C5.2641 22.5116 5.68797 22.5761 6.103 22.5148C6.36841 22.4748 6.31833 22.7402 6.24321 22.8303C6.12945 23.0596 6.0909 23.319 6.13304 23.5715C6.19814 23.7918 6.67388 23.9971 7.13459 23.7267C7.59531 23.4563 7.79061 22.7252 7.89577 22.4948C8.00093 22.2645 8.19123 22.4347 8.13614 22.64C8.06525 22.9051 8.02327 23.1772 8.01095 23.4513C8.01095 23.7017 8.27135 24.1073 8.92236 23.9521C9.17145 23.86 9.38717 23.6952 9.54162 23.4792C9.69607 23.2631 9.78214 23.0057 9.7887 22.7402C9.81875 22.5399 9.47321 22.0642 9.09763 21.979C8.39047 21.7084 7.65449 21.5202 6.90424 21.4182C7.93864 21.3035 8.9855 21.4356 9.95896 21.8038C10.64 22.1793 10.9605 22.8404 11.0707 23.8068H11.1007C11.2278 25.4806 11.1386 27.1637 10.8353 28.8146C7.30486 27.5977 3.57909 26.2056 3.17346 23.3612C3.68803 20.332 4.76486 17.4259 6.34838 14.7929ZM19.028 50.6834C14.6774 49.0894 10.8629 46.3038 8.02039 42.6448C5.17784 38.9858 3.42188 34.601 2.95312 29.9914C2.88802 29.3504 2.84796 28.7044 2.83294 28.0584C4.83604 29.761 7.77558 30.7476 10.5198 31.674L12.1223 32.2198C11.7395 32.6223 11.391 33.0562 11.0807 33.5169C10.3996 34.5184 10.1042 35.9206 9.84879 37.1024C9.82962 36.2096 9.94958 35.3192 10.2043 34.4633C10.2391 34.3728 10.2533 34.2757 10.246 34.1791C10.2387 34.0824 10.2101 33.9886 10.1622 33.9043C10.1143 33.82 10.0484 33.7474 9.96906 33.6917C9.88976 33.6359 9.79908 33.5985 9.70357 33.582C9.09262 33.4518 8.64193 33.4518 8.32143 33.9375C7.89076 34.5885 8.16619 35.0242 8.39655 35.1193C8.58846 35.2191 8.79739 35.282 9.0125 35.3046C9.23284 35.3046 9.30295 35.5901 9.04255 35.6201C8.58525 35.6044 8.13581 35.7419 7.76557 36.0107C7.30486 36.4063 7.29484 37.0123 7.47011 37.1575C7.69062 37.3011 7.95574 37.3598 8.21627 37.3227C8.34146 37.2777 8.61188 37.3227 8.45664 37.5932C8.38115 37.7098 8.33255 37.8417 8.31436 37.9794C8.29618 38.1171 8.30885 38.2572 8.35148 38.3894C8.44133 38.667 8.63626 38.8984 8.89457 39.0341C9.15288 39.1698 9.45404 39.199 9.73361 39.1155C10.3746 38.81 10.3195 38.3593 10.4047 37.9537C10.4347 37.8285 10.635 37.8035 10.7201 37.9938C10.7812 38.1395 10.872 38.2708 10.9867 38.3794C11.1013 38.4881 11.2374 38.5716 11.3862 38.6247C11.513 38.6167 11.6367 38.5814 11.7487 38.5214C11.8607 38.4613 11.9585 38.3779 12.0355 38.2767C12.1124 38.1756 12.1667 38.059 12.1946 37.935C12.2226 37.8111 12.2235 37.6825 12.1974 37.5581C12.0941 37.1062 11.8441 36.7011 11.4863 36.4063C11.3611 36.2911 11.286 35.9807 11.5915 36.1209C11.897 36.2611 12.4678 36.6667 12.7633 35.8555C13.0588 35.0442 12.2625 34.3531 11.7618 34.1328C11.7367 34.1328 11.7017 34.0677 11.6616 33.9826C12.0123 33.3911 12.5226 32.9103 13.1339 32.5954L14.1054 32.941C17.4255 34.1028 20.4452 35.1694 22.5334 36.7819C22.3471 37.0287 22.1319 37.2522 21.8924 37.4479C21.1813 37.9187 17.4706 41.3139 16.7445 41.9549C17.0399 41.2238 18.1617 40.057 18.9128 39.1656C19.3084 38.6999 19.4136 38.2141 19.1933 38.0088C18.5272 37.3678 17.5507 36.7619 16.8246 37.1074C15.8531 37.5681 15.9132 38.3043 16.1485 38.6097C16.4073 38.9274 16.7013 39.2147 17.0249 39.466C17.2903 39.6513 17.2102 40.0269 16.8596 39.8667C16.5091 39.7064 15.5576 39.0404 14.7163 39.1706C13.875 39.3008 13.4694 40.0119 13.5946 40.3324C13.7835 40.6737 14.0816 40.9417 14.4409 41.0936C14.6262 41.1286 14.9417 41.389 14.5711 41.5943C14.0958 41.8891 13.7313 42.3328 13.5345 42.8563C13.3442 43.4172 13.8249 44.5038 14.8315 44.7743C15.1144 44.8823 15.428 44.8776 15.7076 44.7611C15.9871 44.6446 16.2113 44.4252 16.3338 44.1483C16.4991 43.933 16.7395 43.6475 16.8346 43.4923C16.9298 43.337 17.2202 43.4923 17.2052 43.7777C17.1921 44.0059 17.2243 44.2345 17.2999 44.4502C17.3755 44.6659 17.4931 44.8646 17.6459 45.0347C17.8017 45.1257 17.976 45.1805 18.1558 45.195C18.3357 45.2095 18.5165 45.1833 18.6849 45.1184C18.8533 45.0535 19.0048 44.9514 19.1284 44.8199C19.2519 44.6884 19.3443 44.5307 19.3986 44.3586C19.5529 43.717 19.4967 43.0428 19.2383 42.4356C19.1482 42.2003 19.2383 41.7696 19.5488 42.1702C19.8593 42.5708 20.32 43.4873 21.2214 42.7261C22.1228 41.9649 21.637 40.5027 21.0011 39.8116C21.44 39.355 21.9945 39.0259 22.6056 38.8593C23.2166 38.6926 23.8614 38.6946 24.4714 38.8651C25.1414 39.9813 25.4817 41.2643 25.4529 42.5658C25.4529 48.6352 19.649 50.5081 19.028 50.6834ZM27.5011 38.3443C26.4745 35.9506 24.5365 34.3481 22.0326 33.0511C21.3666 32.4051 20.9309 31.1832 20.8007 29.5457C20.7005 27.7712 20.8882 25.9921 21.3566 24.2776C22.0677 22.6798 23.3423 21.3998 24.9371 20.682L25.0373 20.6319C26.129 20.1312 26.8952 19.7756 28.1221 19.8607C27.5362 19.8607 26.3343 20.3615 25.2677 20.9825C25.0321 21.1023 24.85 21.3061 24.7573 21.5536C24.6646 21.8012 24.668 22.0744 24.7669 22.3195C25.0874 22.9856 25.6132 23.5715 26.2692 23.5264C27.1756 23.4663 27.3859 22.8954 27.3058 22.615C27.2166 22.2952 27.0888 21.9875 26.9252 21.6986C26.785 21.4782 26.9753 21.2279 27.1906 21.4432C27.406 21.6585 27.9067 22.4447 28.5978 22.6C30.1853 22.9405 29.985 21.333 29.379 20.9524C29.2488 20.8723 29.0936 20.5869 29.4541 20.5368C29.9794 20.375 30.4538 20.08 30.8313 19.6805C30.9355 19.5637 31.0141 19.4264 31.062 19.2774C31.11 19.1284 31.1262 18.971 31.1097 18.8154C31.0932 18.6597 31.0443 18.5092 30.9662 18.3736C30.888 18.238 30.7824 18.1202 30.656 18.0279C29.9799 17.5271 29.334 18.058 29.1537 18.1731C28.9734 18.2883 28.6529 18.4486 28.5227 18.5137C28.3925 18.5788 28.2172 18.4085 28.3374 18.1932C28.4263 18.0308 28.4807 17.8517 28.4971 17.6673C28.5134 17.4829 28.4915 17.297 28.4326 17.1215C28.3283 16.9878 28.1919 16.8828 28.036 16.8162C27.8801 16.7496 27.7098 16.7237 27.5412 16.7409C27.2665 16.7942 27.0132 16.9263 26.8123 17.121C26.6113 17.3158 26.4713 17.5647 26.4094 17.8376C26.3343 18.073 26.3143 18.6439 26.164 18.759C25.8135 19.0295 26.2241 17.6473 25.1324 17.7275C24.0408 17.8076 23.8104 19.0595 23.9907 19.9309C23.9947 19.9748 23.9842 20.0188 23.9606 20.056C23.4883 20.4307 22.9858 20.7657 22.4583 21.0576C23.575 18.5838 25.0673 16.796 26.4895 15.1034C29.1186 11.9736 31.4973 9.09411 31.4622 3.14992C33.7471 3.5198 35.9678 4.2128 38.0574 5.2081C37.0481 5.82222 36.1252 6.56828 35.3132 7.42653C33.2448 9.69145 31.9444 12.5516 31.5975 15.5992C31.0967 18.9944 32.5139 22.2044 33.7908 25.1139C35.1479 28.2086 36.3248 30.9779 33.9861 32.5504C31.0166 33.9375 28.6629 35.6351 27.5011 38.3443ZM46.6157 43.1017C43.8121 46.5479 40.1255 49.1683 35.9492 50.6834C35.3382 50.5031 29.5443 48.6252 29.5443 42.5658C29.5443 38.2241 32.6391 36.1409 36.8806 34.4182C38.2528 33.8874 39.3144 34.0827 40.5463 34.1779C41.4129 34.2675 42.2589 34.4993 43.0502 34.8639C43.9082 35.332 44.6984 35.9149 45.3988 36.5966C45.0983 36.4113 44.0267 35.8204 42.96 35.2796C42.742 35.1752 42.493 35.1559 42.2615 35.2253C42.03 35.2948 41.8327 35.448 41.7081 35.6552C41.3926 36.3162 41.1422 37.1575 41.5729 37.6583C42.1438 38.2792 42.6946 38.0639 42.8599 37.8235C43.05 37.5541 43.208 37.2633 43.3306 36.9572C43.4157 36.7118 43.7212 36.6868 43.6761 36.9572C43.6311 37.2276 43.3356 38.129 43.6261 38.7299C43.9165 39.3308 44.5525 39.4711 44.7728 39.3058C44.99 39.0846 45.1274 38.7974 45.1634 38.4895C45.1634 38.3443 45.2736 38.0489 45.524 38.2792C45.7744 38.5096 45.8695 38.5496 46.3403 38.5647C46.6749 38.5104 46.9788 38.3372 47.1959 38.0768C47.413 37.8164 47.5289 37.4864 47.5221 37.1475C47.3769 36.3562 46.8811 36.3212 46.4705 36.1459C46.3403 36.0858 46.3703 35.8555 46.6007 35.7954C46.7791 35.7546 46.9476 35.6787 47.0964 35.5721C47.2451 35.4655 47.3711 35.3303 47.467 35.1744C47.4967 35.0371 47.4947 34.8949 47.4613 34.7585C47.4279 34.622 47.364 34.495 47.2742 34.3869C47.1845 34.2789 47.0714 34.1926 46.9434 34.1347C46.8154 34.0768 46.676 34.0488 46.5356 34.0527C46.0079 34.081 45.5036 34.2795 45.0983 34.6186C44.9381 34.7387 44.5976 34.7588 44.8229 34.4433C45.0483 34.1278 45.6592 33.5619 44.873 33.0561C44.0868 32.5504 43.1003 33.3316 42.7497 33.8123C42.6932 33.8531 42.6281 33.8805 42.5594 33.8924C42.098 33.5676 41.6596 33.2112 41.2474 32.8258L42.6295 32.325C43.1904 32.1197 43.9065 31.8793 44.4824 31.684C47.2216 30.7626 50.1462 29.7761 52.1643 28.0734C52.0439 33.5617 50.0907 38.8519 46.6157 43.1017ZM45.4839 23.6867C45.1685 23.3912 44.6777 22.62 45.0983 22.1343C45.519 21.6485 45.8745 22.1343 46.0999 22.3246C46.3252 22.5149 46.3202 22.2795 46.2451 22.1543C46.0356 21.8428 45.9304 21.4728 45.9447 21.0977C45.9578 20.9989 45.9939 20.9045 46.0499 20.822C46.1059 20.7396 46.1804 20.6714 46.2674 20.6227C46.3544 20.5741 46.4516 20.5465 46.5512 20.542C46.6507 20.5375 46.75 20.5563 46.841 20.5969C47.0495 20.7619 47.1874 21 47.2266 21.2629C47.2266 21.4332 47.4119 21.4732 47.462 21.3931C47.5121 21.313 47.6122 21.1227 47.6773 20.9925C47.7493 20.817 47.8745 20.6684 48.0353 20.5678C48.1961 20.4672 48.3844 20.4196 48.5737 20.4316C48.8165 20.4608 49.0419 20.5729 49.2116 20.749C49.3813 20.9251 49.485 21.1544 49.5052 21.3981C49.3995 21.7478 49.1899 22.0569 48.9042 22.2845C48.7189 22.4297 48.9042 22.5449 49.0294 22.5549C49.2481 22.6134 49.4427 22.7396 49.5853 22.9155C49.6904 23.0807 49.5452 23.5064 49.0845 23.6416C48.6485 23.6823 48.2098 23.6008 47.8176 23.4062C47.6072 23.3461 47.6022 23.5565 47.7725 23.6416C47.9828 23.762 48.1808 23.9029 48.3634 24.0622C48.5236 24.2075 48.6388 24.6081 48.1531 24.9336C47.7775 25.184 47.1515 24.8985 46.7058 24.6031C46.6153 24.5243 46.5527 24.4182 46.5274 24.3009C46.5022 24.1835 46.5156 24.0612 46.5656 23.9521C46.9057 23.3425 47.2767 22.7509 47.6773 22.1793C47.1169 22.6034 46.6239 23.1099 46.2151 23.6817C46.0698 23.892 45.8044 23.9821 45.4839 23.6867ZM32.8143 30.3419C32.5039 30.9228 32.0031 31.5789 31.4021 31.5188C30.6209 31.4386 30.4707 30.9379 30.5508 30.6925C30.6435 30.4145 30.7696 30.1488 30.9264 29.9013C31.0566 29.716 30.9264 29.4856 30.7061 29.6759C30.4857 29.8662 30.045 30.5473 29.4291 30.6424C28.8131 30.7376 28.3574 30.372 28.3574 30.1416C28.398 29.8702 28.5306 29.6209 28.733 29.4355C28.8532 29.3704 28.9984 29.1251 28.688 29.07C28.2044 28.9873 27.7525 28.7743 27.3809 28.454C27.2307 28.1914 27.1865 27.8814 27.2572 27.5873C27.328 27.2932 27.5084 27.0372 27.7615 26.8716C27.9841 26.7449 28.2389 26.6864 28.4944 26.7033C28.7499 26.7202 28.9948 26.8118 29.1987 26.9667C29.369 27.0719 29.6144 27.2221 29.7296 27.2822C29.8447 27.3423 30 27.1971 29.9098 27.0068C29.8368 26.8571 29.7959 26.6937 29.7899 26.5273C29.7838 26.3608 29.8128 26.1949 29.8748 26.0403C29.9618 25.9426 30.0692 25.8652 30.1893 25.8134C30.3094 25.7617 30.4394 25.7368 30.5702 25.7406C30.7009 25.7445 30.8293 25.7769 30.9462 25.8355C31.0631 25.8942 31.1657 25.9778 31.2469 26.0804C31.5244 26.4601 31.6656 26.9224 31.6475 27.3924C31.6475 27.5727 31.8328 27.8331 31.933 27.4975C32.0331 27.162 32.1082 26.4409 32.9345 26.7314C33.7608 27.0218 33.7358 28.1335 33.5805 28.6343C33.4253 29.1351 34.5019 30.0615 34.1764 29.8762C33.1749 29.3154 30.9214 28.3338 30.015 28.2487C30.8709 28.6369 31.7066 29.0681 32.5189 29.5407C32.6521 29.6206 32.7541 29.7435 32.8078 29.8893C32.8615 30.035 32.8638 30.1947 32.8143 30.3419ZM15.2321 18.3684C15.5922 18.3722 15.9421 18.4877 16.2337 18.699C16.419 18.8342 16.4791 18.6088 16.454 18.5087C16.4523 18.2871 16.5188 18.0703 16.6443 17.8877C16.7745 17.7425 17.2102 17.7675 17.4606 18.1581C17.6173 18.5559 17.6589 18.9897 17.5808 19.41C17.5808 19.6254 17.7811 19.5703 17.8161 19.41C17.8612 19.1744 17.9317 18.9444 18.0264 18.724C18.1166 18.5337 18.4621 18.3184 18.9028 18.6839C19.2333 18.9694 19.1332 19.6204 18.9779 20.1312C18.9282 20.2378 18.8451 20.3253 18.7412 20.3804C18.6372 20.4355 18.5182 20.4553 18.402 20.4366C17.7395 20.2841 17.0858 20.0952 16.444 19.8708C16.9901 20.2817 17.5943 20.6091 18.2368 20.8423C18.4922 20.9424 18.6424 21.1578 18.4471 21.5383C18.2518 21.9189 17.6659 22.58 17.1 22.3195C16.5341 22.0591 16.8797 21.5884 17.0099 21.318C17.1401 21.0476 16.9097 21.1227 16.8096 21.2279C16.5755 21.5094 16.2582 21.7093 15.9032 21.7987C15.8069 21.8129 15.7087 21.8045 15.6164 21.7741C15.524 21.7437 15.4399 21.6922 15.3709 21.6236C15.3019 21.5551 15.2498 21.4714 15.2188 21.3793C15.1877 21.2871 15.1786 21.189 15.1921 21.0927C15.2842 20.8553 15.4632 20.6619 15.6928 20.5518C15.8431 20.4817 15.8381 20.3165 15.7529 20.2914C15.6678 20.2664 15.4575 20.2263 15.3173 20.1963C15.14 20.1739 14.9738 20.0983 14.8406 19.9793C14.7073 19.8604 14.6133 19.7038 14.5711 19.5302C14.5285 19.2899 14.5713 19.0422 14.692 18.8301C14.8127 18.6179 15.0038 18.4546 15.2321 18.3684ZM39.059 13.3006C38.7435 12.7648 38.4581 12.0487 38.7585 11.638C39.1592 11.1022 39.6099 11.2575 39.7601 11.4528C39.9318 11.6673 40.0811 11.8989 40.2058 12.1438C40.2909 12.3391 40.5313 12.3491 40.4712 12.1038C40.4111 11.8584 40.1056 11.1573 40.2809 10.6515C40.4562 10.1457 40.9469 10.0005 41.1322 10.1507C41.3235 10.3231 41.4565 10.5505 41.5128 10.8017C41.5128 10.9219 41.638 11.1623 41.8133 10.962C42.086 10.6495 42.4477 10.4276 42.8499 10.326C43.1267 10.3632 43.3823 10.4945 43.5738 10.6978C43.7653 10.9012 43.881 11.1642 43.9015 11.4427C43.9074 11.6614 43.8436 11.8762 43.7194 12.0563C43.5951 12.2363 43.4169 12.3722 43.2104 12.4443C43.0552 12.5094 42.8348 12.6146 42.7397 12.6646C42.6445 12.7147 42.6846 12.905 42.8749 12.9451C43.1762 13.0096 43.4403 13.1893 43.611 13.4458C43.655 13.5522 43.673 13.6675 43.6636 13.7822C43.6542 13.897 43.6177 14.0078 43.557 14.1056C43.4964 14.2034 43.4133 14.2854 43.3148 14.3449C43.2162 14.4043 43.1049 14.4394 42.9901 14.4474C42.5624 14.4348 42.15 14.2857 41.8133 14.0217C41.6781 13.9266 41.3976 13.9266 41.6129 14.177C41.8283 14.4274 42.3441 14.863 41.7732 15.3087C41.2023 15.7544 40.346 15.1585 40.0305 14.7829C39.715 14.4073 39.8252 14.1169 40.0856 13.9366C40.7533 13.5021 41.3525 12.9704 41.8633 12.3592C41.1931 12.7825 40.5011 13.1703 39.7901 13.521C39.6611 13.5709 39.5191 13.5764 39.3867 13.5364C39.2542 13.4965 39.1389 13.4135 39.059 13.3006ZM38.5983 38.9603C38.3629 39.8166 37.6769 39.461 37.3213 39.3258C36.9658 39.1906 37.0859 39.5211 37.2412 39.6263C37.6612 39.8911 37.9844 40.2846 38.1626 40.748C38.2029 40.878 38.2133 41.0154 38.1932 41.15C38.1731 41.2846 38.123 41.413 38.0465 41.5255C37.97 41.6381 37.8691 41.732 37.7514 41.8003C37.6337 41.8685 37.5021 41.9094 37.3664 41.9198C37.1987 41.8802 37.0406 41.8075 36.9013 41.706C36.762 41.6046 36.6443 41.4764 36.5551 41.3289C36.4399 41.1336 36.2196 41.1787 36.2046 41.3289C36.1896 41.4792 36.1695 41.7496 36.1645 41.9549C36.1826 42.2495 36.0971 42.5412 35.923 42.7796C35.7489 43.018 35.497 43.1881 35.2108 43.2605C34.9246 43.333 34.6221 43.3032 34.3556 43.1764C34.089 43.0495 33.8751 42.8336 33.7508 42.5658C33.6889 42.0671 33.7723 41.561 33.9912 41.1086C34.1314 40.8131 33.8259 40.7931 33.6957 40.8482C33.4075 40.9064 33.1082 40.8677 32.8444 40.738C32.629 40.5928 32.574 39.9818 33.0447 39.5362C33.5154 39.0905 34.3868 39.1055 34.6722 39.0354C34.9576 38.9653 34.8475 38.7199 34.5971 38.7199C34.285 38.7009 33.9759 38.6471 33.6757 38.5596C33.4053 38.4845 33.0547 38.0589 33.4603 37.3528C33.7608 36.852 34.6121 36.7919 35.3082 36.877C35.4838 36.947 35.6317 37.0725 35.7293 37.2343C35.827 37.3961 35.869 37.5855 35.849 37.7734C35.776 38.6802 35.6574 39.5828 35.4935 40.4776C35.9142 39.6555 36.2192 38.7792 36.3999 37.8736C36.505 37.4229 36.7705 37.0974 37.3063 37.2677C37.8421 37.4379 38.8337 38.1039 38.5983 38.9603Z" fill="#2E8647"/>
    <path d="M79.1706 42.2503V34.8889C79.181 34.5608 79.1086 34.2353 78.9603 33.9424C78.7961 33.6644 78.5468 33.4467 78.2492 33.3215C77.8616 33.1598 77.4509 33.0601 77.0323 33.026C76.4248 32.9688 75.8147 32.942 75.2045 32.9459C74.5294 32.9381 73.8562 33.0172 73.2014 33.1813C72.6147 33.3399 72.0707 33.6273 71.6089 34.0226C71.1048 34.464 70.6944 35.0021 70.4021 35.605C70.025 36.3786 69.7345 37.1914 69.5357 38.0287C69.3554 38.7749 69.2002 39.4009 69.075 39.9016L68.7595 41.1536C68.6794 41.4841 68.6093 41.7445 68.5592 41.9398C68.5292 42.055 68.4991 42.1551 68.4691 42.2503C68.2533 42.2386 68.0373 42.2698 67.8336 42.342C67.6299 42.4142 67.4425 42.526 67.2822 42.6709C67.1338 42.8233 67.0184 43.0047 66.9434 43.2038C66.8685 43.4028 66.8355 43.6153 66.8466 43.8277V48.7854H69.7811V45.0045H77.8386V48.7854H80.7681V43.8277C80.7792 43.6153 80.7462 43.4028 80.6712 43.2038C80.5962 43.0047 80.4809 42.8233 80.3324 42.6709C80.0155 42.3834 79.5981 42.2323 79.1706 42.2503ZM76.1159 35.7102V42.2503H71.5789C71.7592 41.5492 71.9294 40.8631 72.0796 40.1921C72.2599 39.4259 72.4452 38.6497 72.6405 37.8535C72.7708 37.2288 73.0587 36.6479 73.4768 36.1659C73.9483 35.7883 74.548 35.6088 75.1494 35.6651C75.3247 35.6651 75.525 35.6651 75.7503 35.6651C75.8729 35.6739 75.9949 35.6889 76.1159 35.7102ZM93.3075 33.4617L93.4677 33.5218V43.5673C93.4902 44.5214 93.3392 45.4715 93.0221 46.3716C92.7606 47.1028 92.3269 47.7602 91.7577 48.2885C91.1886 48.8167 90.5006 49.2001 89.752 49.4063C88.9371 49.6342 88.0943 49.7471 87.2481 49.7419C86.6722 49.7449 86.0967 49.7098 85.5255 49.6367C85.0608 49.581 84.5995 49.5008 84.1433 49.3963C83.7377 49.3062 83.4022 49.216 83.1418 49.1309C82.9497 49.0742 82.7608 49.0074 82.5759 48.9306L82.3556 48.8354L82.4407 48.6151C82.5609 48.3046 82.671 47.9891 82.7762 47.6686L83.0917 46.7072L83.1768 46.4518L83.4272 46.5569C83.5274 46.602 83.6876 46.6571 83.9029 46.7322C84.1613 46.814 84.4237 46.8826 84.6892 46.9375C84.9946 47.0026 85.3452 47.0577 85.7358 47.1028C86.1482 47.1483 86.5628 47.17 86.9777 47.1679C87.4842 47.1734 87.9892 47.1128 88.48 46.9876C88.8823 46.8812 89.2511 46.6744 89.5517 46.3867C89.8657 46.0613 90.099 45.6668 90.2327 45.2349C90.3555 44.8449 90.4295 44.4412 90.4531 44.033C90.1431 44.2918 89.793 44.4982 89.4165 44.644C88.7183 44.9262 87.9711 45.0674 87.2181 45.0596C86.511 45.0645 85.8077 44.9563 85.1348 44.7391C84.5225 44.5487 83.9564 44.2332 83.4723 43.8127C83.0024 43.3983 82.6296 42.8853 82.3806 42.3104C82.1112 41.6582 81.9783 40.9577 81.99 40.2522V34.6385C81.9761 34.4334 82.0095 34.2278 82.0877 34.0377C82.1658 33.8475 82.2866 33.6779 82.4407 33.5418C82.773 33.2967 83.1801 33.1746 83.5925 33.1963C83.8701 33.1936 84.1467 33.2307 84.4137 33.3064C84.6591 33.3766 84.8194 33.4316 84.9145 33.4617L85.0698 33.5218V39.7063C85.0327 40.4138 85.2633 41.1092 85.7158 41.6544C85.9804 41.9075 86.2959 42.1014 86.6412 42.2232C86.9866 42.3449 87.354 42.3917 87.7189 42.3604C88.0849 42.3859 88.4523 42.3344 88.7973 42.2094C89.1422 42.0843 89.4572 41.8884 89.722 41.6343C90.238 41.0327 90.4954 40.2515 90.4381 39.461V34.6385C90.4242 34.4334 90.4576 34.2278 90.5357 34.0377C90.6139 33.8475 90.7347 33.6779 90.8888 33.5418C91.2211 33.2967 91.6282 33.1746 92.0405 33.1963C92.3182 33.1936 92.5947 33.2307 92.8618 33.3064C93.0521 33.3766 93.2124 33.4316 93.2925 33.4617H93.3075ZM106.378 35.2044C105.836 34.67 105.19 34.2524 104.48 33.9775C103.657 33.669 102.784 33.5178 101.906 33.5318C101.17 33.5371 100.442 33.6851 99.7625 33.9675C99.4839 34.0831 99.2172 34.2257 98.9663 34.3931C99.0264 34.303 99.0914 34.2128 99.1565 34.1277C99.4827 33.7087 99.8711 33.3423 100.308 33.041C100.808 32.6987 101.34 32.4053 101.896 32.1647C102.502 31.8993 103.183 31.6389 103.924 31.3835L104.71 31.1181C105.157 30.9886 105.571 30.7668 105.927 30.4671C106.076 30.3361 106.195 30.1742 106.276 29.9926C106.356 29.811 106.396 29.614 106.393 29.4154C106.399 29.119 106.324 28.8265 106.177 28.5691C106.057 28.3526 105.903 28.1566 105.722 27.9882L105.602 27.8831L105.456 27.9482C104.61 28.3187 103.809 28.6292 103.078 28.8746C102.346 29.12 101.615 29.3754 100.959 29.6558C100.296 29.9338 99.6572 30.2689 99.0514 30.6574C98.3941 31.082 97.8048 31.6037 97.3037 32.2047C96.6177 33.0198 96.0896 33.9555 95.7463 34.964C95.3597 36.1622 95.1736 37.4159 95.1954 38.6747C95.1806 39.6353 95.3261 40.5915 95.6261 41.5041C95.8901 42.2914 96.3186 43.0134 96.883 43.6224C97.4432 44.2077 98.1278 44.6595 98.8861 44.9444C99.7352 45.251 100.633 45.4019 101.535 45.3901C102.411 45.399 103.281 45.2427 104.099 44.9294C104.853 44.6439 105.544 44.2135 106.132 43.6625C106.707 43.1147 107.161 42.4529 107.464 41.7194C107.78 40.9454 107.938 40.1164 107.93 39.2807C107.936 38.5195 107.8 37.7639 107.53 37.0522C107.273 36.3618 106.876 35.7324 106.363 35.2044H106.378ZM100.208 42.5257C99.8273 42.3713 99.4828 42.1393 99.1966 41.8444C98.9103 41.5495 98.6886 41.1983 98.5456 40.813C98.3878 40.3869 98.3097 39.9354 98.3153 39.481C98.3101 39.0234 98.3881 38.5686 98.5456 38.1389C98.6873 37.7462 98.9086 37.3869 99.1955 37.0836C99.4825 36.7803 99.8289 36.5395 100.213 36.3762C101.067 36.0456 102.013 36.0456 102.867 36.3762C103.243 36.5363 103.584 36.7695 103.869 37.0623C104.156 37.3584 104.378 37.7115 104.52 38.0989C104.68 38.5331 104.76 38.993 104.755 39.456C104.759 39.909 104.679 40.3588 104.52 40.783C104.378 41.1709 104.158 41.5255 103.874 41.8246C103.592 42.1209 103.251 42.3547 102.872 42.5107C102.016 42.8397 101.068 42.845 100.208 42.5257ZM120.209 34.6435C119.646 34.09 118.981 33.6512 118.251 33.3515C117.47 33.0314 116.632 32.8714 115.787 32.8808C114.892 32.8717 114.002 33.0209 113.158 33.3215C112.387 33.6054 111.687 34.053 111.105 34.6335C110.522 35.2374 110.073 35.9575 109.788 36.7468C109.463 37.6677 109.305 38.6396 109.322 39.6162V49.5065H112.392V43.9679C112.749 44.2914 113.151 44.5628 113.584 44.7742C114.329 45.124 115.145 45.2954 115.968 45.2749C116.785 45.2824 117.596 45.1257 118.351 44.8142C119.064 44.529 119.712 44.1052 120.259 43.5673C120.808 43.0041 121.239 42.3366 121.526 41.6043C122.147 40.0049 122.147 38.231 121.526 36.6316C121.23 35.8846 120.781 35.2075 120.209 34.6435ZM115.607 35.7001C116.056 35.6959 116.501 35.7845 116.914 35.9605C117.301 36.1243 117.651 36.3663 117.94 36.6713C118.23 36.9763 118.453 37.3379 118.597 37.7333C118.751 38.1639 118.829 38.618 118.827 39.0754C118.83 39.5442 118.752 40.0101 118.597 40.4525C118.456 40.865 118.231 41.2436 117.936 41.5642C117.654 41.8703 117.314 42.1157 116.934 42.2853C116.09 42.631 115.144 42.631 114.3 42.2853C113.92 42.1183 113.579 41.8745 113.298 41.5692C113.011 41.2507 112.786 40.8802 112.637 40.4775C112.472 40.0373 112.389 39.5706 112.392 39.1004C112.387 38.6284 112.47 38.1597 112.637 37.7183C112.782 37.3264 113.007 36.9691 113.298 36.669C113.588 36.369 113.938 36.1328 114.325 35.9756C114.73 35.8008 115.166 35.7073 115.607 35.7001ZM132.578 34.0075C131.984 33.597 131.315 33.3045 130.61 33.1462C129.797 32.963 128.965 32.874 128.131 32.8808C127.504 32.8703 126.877 32.9172 126.258 33.021C125.833 33.0881 125.421 33.2216 125.037 33.4166C124.75 33.5593 124.508 33.7797 124.341 34.0526C124.211 34.2781 124.142 34.5335 124.14 34.7937C124.134 35.1228 124.236 35.4447 124.431 35.7102C124.552 35.8802 124.689 36.0379 124.841 36.1809L125.002 36.3111L125.157 36.1809C125.453 35.9857 125.775 35.8324 126.113 35.7252C126.75 35.5187 127.418 35.4255 128.086 35.4498C128.539 35.4465 128.992 35.4817 129.438 35.5549C129.794 35.6101 130.134 35.7361 130.44 35.9255C130.709 36.1014 130.926 36.3472 131.066 36.6366C131.197 36.9254 131.272 37.2363 131.286 37.553L130.415 37.4829C129.914 37.4428 129.348 37.4228 128.777 37.4228C127.911 37.4101 127.047 37.4924 126.198 37.6682C125.563 37.7955 124.959 38.0511 124.426 38.4193C123.98 38.7436 123.633 39.1858 123.424 39.6963C123.219 40.2453 123.119 40.828 123.129 41.414C123.127 41.9073 123.212 42.3971 123.379 42.8612C123.569 43.371 123.901 43.8158 124.336 44.1432C124.888 44.5495 125.516 44.8408 126.183 44.9995C127.144 45.2322 128.13 45.3382 129.118 45.315C129.704 45.315 130.275 45.315 130.826 45.2649C131.376 45.2149 131.857 45.2048 132.293 45.1648C132.729 45.1247 133.114 45.0897 133.44 45.0496C133.765 45.0095 134.015 44.9795 134.171 44.9494L134.371 44.9044V37.9286C134.393 37.124 134.234 36.3248 133.905 35.59C133.606 34.9577 133.149 34.4129 132.578 34.0075ZM131.306 39.9167V42.7861L130.71 42.8712C130.175 42.9286 129.636 42.9537 129.098 42.9464C128.594 42.9553 128.091 42.915 127.596 42.8262C127.281 42.776 126.979 42.6673 126.704 42.5057C126.523 42.3949 126.378 42.2328 126.289 42.0399C126.204 41.8351 126.162 41.6155 126.163 41.394C126.142 41.1536 126.185 40.912 126.288 40.6938C126.391 40.4755 126.55 40.2886 126.749 40.152C127.395 39.8221 128.119 39.6766 128.842 39.7314C129.451 39.7203 130.06 39.7504 130.665 39.8215L131.306 39.9167ZM146.375 38.7699C146.635 38.589 146.872 38.3771 147.081 38.1389C147.498 37.6393 147.712 37.0013 147.682 36.3512C147.682 35.8892 147.586 35.4322 147.401 35.0091C147.177 34.5399 146.82 34.1465 146.375 33.8773C145.791 33.5257 145.15 33.2784 144.482 33.1462C143.511 32.9519 142.522 32.8629 141.532 32.8808C140.465 32.8808 139.639 32.8808 139.078 32.9509C138.665 32.9743 138.253 33.0261 137.846 33.1061C137.531 33.1541 137.235 33.2875 136.99 33.4917C136.853 33.6181 136.746 33.7738 136.678 33.9472C136.609 34.1206 136.581 34.3073 136.594 34.4933V44.9595L136.8 44.9995C136.83 44.9995 136.93 44.9995 137.381 45.0596L138.462 45.1347C138.893 45.1648 139.384 45.1948 139.935 45.2149C140.486 45.2349 141.056 45.2499 141.642 45.2499C142.716 45.2707 143.788 45.1784 144.842 44.9745C145.55 44.839 146.228 44.5796 146.845 44.2083C147.307 43.922 147.676 43.508 147.907 43.0165C148.113 42.5598 148.222 42.0653 148.227 41.5642C148.264 40.8375 148.029 40.1231 147.566 39.5611C147.236 39.2083 146.828 38.9374 146.375 38.7699ZM141.868 42.8111C141.302 42.8111 140.801 42.8111 140.365 42.7661L139.619 42.706V40.0919H142.859C143.444 40.0299 144.032 40.1694 144.527 40.4875C144.668 40.6119 144.78 40.7665 144.854 40.9399C144.927 41.1132 144.961 41.3009 144.952 41.4891C144.962 41.7018 144.906 41.9122 144.791 42.0915C144.676 42.2708 144.509 42.4102 144.311 42.4906C143.522 42.7712 142.682 42.8804 141.848 42.8111H141.868ZM139.639 37.7433V35.3847L140.24 35.3396C140.641 35.3095 141.142 35.2945 141.742 35.2945C142.515 35.2417 143.29 35.3614 144.011 35.6451C144.173 35.7129 144.313 35.8258 144.413 35.9704C144.514 36.1151 144.57 36.2854 144.577 36.4613C144.584 36.6342 144.552 36.8065 144.485 36.9658C144.417 37.1251 144.315 37.2675 144.186 37.3827C143.741 37.6693 143.211 37.7964 142.684 37.7433H139.639ZM158.884 34.0075C158.287 33.5969 157.618 33.3045 156.911 33.1462C156.098 32.9627 155.266 32.8737 154.432 32.8808C153.806 32.87 153.181 32.917 152.564 33.021C152.139 33.0881 151.726 33.2216 151.342 33.4166C151.047 33.5548 150.798 33.7757 150.626 34.0526C150.495 34.2776 150.426 34.5333 150.426 34.7937C150.418 35.1222 150.519 35.4441 150.711 35.7102C150.832 35.8802 150.97 36.0379 151.122 36.1809L151.282 36.3111L151.442 36.1809C151.739 35.9857 152.061 35.8324 152.399 35.7252C153.034 35.519 153.7 35.4258 154.367 35.4498C154.827 35.4454 155.286 35.4806 155.739 35.5549C156.094 35.611 156.435 35.737 156.741 35.9255C157.01 36.1001 157.225 36.3464 157.362 36.6366C157.496 36.9243 157.573 37.2357 157.587 37.553L156.716 37.4829C156.215 37.4428 155.644 37.4228 155.073 37.4228C154.209 37.4101 153.346 37.4924 152.499 37.6682C151.863 37.7955 151.26 38.0511 150.726 38.4193C150.279 38.7422 149.932 39.1848 149.725 39.6963C149.515 40.2443 149.413 40.8275 149.424 41.414C149.425 41.9071 149.51 42.3964 149.675 42.8612C149.867 43.3713 150.2 43.816 150.636 44.1432C151.187 44.5497 151.813 44.8409 152.479 44.9995C153.441 45.2321 154.429 45.3381 155.419 45.315C156.005 45.315 156.575 45.315 157.121 45.2649C157.667 45.2149 158.153 45.2048 158.594 45.1648C159.034 45.1247 159.41 45.0897 159.735 45.0496C160.061 45.0095 160.311 44.9795 160.466 44.9494L160.667 44.9044V37.9286C160.687 37.1246 160.53 36.326 160.206 35.59C159.902 34.9559 159.44 34.4109 158.864 34.0075H158.884ZM157.607 39.9167V42.7861L157.016 42.8712C156.481 42.9286 155.942 42.9537 155.404 42.9464C154.9 42.9555 154.397 42.9153 153.901 42.8262C153.586 42.777 153.284 42.6682 153.01 42.5057C152.828 42.3949 152.684 42.2328 152.594 42.0399C152.508 41.8358 152.465 41.6157 152.469 41.394C152.448 41.1536 152.491 40.912 152.594 40.6938C152.697 40.4755 152.856 40.2886 153.055 40.152C153.699 39.822 154.422 39.6765 155.143 39.7314C155.752 39.7201 156.361 39.7502 156.966 39.8215L157.607 39.9167ZM82.2854 21.7886C81.9351 22.4013 81.4527 22.9281 80.8733 23.331C80.2227 23.7841 79.4995 24.1228 78.7349 24.3326C77.8584 24.5695 76.9537 24.6857 76.0458 24.6781C74.5874 24.6881 73.1363 24.4719 71.7441 24.0371C71.289 23.9015 70.8439 23.7342 70.4121 23.5363C70.0615 23.3611 69.7961 23.2209 69.6108 23.1107L69.3955 22.9855L70.8027 20.5317L71.028 20.6819C71.2453 20.8212 71.473 20.9434 71.7091 21.0475C72.0478 21.1965 72.3957 21.3236 72.7507 21.4281C73.1966 21.5643 73.6519 21.6681 74.1128 21.7386C74.663 21.8221 75.2189 21.8623 75.7754 21.8588C76.7633 21.9045 77.7454 21.6849 78.6198 21.2228C78.9112 21.0735 79.1552 20.8458 79.3242 20.5654C79.4932 20.2849 79.5805 19.9628 79.5763 19.6353C79.5933 19.3201 79.5181 19.0068 79.3598 18.7337C79.2014 18.4607 78.9669 18.2397 78.6849 18.0979C77.8466 17.7055 76.9253 17.5233 76.0007 17.5671H73.9976C72.9961 17.5671 72.4202 17.0664 72.4202 16.1249C72.4151 15.8304 72.4679 15.5378 72.5754 15.2636C72.6358 15.0912 72.7095 14.9238 72.7958 14.7628L72.8659 14.6426H76.1159C76.9555 14.6966 77.7922 14.4996 78.5196 14.0767C78.7613 13.9245 78.959 13.7118 79.0934 13.4598C79.2278 13.2077 79.2941 12.925 79.2858 12.6395C79.2844 12.3487 79.2034 12.0637 79.0516 11.8157C78.8997 11.5676 78.6829 11.3659 78.4245 11.2323C77.6181 10.8067 76.7108 10.6093 75.8004 10.6615C75.2121 10.6483 74.6251 10.7208 74.0577 10.8768C73.637 10.9907 73.233 11.159 72.8559 11.3776C72.5915 11.533 72.3547 11.731 72.1548 11.9635C72.0344 12.1072 71.9272 12.2614 71.8343 12.4242L71.7541 12.5894L71.5689 12.5644C71.153 12.4965 70.7653 12.3105 70.4521 12.0286C70.2945 11.8949 70.1679 11.7284 70.0814 11.5407C69.9949 11.3529 69.9505 11.1486 69.9514 10.9419C69.9525 10.7023 69.9966 10.4648 70.0816 10.2408C70.186 9.9871 70.343 9.75841 70.5423 9.56977C70.7101 9.40911 70.8873 9.25861 71.0731 9.11907C71.3939 8.89629 71.7424 8.71617 72.1097 8.58324C72.6163 8.38236 73.1412 8.23141 73.6771 8.13254C74.4054 7.99833 75.1451 7.93627 75.8855 7.94726C76.8731 7.93069 77.8579 8.05548 78.8101 8.31783C79.5507 8.52529 80.248 8.86456 80.8683 9.31938C81.3803 9.69023 81.7987 10.1755 82.0901 10.7366C82.3516 11.2447 82.4889 11.8076 82.4908 12.3791C82.4926 12.8381 82.4147 13.2939 82.2604 13.7262C82.1164 14.1265 81.9102 14.5017 81.6495 14.8379C81.395 15.1644 81.0967 15.4542 80.7631 15.6992C80.6031 15.8196 80.4359 15.93 80.2623 16.0297C80.5691 16.1522 80.8614 16.3084 81.1337 16.4955C81.5087 16.75 81.8359 17.0687 82.1002 17.4369C82.3381 17.7781 82.5159 18.1575 82.626 18.5587C82.7376 18.953 82.7948 19.3607 82.7962 19.7705C82.8068 20.4765 82.6306 21.1727 82.2854 21.7886ZM95.3807 23.291L94.2139 21.0675L93.9936 21.1777L93.5829 21.378C93.3708 21.4764 93.1534 21.5634 92.9319 21.6384C92.6534 21.7297 92.369 21.8016 92.0806 21.8537C91.7382 21.912 91.3913 21.9405 91.044 21.9389C90.1607 21.9937 89.2831 21.7638 88.5401 21.2829C88.0706 20.9415 87.7343 20.4476 87.5887 19.8857H88.1145C88.3749 19.8857 88.6603 19.8857 88.9658 19.8857C90.0534 19.9052 91.1402 19.818 92.2108 19.6253C92.9456 19.4966 93.6522 19.2407 94.299 18.8691C94.7887 18.587 95.1828 18.165 95.4308 17.6573C95.645 17.1751 95.7526 16.6524 95.7463 16.1249C95.7496 15.5842 95.6307 15.0497 95.3983 14.5615C95.1658 14.0732 94.826 13.6439 94.4042 13.3055C93.9179 12.9494 93.3718 12.6831 92.7917 12.5193C92.096 12.2969 91.3687 12.1886 90.6384 12.1988C89.7727 12.1911 88.9132 12.3457 88.1045 12.6545C87.3591 12.9508 86.6786 13.3896 86.1013 13.9465C85.5251 14.5172 85.0702 15.1985 84.7643 15.9496C84.4294 16.7627 84.2591 17.6342 84.2635 18.5136C84.251 19.4083 84.4214 20.2961 84.7643 21.1226C85.0798 21.8496 85.5458 22.5016 86.1314 23.0356C86.7099 23.5666 87.3918 23.9724 88.1345 24.2274C88.9179 24.4944 89.7406 24.6282 90.5683 24.623C91.1372 24.6276 91.7054 24.5807 92.2659 24.4828C92.7263 24.405 93.1812 24.2979 93.628 24.1623C93.9725 24.0572 94.3076 23.9232 94.6295 23.7617C94.8899 23.6215 95.0802 23.5113 95.2054 23.4362L95.3807 23.291ZM90.5933 14.6476C91.1422 14.6273 91.6856 14.7627 92.1607 15.0382C92.3451 15.1472 92.4959 15.3049 92.5965 15.4939C92.6972 15.683 92.744 15.8961 92.7316 16.1099C92.7306 16.301 92.6914 16.4899 92.6164 16.6657C92.5132 16.8576 92.352 17.0118 92.1557 17.1064C91.806 17.2916 91.429 17.4201 91.039 17.487C90.3943 17.5997 89.7403 17.65 89.086 17.6372H88.1345H87.4084C87.4435 17.3103 87.5192 16.989 87.6337 16.6808C87.7756 16.3001 87.986 15.9488 88.2547 15.6442C88.5264 15.3396 88.8591 15.0956 89.2312 14.928C89.6602 14.7405 90.1253 14.6499 90.5933 14.6626V14.6476ZM107.905 13.7112C107.944 14.0805 107.962 14.4516 107.96 14.8229V24.2875H104.89V15.0983L104.52 15.0532C104.3 15.0532 104.099 15.0232 103.929 15.0232C103.334 14.9808 102.744 15.1591 102.271 15.524C101.839 15.9826 101.544 16.5534 101.42 17.1715C101.215 18.0379 101.034 18.809 100.884 19.4801C100.734 20.1511 100.584 20.7671 100.429 21.3179C100.273 21.8688 100.118 22.3846 99.9277 22.8202C99.7536 23.2911 99.5374 23.7453 99.2817 24.1773L99.2066 24.3025H95.8815L96.0718 23.937C96.3532 23.4069 96.6056 22.8619 96.8279 22.3044C97.0318 21.7915 97.2089 21.2683 97.3588 20.737C97.479 20.3364 97.5841 19.9608 97.6743 19.6203C97.7644 19.2798 97.8495 18.9392 97.9297 18.6187C98.0098 18.2983 98.0949 17.9677 98.17 17.6523C98.2451 17.3368 98.3253 16.9962 98.4154 16.6507C98.5822 15.8999 98.8697 15.1811 99.2667 14.5224C99.5879 13.9888 100.012 13.5241 100.514 13.1553C100.995 12.8129 101.54 12.5694 102.116 12.4392C102.733 12.3044 103.363 12.2389 103.994 12.2439C104.719 12.2304 105.444 12.2723 106.162 12.3691C106.604 12.4182 107.027 12.5747 107.394 12.8248C107.535 12.9335 107.653 13.0692 107.741 13.224C107.828 13.3788 107.884 13.5495 107.905 13.7262V13.7112ZM111.561 23.0356C112.14 23.5656 112.822 23.9712 113.564 24.2274C114.347 24.494 115.17 24.6277 115.998 24.623C116.568 24.6274 117.138 24.5805 117.7 24.4828C118.159 24.4044 118.612 24.2974 119.057 24.1623C119.402 24.0572 119.737 23.9232 120.059 23.7617C120.319 23.6215 120.515 23.5113 120.635 23.4362L120.835 23.311L119.683 21.0826L119.463 21.1927L119.052 21.393C118.84 21.4915 118.623 21.5784 118.401 21.6534C118.123 21.7447 117.838 21.8166 117.55 21.8688C117.208 21.9271 116.861 21.9555 116.513 21.9539C115.63 22.008 114.753 21.7781 114.01 21.2979C113.543 20.954 113.207 20.4611 113.058 19.9007H113.584C113.849 19.9007 114.13 19.9007 114.435 19.9007C115.524 19.92 116.613 19.8328 117.685 19.6403C118.418 19.5116 119.123 19.2557 119.768 18.8842C120.258 18.602 120.652 18.18 120.9 17.6723C121.239 16.9364 121.322 16.1082 121.136 15.3196C120.95 14.5311 120.506 13.8274 119.874 13.3206C119.397 12.9421 118.856 12.6536 118.276 12.4692C117.58 12.2468 116.853 12.1386 116.123 12.1488C115.257 12.1415 114.398 12.2961 113.589 12.6045C112.843 12.899 112.162 13.338 111.586 13.8965C111.006 14.4655 110.55 15.1472 110.244 15.8995C109.909 16.7126 109.739 17.5841 109.743 18.4635C109.73 19.3582 109.901 20.246 110.244 21.0725C110.538 21.813 110.987 22.4821 111.561 23.0356ZM116.043 14.6676C116.592 14.6473 117.135 14.7827 117.61 15.0582C117.794 15.1669 117.944 15.3237 118.045 15.5118C118.145 15.6999 118.192 15.9119 118.181 16.1249C118.18 16.316 118.141 16.505 118.066 16.6808C117.963 16.8712 117.804 17.0252 117.61 17.1214C117.258 17.3058 116.88 17.4342 116.488 17.502C115.844 17.6147 115.19 17.665 114.535 17.6523H113.589H112.863C112.897 17.3247 112.975 17.0031 113.093 16.6958C113.231 16.3145 113.44 15.9628 113.709 15.6592C113.989 15.3529 114.33 15.1089 114.711 14.9431C115.129 14.7547 115.584 14.659 116.043 14.6626V14.6676ZM134.291 12.7647L134.446 12.8298V24.3025H131.376V19.6854H125.778V24.3025H122.688V13.9415C122.673 13.7363 122.706 13.5305 122.785 13.3403C122.863 13.15 122.984 12.9804 123.139 12.8448C123.471 12.5983 123.878 12.4745 124.29 12.4943C124.568 12.4941 124.844 12.5311 125.112 12.6045L125.612 12.7597L125.773 12.8248V16.8861H131.371V13.9415C131.358 13.736 131.392 13.53 131.471 13.3398C131.55 13.1496 131.672 12.9802 131.827 12.8448C132.157 12.5991 132.563 12.4752 132.974 12.4943C133.253 12.4938 133.531 12.5308 133.8 12.6045L134.291 12.7647ZM137.296 23.4512C137.848 23.8566 138.477 24.1478 139.143 24.3075C140.105 24.5401 141.094 24.6462 142.083 24.623C142.669 24.623 143.24 24.623 143.786 24.578C144.331 24.5329 144.817 24.5129 145.258 24.4728C145.699 24.4327 146.074 24.3977 146.4 24.3626C146.725 24.3276 146.976 24.2875 147.131 24.2575L147.331 24.2174V17.2066C147.35 16.4027 147.193 15.6045 146.87 14.868C146.576 14.2367 146.124 13.6918 145.558 13.2855C144.964 12.874 144.296 12.5816 143.59 12.4242C142.777 12.2407 141.945 12.1516 141.111 12.1588C140.486 12.1505 139.861 12.1975 139.244 12.299C138.816 12.3684 138.403 12.5035 138.017 12.6996C137.731 12.8419 137.491 13.0625 137.326 13.3356C137.181 13.5914 137.112 13.8832 137.127 14.1767C137.142 14.4703 137.241 14.7535 137.411 14.9931C137.532 15.1632 137.669 15.3208 137.821 15.4639L137.982 15.5941L138.142 15.4639C138.435 15.2669 138.756 15.1134 139.093 15.0082C139.731 14.8045 140.398 14.7113 141.066 14.7327C141.52 14.7281 141.972 14.765 142.419 14.8429C142.773 14.8971 143.114 15.0214 143.42 15.2085C143.688 15.3864 143.903 15.6339 144.041 15.9246C144.176 16.2103 144.253 16.5202 144.266 16.836L143.395 16.7659C142.894 16.7308 142.323 16.7108 141.752 16.7108C140.887 16.697 140.022 16.7776 139.173 16.9512C138.54 17.0797 137.938 17.3352 137.406 17.7023C136.958 18.0271 136.611 18.4714 136.404 18.9843C136.194 19.5303 136.092 20.112 136.104 20.697C136.104 21.1901 136.189 21.6797 136.354 22.1442C136.543 22.6616 136.877 23.1137 137.316 23.4462L137.296 23.4512ZM139.158 20.702C139.138 20.4609 139.181 20.2186 139.284 19.9996C139.386 19.7807 139.545 19.5928 139.744 19.455C140.39 19.129 141.112 18.9853 141.833 19.0394C142.441 19.0271 143.05 19.0555 143.655 19.1245L144.286 19.2197V22.0841C144.161 22.0841 143.971 22.1342 143.695 22.1692C143.16 22.2284 142.622 22.2551 142.083 22.2494C141.58 22.258 141.076 22.2177 140.581 22.1292C140.267 22.0779 139.966 21.9674 139.694 21.8037C139.51 21.6967 139.364 21.5335 139.279 21.338C139.201 21.1337 139.167 20.9153 139.178 20.697L139.158 20.702ZM160.356 12.8048C160.099 12.6017 159.787 12.4813 159.46 12.4592C159.24 12.4242 158.834 12.3891 158.248 12.3441C157.662 12.299 156.901 12.2739 156 12.2739C153.691 12.2739 151.993 12.6595 150.912 13.4157C150.392 13.7613 149.969 14.2328 149.681 14.7862C149.393 15.3396 149.249 15.9569 149.264 16.5806C149.219 17.4188 149.481 18.2448 150 18.9042C150.42 19.3751 150.929 19.7581 151.498 20.0309C151.042 20.5918 150.591 21.1977 150.15 21.8337C149.65 22.5648 149.174 23.2609 148.758 23.9019L148.508 24.2875H151.953L152.023 24.1623C152.129 23.987 152.274 23.7517 152.469 23.4662C152.664 23.1808 152.875 22.8603 153.105 22.5248C153.335 22.1893 153.576 21.8588 153.821 21.5232C154.067 21.1877 154.232 20.9874 154.417 20.7571C154.632 20.7571 154.843 20.7971 155.053 20.8021C155.784 20.8272 156.425 20.8021 157.091 20.8021C157.352 20.8021 157.562 20.7771 157.727 20.7621V24.3075H160.777V13.7913C160.794 13.606 160.767 13.4194 160.697 13.2469C160.627 13.0744 160.517 12.9211 160.376 12.7998L160.356 12.8048ZM152.484 15.8845C152.604 15.658 152.787 15.4704 153.01 15.3437C153.344 15.1564 153.706 15.0229 154.082 14.9481C154.654 14.8373 155.236 14.7869 155.819 14.7978C156.405 14.7978 156.891 14.7978 157.261 14.8429L157.707 14.883V18.2081L157.206 18.2632C156.886 18.2932 156.41 18.3083 155.789 18.3083C155.204 18.3181 154.619 18.2728 154.041 18.1731C153.676 18.1181 153.324 17.9994 153 17.8225C152.786 17.7099 152.612 17.5354 152.499 17.3217C152.396 17.0973 152.343 16.8528 152.344 16.6056C152.336 16.3578 152.384 16.1113 152.484 15.8845Z" fill="#2E8647"/>
  </g>
  <defs>
    <clipPath id="clip0_1624_710">
    <rect width="160.779" height="55" fill="white"/>
  </clipPath>
  </defs>
</svg>
