<?xml version="1.0" encoding="utf-8"?><svg viewBox="0 0 121 48" xmlns="http://www.w3.org/2000/svg" xmlns:xlink="http://www.w3.org/1999/xlink"><style>:root>svg{display:none}:root>svg:target{display:block}</style><svg viewBox="0 0 10 6" id="arrow_menu" xmlns="http://www.w3.org/2000/svg"><path d="M9 5 5 1 1 5"/></svg><svg viewBox="0 0 24 24" id="arrow_quiz_next" xmlns="http://www.w3.org/2000/svg"><path d="m13.07 15.67-.53.53 1.06 1.06.53-.53-1.06-1.06ZM16.8 13l.53.53.53-.53-.53-.53-.53.53Zm-2.67-3.73-.53-.53-1.06 1.06.53.53 1.06-1.06Zm0 7.46 3.2-3.2-1.06-1.06-3.2 3.2 1.06 1.06Zm3.2-4.26-3.2-3.2-1.06 1.06 3.2 3.2 1.06-1.06Zm-.53-.22H6.4v1.5h10.4v-1.5Z"/></svg><svg viewBox="0 0 24 24" id="arrow_quiz_prev" xmlns="http://www.w3.org/2000/svg"><path d="m10.93 15.67.53.53-1.06 1.06-.53-.53 1.06-1.06ZM7.2 13l-.53.53-.53-.53.53-.53.53.53Zm2.67-3.73.53-.53 1.06 1.06-.53.53-1.06-1.06Zm0 7.46-3.2-3.2 1.06-1.06 3.2 3.2-1.06 1.06Zm-3.2-4.26 3.2-3.2 1.06 1.06-3.2 3.2-1.06-1.06Zm.53-.22h10.4v1.5H7.2v-1.5Z"/></svg><svg viewBox="0 0 38 39" id="arrow_slider" xmlns="http://www.w3.org/2000/svg"><path d="m20 13.5-6 6 6 6"/></svg><svg viewBox="0 0 20 20" id="close" xmlns="http://www.w3.org/2000/svg"><path d="m1 1 18 18M1 19 19 1"/></svg><svg viewBox="0 0 121 14" id="created" xmlns="http://www.w3.org/2000/svg"><path d="m55.245 3.233-2.617 7.2-2.618-7.2h-2.705l3.912 10.76h2.821l3.915-10.76h-2.708ZM1.61 4.771A5.068 5.068 0 0 0 .002 8.604a5.168 5.168 0 0 0 1.608 3.867c1.072 1.006 2.602 1.515 4.543 1.515h1.328v-2.52H6.153c-2.253 0-3.542-1.04-3.542-2.853 0-1.813 1.29-2.852 3.542-2.852h1.328V3.233H6.153c-1.953 0-3.482.519-4.543 1.538Zm29.688-1.542a5.333 5.333 0 0 0-3.777 1.578 5.408 5.408 0 0 0-1.568 3.804 5.408 5.408 0 0 0 1.567 3.805 5.334 5.334 0 0 0 3.778 1.58h5.332V8.308A5.398 5.398 0 0 0 34.967 4.7a5.326 5.326 0 0 0-3.669-1.472ZM34.21 8.61v2.93h-2.912a2.901 2.901 0 0 1-2.058-.858 2.942 2.942 0 0 1 0-4.145 2.901 2.901 0 0 1 4.117 0 2.94 2.94 0 0 1 .852 2.073Zm84.47 1.562c-.503 0-.986.201-1.343.56a1.92 1.92 0 0 0 0 2.704c.357.359.84.56 1.343.56h1.895v-2.03a1.916 1.916 0 0 0-.594-1.275 1.889 1.889 0 0 0-1.301-.52ZM11.731 3.864l-.136.178-.412-.827h-2.24v10.78h2.544V6.764c-.021-.277.065-.55.24-.764.163-.172.448-.255.844-.255h1.476v-2.53h-.829c-.676.013-1.16.225-1.487.65Zm30.936 1.87V3.209h-2.046V0h-2.564v10.95c0 .805.32 1.578.885 2.147.566.57 1.333.89 2.133.892h1.592v-2.555H41.53a.908.908 0 0 1-.643-.27.921.921 0 0 1-.266-.648V5.734h2.046Zm3.941-2.482H44.08v10.742h2.528V3.252Zm67.394 1.203a4.46 4.46 0 0 0-3.108-1.222 4.448 4.448 0 0 0-3.117 1.224l-.041.04-.042-.042a4.447 4.447 0 0 0-3.108-1.222 4.49 4.49 0 0 0-1.872.399V3.25h-2.528v10.744h2.528V8.05c.027-1.529.685-2.372 1.872-2.372s1.894.89 1.901 2.442v5.874h2.524V8.117c0-1.579.671-2.44 1.876-2.44 1.205 0 1.901.902 1.901 2.46v5.862h2.524V8.137c.007-1.635-.437-2.875-1.31-3.682ZM76.075 5.734V3.209H74.03V0h-2.562v10.95c0 .805.318 1.577.884 2.147a3.01 3.01 0 0 0 2.132.892h1.592v-2.555H74.94a.91.91 0 0 1-.644-.27.923.923 0 0 1-.267-.648V5.734h2.046Zm-11.178 5.188a2.867 2.867 0 0 1-1.554.614h-.24a2.914 2.914 0 0 1-1.462-.4 2.94 2.94 0 0 1-1.068-1.082h7.676l.025-.097c.105-.417.16-.845.165-1.276v-.636l-.018.016a5.386 5.386 0 0 0-.589-1.95l-.01-.023a1.236 1.236 0 0 0-.052-.092l-.032-.055a1.034 1.034 0 0 0-.053-.094l-.032-.052a5.315 5.315 0 0 0-1.937-1.881 5.27 5.27 0 0 0-2.604-.68c-.117 0-.237 0-.38.015a5.36 5.36 0 0 0-3.496 1.684 5.431 5.431 0 0 0-1.463 3.613v.636l.02-.016c.07.684.27 1.347.59 1.955v.018l.053.094.032.057c.015.031.033.06.051.09l.032.054a5.32 5.32 0 0 0 1.938 1.88 5.276 5.276 0 0 0 2.605.682c.114 0 .235 0 .38-.016a5.334 5.334 0 0 0 3.154-1.353l-1.72-1.732-.011.027Zm-2.036-5.23h.242a2.877 2.877 0 0 1 1.661.519c.488.34.86.825 1.064 1.385h-5.455a2.93 2.93 0 0 1 .969-1.317 2.9 2.9 0 0 1 1.52-.588Zm-41.362 5.23a2.867 2.867 0 0 1-1.554.614h-.24a2.914 2.914 0 0 1-1.462-.4 2.94 2.94 0 0 1-1.068-1.082h7.676l.025-.097c.105-.417.161-.845.165-1.276v-.636l-.018.016a5.388 5.388 0 0 0-.588-1.95v-.023a1.236 1.236 0 0 0-.052-.092l-.03-.055a2.13 2.13 0 0 0-.055-.094l-.031-.052a5.314 5.314 0 0 0-1.937-1.881 5.27 5.27 0 0 0-2.605-.68 5.36 5.36 0 0 0-3.876 1.7 5.431 5.431 0 0 0-1.462 3.612v.636l.02-.016c.07.684.27 1.347.589 1.955v.018l.053.094.032.057c.016.031.034.06.051.09l.032.054a5.32 5.32 0 0 0 1.938 1.88 5.276 5.276 0 0 0 2.605.682c.114 0 .224 0 .381-.016a5.334 5.334 0 0 0 3.153-1.353l-1.72-1.732-.022.027Zm-2.036-5.23h.242a2.877 2.877 0 0 1 1.661.519c.488.34.86.825 1.064 1.385h-5.455a2.95 2.95 0 0 1 .97-1.315c.44-.337.967-.542 1.518-.59ZM93.41 3.229a5.333 5.333 0 0 0-3.773 1.58 5.408 5.408 0 0 0-1.566 3.802 5.408 5.408 0 0 0 1.567 3.805 5.334 5.334 0 0 0 3.778 1.58h5.332V8.308a5.398 5.398 0 0 0-1.665-3.61 5.325 5.325 0 0 0-3.673-1.47Zm2.91 5.382v2.93h-2.91a2.901 2.901 0 0 1-2.059-.858 2.942 2.942 0 0 1 0-4.145 2.901 2.901 0 0 1 4.75.95c.147.356.222.738.222 1.123h-.002Zm-12.71 2.311a2.86 2.86 0 0 1-1.552.614h-.242a2.907 2.907 0 0 1-1.461-.4 2.933 2.933 0 0 1-1.067-1.082h7.674l.025-.097c.106-.417.161-.845.166-1.276v-.636l-.02.016a5.343 5.343 0 0 0-.59-1.95v-.023a1.238 1.238 0 0 0-.05-.092l-.03-.055-.054-.094-.031-.052a5.322 5.322 0 0 0-1.938-1.88 5.276 5.276 0 0 0-2.606-.682c-.114 0-.235 0-.38.016a5.346 5.346 0 0 0-3.498 1.681 5.418 5.418 0 0 0-1.458 3.616v.636l.02-.016c.07.684.27 1.347.59 1.955l.01.018a.95.95 0 0 0 .052.094l.031.057.052.09.033.054a5.314 5.314 0 0 0 1.937 1.881 5.27 5.27 0 0 0 2.605.68c.116 0 .237 0 .38-.015a5.327 5.327 0 0 0 3.153-1.353l-1.72-1.732-.03.027Zm-2.035-5.23h.241a2.875 2.875 0 0 1 1.662.519c.487.34.859.824 1.064 1.385h-5.455a2.92 2.92 0 0 1 2.49-1.905h-.002Z"/></svg><svg viewBox="0 0 22 22" id="in_fullscreen" xmlns="http://www.w3.org/2000/svg"><path d="M14.333 14.333h5.834m-5.834 0v5.834m0-5.834L21 21m-.833-13.333h-5.834m0 0V1.833m0 5.834L21 1M1.833 7.667h5.834m0 0V1.833m0 5.834L1 1m6.667 19.167v-5.834m0 0H1.833m5.834 0L1 21"/></svg><svg viewBox="0 0 48 48" id="ok" xmlns="http://www.w3.org/2000/svg"><path d="M26.925 26.13c-.756.476-1.796.664-2.483.735l.576.563 2.106 2.086c.77.782-.483 2.004-1.261 1.25-.527-.531-1.3-1.296-2.106-2.095l-2.106 2.092c-.778.751-2.031-.482-1.253-1.25.536-.53 1.3-1.295 2.106-2.085l.569-.563c-.68-.072-1.736-.25-2.5-.736-.9-.574-1.295-.91-.948-1.612.205-.4.765-.736 1.507-.156 0 0 1.002.79 2.62.79 1.617 0 2.619-.79 2.619-.79.742-.577 1.3-.244 1.507.155.342.703-.053 1.04-.953 1.616Zm-6.756-5.585c0-1.96 1.61-3.545 3.58-3.545s3.58 1.585 3.58 3.545c0 1.952-1.61 3.538-3.58 3.538s-3.58-1.586-3.58-3.538Zm1.822 0c0 .96.79 1.742 1.758 1.742.969 0 1.758-.782 1.758-1.742 0-.967-.79-1.75-1.758-1.75-.969 0-1.758.783-1.758 1.75Z"/></svg><svg viewBox="0 0 23 23" id="out_fullscreen" xmlns="http://www.w3.org/2000/svg"><path d="M22 22h-6.125M22 22v-6.125M22 22l-7-7m.875-14H22m0 0v6.125M22 1l-7 7M7.125 1H1m0 0v6.125M1 1l7 7m-7 7.875V22m0 0h6.125M1 22l7-7"/></svg><svg viewBox="0 0 29 29" id="search" xmlns="http://www.w3.org/2000/svg"><path d="M14.476 24.393c5.631 0 10.197-4.565 10.197-10.196C24.673 8.565 20.107 4 14.476 4 8.844 4 4.279 8.565 4.279 14.197c0 5.631 4.566 10.196 10.197 10.196ZM21.814 21.535 25.28 25"/></svg><svg viewBox="0 0 48 48" id="telegram" xmlns="http://www.w3.org/2000/svg"><path class="kpath" d="m30.96 19.547-2.113 9.759c-.159.689-.575.86-1.165.535l-3.22-2.323-1.553 1.463c-.171.169-.315.31-.646.31l.23-3.212 5.967-5.28c.26-.227-.056-.352-.403-.126l-7.376 4.55-3.175-.974c-.69-.211-.703-.677.143-1.001l12.42-4.687c.576-.211 1.079.126.891.986Z"/></svg><svg viewBox="0 0 48 48" id="vk" xmlns="http://www.w3.org/2000/svg"><path fill-rule="evenodd" clip-rule="evenodd" d="M24.51 28.495c.499 0 .499-.72.499-1 0-.499.5-.999.998-.999.5 0 1.356.857 1.998 1.5.5.5.5.5.998.5h1.498s.999-.039.999-1c0-.313-.342-.842-1.498-2-.999-.999-1.51-.482 0-2.498.92-1.227 1.59-2.34 1.475-2.66-.11-.306-2.67-.794-2.973-.338-.998 1.499-1.182 1.866-1.498 2.498-.5 1-.549 1.5-.998 1.5-.454 0-.5-.97-.5-1.5 0-1.652.24-2.82-.5-2.998h-1.497c-.804 0-1.498.5-1.498.5s-.62.483-.5.5c.15.02 1-.207 1 .5v.999s.004 1.999-.5 1.999c-.5 0-1.498-2-2.497-3.498-.391-.589-.499-.5-.998-.5-.535 0-.998.02-1.498.02s-.563.32-.5.48c1 2.498 1.717 4.067 3.614 6.044 1.74 1.814 2.903 1.91 3.876 1.951.25.01 0 0 .5 0Z"/></svg></svg>