<svg width="11" height="10" viewBox="0 0 11 10" fill="none" xmlns="http://www.w3.org/2000/svg">
<path d="M3.19915 8.80904C2.7485 8.28773 2.74036 7.44846 3.18099 6.94387L8.37926 0.999097C8.81997 0.495244 9.54905 0.509612 10.0003 1.03086C10.4517 1.55285 10.4598 2.39138 10.0192 2.89603L4.82019 8.84087C4.37953 9.34466 3.6505 9.33029 3.19915 8.80904Z" fill="white"/>
<path d="M0.384601 4.10536C0.838187 3.59216 1.58666 3.60537 2.04887 4.13547L4.51835 6.9667C4.98057 7.4968 4.98809 8.35011 4.53523 8.864C4.08164 9.37721 3.3331 9.36325 2.87088 8.83315L0.401487 6.00273C-0.0607301 5.47263 -0.0683231 4.61856 0.384601 4.10536Z" fill="white"/>
</svg>
