<svg width="113" height="36" viewBox="0 0 113 36" fill="none" xmlns="http://www.w3.org/2000/svg">
<path d="M12.8877 22.4945H10.3165V10.8053H12.8877V12.3289C13.7765 11.1068 15.0621 10.4958 16.7444 10.4958C17.6491 10.4958 18.4268 10.6862 19.0775 11.0672C19.7282 11.4481 20.1806 11.956 20.4345 12.5908C20.863 11.956 21.4503 11.4481 22.1962 11.0672C22.9581 10.6862 23.7913 10.4958 24.696 10.4958C25.9974 10.4958 27.0132 10.9005 27.7433 11.7099C28.4733 12.5194 28.8384 13.678 28.8384 15.1858V22.4945H26.2672V15.7809C26.2672 13.8605 25.4737 12.9003 23.8865 12.9003C23.2675 12.9003 22.6724 13.0908 22.101 13.4717C21.5455 13.8367 21.1408 14.297 20.8868 14.8525V22.4945H18.3157V15.7809C18.3157 13.8605 17.5142 12.9003 15.9112 12.9003C15.3081 12.9003 14.7208 13.0828 14.1495 13.4479C13.594 13.797 13.1734 14.2414 12.8877 14.7811V22.4945ZM31.4304 16.638C31.4304 14.8763 31.9859 13.4161 33.0969 12.2575C34.2237 11.083 35.668 10.4958 37.4297 10.4958C38.636 10.4958 39.6597 10.8132 40.5008 11.4481C42.1515 12.6226 42.9768 14.3843 42.9768 16.7332V17.3998H34.0253C34.1841 18.3838 34.6523 19.1536 35.4299 19.7091C36.2235 20.2646 37.2234 20.5423 38.4296 20.5423C39.7628 20.5423 41.0167 20.1932 42.1911 19.4948V21.6613C41.1119 22.4231 39.6755 22.804 37.8821 22.804C36.0886 22.804 34.557 22.2326 33.2873 21.0899C32.0494 19.9472 31.4304 18.4632 31.4304 16.638ZM34.0491 15.4476H40.3818C40.3501 14.7176 40.0723 14.0748 39.5486 13.5193C39.0089 12.9479 38.263 12.6622 37.3107 12.6622C36.406 12.6622 35.6521 12.932 35.049 13.4717C34.4618 13.9954 34.1285 14.6541 34.0491 15.4476ZM52.6249 22.804C50.8315 22.804 49.4427 22.1692 48.4587 20.8995V22.4945H45.8875V5.82962H48.4587V12.4004C49.4427 11.1306 50.8315 10.4958 52.6249 10.4958C54.2755 10.4958 55.6325 11.091 56.6959 12.2813C57.7593 13.4558 58.291 14.908 58.291 16.638C58.291 18.3838 57.7593 19.844 56.6959 21.0185C55.6325 22.2088 54.2755 22.804 52.6249 22.804ZM51.9345 20.5423C53.0138 20.5423 53.9105 20.1694 54.6247 19.4234C55.3389 18.6616 55.696 17.7331 55.696 16.638C55.696 15.5587 55.3389 14.6461 54.6247 13.9002C53.9105 13.1384 53.0138 12.7575 51.9345 12.7575C51.2044 12.7575 50.522 12.9558 49.8871 13.3526C49.2681 13.7335 48.792 14.2256 48.4587 14.8287V18.4473C48.792 19.0663 49.2681 19.5742 49.8871 19.971C50.5061 20.3519 51.1886 20.5423 51.9345 20.5423ZM66.7103 20.5423C67.7896 20.5423 68.7022 20.1694 69.4481 19.4234C70.1782 18.6933 70.5432 17.7649 70.5432 16.638C70.5432 15.527 70.1782 14.6065 69.4481 13.8764C68.7022 13.1304 67.7896 12.7575 66.7103 12.7575C65.6152 12.7575 64.6946 13.1304 63.9487 13.8764C63.2186 14.6065 62.8536 15.527 62.8536 16.638C62.8536 17.7649 63.2186 18.6933 63.9487 19.4234C64.6946 20.1694 65.6152 20.5423 66.7103 20.5423ZM66.7103 22.804C64.8375 22.804 63.298 22.2088 62.0917 21.0185C60.8855 19.8281 60.2824 18.368 60.2824 16.638C60.2824 14.9239 60.8855 13.4717 62.0917 12.2813C63.298 11.091 64.8375 10.4958 66.7103 10.4958C68.5514 10.4958 70.083 11.091 71.3051 12.2813C72.5113 13.4717 73.1144 14.9239 73.1144 16.638C73.1144 18.3521 72.5113 19.8123 71.3051 21.0185C70.083 22.2088 68.5514 22.804 66.7103 22.804ZM76.8372 19.3044V13.0669H74.3375V10.8053H76.8372V7.40088H79.4084V10.8053H83.0985V13.0669H79.4084V18.5664C79.4084 19.2171 79.5591 19.6932 79.8607 19.9948C80.1623 20.2963 80.6225 20.4471 81.2415 20.4471C81.8605 20.4471 82.4477 20.3043 83.0032 20.0186V22.2326C82.4477 22.6136 81.5827 22.804 80.4083 22.804C79.2973 22.804 78.4243 22.5025 77.7895 21.8993C77.1546 21.2962 76.8372 20.4312 76.8372 19.3044ZM95.2863 22.4945H85.0036V20.8054L89.6487 16.4558C90.6341 15.5408 91.359 14.7525 91.8235 14.091C92.2458 13.4575 92.457 12.7819 92.457 12.064C92.457 11.3179 92.1825 10.7197 91.6335 10.2692C91.0986 9.80472 90.3948 9.57246 89.5221 9.57246C88.0581 9.57246 86.6786 10.1848 85.3836 11.4094V8.98126C86.5942 7.95369 88.0511 7.4399 89.7543 7.4399C91.1479 7.4399 92.3303 7.84108 93.3015 8.64343C94.2869 9.44578 94.7796 10.4945 94.7796 11.7895C94.7796 12.7889 94.5332 13.6968 94.0406 14.5133C93.5197 15.3438 92.6892 16.3009 91.549 17.3848L88.3608 20.4253H95.2863V22.4945ZM106.511 22.4945H104.23V18.6306H96.5657V16.857L104.23 7.71439H106.511V16.6458H108.812V18.6306H106.511V22.4945ZM104.23 10.6915L99.205 16.6458H104.23V10.6915Z" fill="white"/>
<path d="M40.5358 29.687V34.5514C40.5358 34.8498 40.2038 35.0281 39.9551 34.8634L34.1348 31.0097H7.77757C4.03442 31.0097 1 27.9046 1 24.0743L1.00002 7.93534C1.00002 4.10506 4.03444 1 7.77759 1H34.1348" stroke="white" stroke-width="1.87089"/>
</svg>
