<svg width="240" height="89" viewBox="0 0 240 89" fill="none" xmlns="http://www.w3.org/2000/svg">
<path d="M36.2797 44.5795C35.8346 44.5795 35.4737 44.9404 35.4737 45.3855V52.963C35.4737 53.2084 35.274 53.408 35.0287 53.408H30.6962V37.5363C30.6962 37.0912 30.3353 36.7304 29.8902 36.7304C29.4451 36.7304 29.0843 37.0912 29.0843 37.5363V53.4081H20.36L22.89 50.6249C23.1664 50.3208 23.2967 49.8876 23.2386 49.4657C23.2375 49.4575 23.2362 49.4494 23.2348 49.4412L20.8252 35.2061L21.4744 34.2289C21.8333 34.4838 22.1098 34.7292 22.6283 34.7292C23.1557 34.7292 23.6489 34.434 23.8915 33.9481L26.433 28.8543L32.2226 31.0965C32.432 31.1863 35.4735 32.556 35.4735 36.1727V41.6242C35.4734 42.0692 35.8342 42.4302 36.2794 42.4302C36.7246 42.4302 37.0854 42.0694 37.0854 41.6242V36.1727C37.0854 31.4075 33.0052 29.6753 32.8316 29.6038C32.8265 29.6017 32.8213 29.5997 32.8162 29.5977L23.1804 25.866V23.6061C24.7108 22.4159 25.772 20.6515 26.0384 18.6385C26.8015 18.5848 27.5095 18.2998 28.0878 17.8026C28.8429 17.1532 29.2762 16.2081 29.2762 15.21C29.2762 14.3816 28.9773 13.5907 28.4448 12.9744V9.98884C28.4447 4.48103 23.9637 0 18.4559 0C12.9481 0 8.46719 4.48103 8.46719 9.98884V13.0527C7.92892 13.6627 7.63619 14.4137 7.63619 15.2098C7.63619 16.2083 8.06926 17.1533 8.82461 17.8028C9.40243 18.2998 10.1101 18.5845 10.8729 18.6383C11.1415 20.689 12.2336 22.5191 13.8944 23.7254V25.866L4.269 29.5976C4.26395 29.5996 4.2589 29.6016 4.25385 29.6036C4.08009 29.6751 0 31.4073 0 36.1725V52.9628C0 54.0971 0.922769 55.0198 2.05702 55.0198H9.73588C10.181 55.0198 10.5418 54.659 10.5418 54.2139C10.5418 53.7688 10.181 53.4079 9.73588 53.4079H8.00178V37.5363C8.00178 37.0912 7.64092 36.7304 7.19582 36.7304C6.75071 36.7304 6.38986 37.0912 6.38986 37.5363V53.4081H2.05713C1.8118 53.4081 1.61213 53.2085 1.61213 52.9631V36.1726C1.61213 32.5438 4.67403 31.1772 4.86208 31.0968L10.6472 28.8541L13.1888 33.948C13.432 34.4351 13.9258 34.7292 14.4521 34.7292C14.9681 34.7292 15.2419 34.4875 15.6061 34.2289L16.2552 35.2061L13.8458 49.4413C13.8444 49.4494 13.8433 49.4574 13.8421 49.4656C13.7838 49.8873 13.9142 50.3207 14.1907 50.625L16.7206 53.4082H13.4973C13.0522 53.4082 12.6914 53.7691 12.6914 54.2142C12.6914 54.6593 13.0522 55.0201 13.4973 55.0201H35.0288C36.1631 55.0201 37.0858 54.0973 37.0858 52.9631V45.3856C37.0856 44.9404 36.7248 44.5795 36.2797 44.5795ZM24.9233 28.2697L22.5539 33.0184C22.495 32.9766 21.2393 32.0845 19.7043 30.9945C20.3703 30.1723 19.5911 31.1341 22.631 27.382L24.9233 28.2697ZM20.1593 33.295L19.5448 34.22H17.535L16.9205 33.295L18.54 32.1449L20.1593 33.295ZM15.5062 26.1261V24.6178C16.4854 25.0125 17.5319 25.1955 18.5538 25.1955C19.6105 25.1955 20.6467 24.9702 21.5683 24.5672V26.1326L18.54 29.8707L15.5062 26.1261ZM27.6642 15.21C27.6641 15.7379 27.4354 16.2375 27.0367 16.5804C26.7731 16.8072 26.4547 16.9521 26.106 17.0089V13.4114C27.0323 13.5618 27.6642 14.3302 27.6642 15.21ZM10.8063 17.0089C9.86945 16.8568 9.24811 16.0822 9.24811 15.2098C9.24811 14.3482 9.96241 13.6469 10.8063 13.4519V17.0089ZM10.8496 11.8096C10.5929 11.839 10.2987 11.9085 10.0793 11.9831V9.98884C10.0793 5.36984 13.837 1.61203 18.456 1.61203C23.075 1.61203 26.8327 5.36984 26.8327 9.98884V11.9278C26.5985 11.8565 26.3555 11.8095 26.1061 11.7873C26.1061 11.0096 26.1129 11.1596 23.5687 8.42442C23.1008 7.92172 22.3269 7.81641 21.7379 8.20123C18.9299 10.0355 15.5046 10.957 12.3442 10.73C11.6509 10.6781 11.0195 11.1347 10.8496 11.8096ZM12.4183 17.6434V12.6151V12.3502C15.8974 12.5539 19.5449 11.5204 22.4916 9.63325C23.6584 10.886 24.2903 11.5432 24.4941 11.7931C24.4941 12.4254 24.4941 16.9196 24.4941 17.6433C24.4941 20.9152 21.8262 23.5833 18.5539 23.5833C14.8794 23.5834 12.4183 20.7329 12.4183 17.6434ZM14.5262 33.0184L12.1568 28.2697L14.4449 27.3835L17.3723 30.9969C15.8836 32.054 14.6613 32.9225 14.5262 33.0184ZM15.4509 49.6151L17.7838 35.8318H19.2958L21.6287 49.6151L18.5399 53.0133L15.4509 49.6151Z" fill="#E9204F"/>
<mask id="path-2-inside-1" fill="white">
<path d="M133.86 29.653C133.855 29.651 133.85 29.649 133.845 29.6471L124.701 26.0866V25.5509H128.065C129.144 25.5509 130.022 24.6681 130.022 23.5831V17.9732C130.438 17.414 130.669 16.731 130.669 16.0157C130.669 15.3005 130.438 14.6175 130.022 14.0584V10.8801C130.022 5.48741 125.658 1.1001 120.295 1.1001C114.931 1.1001 110.568 5.48741 110.568 10.8801V23.5829C110.568 24.6681 111.446 25.5507 112.525 25.5507H115.878V26.0867L106.743 29.647C106.739 29.6489 106.734 29.6508 106.729 29.6528C106.564 29.721 102.688 31.3754 102.688 35.9265V51.9515C102.688 53.0365 103.566 53.9193 104.645 53.9193H112.863C113.288 53.9193 113.633 53.5729 113.633 53.1456C113.633 52.7183 113.288 52.3719 112.863 52.3719H110.293V37.2088C110.293 36.7815 109.948 36.435 109.523 36.435C109.098 36.435 108.754 36.7815 108.754 37.2088V52.372H104.645C104.415 52.372 104.227 52.1834 104.227 51.9517V35.9266C104.227 32.4665 107.131 31.163 107.31 31.0862L112.797 28.9472L115.208 33.8052C115.364 34.1187 115.633 34.3564 115.957 34.4733C115.183 35.7042 114.693 36.9301 114.472 37.545C114.247 38.1711 114.55 38.8596 115.162 39.1121L117.411 40.0392C117.743 40.1765 118.123 40.163 118.45 39.9903C118.773 39.8205 119.002 39.5188 119.08 39.1622C119.373 37.8177 119.852 36.682 120.294 35.8325C120.737 36.6822 121.216 37.8179 121.509 39.1618C121.587 39.5185 121.816 39.8203 122.138 39.9901C122.462 40.1608 122.841 40.1781 123.178 40.0391L125.427 39.1119C126.039 38.8593 126.342 38.1709 126.117 37.5447C125.896 36.9293 125.406 35.7028 124.631 34.4718C124.954 34.3544 125.221 34.1173 125.376 33.8053L127.787 28.9474L133.279 31.0862C133.417 31.1456 136.361 32.4657 136.361 35.9266V42.1298C136.361 42.5571 136.706 42.9036 137.131 42.9036C137.556 42.9036 137.901 42.5571 137.901 42.1298V35.9266C137.901 31.3756 134.025 29.7212 133.86 29.653ZM128.483 23.583C128.483 23.8148 128.295 24.0033 128.065 24.0033H124.821C126.233 22.8836 127.239 21.2188 127.495 19.2997C127.81 19.2848 128.17 19.2186 128.483 19.1074L128.483 23.583ZM129.13 16.0155C129.13 16.8898 128.477 17.6404 127.561 17.7444V14.2871C128.46 14.3874 129.13 15.1262 129.13 16.0155ZM112.525 24.0033C112.294 24.0033 112.107 23.8147 112.107 23.583V10.8801C112.107 6.34067 115.78 2.64764 120.295 2.64764C124.81 2.64764 128.483 6.34067 128.483 10.8801V12.9238C128.195 12.8219 127.841 12.7527 127.55 12.7345C127.486 12.2104 127.12 11.756 126.594 11.5952C125.434 11.2409 124.158 10.4913 123.058 9.35086C122.537 8.81153 121.693 8.79822 121.153 9.29928C120.956 9.48188 117.943 13.1761 113.92 14.6696C113.387 14.8676 113.029 15.3843 113.029 15.9557V18.3383C113.029 20.6324 114.096 22.6922 115.77 24.0033H112.525ZM114.568 18.3383V16.0781C115.009 15.9093 115.44 15.7171 115.857 15.5075C118.779 14.0398 121.064 11.7148 122.086 10.564C123.501 11.982 124.954 12.6651 125.85 12.9787C125.91 12.9996 125.967 13.0188 126.022 13.0366V18.3383C126.022 21.4307 123.52 24.0033 120.387 24.0033C116.79 24.0033 114.568 21.1723 114.568 18.3383ZM123.162 24.9889V26.3426L120.292 29.9047L117.417 26.3363V24.9681C118.337 25.352 119.346 25.5508 120.387 25.5508C121.371 25.5508 122.318 25.3464 123.162 24.9889ZM114.239 28.3862L116.403 27.5434L119.177 30.9859L119.15 31.0052C118.728 31.3066 116.79 32.6905 116.484 32.9095L114.239 28.3862ZM117.66 38.4696L116.022 37.7943C116.326 37.0028 116.937 35.6166 117.857 34.4414C118.149 34.7581 118.499 35.015 118.888 35.1974C118.447 36.0569 117.98 37.1681 117.66 38.4696ZM120.29 33.9628C119.712 33.9628 119.142 33.674 118.803 33.1515L120.292 32.088C121.507 32.9554 121.187 32.7269 121.778 33.149C121.443 33.6666 120.876 33.9628 120.29 33.9628ZM122.929 38.4695C122.609 37.1662 122.141 36.0534 121.699 35.1932C122.087 35.0099 122.436 34.7523 122.727 34.4351C123.65 35.6112 124.263 37.001 124.567 37.7942L122.929 38.4695ZM124.1 32.9095C123.542 32.5108 121.952 31.3752 121.404 30.9836L124.177 27.5419L126.345 28.3863L124.1 32.9095Z"/>
<path d="M137.131 44.9671C136.706 44.9671 136.362 45.3135 136.362 45.7408V51.9517C136.362 52.1834 136.174 52.372 135.944 52.372H131.836V37.2088C131.836 36.7815 131.491 36.4351 131.066 36.4351C130.641 36.4351 130.297 36.7815 130.297 37.2088V52.372H121.059V41.6842C121.059 41.2569 120.715 40.9105 120.29 40.9105C119.865 40.9105 119.52 41.2569 119.52 41.6842V52.372H116.455C116.03 52.372 115.685 52.7184 115.685 53.1457C115.685 53.573 116.03 53.9194 116.455 53.9194H135.944C137.023 53.9194 137.901 53.0366 137.901 51.9516V45.7408C137.901 45.3135 137.556 44.9671 137.131 44.9671Z"/>
</mask>
<path d="M133.86 29.653C133.855 29.651 133.85 29.649 133.845 29.6471L124.701 26.0866V25.5509H128.065C129.144 25.5509 130.022 24.6681 130.022 23.5831V17.9732C130.438 17.414 130.669 16.731 130.669 16.0157C130.669 15.3005 130.438 14.6175 130.022 14.0584V10.8801C130.022 5.48741 125.658 1.1001 120.295 1.1001C114.931 1.1001 110.568 5.48741 110.568 10.8801V23.5829C110.568 24.6681 111.446 25.5507 112.525 25.5507H115.878V26.0867L106.743 29.647C106.739 29.6489 106.734 29.6508 106.729 29.6528C106.564 29.721 102.688 31.3754 102.688 35.9265V51.9515C102.688 53.0365 103.566 53.9193 104.645 53.9193H112.863C113.288 53.9193 113.633 53.5729 113.633 53.1456C113.633 52.7183 113.288 52.3719 112.863 52.3719H110.293V37.2088C110.293 36.7815 109.948 36.435 109.523 36.435C109.098 36.435 108.754 36.7815 108.754 37.2088V52.372H104.645C104.415 52.372 104.227 52.1834 104.227 51.9517V35.9266C104.227 32.4665 107.131 31.163 107.31 31.0862L112.797 28.9472L115.208 33.8052C115.364 34.1187 115.633 34.3564 115.957 34.4733C115.183 35.7042 114.693 36.9301 114.472 37.545C114.247 38.1711 114.55 38.8596 115.162 39.1121L117.411 40.0392C117.743 40.1765 118.123 40.163 118.45 39.9903C118.773 39.8205 119.002 39.5188 119.08 39.1622C119.373 37.8177 119.852 36.682 120.294 35.8325C120.737 36.6822 121.216 37.8179 121.509 39.1618C121.587 39.5185 121.816 39.8203 122.138 39.9901C122.462 40.1608 122.841 40.1781 123.178 40.0391L125.427 39.1119C126.039 38.8593 126.342 38.1709 126.117 37.5447C125.896 36.9293 125.406 35.7028 124.631 34.4718C124.954 34.3544 125.221 34.1173 125.376 33.8053L127.787 28.9474L133.279 31.0862C133.417 31.1456 136.361 32.4657 136.361 35.9266V42.1298C136.361 42.5571 136.706 42.9036 137.131 42.9036C137.556 42.9036 137.901 42.5571 137.901 42.1298V35.9266C137.901 31.3756 134.025 29.7212 133.86 29.653ZM128.483 23.583C128.483 23.8148 128.295 24.0033 128.065 24.0033H124.821C126.233 22.8836 127.239 21.2188 127.495 19.2997C127.81 19.2848 128.17 19.2186 128.483 19.1074L128.483 23.583ZM129.13 16.0155C129.13 16.8898 128.477 17.6404 127.561 17.7444V14.2871C128.46 14.3874 129.13 15.1262 129.13 16.0155ZM112.525 24.0033C112.294 24.0033 112.107 23.8147 112.107 23.583V10.8801C112.107 6.34067 115.78 2.64764 120.295 2.64764C124.81 2.64764 128.483 6.34067 128.483 10.8801V12.9238C128.195 12.8219 127.841 12.7527 127.55 12.7345C127.486 12.2104 127.12 11.756 126.594 11.5952C125.434 11.2409 124.158 10.4913 123.058 9.35086C122.537 8.81153 121.693 8.79822 121.153 9.29928C120.956 9.48188 117.943 13.1761 113.92 14.6696C113.387 14.8676 113.029 15.3843 113.029 15.9557V18.3383C113.029 20.6324 114.096 22.6922 115.77 24.0033H112.525ZM114.568 18.3383V16.0781C115.009 15.9093 115.44 15.7171 115.857 15.5075C118.779 14.0398 121.064 11.7148 122.086 10.564C123.501 11.982 124.954 12.6651 125.85 12.9787C125.91 12.9996 125.967 13.0188 126.022 13.0366V18.3383C126.022 21.4307 123.52 24.0033 120.387 24.0033C116.79 24.0033 114.568 21.1723 114.568 18.3383ZM123.162 24.9889V26.3426L120.292 29.9047L117.417 26.3363V24.9681C118.337 25.352 119.346 25.5508 120.387 25.5508C121.371 25.5508 122.318 25.3464 123.162 24.9889ZM114.239 28.3862L116.403 27.5434L119.177 30.9859L119.15 31.0052C118.728 31.3066 116.79 32.6905 116.484 32.9095L114.239 28.3862ZM117.66 38.4696L116.022 37.7943C116.326 37.0028 116.937 35.6166 117.857 34.4414C118.149 34.7581 118.499 35.015 118.888 35.1974C118.447 36.0569 117.98 37.1681 117.66 38.4696ZM120.29 33.9628C119.712 33.9628 119.142 33.674 118.803 33.1515L120.292 32.088C121.507 32.9554 121.187 32.7269 121.778 33.149C121.443 33.6666 120.876 33.9628 120.29 33.9628ZM122.929 38.4695C122.609 37.1662 122.141 36.0534 121.699 35.1932C122.087 35.0099 122.436 34.7523 122.727 34.4351C123.65 35.6112 124.263 37.001 124.567 37.7942L122.929 38.4695ZM124.1 32.9095C123.542 32.5108 121.952 31.3752 121.404 30.9836L124.177 27.5419L126.345 28.3863L124.1 32.9095Z" fill="#E9204F"/>
<path d="M137.131 44.9671C136.706 44.9671 136.362 45.3135 136.362 45.7408V51.9517C136.362 52.1834 136.174 52.372 135.944 52.372H131.836V37.2088C131.836 36.7815 131.491 36.4351 131.066 36.4351C130.641 36.4351 130.297 36.7815 130.297 37.2088V52.372H121.059V41.6842C121.059 41.2569 120.715 40.9105 120.29 40.9105C119.865 40.9105 119.52 41.2569 119.52 41.6842V52.372H116.455C116.03 52.372 115.685 52.7184 115.685 53.1457C115.685 53.573 116.03 53.9194 116.455 53.9194H135.944C137.023 53.9194 137.901 53.0366 137.901 51.9516V45.7408C137.901 45.3135 137.556 44.9671 137.131 44.9671Z" fill="#E9204F"/>
<path d="M133.86 29.653C133.855 29.651 133.85 29.649 133.845 29.6471L124.701 26.0866V25.5509H128.065C129.144 25.5509 130.022 24.6681 130.022 23.5831V17.9732C130.438 17.414 130.669 16.731 130.669 16.0157C130.669 15.3005 130.438 14.6175 130.022 14.0584V10.8801C130.022 5.48741 125.658 1.1001 120.295 1.1001C114.931 1.1001 110.568 5.48741 110.568 10.8801V23.5829C110.568 24.6681 111.446 25.5507 112.525 25.5507H115.878V26.0867L106.743 29.647C106.739 29.6489 106.734 29.6508 106.729 29.6528C106.564 29.721 102.688 31.3754 102.688 35.9265V51.9515C102.688 53.0365 103.566 53.9193 104.645 53.9193H112.863C113.288 53.9193 113.633 53.5729 113.633 53.1456C113.633 52.7183 113.288 52.3719 112.863 52.3719H110.293V37.2088C110.293 36.7815 109.948 36.435 109.523 36.435C109.098 36.435 108.754 36.7815 108.754 37.2088V52.372H104.645C104.415 52.372 104.227 52.1834 104.227 51.9517V35.9266C104.227 32.4665 107.131 31.163 107.31 31.0862L112.797 28.9472L115.208 33.8052C115.364 34.1187 115.633 34.3564 115.957 34.4733C115.183 35.7042 114.693 36.9301 114.472 37.545C114.247 38.1711 114.55 38.8596 115.162 39.1121L117.411 40.0392C117.743 40.1765 118.123 40.163 118.45 39.9903C118.773 39.8205 119.002 39.5188 119.08 39.1622C119.373 37.8177 119.852 36.682 120.294 35.8325C120.737 36.6822 121.216 37.8179 121.509 39.1618C121.587 39.5185 121.816 39.8203 122.138 39.9901C122.462 40.1608 122.841 40.1781 123.178 40.0391L125.427 39.1119C126.039 38.8593 126.342 38.1709 126.117 37.5447C125.896 36.9293 125.406 35.7028 124.631 34.4718C124.954 34.3544 125.221 34.1173 125.376 33.8053L127.787 28.9474L133.279 31.0862C133.417 31.1456 136.361 32.4657 136.361 35.9266V42.1298C136.361 42.5571 136.706 42.9036 137.131 42.9036C137.556 42.9036 137.901 42.5571 137.901 42.1298V35.9266C137.901 31.3756 134.025 29.7212 133.86 29.653ZM128.483 23.583C128.483 23.8148 128.295 24.0033 128.065 24.0033H124.821C126.233 22.8836 127.239 21.2188 127.495 19.2997C127.81 19.2848 128.17 19.2186 128.483 19.1074L128.483 23.583ZM129.13 16.0155C129.13 16.8898 128.477 17.6404 127.561 17.7444V14.2871C128.46 14.3874 129.13 15.1262 129.13 16.0155ZM112.525 24.0033C112.294 24.0033 112.107 23.8147 112.107 23.583V10.8801C112.107 6.34067 115.78 2.64764 120.295 2.64764C124.81 2.64764 128.483 6.34067 128.483 10.8801V12.9238C128.195 12.8219 127.841 12.7527 127.55 12.7345C127.486 12.2104 127.12 11.756 126.594 11.5952C125.434 11.2409 124.158 10.4913 123.058 9.35086C122.537 8.81153 121.693 8.79822 121.153 9.29928C120.956 9.48188 117.943 13.1761 113.92 14.6696C113.387 14.8676 113.029 15.3843 113.029 15.9557V18.3383C113.029 20.6324 114.096 22.6922 115.77 24.0033H112.525ZM114.568 18.3383V16.0781C115.009 15.9093 115.44 15.7171 115.857 15.5075C118.779 14.0398 121.064 11.7148 122.086 10.564C123.501 11.982 124.954 12.6651 125.85 12.9787C125.91 12.9996 125.967 13.0188 126.022 13.0366V18.3383C126.022 21.4307 123.52 24.0033 120.387 24.0033C116.79 24.0033 114.568 21.1723 114.568 18.3383ZM123.162 24.9889V26.3426L120.292 29.9047L117.417 26.3363V24.9681C118.337 25.352 119.346 25.5508 120.387 25.5508C121.371 25.5508 122.318 25.3464 123.162 24.9889ZM114.239 28.3862L116.403 27.5434L119.177 30.9859L119.15 31.0052C118.728 31.3066 116.79 32.6905 116.484 32.9095L114.239 28.3862ZM117.66 38.4696L116.022 37.7943C116.326 37.0028 116.937 35.6166 117.857 34.4414C118.149 34.7581 118.499 35.015 118.888 35.1974C118.447 36.0569 117.98 37.1681 117.66 38.4696ZM120.29 33.9628C119.712 33.9628 119.142 33.674 118.803 33.1515L120.292 32.088C121.507 32.9554 121.187 32.7269 121.778 33.149C121.443 33.6666 120.876 33.9628 120.29 33.9628ZM122.929 38.4695C122.609 37.1662 122.141 36.0534 121.699 35.1932C122.087 35.0099 122.436 34.7523 122.727 34.4351C123.65 35.6112 124.263 37.001 124.567 37.7942L122.929 38.4695ZM124.1 32.9095C123.542 32.5108 121.952 31.3752 121.404 30.9836L124.177 27.5419L126.345 28.3863L124.1 32.9095Z" stroke="#E9204F" stroke-width="2" mask="url(#path-2-inside-1)"/>
<path d="M137.131 44.9671C136.706 44.9671 136.362 45.3135 136.362 45.7408V51.9517C136.362 52.1834 136.174 52.372 135.944 52.372H131.836V37.2088C131.836 36.7815 131.491 36.4351 131.066 36.4351C130.641 36.4351 130.297 36.7815 130.297 37.2088V52.372H121.059V41.6842C121.059 41.2569 120.715 40.9105 120.29 40.9105C119.865 40.9105 119.52 41.2569 119.52 41.6842V52.372H116.455C116.03 52.372 115.685 52.7184 115.685 53.1457C115.685 53.573 116.03 53.9194 116.455 53.9194H135.944C137.023 53.9194 137.901 53.0366 137.901 51.9516V45.7408C137.901 45.3135 137.556 44.9671 137.131 44.9671Z" stroke="#E9204F" stroke-width="2" mask="url(#path-2-inside-1)"/>
<path d="M1.773 73.4326H0.783V67.1326H1.773V69.7066L4.356 67.1326H5.625L2.709 70.0126L6.093 73.4326H4.743L1.773 70.4086V73.4326ZM6.81883 73.4146V72.5146C6.89683 72.5386 7.00783 72.5506 7.15183 72.5506C7.59583 72.5506 7.88983 72.2746 8.03383 71.7226C8.17783 71.2486 8.26183 70.4386 8.28583 69.2926L8.31283 67.1326H12.5068V73.4326H11.5168V68.0416H9.26683L9.23983 69.3916C9.21583 70.7536 9.06883 71.7646 8.79883 72.4246C8.51683 73.1146 7.98583 73.4596 7.20583 73.4596C7.04983 73.4596 6.92083 73.4446 6.81883 73.4146ZM15.3328 73.4326H14.4868V67.1326H15.4768V71.7586L18.9418 67.1326H19.8058V73.4326H18.8158V68.7886L15.3328 73.4326ZM26.3859 73.4326H21.7869V67.1326H26.2689V68.0416H22.7769V69.6166H25.6209V70.5256H22.7769V72.5236H26.3859V73.4326ZM28.9608 73.4326H27.9708V67.1326H28.9608V69.6166H32.2458V67.1326H33.2358V73.4326H32.2458V70.5256H28.9608V73.4326ZM34.7322 68.0416V67.1326H39.8892V68.0416H37.8012V73.4326H36.8112V68.0416H34.7322Z" fill="#0F1640"/>
<path d="M94.1937 73.4326H93.2037V67.1326H94.2117L96.2547 69.9676L98.2797 67.1326H99.2697V73.4326H98.2797V68.6446L96.5247 71.0206H95.9487L94.1937 68.6446V73.4326ZM105.85 73.4326H101.251V67.1326H105.733V68.0416H102.241V69.6166H105.085V70.5256H102.241V72.5236H105.85V73.4326ZM108.425 73.4326H107.435V67.1326H108.425V69.6166H111.71V67.1326H112.7V73.4326H111.71V70.5256H108.425V73.4326ZM119.281 73.4326H114.682V67.1326H119.164V68.0416H115.672V69.6166H118.516V70.5256H115.672V72.5236H119.281V73.4326ZM121.145 74.7826H120.209V72.5236H120.812C121.142 72.0256 121.385 71.4406 121.541 70.7686C121.697 70.0786 121.775 69.1576 121.775 68.0056V67.1326H125.942V72.5236H126.851V74.7826H125.915V73.4326H121.145V74.7826ZM121.892 72.5236H124.952V68.0416H122.738C122.738 69.0916 122.675 69.9736 122.549 70.6876C122.423 71.4076 122.204 72.0196 121.892 72.5236ZM128.936 73.4326H127.64L130.637 70.1386L128.018 67.1326H129.242L131.6 69.8236V67.1326H132.59V69.8236L134.957 67.1326H136.199L133.553 70.1386L136.568 73.4326H135.272L132.59 70.5436V73.4326H131.6V70.5346L128.936 73.4326ZM142.456 73.4326H137.857V67.1326H142.339V68.0416H138.847V69.6166H141.691V70.5256H138.847V72.5236H142.456V73.4326ZM145.031 73.4326H144.041V67.1326H146.75C147.41 67.1326 147.923 67.3036 148.289 67.6456C148.667 67.9756 148.856 68.4136 148.856 68.9596C148.856 69.5056 148.667 69.9556 148.289 70.3096C147.923 70.6576 147.41 70.8316 146.75 70.8316H145.031V73.4326ZM145.031 68.0416V69.9226H146.669C147.041 69.9226 147.332 69.8416 147.542 69.6796C147.752 69.5116 147.857 69.2776 147.857 68.9776C147.857 68.6776 147.752 68.4466 147.542 68.2846C147.338 68.1226 147.047 68.0416 146.669 68.0416H145.031Z" fill="#0F1640"/>
<path d="M91.2151 47.0066C91.3339 46.8878 91.3339 46.6952 91.2151 46.5764L89.2789 44.6402C89.1601 44.5213 88.9675 44.5213 88.8487 44.6402C88.7298 44.759 88.7298 44.9516 88.8487 45.0704L90.5697 46.7915L88.8487 48.5126C88.7298 48.6314 88.7298 48.824 88.8487 48.9428C88.9675 49.0617 89.1601 49.0617 89.2789 48.9428L91.2151 47.0066ZM47.7849 46.5764C47.666 46.6952 47.666 46.8878 47.7849 47.0066L49.7211 48.9428C49.8399 49.0617 50.0325 49.0617 50.1513 48.9428C50.2702 48.824 50.2702 48.6314 50.1513 48.5126L48.4303 46.7915L50.1513 45.0704C50.2702 44.9516 50.2702 44.759 50.1513 44.6402C50.0325 44.5213 49.8399 44.5213 49.7211 44.6402L47.7849 46.5764ZM91 46.4873H89.4643V47.0957H91V46.4873ZM86.3929 46.4873H83.3214V47.0957H86.3929V46.4873ZM80.25 46.4873H77.1786V47.0957H80.25V46.4873ZM74.1071 46.4873H71.0357V47.0957H74.1071V46.4873ZM67.9643 46.4873H64.8929V47.0957H67.9643V46.4873ZM61.8214 46.4873L58.75 46.4873V47.0957L61.8214 47.0957V46.4873ZM55.6786 46.4873H52.6071V47.0957H55.6786V46.4873ZM49.5357 46.4873H48V47.0957H49.5357V46.4873Z" fill="#0F1640"/>
<path d="M184.215 47.0066C184.334 46.8878 184.334 46.6952 184.215 46.5764L182.279 44.6402C182.16 44.5213 181.967 44.5213 181.849 44.6402C181.73 44.759 181.73 44.9516 181.849 45.0704L183.57 46.7915L181.849 48.5126C181.73 48.6314 181.73 48.824 181.849 48.9428C181.967 49.0617 182.16 49.0617 182.279 48.9428L184.215 47.0066ZM151.785 46.5764C151.666 46.6952 151.666 46.8878 151.785 47.0066L153.721 48.9428C153.84 49.0617 154.033 49.0617 154.151 48.9428C154.27 48.824 154.27 48.6314 154.151 48.5126L152.43 46.7915L154.151 45.0704C154.27 44.9516 154.27 44.759 154.151 44.6402C154.033 44.5213 153.84 44.5213 153.721 44.6402L151.785 46.5764ZM184 46.4873H182.4V47.0957H184V46.4873ZM179.2 46.4873H176V47.0957H179.2V46.4873ZM172.8 46.4873H169.6V47.0957H172.8V46.4873ZM166.4 46.4873H163.2V47.0957H166.4V46.4873ZM160 46.4873H156.8V47.0957H160V46.4873ZM153.6 46.4873H152V47.0957H153.6V46.4873Z" fill="#0F1640"/>
<circle opacity="0.3" cx="214.119" cy="28.1186" r="16.6312" stroke="#E9204F" stroke-width="0.608491"/>
<circle cx="214.119" cy="28.1193" r="13.0689" fill="#E9204F" stroke="#E9204F" stroke-width="0.608491"/>
<circle opacity="0.13" cx="214.119" cy="28.1187" r="20.0229" stroke="#E9204F" stroke-width="0.608491"/>
<path d="M219.605 22.6308C216.58 19.6048 211.658 19.6048 208.633 22.6308C207.572 23.6925 206.846 25.0263 206.534 26.4881C206.23 27.9115 206.329 29.3861 206.822 30.7526C206.881 30.9167 207.062 31.0018 207.226 30.9427C207.39 30.8835 207.475 30.7025 207.416 30.5384C206.963 29.2829 206.872 27.928 207.151 26.62C207.438 25.2778 208.105 24.0528 209.08 23.0775C211.858 20.2978 216.38 20.2978 219.158 23.0775C220.482 24.4013 221.223 26.1609 221.244 28.0324C221.266 29.9004 220.57 31.6741 219.285 33.0267C219.27 33.0427 219.255 33.0588 219.239 33.0749C219.213 33.1034 219.186 33.1319 219.158 33.1597C216.38 35.9394 211.858 35.9394 209.08 33.1597C209.065 33.1449 209.05 33.1299 209.036 33.1148C209.035 33.0856 209.035 33.0569 209.035 33.0286C209.035 32.965 209.036 32.9016 209.038 32.8385C209.039 32.8174 209.041 32.7965 209.042 32.7755C209.044 32.7335 209.046 32.6915 209.049 32.6498C209.051 32.6249 209.053 32.6003 209.056 32.5755C209.059 32.5378 209.062 32.5002 209.066 32.4627C209.069 32.4363 209.073 32.4101 209.076 32.3838C209.081 32.3482 209.085 32.3126 209.09 32.2772C209.094 32.2503 209.099 32.2236 209.103 32.1968C209.109 32.1623 209.114 32.1278 209.121 32.0935C209.126 32.0664 209.131 32.0396 209.137 32.0126C209.144 31.979 209.15 31.9453 209.158 31.9119C209.164 31.8848 209.171 31.8578 209.177 31.8308C209.185 31.7979 209.193 31.765 209.201 31.7324C209.209 31.7053 209.216 31.6785 209.224 31.6516C209.233 31.6194 209.242 31.5871 209.251 31.5551C209.259 31.5282 209.268 31.5016 209.276 31.475C209.287 31.4433 209.297 31.4116 209.307 31.3803C209.316 31.3538 209.326 31.3275 209.335 31.3011C209.347 31.27 209.358 31.2388 209.37 31.2079C209.38 31.1817 209.39 31.1558 209.4 31.1298C209.413 31.0992 209.425 31.0687 209.438 31.0383C209.449 31.0125 209.46 30.987 209.471 30.9614C209.485 30.9313 209.498 30.9014 209.512 30.8716C209.524 30.8463 209.536 30.8211 209.548 30.796C209.563 30.7665 209.577 30.737 209.592 30.7078C209.605 30.683 209.618 30.6584 209.631 30.6339C209.646 30.6048 209.662 30.5759 209.678 30.5471C209.692 30.5228 209.705 30.4987 209.719 30.4748C209.736 30.4463 209.753 30.418 209.77 30.3898C209.784 30.3661 209.799 30.3425 209.813 30.319C209.831 30.2911 209.849 30.2634 209.867 30.2358C209.882 30.2127 209.897 30.1897 209.913 30.1669C209.931 30.1395 209.95 30.1124 209.97 30.0854C209.986 30.0629 210.001 30.0405 210.018 30.0183C210.037 29.9916 210.057 29.9651 210.078 29.9388C210.094 29.917 210.111 29.8952 210.128 29.8737C210.149 29.8475 210.17 29.8217 210.191 29.7959C210.208 29.7749 210.226 29.7538 210.243 29.733C210.265 29.7074 210.287 29.6822 210.31 29.657C210.328 29.6367 210.346 29.6164 210.364 29.5963C210.387 29.5714 210.41 29.5469 210.433 29.5224C210.452 29.5029 210.471 29.4832 210.49 29.4639C210.513 29.4396 210.538 29.4158 210.562 29.3919C210.582 29.3732 210.601 29.3543 210.62 29.3359C210.645 29.3121 210.671 29.2889 210.696 29.2656C210.716 29.2478 210.735 29.2299 210.755 29.2124C210.782 29.1891 210.809 29.1665 210.836 29.1437C210.856 29.127 210.875 29.11 210.895 29.0936C210.923 29.0707 210.952 29.0486 210.98 29.0263C211 29.0107 211.02 28.9948 211.04 28.9796C211.07 28.9568 211.101 28.9348 211.131 28.9127C211.151 28.8987 211.17 28.8843 211.189 28.8706C211.223 28.8468 211.257 28.8239 211.292 28.8009C211.309 28.7896 211.326 28.7779 211.343 28.7667C211.388 28.7375 211.433 28.7092 211.479 28.6813C211.487 28.677 211.494 28.6724 211.501 28.6681C211.554 28.6362 211.608 28.6052 211.663 28.5751C211.681 28.5648 211.701 28.5552 211.719 28.5451C211.756 28.5258 211.792 28.5062 211.829 28.4877C211.852 28.4758 211.877 28.4646 211.9 28.4531C211.93 28.4385 211.96 28.4238 211.991 28.4097C212.563 28.9566 213.327 29.2662 214.119 29.2662C214.912 29.2662 215.675 28.9566 216.247 28.4096C217.365 28.9269 218.279 29.8549 218.775 30.9835C218.846 31.1432 219.032 31.2157 219.192 31.1455C219.351 31.0752 219.424 30.8888 219.353 30.7292C218.81 29.4946 217.865 28.5081 216.669 27.9126C217.016 27.4032 217.204 26.8016 217.204 26.1808C217.204 24.4795 215.82 23.0954 214.119 23.0954C213.945 23.0954 213.803 23.2368 213.803 23.4112C213.803 23.5857 213.945 23.7271 214.119 23.7271C215.472 23.7271 216.572 24.8279 216.572 26.1808C216.572 26.7858 216.347 27.3684 215.939 27.8211C215.939 27.8211 215.939 27.8212 215.939 27.8212C215.473 28.3381 214.81 28.6345 214.119 28.6345C213.428 28.6345 212.765 28.3381 212.299 27.8212C212.299 27.8211 212.299 27.8211 212.299 27.821C211.891 27.3682 211.666 26.7858 211.666 26.1809C211.666 25.5205 211.925 24.901 212.394 24.4365C212.518 24.3138 212.519 24.1138 212.396 23.9899C212.274 23.8658 212.074 23.8648 211.95 23.9874C211.36 24.5713 211.035 25.3502 211.035 26.1807C211.035 26.8008 211.222 27.402 211.569 27.9111C211.566 27.9127 211.563 27.9144 211.559 27.9159C211.535 27.9283 211.511 27.9413 211.486 27.9539C211.449 27.9733 211.411 27.9925 211.375 28.0127C211.348 28.0269 211.323 28.0419 211.297 28.0564C211.263 28.076 211.228 28.0954 211.194 28.1156C211.168 28.1313 211.142 28.1475 211.116 28.1635C211.083 28.1836 211.05 28.2037 211.018 28.2244C210.992 28.2413 210.966 28.2586 210.94 28.2759C210.909 28.2967 210.878 28.3176 210.847 28.339C210.821 28.357 210.796 28.3754 210.77 28.3937C210.74 28.4154 210.71 28.4371 210.681 28.4593C210.656 28.4783 210.631 28.4976 210.606 28.5169C210.577 28.5394 210.548 28.562 210.52 28.585C210.495 28.6049 210.47 28.6251 210.446 28.6454C210.418 28.6688 210.39 28.6924 210.363 28.7163C210.339 28.737 210.315 28.7578 210.292 28.7789C210.265 28.8033 210.238 28.8279 210.212 28.8528C210.189 28.8742 210.166 28.8957 210.143 28.9175C210.117 28.9429 210.091 28.9687 210.065 28.9945C210.043 29.0166 210.021 29.0386 210 29.061C209.974 29.0874 209.949 29.1144 209.924 29.1413C209.903 29.1639 209.882 29.1863 209.862 29.2092C209.837 29.237 209.812 29.2654 209.788 29.2936C209.768 29.3164 209.748 29.3389 209.729 29.3619C209.704 29.3916 209.68 29.4218 209.656 29.4519C209.638 29.4743 209.62 29.4964 209.602 29.5191C209.577 29.5518 209.553 29.585 209.528 29.6182C209.512 29.639 209.497 29.6595 209.481 29.6806C209.45 29.7237 209.42 29.7675 209.39 29.8116C209.382 29.8231 209.374 29.8344 209.366 29.846C209.329 29.9016 209.293 29.9579 209.258 30.0147C209.245 30.0344 209.234 30.0544 209.222 30.0742C209.199 30.112 209.176 30.1498 209.155 30.1882C209.141 30.2121 209.128 30.2365 209.115 30.2607C209.095 30.2954 209.076 30.3301 209.058 30.3652C209.044 30.3913 209.031 30.4177 209.018 30.4439C209.001 30.4778 208.983 30.5117 208.967 30.546C208.954 30.5732 208.941 30.6008 208.929 30.6282C208.913 30.6621 208.897 30.6959 208.882 30.7301C208.87 30.7582 208.858 30.7866 208.847 30.815C208.832 30.8491 208.818 30.8831 208.805 30.9175C208.793 30.9463 208.782 30.9753 208.771 31.0043C208.758 31.0388 208.745 31.0732 208.733 31.1079C208.723 31.1374 208.713 31.1669 208.703 31.1966C208.691 31.2314 208.679 31.2663 208.668 31.3014C208.659 31.3313 208.65 31.3612 208.641 31.3912C208.63 31.4266 208.62 31.4622 208.61 31.4979C208.602 31.528 208.594 31.5582 208.586 31.5885C208.577 31.6245 208.568 31.6608 208.559 31.6971C208.552 31.7274 208.545 31.7577 208.538 31.7881C208.53 31.8249 208.523 31.8619 208.515 31.899C208.509 31.9293 208.503 31.9596 208.497 31.9901C208.491 32.0279 208.484 32.0659 208.478 32.104C208.473 32.134 208.468 32.1639 208.464 32.194C208.458 32.2333 208.453 32.2728 208.448 32.3123C208.445 32.3416 208.441 32.3708 208.438 32.4001C208.433 32.4415 208.43 32.4832 208.426 32.5248C208.424 32.5526 208.421 32.5802 208.419 32.6081C208.415 32.6546 208.413 32.7013 208.411 32.748C208.41 32.7712 208.408 32.7943 208.407 32.8176C208.405 32.8877 208.403 32.9581 208.403 33.0287C208.403 33.105 208.406 33.1771 208.409 33.2568C208.41 33.2752 208.412 33.2931 208.416 33.3106C208.416 33.312 208.416 33.3133 208.417 33.3147C208.421 33.3319 208.426 33.3484 208.433 33.3644C208.433 33.366 208.434 33.3676 208.434 33.3692C208.441 33.385 208.449 33.4 208.459 33.4143C208.46 33.4161 208.461 33.4179 208.462 33.4197C208.471 33.4337 208.482 33.4469 208.493 33.4593C208.494 33.4601 208.495 33.4613 208.495 33.4621L208.537 33.5065C208.569 33.5402 208.6 33.5738 208.633 33.6066C210.145 35.1196 212.132 35.8761 214.119 35.8761C216.106 35.8761 218.092 35.1196 219.605 33.6066C219.638 33.5738 219.669 33.5402 219.701 33.5065L219.742 33.4621C221.142 31.9896 221.899 30.0588 221.876 28.0253C221.852 25.9877 221.046 24.0719 219.605 22.6308Z" fill="white"/>
<circle opacity="0.3" cx="70.7123" cy="19.0057" r="14.4525" stroke="#0F1640" stroke-width="0.608491"/>
<circle cx="70.7123" cy="19.0057" r="11.6527" fill="#0F1640"/>
<circle opacity="0.13" cx="70.7121" cy="19.006" r="17.4078" stroke="#0F1640" stroke-width="0.608491"/>
<path d="M68.0685 20.513C68.9488 21.5921 70.0084 22.4417 71.2178 23.0428C71.6782 23.2666 72.294 23.5321 72.9801 23.5776C73.0226 23.5795 73.0633 23.5814 73.1059 23.5814C73.5663 23.5814 73.9362 23.4183 74.2376 23.0827C74.2394 23.0808 74.2431 23.077 74.245 23.0732C74.3522 22.9404 74.4743 22.821 74.6019 22.6939C74.6888 22.6086 74.7776 22.5194 74.8626 22.4284C75.2565 22.0074 75.2565 21.4726 74.8589 21.0649L73.7475 19.9251C73.5589 19.7241 73.3333 19.6179 73.0966 19.6179C72.8599 19.6179 72.6324 19.7241 72.4383 19.9232L71.7762 20.6021C71.7152 20.5661 71.6523 20.5339 71.5932 20.5035C71.5192 20.4656 71.4508 20.4295 71.3898 20.3897C70.7869 19.9972 70.2395 19.4851 69.7162 18.8271C69.4518 18.4838 69.2742 18.1955 69.1503 17.9016C69.3242 17.7404 69.4869 17.5716 69.6441 17.4066C69.6995 17.3478 69.7569 17.289 69.8142 17.2302C70.0139 17.0254 70.1212 16.7884 70.1212 16.5475C70.1212 16.3067 70.0158 16.0696 69.8142 15.8648L69.2631 15.2997C69.1984 15.2333 69.1374 15.1688 69.0745 15.1024C68.9525 14.9735 68.8249 14.8407 68.6991 14.7213C68.5086 14.5297 68.2849 14.4292 68.0482 14.4292C67.8133 14.4292 67.5877 14.5297 67.3898 14.7231L66.6982 15.4324C66.4467 15.6903 66.3043 16.0032 66.2747 16.3655C66.2396 16.8187 66.321 17.3004 66.5318 17.8826C66.8554 18.7834 67.3436 19.6198 68.0685 20.513ZM66.726 16.4053C66.7482 16.1531 66.8425 15.9426 67.02 15.7605L67.7079 15.055C67.8152 14.9488 67.9335 14.8938 68.0482 14.8938C68.161 14.8938 68.2756 14.9488 68.381 15.0588C68.5049 15.1764 68.6214 15.2997 68.7472 15.4305C68.8101 15.4969 68.8748 15.5633 68.9395 15.6315L69.4906 16.1967C69.6052 16.3143 69.6644 16.4337 69.6644 16.5513C69.6644 16.6689 69.6052 16.7884 69.4906 16.906C69.4333 16.9647 69.3759 17.0254 69.3186 17.0842C69.1466 17.2625 68.9857 17.4313 68.8082 17.5925C68.8045 17.5963 68.8027 17.5982 68.799 17.602C68.6455 17.7594 68.6695 17.9092 68.7065 18.023C68.7084 18.0287 68.7102 18.0324 68.7121 18.0381C68.8544 18.389 69.0523 18.7227 69.3611 19.121C69.9159 19.8227 70.5003 20.367 71.1438 20.7861C71.2233 20.8392 71.3084 20.8809 71.3879 20.9226C71.4619 20.9606 71.5303 20.9966 71.5913 21.0364C71.5987 21.0402 71.6043 21.044 71.6117 21.0478C71.6727 21.08 71.7319 21.0952 71.791 21.0952C71.939 21.0952 72.0351 20.9985 72.0666 20.9662L72.7582 20.257C72.8655 20.147 72.982 20.0882 73.0966 20.0882C73.2372 20.0882 73.3518 20.1773 73.4239 20.257L74.539 21.3986C74.7609 21.6262 74.7591 21.8727 74.5335 22.1136C74.4558 22.1989 74.3744 22.2805 74.2875 22.3658C74.1581 22.4948 74.0231 22.6275 73.901 22.7773C73.6884 23.0125 73.435 23.1225 73.1077 23.1225C73.0763 23.1225 73.043 23.1206 73.0115 23.1187C72.405 23.0789 71.841 22.8361 71.4175 22.6294C70.2673 22.0586 69.2576 21.2488 68.4199 20.2209C67.7301 19.3694 67.2659 18.5767 66.959 17.7271C66.7685 17.2056 66.6964 16.7865 66.726 16.4053Z" fill="white" stroke="white" stroke-width="0.608491"/>
<path d="M192.818 73.7915H191.828V67.4915H192.836L194.879 70.3265L196.904 67.4915H197.894V73.7915H196.904V69.0035L195.149 71.3795H194.573L192.818 69.0035V73.7915ZM204.474 73.7915H199.875V67.4915H204.357V68.4005H200.865V69.9755H203.709V70.8845H200.865V72.8825H204.474V73.7915ZM209.155 73.7915H206.059V67.4915H208.921C209.491 67.4915 209.941 67.6295 210.271 67.9055C210.607 68.1815 210.775 68.5595 210.775 69.0395C210.775 69.3515 210.697 69.6215 210.541 69.8495C210.385 70.0775 210.184 70.2395 209.938 70.3355C210.334 70.4075 210.655 70.5935 210.901 70.8935C211.153 71.1935 211.279 71.5685 211.279 72.0185C211.279 72.5525 211.087 72.9815 210.703 73.3055C210.325 73.6295 209.809 73.7915 209.155 73.7915ZM207.049 70.9025V72.8825H208.975C209.359 72.8825 209.659 72.7955 209.875 72.6215C210.097 72.4415 210.208 72.1925 210.208 71.8745C210.208 71.5625 210.1 71.3225 209.884 71.1545C209.668 70.9865 209.365 70.9025 208.975 70.9025H207.049ZM207.049 68.4005V70.0295H208.75C209.08 70.0295 209.335 69.9605 209.515 69.8225C209.701 69.6785 209.794 69.4745 209.794 69.2105C209.794 68.9465 209.701 68.7455 209.515 68.6075C209.335 68.4695 209.08 68.4005 208.75 68.4005H207.049ZM214.298 72.3155C214.724 72.7595 215.246 72.9815 215.864 72.9815C216.482 72.9815 217.004 72.7595 217.43 72.3155C217.856 71.8595 218.069 71.3015 218.069 70.6415C218.069 69.9755 217.856 69.4205 217.43 68.9765C217.004 68.5265 216.482 68.3015 215.864 68.3015C215.246 68.3015 214.724 68.5265 214.298 68.9765C213.878 69.4145 213.668 69.9695 213.668 70.6415C213.668 71.3135 213.878 71.8715 214.298 72.3155ZM218.168 72.9725C217.556 73.5965 216.788 73.9085 215.864 73.9085C214.94 73.9085 214.172 73.5965 213.56 72.9725C212.954 72.3365 212.651 71.5595 212.651 70.6415C212.651 69.7175 212.954 68.9435 213.56 68.3195C214.172 67.6895 214.94 67.3745 215.864 67.3745C216.788 67.3745 217.556 67.6895 218.168 68.3195C218.78 68.9435 219.086 69.7175 219.086 70.6415C219.086 71.5655 218.78 72.3425 218.168 72.9725ZM219.91 68.4005V67.4915H225.067V68.4005H222.979V73.7915H221.989V68.4005H219.91ZM230.522 73.7915H226.139V73.0715L228.119 71.2175C228.539 70.8275 228.848 70.4915 229.046 70.2095C229.226 69.9395 229.316 69.6515 229.316 69.3455C229.316 69.0275 229.199 68.7725 228.965 68.5805C228.737 68.3825 228.437 68.2835 228.065 68.2835C227.441 68.2835 226.853 68.5445 226.301 69.0665V68.0315C226.817 67.5935 227.438 67.3745 228.164 67.3745C228.758 67.3745 229.262 67.5455 229.676 67.8875C230.096 68.2295 230.306 68.6765 230.306 69.2285C230.306 69.6545 230.201 70.0415 229.991 70.3895C229.769 70.7435 229.415 71.1515 228.929 71.6135L227.57 72.9095H230.522V73.7915ZM235.725 73.7915H234.753V72.1445H231.486V71.3885L234.753 67.4915H235.725V71.2985H236.706V72.1445H235.725V73.7915ZM234.753 68.7605L232.611 71.2985H234.753V68.7605ZM194.836 85.9085C193.876 85.9085 193.087 85.6835 192.469 85.2335V84.1625C192.715 84.3785 193.054 84.5705 193.486 84.7385C193.918 84.9005 194.35 84.9815 194.782 84.9815C195.208 84.9815 195.556 84.8975 195.826 84.7295C196.102 84.5615 196.24 84.3335 196.24 84.0455C196.24 83.8175 196.147 83.6225 195.961 83.4605C195.889 83.3945 195.781 83.3315 195.637 83.2715C195.463 83.1875 195.175 83.0885 194.773 82.9745L194.647 82.9385C194.305 82.8425 194.032 82.7555 193.828 82.6775C193.666 82.6175 193.456 82.5125 193.198 82.3625C192.766 82.0925 192.55 81.6695 192.55 81.0935C192.55 80.5715 192.754 80.1545 193.162 79.8425C193.576 79.5305 194.134 79.3745 194.836 79.3745C195.598 79.3745 196.27 79.5485 196.852 79.8965V80.8865C196.21 80.4965 195.544 80.3015 194.854 80.3015C194.434 80.3015 194.113 80.3765 193.891 80.5265C193.675 80.6705 193.567 80.8625 193.567 81.1025C193.567 81.3065 193.69 81.4955 193.936 81.6695C193.972 81.6935 194.023 81.7205 194.089 81.7505C194.155 81.7745 194.23 81.8015 194.314 81.8315C194.398 81.8615 194.458 81.8825 194.494 81.8945L195.214 82.1015C195.652 82.2335 196.036 82.3895 196.366 82.5695C196.924 82.8695 197.221 83.3555 197.257 84.0275C197.257 84.6095 197.026 85.0685 196.564 85.4045C196.102 85.7405 195.526 85.9085 194.836 85.9085ZM198.854 83.1275V79.4915H199.844V83.1635C199.844 83.7455 199.991 84.1955 200.285 84.5135C200.579 84.8255 200.981 84.9815 201.491 84.9815C202.001 84.9815 202.403 84.8255 202.697 84.5135C202.997 84.1955 203.147 83.7455 203.147 83.1635V79.4915H204.137V83.1275C204.137 84.0095 203.891 84.6935 203.399 85.1795C202.901 85.6655 202.265 85.9085 201.491 85.9085C200.717 85.9085 200.081 85.6685 199.583 85.1885C199.097 84.7025 198.854 84.0155 198.854 83.1275ZM207.023 85.7915H206.033V79.4915H210.506V80.4005H207.023V82.0475H209.786V82.9565H207.023V85.7915ZM213.066 85.7915H212.076V79.4915H216.549V80.4005H213.066V82.0475H215.829V82.9565H213.066V85.7915ZM222.466 85.7915H218.119V79.4915H219.118V84.8825H222.466V85.7915ZM228.533 85.7915H223.934V79.4915H228.416V80.4005H224.924V81.9755H227.768V82.8845H224.924V84.8825H228.533V85.7915ZM231.108 85.7915H230.118V79.4915H232.989C233.637 79.4915 234.144 79.6565 234.51 79.9865C234.882 80.3225 235.068 80.7545 235.068 81.2825C235.068 81.7205 234.945 82.0955 234.699 82.4075C234.459 82.7135 234.126 82.9175 233.7 83.0195L235.68 85.7915H234.483L232.584 83.1275H231.108V85.7915ZM231.108 80.4005V82.2545H232.926C233.286 82.2545 233.565 82.1735 233.763 82.0115C233.967 81.8495 234.069 81.6185 234.069 81.3185C234.069 81.0305 233.967 80.8055 233.763 80.6435C233.565 80.4815 233.286 80.4005 232.926 80.4005H231.108Z" fill="#0F1640"/>
</svg>
