<svg width="40" height="40" viewBox="0 0 40 40" fill="none" xmlns="http://www.w3.org/2000/svg">
<path d="M39.8962 17.9831C39.4296 13.3795 37.3812 9.08018 34.1001 5.81762C30.8191 2.55505 26.5083 0.531164 21.9023 0.0908055C17.2964 -0.349553 12.6802 0.820868 8.84044 3.40263C5.00066 5.9844 2.17485 9.81777 0.844489 14.2496C-0.485868 18.6813 -0.238449 23.4373 1.54459 27.7071C3.32762 31.9769 6.53595 35.4964 10.6229 37.6657C14.7098 39.8351 19.4225 40.5202 23.9579 39.6042C28.4933 38.6882 32.5708 36.2279 35.4956 32.6425C37.158 30.609 38.4025 28.2673 39.1577 25.7517C39.9128 23.236 40.1638 20.596 39.8962 17.9831ZM35.3827 10.7518C36.5333 12.6702 37.3153 14.7866 37.6886 16.9922C37.3899 19.0542 34.6833 20.0669 32.1115 20.9376C31.7043 18.8796 31.8081 16.7531 32.4138 14.7445C32.9196 13.1142 33.967 11.7055 35.3827 10.7518ZM31.3428 6.09244C32.4559 6.99697 33.4552 8.03306 34.319 9.17805C32.5497 10.3626 31.2397 12.1176 30.607 14.1507C30.5268 14.3948 30.4576 14.6462 30.3957 14.8975C30.2476 14.7142 30.0869 14.5413 29.9149 14.3802C29.958 14.3249 29.9901 14.2618 30.0096 14.1944C30.1261 13.8301 30.1298 13.1671 29.6198 12.8793C29.1098 12.5915 29.0333 13.127 28.9604 13.3711C28.8876 13.6152 28.7783 13.4039 28.7819 13.2691C28.8098 12.9175 28.7378 12.5652 28.5743 12.2527C28.5395 12.1715 28.4848 12.1004 28.4152 12.046C28.3456 11.9915 28.2634 11.9556 28.1762 11.9414C28.089 11.9272 27.9996 11.9353 27.9164 11.9649C27.8331 11.9945 27.7587 12.0446 27.7 12.1106C27.6164 12.3388 27.6164 12.5892 27.7 12.8174C27.751 12.9704 27.6454 13.0651 27.5762 13.0105C27.507 12.9558 27.354 12.8247 27.2483 12.73C27.1427 12.6352 26.7383 12.2782 26.334 12.5442C26.1614 12.6741 26.0385 12.859 25.9855 13.0684C25.9325 13.2778 25.9526 13.499 26.0425 13.6953C26.2551 13.9576 26.5363 14.1556 26.8549 14.2673C27.0516 14.3329 26.9496 14.5041 26.8549 14.5442C26.7109 14.6756 26.6148 14.8512 26.5817 15.0432C26.6149 15.1902 26.7014 15.3197 26.8246 15.4065C26.9477 15.4933 27.0987 15.5313 27.2483 15.5132C27.6417 15.4804 27.9769 15.0177 28.0971 14.8939C28.2173 14.77 28.3193 14.9522 28.2282 15.0833C28.1231 15.2638 28.0388 15.4557 27.9769 15.6553C27.9149 15.8338 27.9987 16.2236 28.4942 16.3474C28.8584 16.4422 29.1899 16.1799 29.4085 15.7755C29.4302 15.6284 29.4163 15.4782 29.3682 15.3375C29.32 15.1968 29.2389 15.0697 29.1316 14.9667C28.7074 14.5214 28.2373 14.1221 27.7292 13.7755C28.5052 14.0775 29.2053 14.5464 29.7801 15.1489C30.1444 15.6662 30.1225 16.1289 30.0606 16.8975C29.9203 18.4548 30.0062 20.0242 30.3156 21.5569L29.0551 22.005L27.7219 22.4786C27.8567 21.0214 27.1245 19.3201 26.3303 17.5095C25.5034 15.6188 24.5963 13.546 24.8732 11.6043C25.0783 9.77418 25.8559 8.05557 27.0953 6.69354C27.8289 5.92016 28.7095 5.30091 29.6854 4.87204C30.2604 5.24733 30.8137 5.65478 31.3428 6.09244ZM18.1813 2.13981C19.1096 2.04512 20.0438 2.0232 20.9754 2.07423C21.0446 5.57878 19.7478 7.41849 18.2214 9.26184C18.1716 8.61154 18.0494 7.96883 17.8571 7.34563C17.6369 6.71888 17.369 6.10994 17.0557 5.52414C17.4376 5.94474 17.7566 6.41838 18.0028 6.93033C18.0194 6.99557 18.0512 7.05595 18.0957 7.10653C18.1401 7.15711 18.1958 7.19645 18.2584 7.22132C18.3209 7.2462 18.3885 7.25591 18.4555 7.24966C18.5225 7.2434 18.5871 7.22136 18.644 7.18534C18.9864 7.02869 19.449 6.60246 19.2305 6.1143C19.0119 5.62614 18.5821 5.91758 18.3562 6.02687C18.1303 6.13616 18.1813 5.9358 18.2797 5.85565C18.5279 5.66101 18.7088 5.39345 18.797 5.09062C18.9099 4.65711 18.4108 4.42031 18.1813 4.47496C17.9679 4.55305 17.7921 4.70931 17.6896 4.91212C17.624 5.03962 17.4746 5.03598 17.4564 4.95948C17.4382 4.88297 17.4018 4.70811 17.3799 4.59518C17.3527 4.4406 17.2763 4.29895 17.1621 4.1913C17.0479 4.08365 16.902 4.01576 16.7461 3.99773C16.2361 3.91758 15.7771 4.20902 15.7297 4.47496C15.7371 4.7761 15.8377 5.06755 16.0175 5.3092C16.1341 5.46949 15.9337 5.51321 15.8427 5.49499C15.733 5.49248 15.6255 5.52537 15.5361 5.58878C15.4466 5.65219 15.38 5.74275 15.346 5.84702C15.3121 5.9513 15.3126 6.06373 15.3476 6.16766C15.3826 6.27158 15.4502 6.36146 15.5403 6.42395C15.7734 6.66075 16.4328 6.46403 16.6331 6.46767C16.8335 6.47131 16.7716 6.63889 16.6076 6.66803C16.4015 6.71103 16.2001 6.77449 16.0066 6.85747C15.8354 6.93397 15.6423 7.22177 15.9556 7.58607C16.196 7.87022 16.7643 7.801 17.2196 7.68078C17.318 7.65164 17.4746 8.13251 17.5038 8.38024C17.6342 9.10578 17.5242 9.85408 17.1905 10.5114C16.9136 10.8502 16.6368 11.1963 16.3636 11.5642C16.1291 10.501 15.6993 9.49052 15.0959 8.58424C13.9529 6.87324 12.2939 5.57151 10.3602 4.8684H10.3347C12.7011 3.35821 15.3885 2.42368 18.1813 2.13981ZM6.09084 8.64982C6.77757 7.80416 7.53961 7.02258 8.3676 6.31467C8.81432 6.39852 9.25305 6.52039 9.67902 6.67896C11.2303 7.24266 12.5613 8.28659 13.4785 9.65892C14.3557 10.9377 14.7436 12.4894 14.5713 14.0305C14.5181 14.4819 14.4129 14.9256 14.258 15.3529V15.3893C13.4786 17.3836 13.1298 19.5202 13.2344 21.6589C13.2672 22.0795 13.3305 22.4971 13.4238 22.9084C12.637 22.6061 11.8101 22.3146 10.9649 22.0159L9.70816 21.5715C10.2339 19.1139 10.1274 16.5631 9.39852 14.158C9.13364 13.3449 8.76641 12.5688 8.30567 11.8484C8.30236 11.6642 8.33613 11.4812 8.40497 11.3104C8.47381 11.1395 8.57631 10.9842 8.70638 10.8538C9.13217 10.3916 9.65974 10.0349 10.2473 9.81193C9.85137 10.1231 9.48549 10.4707 9.15445 10.8502C8.97959 11.0396 8.9286 11.3056 9.00509 11.4039C9.23823 11.699 9.5843 12.005 9.91216 11.9139C10.3493 11.7901 10.3821 11.4877 10.3129 11.3566C10.2307 11.2093 10.133 11.0713 10.0214 10.9449C9.92673 10.8538 9.98865 10.7081 10.1198 10.7955C10.3127 10.9754 10.5602 11.0856 10.8229 11.1088C10.9479 11.1179 11.0715 11.0769 11.1664 10.995C11.2613 10.913 11.3199 10.7967 11.3292 10.6717C11.2964 10.5365 11.2112 10.4198 11.0924 10.3474C11.0196 10.3219 10.9139 10.1981 11.0924 10.1362C11.3583 10.0396 11.5926 9.87201 11.77 9.65164C11.8293 9.48883 11.8247 9.3096 11.7571 9.15006C11.6895 8.99052 11.5639 8.86254 11.4057 8.79189C11.2664 8.74265 11.1157 8.73503 10.9721 8.76996C10.8285 8.80489 10.6982 8.88087 10.597 8.98861C10.5096 9.06876 10.3857 9.17805 10.3274 9.22176C10.2692 9.26548 10.1635 9.20355 10.1963 9.08333C10.2217 8.99368 10.228 8.8997 10.2148 8.80746C10.2016 8.71523 10.1693 8.62677 10.1198 8.54781C10.0605 8.501 9.99177 8.46773 9.9183 8.45034C9.84482 8.43294 9.76843 8.43184 9.69448 8.44712C9.62054 8.4624 9.55083 8.49367 9.49026 8.53876C9.42969 8.58385 9.37973 8.64165 9.34388 8.7081C9.22752 8.95181 9.19425 9.22693 9.24916 9.49135C9.26738 9.59335 9.19088 9.76093 9.09981 9.58242C9.00874 9.40391 8.89217 8.99954 8.45867 9.24727C8.02518 9.49499 8.14539 10.1252 8.28017 10.3912C8.30684 10.4422 8.34264 10.4879 8.38582 10.526C8.19995 10.7106 8.03279 10.9132 7.88675 11.1307V11.2181C7.27705 10.423 6.53822 9.73586 5.70106 9.18533C5.81763 8.99954 5.94877 8.82468 6.09084 8.64982ZM4.60822 10.7518C6.02655 11.7092 7.07429 13.1234 7.57711 14.7591C7.64632 14.9704 7.70461 15.1853 7.75925 15.4003C7.55989 15.3 7.3528 15.216 7.13997 15.1489C7.16402 15.085 7.17396 15.0166 7.16912 14.9485C7.16912 14.5842 6.96147 14.0196 6.44055 13.9977C5.91963 13.9759 6.00341 14.4604 6.0107 14.7008C6.01799 14.9412 5.86135 14.8101 5.82492 14.7008C5.74359 14.3963 5.57064 14.1241 5.32949 13.9212C5.26243 13.8722 5.18475 13.8397 5.10278 13.8264C5.02081 13.8131 4.93684 13.8192 4.85771 13.8444C4.77857 13.8696 4.70649 13.9131 4.64732 13.9714C4.58814 14.0297 4.54355 14.1011 4.51715 14.1799C4.51344 14.394 4.58718 14.6023 4.72479 14.7664C4.81586 14.8757 4.75393 14.9995 4.67379 14.985C4.59365 14.9704 4.42243 14.923 4.30951 14.8866C4.16022 14.8253 3.9948 14.8152 3.8392 14.8581C3.6836 14.901 3.54664 14.9943 3.4498 15.1234C3.33445 15.2909 3.28084 15.4933 3.29811 15.6959C3.31538 15.8986 3.40248 16.0889 3.54451 16.2345C3.81947 16.3669 4.12781 16.4139 4.42972 16.3693C4.62279 16.3401 4.58636 16.5332 4.53172 16.5988C4.44896 16.7656 4.42092 16.9543 4.45158 17.138C4.49893 17.2983 4.845 17.4476 5.18014 17.2509C5.51528 17.0542 5.65735 16.5223 5.73385 16.3547C5.81035 16.1871 5.94877 16.311 5.9087 16.4604C5.85713 16.6532 5.8266 16.8511 5.81763 17.0505C5.81763 17.2327 6.00706 17.5278 6.48062 17.4148C6.66182 17.3478 6.81874 17.228 6.93109 17.0708C7.04345 16.9136 7.10606 16.7264 7.11083 16.5332C7.13269 16.3875 6.88133 16.0414 6.60812 15.9795C6.09371 15.7826 5.55833 15.6457 5.01257 15.5715C5.76503 15.4881 6.52655 15.5842 7.23469 15.852C7.73011 16.1252 7.96325 16.6061 8.04339 17.3092H8.06525C8.1577 18.5268 8.09281 19.7512 7.87218 20.9522C5.30399 20.0669 2.59374 19.0542 2.29867 16.985C2.67299 14.7814 3.45631 12.6673 4.60822 10.7518ZM13.8318 36.8611C10.6671 35.7015 7.89227 33.6751 5.8245 31.0132C3.75673 28.3514 2.47938 25.1616 2.13839 21.8083C2.09103 21.342 2.06189 20.872 2.05096 20.4021C3.50809 21.6407 5.64642 22.3584 7.64268 23.0323L8.80838 23.4294C8.52988 23.7222 8.27643 24.0378 8.05068 24.3729C7.55525 25.1015 7.34033 26.1216 7.15454 26.9813C7.1406 26.3318 7.22786 25.6841 7.41318 25.0614C7.43844 24.9956 7.44878 24.925 7.44349 24.8547C7.43819 24.7844 7.41737 24.7161 7.38254 24.6548C7.3477 24.5935 7.29972 24.5406 7.24203 24.5001C7.18434 24.4596 7.11838 24.4323 7.0489 24.4203C6.60448 24.3256 6.27663 24.3256 6.04349 24.6789C5.7302 25.1525 5.93056 25.4695 6.09813 25.5387C6.23773 25.6113 6.38972 25.657 6.54619 25.6735C6.70648 25.6735 6.75748 25.8811 6.56805 25.903C6.2354 25.8915 5.90846 25.9915 5.63913 26.1871C5.30399 26.4749 5.29671 26.9157 5.42421 27.0214C5.58461 27.1258 5.77747 27.1686 5.96699 27.1416C6.05806 27.1088 6.25477 27.1416 6.14184 27.3383C6.08693 27.4231 6.05158 27.5191 6.03835 27.6193C6.02511 27.7195 6.03434 27.8214 6.06534 27.9175C6.1307 28.1195 6.2725 28.2878 6.46041 28.3866C6.64831 28.4853 6.86739 28.5065 7.07076 28.4458C7.53704 28.2236 7.49697 27.8957 7.5589 27.6006C7.58075 27.5095 7.72647 27.4913 7.78839 27.6298C7.83283 27.7357 7.89886 27.8313 7.98228 27.9103C8.0657 27.9893 8.16467 28.0501 8.27289 28.0888C8.36516 28.0829 8.4551 28.0573 8.53659 28.0136C8.61808 27.9699 8.68923 27.9092 8.7452 27.8356C8.80118 27.762 8.84067 27.6772 8.861 27.587C8.88132 27.4968 8.88202 27.4033 8.86302 27.3128C8.78789 26.984 8.606 26.6894 8.34574 26.4749C8.25467 26.3911 8.20003 26.1653 8.42224 26.2673C8.64446 26.3693 9.05974 26.6644 9.27466 26.0742C9.48959 25.484 8.91038 24.9813 8.5461 24.821C8.52789 24.821 8.50239 24.7737 8.47324 24.7117C8.72838 24.2814 9.09954 23.9317 9.54423 23.7026L10.2509 23.954C12.6661 24.7992 14.8627 25.5751 16.3818 26.7481C16.2462 26.9277 16.0897 27.0903 15.9155 27.2327C15.3982 27.5751 12.6989 30.045 12.1707 30.5113C12.3856 29.9795 13.2016 29.1307 13.748 28.4822C14.0358 28.1434 14.1123 27.79 13.952 27.6407C13.4675 27.1744 12.7572 26.7336 12.229 26.9849C11.5223 27.3201 11.566 27.8556 11.7372 28.0778C11.9255 28.3089 12.1393 28.5179 12.3747 28.7008C12.5678 28.8356 12.5095 29.1088 12.2545 28.9922C11.9995 28.8757 11.3074 28.3911 10.6954 28.4859C10.0834 28.5806 9.7883 29.0979 9.87937 29.331C10.0168 29.5793 10.2336 29.7743 10.495 29.8848C10.6298 29.9103 10.8593 30.0997 10.5897 30.2491C10.2439 30.4635 9.97881 30.7862 9.83566 31.1671C9.69723 31.5751 10.0469 32.3656 10.7791 32.5624C10.985 32.6409 11.2131 32.6375 11.4164 32.5528C11.6198 32.468 11.7829 32.3085 11.872 32.107C11.9922 31.9503 12.1671 31.7427 12.2363 31.6297C12.3055 31.5168 12.5168 31.6297 12.5058 31.8374C12.4963 32.0034 12.5197 32.1697 12.5748 32.3266C12.6298 32.4836 12.7153 32.6281 12.8264 32.7518C12.9397 32.818 13.0665 32.8579 13.1974 32.8685C13.3282 32.879 13.4598 32.8599 13.5822 32.8127C13.7047 32.7655 13.815 32.6912 13.9049 32.5956C13.9947 32.4999 14.0619 32.3852 14.1014 32.26C14.2136 31.7933 14.1728 31.3028 13.9848 30.8611C13.9193 30.6899 13.9848 30.3766 14.2107 30.668C14.4365 30.9594 14.7717 31.6261 15.4274 31.0724C16.0831 30.5186 15.7297 29.4549 15.2671 28.9522C15.5864 28.62 15.9898 28.3806 16.4343 28.2594C16.8788 28.1381 17.3478 28.1396 17.7916 28.2636C18.2789 29.0756 18.5264 30.009 18.5056 30.9558C18.5056 35.3711 14.2835 36.7336 13.8318 36.8611ZM19.9955 27.8848C19.2487 26.1434 17.8389 24.9777 16.0175 24.0341C15.533 23.5642 15.2161 22.6753 15.1214 21.484C15.0484 20.1931 15.185 18.8989 15.5257 17.6516C16.043 16.4893 16.9702 15.5581 18.1303 15.036L18.2032 14.9995C18.9973 14.6352 19.5547 14.3766 20.4472 14.4385C20.021 14.4385 19.1467 14.8028 18.3708 15.2545C18.1994 15.3417 18.0669 15.49 17.9995 15.67C17.9321 15.8501 17.9346 16.0489 18.0065 16.2272C18.2396 16.7117 18.6221 17.138 19.0993 17.1052C19.7587 17.0615 19.9117 16.6462 19.8534 16.4422C19.7885 16.2095 19.6955 15.9857 19.5765 15.7755C19.4745 15.6152 19.613 15.433 19.7696 15.5897C19.9263 15.7463 20.2905 16.3183 20.7932 16.4312C21.948 16.6789 21.8023 15.5096 21.3615 15.2327C21.2668 15.1744 21.1539 14.9667 21.4162 14.9303C21.7982 14.8126 22.1434 14.598 22.4179 14.3074C22.4937 14.2224 22.5509 14.1225 22.5858 14.0141C22.6207 13.9057 22.6325 13.7913 22.6205 13.678C22.6085 13.5648 22.5729 13.4553 22.5161 13.3567C22.4592 13.258 22.3824 13.1724 22.2904 13.1052C21.7987 12.7409 21.3287 13.127 21.1976 13.2108C21.0665 13.2946 20.8333 13.4112 20.7386 13.4586C20.6439 13.5059 20.5164 13.382 20.6038 13.2254C20.6685 13.1073 20.708 12.977 20.72 12.8428C20.7319 12.7087 20.7159 12.5735 20.673 12.4458C20.5972 12.3485 20.4979 12.2721 20.3845 12.2237C20.2711 12.1753 20.1473 12.1564 20.0246 12.1689C19.8248 12.2077 19.6406 12.3038 19.4944 12.4454C19.3482 12.5871 19.2464 12.7682 19.2013 12.9667C19.1467 13.138 19.1321 13.5533 19.0228 13.6371C18.7678 13.8338 19.0665 12.8283 18.2724 12.8866C17.4783 12.9449 17.3107 13.8556 17.4419 14.4895C17.4448 14.5215 17.4371 14.5535 17.42 14.5806C17.0764 14.8531 16.7109 15.0968 16.3272 15.3092C17.1395 13.5096 18.2251 12.209 19.2596 10.9777C21.1721 8.70082 22.9024 6.6061 22.8769 2.28188C24.539 2.55096 26.1544 3.0551 27.6745 3.77915C26.9403 4.2259 26.2689 4.76864 25.6783 5.39299C24.1737 7.04065 23.2277 9.12134 22.9753 11.3383C22.611 13.8083 23.6419 16.1434 24.5708 18.26C25.558 20.5114 26.4141 22.5259 24.7129 23.6698C22.5527 24.6789 20.8406 25.9139 19.9955 27.8848ZM33.9001 31.3456C31.8606 33.8526 29.1789 35.7589 26.1409 36.8611C25.6965 36.7299 21.4817 35.3638 21.4817 30.9558C21.4817 27.7973 23.733 26.2818 26.8185 25.0287C27.8166 24.6425 28.5889 24.7846 29.485 24.8538C30.1154 24.919 30.7308 25.0876 31.3064 25.3529C31.9306 25.6934 32.5054 26.1174 33.0149 26.6134C32.7963 26.4786 32.0168 26.0487 31.2408 25.6553C31.0823 25.5793 30.9011 25.5653 30.7327 25.6158C30.5643 25.6663 30.4208 25.7778 30.3301 25.9285C30.1006 26.4094 29.9185 27.0214 30.2318 27.3857C30.6471 27.8374 31.0478 27.6808 31.168 27.5059C31.3063 27.3099 31.4212 27.0984 31.5104 26.8757C31.5723 26.6971 31.7945 26.6789 31.7618 26.8757C31.729 27.0724 31.5141 27.7281 31.7253 28.1653C31.9366 28.6024 32.3993 28.7044 32.5595 28.5842C32.7175 28.4233 32.8175 28.2144 32.8437 27.9904C32.8437 27.8848 32.9238 27.6698 33.106 27.8374C33.2881 28.005 33.3573 28.0341 33.6997 28.0451C33.9432 28.0056 34.1642 27.8796 34.3222 27.6902C34.4801 27.5008 34.5644 27.2607 34.5594 27.0141C34.4538 26.4385 34.0932 26.413 33.7945 26.2855C33.6997 26.2418 33.7216 26.0742 33.8892 26.0305C34.019 26.0008 34.1415 25.9456 34.2497 25.8681C34.3579 25.7905 34.4496 25.6921 34.5194 25.5788C34.541 25.4789 34.5395 25.3754 34.5152 25.2762C34.4909 25.1769 34.4444 25.0845 34.3791 25.0059C34.3139 24.9273 34.2316 24.8645 34.1385 24.8224C34.0454 24.7803 33.9439 24.7599 33.8418 24.7627C33.458 24.7833 33.0911 24.9277 32.7963 25.1744C32.6797 25.2618 32.432 25.2764 32.596 25.0469C32.7599 24.8174 33.2043 24.4057 32.6324 24.0378C32.0605 23.6698 31.3428 24.2381 31.0878 24.5879C31.0467 24.6175 30.9994 24.6374 30.9494 24.6461C30.6138 24.4098 30.2949 24.1506 29.995 23.8702L31.0004 23.5059C31.4084 23.3565 31.9293 23.1817 32.3483 23.0396C34.3409 22.3693 36.4683 21.6516 37.9363 20.413C37.8487 24.4056 36.4279 28.254 33.9001 31.3456ZM33.0768 17.2218C32.8473 17.0068 32.4903 16.4458 32.7963 16.0924C33.1023 15.7391 33.361 16.0924 33.5249 16.2309C33.6888 16.3693 33.6852 16.1981 33.6305 16.107C33.4781 15.8804 33.4016 15.6112 33.412 15.3383C33.4215 15.2665 33.4477 15.1978 33.4885 15.1378C33.5293 15.0778 33.5834 15.0282 33.6467 14.9928C33.71 14.9575 33.7807 14.9374 33.8532 14.9341C33.9256 14.9308 33.9978 14.9445 34.064 14.974C34.2157 15.0941 34.3159 15.2673 34.3445 15.4585C34.3445 15.5824 34.4793 15.6116 34.5157 15.5533C34.5522 15.495 34.625 15.3565 34.6724 15.2618C34.7247 15.1341 34.8158 15.0261 34.9327 14.9529C35.0497 14.8797 35.1867 14.845 35.3244 14.8538C35.5011 14.875 35.665 14.9566 35.7884 15.0847C35.9119 15.2128 35.9873 15.3796 36.002 15.5569C35.9252 15.8113 35.7727 16.0362 35.5649 16.2017C35.4301 16.3074 35.5649 16.3912 35.6559 16.3984C35.815 16.441 35.9566 16.5328 36.0603 16.6607C36.1368 16.781 36.0311 17.0906 35.696 17.189C35.3789 17.2186 35.0597 17.1593 34.7744 17.0177C34.6214 16.974 34.6177 17.127 34.7416 17.189C34.8946 17.2765 35.0386 17.379 35.1714 17.495C35.288 17.6006 35.3718 17.8921 35.0184 18.1289C34.7452 18.311 34.2899 18.1034 33.9657 17.8884C33.8998 17.8311 33.8543 17.754 33.8359 17.6686C33.8175 17.5832 33.8273 17.4942 33.8637 17.4148C34.111 16.9714 34.3809 16.541 34.6724 16.1252C34.2647 16.4337 33.906 16.8022 33.6087 17.2181C33.503 17.3711 33.31 17.4367 33.0768 17.2218ZM23.8605 22.0633C23.6346 22.4859 23.2704 22.9631 22.8332 22.9194C22.2649 22.8611 22.1557 22.4968 22.2139 22.3183C22.2813 22.116 22.3731 21.9228 22.4872 21.7427C22.5819 21.6079 22.4872 21.4403 22.3269 21.5788C22.1666 21.7172 21.846 22.2126 21.398 22.2819C20.9499 22.3511 20.6184 22.0851 20.6184 21.9176C20.6479 21.7201 20.7443 21.5387 20.8916 21.4039C20.979 21.3565 21.0847 21.178 20.8588 21.138C20.5071 21.0778 20.1784 20.9229 19.908 20.6899C19.7988 20.4988 19.7666 20.2733 19.8181 20.0593C19.8695 19.8454 20.0007 19.6591 20.1849 19.5387C20.3468 19.4465 20.5322 19.404 20.718 19.4163C20.9039 19.4286 21.0821 19.4952 21.2304 19.6079C21.3542 19.6844 21.5327 19.7937 21.6165 19.8374C21.7003 19.8811 21.8132 19.7755 21.7477 19.637C21.6945 19.5281 21.6648 19.4093 21.6604 19.2882C21.656 19.1671 21.677 19.0464 21.7222 18.934C21.7855 18.8629 21.8636 18.8066 21.9509 18.7689C22.0383 18.7313 22.1329 18.7132 22.228 18.716C22.3231 18.7187 22.4165 18.7423 22.5015 18.785C22.5866 18.8277 22.6612 18.8885 22.7203 18.9631C22.9221 19.2394 23.0248 19.5757 23.0117 19.9176C23.0117 20.0487 23.1465 20.2381 23.2194 19.9941C23.2922 19.75 23.3469 19.2254 23.9479 19.4367C24.549 19.648 24.5308 20.4567 24.4178 20.821C24.3049 21.1853 25.0881 21.8593 24.8513 21.7245C24.1228 21.3165 22.4835 20.6024 21.8242 20.5405C22.4468 20.8229 23.0547 21.1366 23.6456 21.4804C23.7425 21.5385 23.8166 21.6279 23.8557 21.734C23.8948 21.84 23.8965 21.9562 23.8605 22.0633ZM11.0706 13.3529C11.3325 13.3556 11.5871 13.4396 11.7991 13.5933C11.9339 13.6917 11.9776 13.5278 11.9594 13.4549C11.9582 13.2937 12.0065 13.136 12.0978 13.0032C12.1926 12.8975 12.5095 12.9157 12.6916 13.1999C12.8056 13.4893 12.8359 13.8049 12.7791 14.1106C12.7791 14.2673 12.9248 14.2272 12.9503 14.1106C12.9831 13.9392 13.0344 13.7719 13.1033 13.6116C13.1688 13.4731 13.4202 13.3165 13.7408 13.5824C13.9812 13.7901 13.9083 14.2637 13.7954 14.6352C13.7592 14.7128 13.6988 14.7765 13.6232 14.8166C13.5476 14.8567 13.461 14.871 13.3765 14.8575C12.8945 14.7465 12.419 14.6091 11.9521 14.4458C12.3494 14.7448 12.7889 14.9829 13.2563 15.1525C13.442 15.2254 13.5513 15.382 13.4093 15.6589C13.2672 15.9358 12.841 16.4167 12.4293 16.2272C12.0177 16.0378 12.2691 15.6953 12.3638 15.4986C12.4585 15.3019 12.2909 15.3565 12.2181 15.433C12.0478 15.6378 11.8169 15.7833 11.5587 15.8483C11.4887 15.8587 11.4173 15.8525 11.3501 15.8304C11.2829 15.8083 11.2217 15.7708 11.1715 15.721C11.1213 15.6711 11.0834 15.6102 11.0609 15.5432C11.0383 15.4761 11.0316 15.4048 11.0414 15.3347C11.1084 15.162 11.2387 15.0213 11.4057 14.9412C11.515 14.8902 11.5114 14.77 11.4494 14.7518C11.3875 14.7336 11.2345 14.7045 11.1325 14.6826C11.0036 14.6663 10.8827 14.6113 10.7857 14.5248C10.6888 14.4383 10.6204 14.3243 10.5897 14.1981C10.5587 14.0232 10.5898 13.8431 10.6777 13.6887C10.7655 13.5344 10.9044 13.4156 11.0706 13.3529ZM28.4031 9.66621C28.1736 9.27641 27.9659 8.75546 28.1845 8.45674C28.4759 8.06694 28.8038 8.17987 28.9131 8.32195C29.038 8.47805 29.1466 8.6465 29.2373 8.82468C29.2992 8.96676 29.4741 8.97404 29.4304 8.79554C29.3866 8.61703 29.1644 8.10701 29.2919 7.73907C29.4194 7.37113 29.7764 7.26548 29.9112 7.37477C30.0503 7.50012 30.1471 7.66562 30.1881 7.84836C30.1881 7.93579 30.2791 8.11066 30.4066 7.96494C30.605 7.73757 30.8681 7.57616 31.1607 7.50228C31.3621 7.52932 31.548 7.62482 31.6873 7.77275C31.8266 7.92068 31.9108 8.11202 31.9257 8.31466C31.93 8.47372 31.8836 8.63001 31.7932 8.76098C31.7028 8.89194 31.5732 8.99079 31.423 9.04326C31.3101 9.09062 31.1498 9.16712 31.0806 9.20355C31.0113 9.23998 31.0405 9.37841 31.1789 9.40756C31.3981 9.45454 31.5902 9.58526 31.7144 9.77186C31.7464 9.84925 31.7595 9.93313 31.7526 10.0166C31.7458 10.1 31.7192 10.1807 31.6751 10.2518C31.631 10.323 31.5706 10.3826 31.4989 10.4259C31.4272 10.4691 31.3462 10.4947 31.2627 10.5005C30.9516 10.4913 30.6516 10.3828 30.4066 10.1908C30.3083 10.1216 30.1043 10.1216 30.2609 10.3037C30.4176 10.4859 30.7928 10.8028 30.3775 11.127C29.9622 11.4513 29.3393 11.0178 29.1098 10.7445C28.8803 10.4713 28.9604 10.26 29.1499 10.1289C29.6356 9.81277 30.0714 9.42601 30.4431 8.98133C29.9555 9.28932 29.4521 9.57143 28.9349 9.8265C28.8411 9.86284 28.7378 9.86681 28.6415 9.83777C28.5451 9.80874 28.4612 9.74835 28.4031 9.66621ZM28.0679 28.3328C27.8967 28.9558 27.3977 28.6971 27.139 28.5988C26.8804 28.5004 26.9678 28.7409 27.0807 28.8174C27.3863 29.01 27.6214 29.2962 27.751 29.6334C27.7803 29.728 27.7879 29.8279 27.7733 29.9258C27.7587 30.0237 27.7222 30.1171 27.6665 30.199C27.6109 30.2809 27.5375 30.3492 27.4519 30.3989C27.3662 30.4485 27.2705 30.4782 27.1718 30.4858C27.0498 30.457 26.9348 30.4041 26.8335 30.3303C26.7322 30.2565 26.6466 30.1632 26.5817 30.056C26.4979 29.9139 26.3376 29.9467 26.3267 30.056C26.3158 30.1653 26.3012 30.362 26.2975 30.5113C26.3107 30.7257 26.2485 30.9379 26.1219 31.1113C25.9952 31.2847 25.8119 31.4085 25.6038 31.4612C25.3956 31.5139 25.1756 31.4922 24.9816 31.3999C24.7877 31.3077 24.6321 31.1506 24.5417 30.9558C24.4967 30.593 24.5574 30.2248 24.7166 29.8957C24.8186 29.6807 24.5963 29.6662 24.5016 29.7063C24.292 29.7486 24.0743 29.7204 23.8824 29.6261C23.7257 29.5205 23.6856 29.076 24.0281 28.7518C24.3705 28.4276 25.0043 28.4385 25.212 28.3875C25.4196 28.3365 25.3395 28.158 25.1573 28.158C24.9303 28.1441 24.7055 28.105 24.4871 28.0414C24.2903 27.9868 24.0353 27.6771 24.3304 27.1634C24.549 26.7992 25.1683 26.7554 25.6746 26.8174C25.8023 26.8683 25.9099 26.9595 25.981 27.0773C26.052 27.195 26.0826 27.3327 26.068 27.4695C26.0149 28.1291 25.9286 28.7857 25.8094 29.4367C26.1155 28.8386 26.3373 28.2011 26.4688 27.5423C26.5453 27.2145 26.7383 26.9777 27.1281 27.1015C27.5179 27.2254 28.2392 27.7099 28.0679 28.3328Z" fill="#2E8647"/>
</svg>
