<svg width="67" height="67" viewBox="0 0 67 67" fill="none" xmlns="http://www.w3.org/2000/svg">
<path d="M42.8 41.4001C47.4392 41.4001 51.2 37.6393 51.2 33.0001C51.2 28.3609 47.4392 24.6001 42.8 24.6001C38.1608 24.6001 34.4 28.3609 34.4 33.0001C34.4 37.6393 38.1608 41.4001 42.8 41.4001Z" stroke="#2E8647" stroke-width="2" stroke-linecap="round" stroke-linejoin="round"/>
<path d="M48.4001 39.2441V54.0002L42.8001 51.2002L37.2001 54.0002V39.2441" stroke="#2E8647" stroke-width="2" stroke-linecap="round" stroke-linejoin="round"/>
<path d="M48.4 48.4H54C57.094 48.4 59.6 45.894 59.6 42.8V17.6C59.6 14.506 57.094 12 54 12H12C8.906 12 6.4 14.506 6.4 17.6V42.8C6.4 45.894 8.906 48.4 12 48.4H37.2" stroke="#2E8647" stroke-width="2" stroke-linecap="round" stroke-linejoin="round"/>
</svg>
