<svg width="67" height="67" viewBox="0 0 67 67" fill="none" xmlns="http://www.w3.org/2000/svg">
<path d="M10.7777 58H55.2222" stroke="#2E8647" stroke-width="2" stroke-linecap="round" stroke-linejoin="round"/>
<path d="M49.2778 32.4443C49.5278 33.4999 49.6667 34.6388 49.6667 35.7777C49.6667 43.4444 43.4445 49.6666 35.7778 49.6666V57.9999" stroke="#2E8647" stroke-width="2" stroke-linecap="round" stroke-linejoin="round"/>
<path d="M46.8891 32.9998C49.9573 32.9998 52.4446 30.5125 52.4446 27.4442C52.4446 24.376 49.9573 21.8887 46.8891 21.8887C43.8208 21.8887 41.3335 24.376 41.3335 27.4442C41.3335 30.5125 43.8208 32.9998 46.8891 32.9998Z" stroke="#2E8647" stroke-width="2" stroke-linecap="round" stroke-linejoin="round"/>
<path d="M50.8056 23.5279L55.2222 19.1111L44.1111 8L24.6666 27.4444L35.7777 38.5556L42.9723 31.361" stroke="#2E8647" stroke-width="2" stroke-linecap="round" stroke-linejoin="round"/>
<path d="M27.4445 30.2222L21.8889 35.7777L27.4445 41.3333L33 35.7777" stroke="#2E8647" stroke-width="2" stroke-linecap="round" stroke-linejoin="round"/>
<path d="M10.7777 49.6665H24.6666" stroke="#2E8647" stroke-width="2" stroke-linecap="round" stroke-linejoin="round"/>
<path d="M21.8891 57.9998L19.1113 55.2221L16.3335 49.6665" stroke="#2E8647" stroke-width="2" stroke-linecap="round" stroke-linejoin="round"/>
</svg>
