<svg width="160" height="160" viewBox="0 0 160 160" fill="none" xmlns="http://www.w3.org/2000/svg">
<path d="M149.528 72.1104C152.302 77.0044 152.302 82.9956 149.528 87.8896L135.755 112.19L121.597 136.268C118.745 141.118 113.557 144.113 107.931 144.158L80 144.38L52.0685 144.158C46.4432 144.113 41.2547 141.118 38.4033 136.268L24.2453 112.19L10.4718 87.8896C7.6979 82.9956 7.6979 77.0044 10.4718 72.1104L24.2453 47.81L38.4033 23.7316C41.2547 18.8823 46.4432 15.8867 52.0685 15.842L80 15.62L107.931 15.842C113.557 15.8868 118.745 18.8824 121.597 23.7316L135.755 47.81L149.528 72.1104Z" fill="#843DCC">
                                    <animate attributeName="d" values="M149.528 72.1104C152.302 77.0044 152.302 82.9956 149.528 87.8896L135.755 112.19L121.597 136.268C118.745 141.118 113.557 144.113 107.931 144.158L80 144.38L52.0685 144.158C46.4432 144.113 41.2547 141.118 38.4033 136.268L24.2453 112.19L10.4718 87.8896C7.6979 82.9956 7.6979 77.0044 10.4718 72.1104L24.2453 47.81L38.4033 23.7316C41.2547 18.8823 46.4432 15.8867 52.0685 15.842L80 15.62L107.931 15.842C113.557 15.8868 118.745 18.8824 121.597 23.7316L135.755 47.81L149.528 72.1104Z;M72.1104 10.4718C77.0044 7.6979 82.9956 7.69791 87.8896 10.4718L112.19 24.2453L136.268 38.4033C141.118 41.2547 144.113 46.4432 144.158 52.0685L144.38 80L144.158 107.932C144.113 113.557 141.118 118.745 136.268 121.597L112.19 135.755L87.8896 149.528C82.9956 152.302 77.0044 152.302 72.1104 149.528L47.81 135.755L23.7316 121.597C18.8823 118.745 15.8868 113.557 15.842 107.931L15.62 80L15.842 52.0685C15.8868 46.4432 18.8824 41.2547 23.7316 38.4033L47.81 24.2453L72.1104 10.4718Z;M149.528 72.1104C152.302 77.0044 152.302 82.9956 149.528 87.8896L135.755 112.19L121.597 136.268C118.745 141.118 113.557 144.113 107.931 144.158L80 144.38L52.0685 144.158C46.4432 144.113 41.2547 141.118 38.4033 136.268L24.2453 112.19L10.4718 87.8896C7.6979 82.9956 7.6979 77.0044 10.4718 72.1104L24.2453 47.81L38.4033 23.7316C41.2547 18.8823 46.4432 15.8867 52.0685 15.842L80 15.62L107.931 15.842C113.557 15.8868 118.745 18.8824 121.597 23.7316L135.755 47.81L149.528 72.1104Z" begin="0s" dur="3s" repeatCount="indefinite" calcMode="linear" keyTimes="0;0.5;1"/>
                                    <animate attributeName="fill-opacity" values="1;0.1;1" begin="0s" dur="3s" repeatCount="indefinite" calcMode="linear" keyTimes="0;0.5;1"/></path>
</svg>