<svg width="160" height="160" viewBox="0 0 160 160" fill="none" xmlns="http://www.w3.org/2000/svg">
<g clip-path="url(#clip0_10101_1900)">
<rect x="7" y="7" width="146" height="146" rx="73" fill="white"/>
<ellipse cx="80" cy="80" rx="80" ry="80" fill="#843DCC" fill-opacity="0.1"/>
<path d="M192 80C192 102.152 185.431 123.806 173.125 142.224C160.818 160.642 143.326 174.997 122.861 183.475C102.395 191.952 79.8758 194.169 58.1499 189.848C36.424 185.526 16.4675 174.859 0.80404 159.196C-14.8594 143.532 -25.5264 123.576 -29.848 101.85C-34.1695 80.1242 -31.9515 57.6048 -23.4745 37.1395C-14.9975 16.6741 -0.642171 -0.817879 17.7761 -13.1246C36.1944 -25.4313 57.8485 -32 80 -32L80 80L192 80Z" fill="url(#paint0_linear_10101_1900)" fill-opacity="0.4">
                                    <animate attributeName="d" values="M192 80C192 102.152 185.431 123.806 173.125 142.224C160.818 160.642 143.326 174.997 122.861 183.475C102.395 191.952 79.8758 194.169 58.1499 189.848C36.424 185.526 16.4675 174.859 0.80404 159.196C-14.8594 143.532 -25.5264 123.576 -29.848 101.85C-34.1695 80.1242 -31.9515 57.6048 -23.4745 37.1395C-14.9975 16.6741 -0.642171 -0.817879 17.7761 -13.1246C36.1944 -25.4313 57.8485 -32 80 -32L80 80L192 80Z;M80 192C57.8485 192 36.1944 185.431 17.7761 173.125C-0.64218 160.818 -14.9975 143.326 -23.4745 122.861C-31.9515 102.395 -34.1695 79.8757 -29.848 58.1499C-25.5264 36.424 -14.8594 16.4675 0.80404 0.804032C16.4675 -14.8594 36.424 -25.5264 58.1499 -29.848C79.8758 -34.1695 102.395 -31.9515 122.861 -23.4745C143.326 -14.9975 160.818 -0.642172 173.125 17.7761C185.431 36.1944 192 57.8485 192 80L80 80L80 192Z;M-32 80C-32 57.8485 -25.4313 36.1944 -13.1246 17.7761C-0.817861 -0.642188 16.6741 -14.9975 37.1395 -23.4745C57.6048 -31.9515 80.1243 -34.1695 101.85 -29.848C123.576 -25.5264 143.532 -14.8594 159.196 0.804038C174.859 16.4675 185.526 36.424 189.848 58.1499C194.17 79.8758 191.952 102.395 183.475 122.861C174.997 143.326 160.642 160.818 142.224 173.125C123.806 185.431 102.152 192 80 192L80 80L-32 80Z;M80 -32C102.151 -32 123.806 -25.4313 142.224 -13.1246C160.642 -0.817887 174.997 16.6741 183.475 37.1394C191.952 57.6048 194.169 80.1242 189.848 101.85C185.526 123.576 174.859 143.532 159.196 159.196C143.532 174.859 123.576 185.526 101.85 189.848C80.1242 194.169 57.6048 191.952 37.1395 183.475C16.6741 174.997 -0.817881 160.642 -13.1246 142.224C-25.4313 123.806 -32 102.152 -32 80L80 80L80 -32Z;M192 80C192 102.152 185.431 123.806 173.125 142.224C160.818 160.642 143.326 174.997 122.861 183.475C102.395 191.952 79.8758 194.169 58.1499 189.848C36.424 185.526 16.4675 174.859 0.80404 159.196C-14.8594 143.532 -25.5264 123.576 -29.848 101.85C-34.1695 80.1242 -31.9515 57.6048 -23.4745 37.1395C-14.9975 16.6741 -0.642171 -0.817879 17.7761 -13.1246C36.1944 -25.4313 57.8485 -32 80 -32L80 80L192 80Z" begin="0s" dur="4.5s" repeatCount="indefinite" calcMode="linear" keyTimes="0;0.25;0.5;0.75;1"/></path>
<path d="M75.2447 44.6352C76.7415 40.0287 83.2585 40.0287 84.7553 44.6353L90.1031 61.0942C90.7725 63.1543 92.6923 64.5491 94.8584 64.5491H112.164C117.008 64.5491 119.022 70.7472 115.103 73.5942L101.102 83.7664C99.3501 85.0397 98.6168 87.2965 99.2861 89.3566L104.634 105.816C106.131 110.422 100.858 114.253 96.9398 111.406L82.9389 101.234C81.1865 99.9603 78.8135 99.9603 77.0611 101.234L63.0602 111.406C59.1417 114.253 53.8693 110.422 55.366 105.816L60.7139 89.3566C61.3832 87.2965 60.6499 85.0397 58.8975 83.7664L44.8967 73.5942C40.9781 70.7472 42.992 64.5491 47.8356 64.5491H65.1416C67.3077 64.5491 69.2275 63.1543 69.8969 61.0942L75.2447 44.6352Z" fill="#2A71FF"/>
</g>
<defs>
<linearGradient id="paint0_linear_10101_1900" x1="162.5" y1="80" x2="80" y2="80" gradientUnits="userSpaceOnUse">
<stop stop-color="#843DCC"/>
<stop offset="1" stop-color="#843DCC" stop-opacity="0"/>

                                    
                                    <animate attributeName="x1" values="162.5;80;-2.49998;80;162.5" begin="0s" dur="4.5s" repeatCount="indefinite" calcMode="linear" keyTimes="0;0.25;0.5;0.75;1"/>
                                    <animate attributeName="y1" values="80;162.5;80;-2.49999;80" begin="0s" dur="4.5s" repeatCount="indefinite" calcMode="linear" keyTimes="0;0.25;0.5;0.75;1"/></linearGradient>
<clipPath id="clip0_10101_1900">
<rect x="7" y="7" width="146" height="146" rx="73" fill="white"/>
</clipPath>
</defs>
</svg>