<svg width="120" height="120" viewBox="0 0 120 120" fill="none" xmlns="http://www.w3.org/2000/svg">
<path d="M13.78 77.7969H14.6931V87.7955H12.0861V83.3517L9.96233 85.5736H9.67746L7.56895 83.3517V87.7955H4.96191V77.7969H5.90045L9.80464 82.1187L13.78 77.7969Z" fill="white"/>
<path d="M18.1527 87.8092H17.2422V77.8258H19.8492V82.712L24.9005 77.7852H25.8263V87.7965H23.1837V82.8976L18.1527 87.8092Z" fill="white"/>
<path d="M28.3828 87.7959V77.8252H30.9746V81.6004H31.1603C33.7037 81.6004 33.5816 79.6912 33.5816 77.8252H36.2039C36.2039 79.859 36.2624 81.7428 34.2811 83.0088L36.9873 87.3967V87.7959H34.1539L31.9589 83.9367C31.6329 83.9828 31.3037 84.0015 30.9746 83.9927V87.806L28.3828 87.7959Z" fill="white"/>
<path d="M42.9714 77.7139C45.0366 77.7139 47.2723 78.8375 47.6589 81.5018H45.1511C44.795 80.4849 44.0396 80.0349 42.9714 80.0349C41.4758 80.0349 40.4915 81.1586 40.4915 82.8111C40.4915 84.2779 41.4606 85.5592 42.9714 85.5745C44.0523 85.5745 44.9222 85.033 45.1943 83.9652H47.7022C47.3308 86.7846 45.0926 87.8955 42.9714 87.8955C40.4279 87.8955 37.8692 86.1999 37.8565 82.8111C37.8438 79.4223 40.4355 77.7139 42.9714 77.7139Z" fill="white"/>
<path d="M53.5703 87.7959V77.8252H57.9654C62.7394 77.8404 62.7394 85.246 57.9654 85.246H56.1265V87.7882L53.5703 87.7959ZM57.9425 80.1056C57.3448 80.0903 56.7038 80.1056 56.1188 80.1056V82.9529H57.9425C59.3389 82.9529 59.4253 80.1183 57.9425 80.1056Z" fill="white"/>
<path d="M62.8438 82.8262C62.8438 75.9316 73.0735 75.9316 73.0735 82.8262C73.0735 89.7207 62.8438 89.7309 62.8438 82.8262ZM70.4741 82.8262C70.4741 79.2365 65.4737 79.2365 65.4737 82.8262C65.4737 86.4158 70.4665 86.4413 70.4665 82.8262H70.4741Z" fill="white"/>
<path d="M79.5106 77.7139C81.5784 77.7139 83.8141 78.8375 84.1982 81.5018H81.6929C81.3343 80.4849 80.5814 80.0349 79.5106 80.0349C78.0151 80.0349 77.0333 81.1586 77.0333 82.8111C77.0333 84.2779 78.0023 85.5592 79.5106 85.5745C80.5941 85.5745 81.464 85.033 81.7336 83.9652H84.2414C83.8726 86.7846 81.6344 87.8955 79.5106 87.8955C76.9672 87.8955 74.4237 86.1999 74.3957 82.8111C74.3678 79.4223 76.9748 77.7139 79.5106 77.7139Z" fill="white"/>
<path d="M90.7097 77.7139C92.7749 77.7139 95.0132 78.8375 95.3972 81.5018H92.8894C92.5333 80.4849 91.7779 80.0349 90.7097 80.0349C89.2141 80.0349 88.2298 81.1586 88.2298 82.8111C88.2298 84.2779 89.1989 85.5592 90.7097 85.5745C91.7932 85.5745 92.6605 85.033 92.9326 83.9652H95.4405C95.0691 86.7846 92.8334 87.8955 90.7097 87.8955C88.1662 87.8955 85.6101 86.1999 85.5948 82.8111C85.5795 79.4223 88.1738 77.7139 90.7097 77.7139Z" fill="white"/>
<path d="M98.3164 87.8092H97.4033V77.8258H100.01V82.712L105.054 77.7852H105.982V87.7965H103.345V82.8976L98.3164 87.8092Z" fill="white"/>
<path d="M109.5 84.2621C106.977 82.5538 107.689 77.8404 111.609 77.8252H115.983V87.7959H113.44V84.8621H112.115L110.406 87.7959H107.547V87.4247L109.5 84.2621ZM113.432 82.569V80.1056C112.835 80.1056 112.206 80.0903 111.609 80.1056C110.154 80.1056 110.225 82.569 111.609 82.569H113.432Z" fill="white"/>
<path d="M58.4866 42.8054L58.8859 43.2046C58.76 43.0645 58.6267 42.9312 58.4866 42.8054ZM58.4866 42.8054L51.2377 35.5575C50.4279 34.7446 49.465 34.1001 48.4047 33.6611C47.3443 33.2221 46.2074 32.9975 45.0597 33C44.8054 33 44.551 33.0153 44.2967 33.0382C44.1848 33.0382 44.0779 33.0636 43.9686 33.0763C43.8592 33.089 43.6964 33.1144 43.5616 33.1373C43.4268 33.1602 43.2793 33.1907 43.1394 33.2212L42.8698 33.2898C42.7096 33.3305 42.5493 33.3712 42.3916 33.422C40.6385 33.9852 39.109 35.0892 38.0228 36.5755C36.9365 38.0618 36.3495 39.8539 36.3459 41.6945C36.3942 40.8759 36.7477 37.6447 39.225 36.2388C41.2089 35.1126 42.9232 36.0939 44.0576 37.1642L45.0216 38.1252L47.1123 40.2149C47.1805 40.2931 47.2536 40.3669 47.331 40.4361C47.8651 40.9064 49.4115 41.9131 52.2475 41.0259C55.1546 40.1158 57.5709 41.9512 58.4916 42.8054M102.928 64.4475L101.323 65.9729C101.087 66.2028 100.831 66.4129 100.56 66.6008C100.543 66.6111 100.527 66.623 100.512 66.6364C100.456 66.6745 100.405 66.705 100.359 66.7305C100.207 66.812 100.043 66.8694 99.8735 66.9008C99.2213 66.984 98.5618 66.8178 98.027 66.4356C97.7807 66.2741 97.5492 66.0912 97.3352 65.889L97.1775 65.7314C95.6743 64.206 93.871 62.4036 91.9532 60.4893L95.481 56.9632C97.0478 58.5292 98.5331 60.0139 99.7565 61.2316C100.85 62.3324 101.921 63.4154 102.931 64.4374M99.3038 52.0058L95.4886 48.1721L95.5115 48.1492C95.5115 48.1492 97.2741 45.9044 99.3267 45.9044H99.3597C100.614 45.8739 101.69 46.5756 102.475 47.3255L103.254 48.1035L102.804 48.5484L99.3012 52.0033M94.9138 56.414C93.6624 57.6674 92.4594 58.8699 91.386 59.9401C90.1296 58.669 88.8426 57.3979 87.5709 56.1268L88.4916 55.209L91.0961 52.5931C92.3678 53.8642 93.6599 55.1607 94.9113 56.4064M90.5213 52.0287L87.9193 54.6421L86.9986 55.5573L86.3627 54.9243C85.6277 54.187 84.8214 53.3761 84.0075 52.5626C85.2258 51.3626 86.4212 50.183 87.5302 49.0848L90.5213 52.0287ZM87.1054 48.6628L83.5853 52.1355L79.6175 48.1467L80.2559 47.501C80.9706 46.873 82.2067 46.0519 83.6158 46.301H83.6794H83.7099C84.6525 46.5175 85.5084 47.0116 86.1669 47.7196L87.1029 48.6475M79.1928 56.5132L75.6879 60.0164C74.3856 58.7122 73.0452 57.3725 71.7252 56.0581L72.6663 55.12L75.2301 52.5473L75.2479 52.5626C76.5552 53.8718 77.8981 55.2141 79.1928 56.5132ZM74.8028 52.1253L72.2441 54.7107L71.303 55.6488L70.5756 54.9243C69.8125 54.1616 68.9706 53.3151 68.1262 52.466L71.626 49.011C72.6434 50.0051 73.7116 51.0652 74.8053 52.1405M71.3411 48.7289C70.2398 49.8195 69.052 50.9915 67.8439 52.1812C66.3178 50.6559 64.7918 49.1305 63.7362 48.0501C63.7947 47.9891 63.8507 47.9382 63.9066 47.8823C64.3187 47.4908 65.4022 46.5425 66.4221 46.3086C66.576 46.2801 66.7314 46.2606 66.8876 46.2502C66.9817 46.2502 67.0605 46.2502 67.1292 46.2502C68.1135 46.2502 69.2199 46.6239 70.3416 47.7425L71.3411 48.7365M63.4565 56.5818C62.2203 57.8199 61.0325 59.0071 59.9694 60.0672C58.6214 58.7173 57.2301 57.3267 55.8668 55.9666C56.1695 55.6641 56.4721 55.3641 56.7621 55.0717L59.3513 52.4736C59.3895 52.5117 59.4276 52.5473 59.4632 52.5854L63.4539 56.5666M59.0639 52.1787L56.4772 54.787L55.5819 55.6793L54.8189 54.9167L52.2755 52.3744L55.7651 48.9399C56.8053 49.9568 57.927 51.0677 59.0715 52.1863M55.6303 48.7975L52.1534 52.2295L49.6659 49.728L47.9084 47.9484L48.2746 47.5772C48.8189 47.0688 49.9253 46.2527 51.3064 46.24C52.3009 46.24 53.4251 46.5959 54.5595 47.7323L55.6303 48.795M47.9058 56.7598L51.2123 60.0647L47.6642 63.6035L44.3577 60.2986C45.4336 59.2258 46.6468 58.0233 47.8931 56.7674M47.7507 56.6251C46.4967 57.8809 45.2937 59.0859 44.2178 60.1588C42.9207 58.8571 41.5828 57.5199 40.2653 56.2056L39.9754 55.9158L40.8935 55.0006L43.5031 52.3795L44.1161 52.9846L45.0699 53.9404L47.7507 56.6251ZM43.3658 52.2448L40.7562 54.8658L39.838 55.781L38.3806 54.3014L37.6634 53.582C37.2145 53.1106 36.9678 52.4825 36.9759 51.8318C36.984 51.181 37.2462 50.5593 37.7066 50.0991C37.9367 49.8686 38.2101 49.6857 38.511 49.5609C38.8119 49.4361 39.1345 49.3719 39.4603 49.3719C39.7861 49.3719 40.1087 49.4361 40.4096 49.5609C40.7105 49.6857 40.9839 49.8686 41.214 50.0991L41.242 50.1271L41.6922 50.5771L43.3658 52.2448ZM36.5519 61.2621C37.643 62.3603 38.7138 63.4459 39.7235 64.4679L38.7698 65.4187C38.5332 65.6424 38.3247 65.8432 38.1542 66.0085C37.9182 66.239 37.6629 66.4491 37.3912 66.6364L37.3403 66.6694C37.2818 66.7076 37.231 66.7355 37.1852 66.7635C37.0332 66.8429 36.8704 66.8994 36.7019 66.9313C36.0496 67.0173 35.389 66.8509 34.8554 66.4661C34.6084 66.3046 34.376 66.1217 34.161 65.9195L34.0059 65.7619L32.0805 63.8272C33.2352 62.6654 34.4179 61.4807 35.593 60.3037L36.5493 61.2596M35.4506 60.1638C34.2755 61.3384 33.0953 62.5256 31.9406 63.6849C30.2238 61.9612 28.2908 60.024 26.345 58.0716L21.8736 53.5896C21.6379 53.3619 21.4498 53.0895 21.3204 52.7884C21.1911 52.4872 21.123 52.1633 21.1202 51.8356C21.1174 51.5079 21.1799 51.1829 21.3041 50.8796C21.4283 50.5763 21.6116 50.3007 21.8435 50.069C22.0753 49.8372 22.351 49.654 22.6545 49.5298C22.9579 49.4057 23.2831 49.3433 23.611 49.3461C23.9388 49.3489 24.2629 49.4169 24.5641 49.5462C24.8654 49.6755 25.138 49.8635 25.3658 50.0991L25.3938 50.1271L25.844 50.5771L28.2831 52.982L30.4959 55.1989C32.2509 56.9581 33.9703 58.6766 35.4506 60.1562M47.944 63.8908C49.1114 62.7163 50.3018 61.5239 51.4768 60.3316L52.3874 61.2392C53.4429 62.3044 54.4806 63.3518 55.4599 64.3458L53.2878 66.5169C53.2521 66.5525 53.2165 66.5805 53.1784 66.6161L53.1326 66.6466C53.0766 66.6847 53.0258 66.7127 52.98 66.7406C52.8274 66.8205 52.6636 66.8771 52.4942 66.9084C51.8419 66.9939 51.1815 66.8276 50.6477 66.4432C50.4018 66.2811 50.1704 66.0982 49.9558 65.8966L49.7981 65.739L47.9465 63.8755M60.2492 60.3164C61.3123 59.2563 62.5001 58.069 63.7362 56.831L66.9181 60.0088C65.7506 61.1782 64.5781 62.3553 63.431 63.5094L60.2542 60.3418M63.8583 63.9594C65.0054 62.8052 66.1805 61.6282 67.3479 60.4587L68.1415 61.2494C69.1894 62.3044 70.2195 63.3442 71.1936 64.3306L69.4132 66.1101C68.9605 66.5118 68.1924 67.0406 67.4242 66.8728C67.3469 66.8505 67.2698 66.8276 67.1928 66.8042C67.1317 66.7813 67.0681 66.7584 67.002 66.7279H66.9868C66.8108 66.6507 66.6408 66.5606 66.4781 66.4584C66.2322 66.2964 66.0008 66.1135 65.7862 65.9119L65.6286 65.7542C65.0741 65.1949 64.4764 64.5924 63.8481 63.9747M76.1101 60.4715L79.615 56.9683L82.6086 59.9579L79.1037 63.4738L76.1152 60.4562M79.676 64.0153L83.1834 60.4969L83.9286 61.2392L86.9376 64.2899L85.5056 65.7186C84.2618 66.9618 83.4225 66.9237 83.1631 66.8728C82.8347 66.7827 82.5223 66.642 82.2373 66.4559C81.9902 66.2944 81.7579 66.1115 81.5429 65.9093L81.3877 65.7517L79.6735 64.0281M120 60.4689C119.951 61.2875 119.6 64.5187 117.121 65.9271C115.137 67.0508 113.422 66.0695 112.288 64.9992L111.327 64.0382L109.236 61.9485L109.017 61.7299C108.966 61.6841 108.905 61.6358 108.837 61.5824C106.703 59.4444 104.386 57.1284 102.191 54.9396L99.8633 52.6058L103.363 49.1534L103.818 48.706L105.53 50.4169L105.751 50.6381C106.286 51.1109 107.829 52.1151 110.665 51.2279C113.573 50.3178 115.991 52.1533 116.912 53.0074L110.696 46.7713L109.317 45.3934C108.951 45.035 107.702 43.8681 106.321 43.3164C106.087 43.2325 105.835 43.1512 105.558 43.0825H105.523C104.817 42.9088 104.092 42.8234 103.366 42.8283H103.3C103.151 42.8207 103.003 42.8207 102.854 42.8283H102.783C102.631 42.8283 102.478 42.8283 102.32 42.8563L102.168 42.8741H102.122C101.969 42.8944 101.814 42.9173 101.656 42.9478C101.555 42.9656 101.456 42.9859 101.356 43.0088C98.963 43.5681 97.3428 45.1977 96.6611 45.8841C96.478 46.0544 96.2898 46.2324 96.1016 46.4205L96.0558 46.4663C95.9337 46.5807 95.8015 46.6976 95.6896 46.8222L94.9062 47.6154L94.3975 47.1069C94.2652 46.9747 94.1431 46.8527 94.0058 46.7281C93.8125 46.5349 93.6243 46.3569 93.4361 46.1841C92.3882 45.129 90.3407 43.1969 87.258 43.2198C87.141 43.2198 87.0291 43.2198 86.9172 43.2351C86.8053 43.2503 86.7086 43.2351 86.6018 43.2554C86.495 43.2758 86.3856 43.2834 86.2763 43.2986H86.2178H86.1694L85.999 43.3241L85.8998 43.3444C83.102 43.8681 80.9732 45.9451 80.9732 45.9451C80.785 46.1205 80.5942 46.301 80.3984 46.4968C80.2712 46.6163 80.144 46.751 80.0117 46.8705L79.1851 47.7069L78.5696 47.084C78.4374 46.9518 78.3153 46.8298 78.1805 46.7052C77.9872 46.512 77.799 46.3341 77.6133 46.1612C76.5705 45.1265 74.5255 43.1842 71.4454 43.2071C71.3284 43.2071 71.219 43.2071 71.1046 43.2224L70.8731 43.2376C71.2903 43.1969 73.9253 42.9427 70.7917 43.2376C70.6442 43.2529 70.5043 43.2732 70.3644 43.2961H70.2958C68.3653 43.6506 66.5934 44.5979 65.2267 46.0061C65.0385 46.1815 64.8477 46.362 64.6544 46.5552C64.5247 46.6773 64.4001 46.8095 64.2653 46.9315L63.4641 47.745L62.7977 47.0967C62.6654 46.9645 62.5434 46.8425 62.4086 46.7179C62.2152 46.5247 62.027 46.3468 61.8414 46.1739C60.7833 45.1265 58.7282 43.1842 55.6532 43.2071C55.5667 43.2071 55.4853 43.2071 55.3988 43.2071H55.3861C54.3305 43.2228 53.2903 43.462 52.334 43.9088L52.2678 43.9444C51.236 44.5054 50.3001 45.2271 49.4955 46.0824C49.3073 46.2553 49.119 46.4358 48.9257 46.629C48.796 46.7535 48.6714 46.8832 48.5341 47.0103L47.7583 47.7959C47.6464 47.684 47.5421 47.5798 47.4531 47.4857L47.0639 47.1069C46.8732 46.9162 46.685 46.7357 46.4967 46.5629C46.3085 46.39 46.0516 46.1434 45.7744 45.8892L45.6345 45.7494C44.0019 44.1181 41.7879 43.2017 39.4794 43.2017C37.1709 43.2017 34.9569 44.1181 33.3242 45.7494C32.8713 46.2046 32.4712 46.7095 32.1314 47.2544C32.1314 47.2722 32.1085 47.2849 32.0983 47.3027C32.0881 47.3205 32.0652 47.356 32.05 47.3815L31.9101 47.6204C31.8872 47.6586 31.8643 47.6967 31.844 47.7348C31.7651 47.6535 31.6837 47.5747 31.6176 47.5035L31.2284 47.1247C31.0377 46.934 30.8495 46.7535 30.6638 46.5807C30.4781 46.4078 30.2136 46.1434 29.9364 45.8892L29.7965 45.7494C28.8763 44.8213 27.7579 44.1133 26.5252 43.6785C25.2925 43.2437 23.9773 43.0932 22.6781 43.2385C21.379 43.3838 20.1295 43.8209 19.0234 44.5173C17.9172 45.2136 16.9831 46.1511 16.2908 47.2594L16.2603 47.3027C16.245 47.3281 16.2323 47.3535 16.217 47.3764C16.1661 47.4577 16.1178 47.5416 16.072 47.6306C16.0542 47.6586 16.0364 47.684 16.0212 47.712L15.8253 47.5111L15.4362 47.1323C15.2429 46.9417 15.0547 46.7612 14.869 46.5883C14.6833 46.4154 14.4213 46.1434 14.1441 45.8892L14.0042 45.7494C13.021 44.7629 11.8149 44.0272 10.4876 43.6043C9.1603 43.1814 7.75072 43.0838 6.37774 43.3196C5.00476 43.5553 3.70863 44.1177 2.59866 44.9591C1.48868 45.8005 0.59741 46.8964 0 48.1543C2.91225 43.202 5.7838 46.3112 5.7838 46.3112L10.0542 50.5796L12.4934 52.9846L14.8893 55.387C17.0335 57.5352 19.1191 59.6173 20.7596 61.2545C22.2602 62.7798 23.7304 64.2543 25.0377 65.5763C28.2679 68.8024 30.8698 69.4481 33.225 68.9702C33.225 68.9702 35.9211 68.538 37.4141 67.0177C37.5006 66.9415 37.5896 66.855 37.6684 66.7635L37.7117 66.7254L37.8007 66.6415L39.8584 64.6077L40.8147 65.5788C44.0449 68.8049 46.6468 69.4507 49.002 68.9727C50.2272 68.7493 51.3981 68.2928 52.451 67.6279C52.8612 67.4137 53.2354 67.1367 53.5599 66.8067L55.7295 64.6382L56.6527 65.5763C59.5014 68.4236 61.8643 69.26 63.9982 69.0897C65.8095 69.0108 67.5519 68.3732 68.9859 67.2643C69.3186 67.021 69.6262 66.7451 69.9041 66.4406L71.5395 64.806L71.5955 64.7526L72.4043 65.5737C75.6345 68.7998 78.2364 69.4456 80.5917 68.9651C80.5917 68.9651 80.7824 68.932 81.0851 68.8609C81.0851 68.8609 83.8091 68.3727 85.7014 66.6186C85.7695 66.5728 85.8303 66.5171 85.882 66.4534L87.4844 64.8517L88.194 65.5712C91.4216 68.7973 94.0261 69.443 96.3788 68.9625C96.3788 68.9625 99.0749 68.5278 100.57 67.0076C100.7 66.8906 100.825 66.7533 100.97 66.6313L103.043 64.5746C103.378 64.9128 103.704 65.2458 104.022 65.5687C104.34 65.8915 104.62 66.1432 104.912 66.4L105.098 66.5855C106.18 67.6697 107.531 68.447 109.012 68.838C109.17 68.8837 109.33 68.9244 109.485 68.9575L109.696 68.9956C109.834 69.021 109.968 69.0388 110.101 69.0566C110.489 69.111 110.881 69.1399 111.273 69.143C111.528 69.143 111.782 69.1278 112.049 69.1049C112.158 69.1049 112.265 69.0795 112.375 69.0668C112.484 69.0541 112.647 69.0286 112.782 69.0058C112.916 68.9829 113.064 68.9549 113.204 68.9219L113.473 68.8558C113.634 68.8125 113.794 68.7719 113.951 68.721C115.271 68.2986 116.47 67.5663 117.449 66.5855C117.695 66.3355 117.927 66.0715 118.143 65.7949C119.335 64.2699 119.984 62.3913 119.987 60.4562" fill="#E72048"/>
</svg>
