<svg width="120" height="120" viewBox="0 0 120 120" fill="none" xmlns="http://www.w3.org/2000/svg">
<path d="M106 14H14V106H106V14Z" fill="#FF0000"/>
<path d="M87.1433 96.9576H95.6933L80.7426 76.3402L94.3565 62.873H84.9154L70.3684 76.8801V62.873H63.0713V96.9576H70.3684V86.8874L75.8098 81.3831L87.1433 96.9576Z" fill="white"/>
<path d="M55.7749 56.9596V22.875H48.6088V36.3316H31.0004V22.875H23.8291V56.9596H31.0004V43.5029H48.6088V56.9596H55.7749Z" fill="white"/>
<path d="M95.2687 56.9596V22.875H63.0713V56.9596H70.3684V30.0463H88.0974V56.9596H95.2687Z" fill="white"/>
<path d="M53.5155 70.0391V62.873H23.8291V96.9471H45.453C48.255 96.9457 50.9417 95.8317 52.9225 93.8499C54.9033 91.8681 56.016 89.1809 56.016 86.3789C56.0132 83.5793 54.8991 80.8952 52.9185 78.9166C50.9378 76.9379 48.2527 75.8264 45.453 75.8264H31.0004V70.0601L53.5155 70.0391ZM48.8604 86.3894C48.8604 86.8364 48.7722 87.279 48.6009 87.6918C48.4295 88.1046 48.1783 88.4795 47.8618 88.7951C47.5453 89.1107 47.1695 89.3607 46.7562 89.5308C46.3429 89.7009 45.9 89.7877 45.453 89.7863H31.0004V82.9977H45.453C45.8996 82.9963 46.342 83.083 46.755 83.2528C47.168 83.4225 47.5435 83.6721 47.8599 83.9871C48.1764 84.3021 48.4277 84.6764 48.5994 85.0886C48.771 85.5009 48.8598 85.9429 48.8604 86.3894Z" fill="white"/>
</svg>
