<svg width="120" height="120" viewBox="0 0 120 120" fill="none" xmlns="http://www.w3.org/2000/svg">
<path d="M0 60.664L4.65941 56.1331L0 51.6039L2.20825 49.4566L9.05567 56.1331L2.20825 62.8006L0 60.664ZM0 68.9636L2.08864 70.9946L4.17911 68.9636L2.08864 66.9325L0 68.9636ZM9.62981 51.5055L11.7184 53.5294L13.8016 51.5055L11.7184 49.4655L9.62981 51.5055ZM11.6099 57.6595L4.75142 64.3271L11.6099 70.9946L13.8016 68.8634L9.14952 64.3271L13.8016 59.7961L11.6099 57.6595ZM98.061 54.7266C98.5912 55.9742 98.8548 57.3136 98.8358 58.6634V59.0947C98.8358 60.8352 98.5254 62.3402 97.9046 63.6095C97.3208 64.8331 96.4497 65.9063 95.3615 66.7429C94.2362 67.5839 92.9463 68.1928 91.5706 68.5323C90.0343 68.9204 88.4503 69.1011 86.8634 69.0692V70.9732H83.7295V69.0906C82.1431 69.1226 80.5598 68.942 79.0241 68.5538C77.6454 68.209 76.3511 67.6007 75.2167 66.7643C74.1159 65.9365 73.2382 64.8613 72.6588 63.631C72.0368 62.3521 71.7258 60.8418 71.7258 59.1V58.6759C71.7062 57.3217 71.9711 55.9778 72.5042 54.7266C73.0156 53.5543 73.7991 52.5131 74.7934 51.6845C75.8961 50.7857 77.1761 50.1159 78.5548 49.716C80.2343 49.2322 81.9779 48.991 83.7295 49.0003H86.8578C88.6128 48.9918 90.3591 49.2403 92.038 49.7375C93.4089 50.1427 94.6819 50.8121 95.781 51.7059C96.7714 52.5274 97.552 53.5615 98.061 54.7266ZM83.7295 51.5807C81.0563 51.5807 78.94 52.1951 77.3808 53.4238C75.8215 54.6526 75.0333 56.4755 75.0161 58.8924C75.0161 60.324 75.2535 61.5218 75.7283 62.4857C76.1643 63.3987 76.8193 64.1965 77.6384 64.812C78.4639 65.4212 79.4099 65.858 80.4171 66.0951C81.5009 66.3547 82.6133 66.4839 83.7295 66.4798V51.5807ZM95.5455 58.8924C95.5234 56.4969 94.7388 54.6842 93.1918 53.4542C91.6448 52.2243 89.5335 51.5998 86.8578 51.5807V66.4798C87.974 66.4839 89.0865 66.3547 90.1702 66.0951C91.1772 65.8604 92.1236 65.4267 92.9508 64.821C93.7679 64.2071 94.4186 63.4086 94.8462 62.4946C95.3161 61.5259 95.551 60.3252 95.551 58.8924H95.5455ZM39.5056 57.9977H23.021V49.4924H19.9258V70.9946H23.021V60.7034H39.5111V70.9946H42.6063V49.4924H39.5111L39.5056 57.9977ZM100.51 49.4924V52.1945H116.242L103.729 70.9946H107.487L120 52.1945V49.4924H100.51ZM68.8109 53.4542C69.1975 54.4341 69.3849 55.4775 69.363 56.5268C69.3457 57.5397 69.1316 58.5403 68.7318 59.4758C68.3836 60.2696 67.8477 60.9722 67.1676 61.5265C66.4626 62.0802 65.6484 62.4876 64.7753 62.7237C63.7711 63.0048 62.7306 63.144 61.6856 63.1371H50.1254V71H47.0284V49.4924H61.6856C62.7563 49.4797 63.8224 49.63 64.8453 49.9379C65.7386 50.2049 66.5625 50.6553 67.2615 51.2586C67.9427 51.8666 68.4726 52.6174 68.8109 53.4542ZM66.0782 56.3371C66.0782 55.0248 65.6672 54.006 64.8453 53.2807C64.0233 52.5553 62.9284 52.1915 61.5605 52.1891H50.1254V60.4207H61.5605C62.9296 60.4207 64.0245 60.0723 64.8453 59.3756C65.666 58.6789 66.077 57.6661 66.0782 56.3371Z" fill="url(#paint0_linear_10487_583)"/>
<defs>
<linearGradient id="paint0_linear_10487_583" x1="23.5749" y1="39.2065" x2="112.56" y2="92.0392" gradientUnits="userSpaceOnUse">
<stop stop-color="#1B98D5"/>
<stop offset="0.52" stop-color="#9F5686"/>
<stop offset="1" stop-color="#D92147"/>
</linearGradient>
</defs>
</svg>
