<svg width="120" height="120" viewBox="0 0 120 120" fill="none" xmlns="http://www.w3.org/2000/svg">
<mask id="mask0_10487_633" style="mask-type:alpha" maskUnits="userSpaceOnUse" x="28" y="18" width="54" height="57">
<path d="M28.4561 18.6982H81.5958L49.809 74.9924H28.4561V18.6982Z" fill="#C4C4C4"/>
</mask>
<g mask="url(#mask0_10487_633)">
<path d="M64.7258 38.5073C64.7258 31.5208 60.0956 27.2512 50.8353 27.2512H38.874V49.7633H51.2211C60.0956 49.7633 64.7258 45.4938 64.7258 38.5073ZM75.5296 38.5073C75.5296 50.9277 66.2692 58.6905 51.607 58.6905H38.874V74.9924H28.4561V18.7122H51.607C66.2692 18.324 75.5296 26.0868 75.5296 38.5073Z" fill="white"/>
</g>
<path d="M47.3828 79.3603L82.5666 17" stroke="white" stroke-width="2"/>
<path d="M33.1057 100.479L31.5066 96.9344L29.9075 100.479H33.1057ZM33.5419 101.755H29.326L28.4537 103.598H27L30.7797 95.375H32.3789L36.1586 103.598H34.5595L33.5419 101.755ZM50.8414 95.375L48.0793 103.598H46.4802L44.2996 97.5015L42.2643 103.598H40.5198L37.7577 95.375H39.3568L41.5374 101.613L43.7181 95.375H45.1718L47.207 101.613L49.3877 95.375H50.8414ZM58.6916 100.479L57.0925 96.9344L55.4934 100.479H58.6916ZM59.1278 101.755H54.9119L54.0397 103.598H52.4405L56.2203 95.375H57.8194L61.5991 103.598H60L59.1278 101.755ZM67.9956 96.6509H66.2511V99.9116H68.141C69.4493 99.9116 70.1762 99.3445 70.1762 98.2104C70.0308 97.3597 69.304 96.6509 67.9956 96.6509ZM70.1762 103.598L68.4317 101.187H66.2511V103.598H64.652V95.375H68.141C70.3216 95.375 71.7753 96.5091 71.7753 98.2104C71.7753 99.4863 71.1938 100.337 70.0308 100.762L71.9207 103.456L70.1762 103.598ZM78.8987 102.322C80.7885 102.322 81.9515 101.187 81.9515 99.4863C81.9515 97.785 80.7885 96.6509 78.8987 96.6509H76.8634V102.18H78.8987V102.322ZM75.2643 95.375H78.8987C81.6608 95.375 83.4053 97.0762 83.4053 99.4863C83.4053 101.896 81.5154 103.598 78.8987 103.598H75.2643V95.375ZM86.3128 102.747L86.8943 101.613C87.6212 102.18 88.6388 102.463 89.6564 102.463C90.9648 102.463 91.5463 102.038 91.5463 101.471C91.5463 99.7698 86.6035 100.904 86.6035 97.7851C86.6035 96.5091 87.6211 95.375 89.9471 95.375C90.9647 95.375 91.9824 95.6585 92.7093 96.0838L92.2731 97.218C91.5463 96.7927 90.674 96.5091 89.9471 96.5091C88.6388 96.5091 88.0573 96.9344 88.0573 97.6433C88.0573 99.3445 93 98.2104 93 101.187C93 102.463 91.837 103.598 89.6564 103.598C88.348 103.739 87.0396 103.314 86.3128 102.747Z" fill="white"/>
<circle cx="74.5587" cy="71.1105" r="7.27941" fill="#EC622D"/>
</svg>
