<svg width="120" height="120" viewBox="0 0 120 120" fill="none" xmlns="http://www.w3.org/2000/svg">
<path d="M14.3853 66.9137H18.4508L16.8246 44.5264H16.3367L14.3853 66.9137Z" fill="#51C8ED"/>
<path d="M34.9294 76.9418C34.9294 80.3026 33.9537 80.7905 32.0023 80.7905H30.1593V41.2196H32.0023C33.9537 41.2196 34.9294 41.7075 34.9294 45.0683V76.9418ZM31.7855 35.04H22.5161L28.4246 87.0242H33.4659C39.4286 87.0242 42.681 82.5793 42.681 77.5923V46.7487C42.681 37.6962 39.4828 35.04 31.7855 35.04Z" fill="#51C8ED"/>
<path d="M13.6804 73.6895L12 87.0243H20.6189L19.1553 73.6895H13.6804Z" fill="#51C8ED"/>
<path d="M69.2967 44.5264L67.3994 66.9137H71.4107L69.8387 44.5264H69.2967Z" fill="#51C8ED"/>
<path d="M69.2967 44.5264L67.3994 66.9137H71.4107L69.8387 44.5264H69.2967Z" fill="#51C8ED"/>
<path d="M50.1611 41.2734V60.8962C52.4378 60.8962 54.9313 60.6252 54.9313 58.5654V46.2062C54.8771 41.3819 53.3051 41.2734 50.1611 41.2734Z" fill="#51C8ED"/>
<path d="M80.3003 76.9414L81.4386 86.8612L80.3003 76.9414Z" fill="#51C8ED"/>
<path d="M69.2967 44.5264L67.3994 66.9137H71.4107L69.8387 44.5264H69.2967Z" fill="#51C8ED"/>
<path d="M66.6946 73.6895L65.0142 87.0243H73.633L72.1694 73.6895H66.6946Z" fill="#51C8ED"/>
<path d="M50.1611 67.0756V87.0237H58.0211L60.6772 63.8232C58.6174 66.3167 55.0939 67.0756 50.1611 67.0756Z" fill="#51C8ED"/>
<path d="M100.519 73.0389V78.5138C100.519 81.1699 99.7064 81.712 98.1886 81.712C96.5624 81.712 95.4241 81.1157 95.4241 78.5138V69.9491C95.4241 64.6911 82.9565 53.4703 82.9565 49.73V43.2795C82.9565 40.6775 84.0949 40.0813 85.7211 40.0813C86.9136 40.0813 88.052 40.6775 88.052 43.2795V50.0553C88.052 58.5657 100.519 65.721 100.519 73.0389ZM107.892 53.5787V42.629C107.892 39.3224 106.645 37.1541 104.802 35.8531C104.097 35.3111 103.23 35.04 102.308 35.04H93.0932H90.166H80.8425C79.8667 35.04 78.9452 35.3111 78.1863 35.9073C77.2648 36.612 76.4517 37.5878 75.9639 38.7803L78.1321 57.6984C81.8182 63.0649 87.7267 67.9977 87.7267 73.0389V78.5138C87.7267 81.1699 86.9136 81.712 85.3958 81.712C83.7696 81.712 83.0107 81.1157 83.0107 78.5138V67.1846H79.2705L80.4088 77.1044L81.5472 87.0242H89.7866H93.8521H99.3811H101.983C102.688 87.0242 103.447 86.8616 104.043 86.4822C106.374 85.1812 108 82.9045 108 79.1101V69.8949C108 64.6369 95.5325 53.4161 95.5325 49.6758V43.2252C95.5325 40.6233 96.6166 40.0271 98.1886 40.0271C99.4353 40.0271 100.519 40.6233 100.519 43.2252V53.5245L107.892 53.5787Z" fill="#51C8ED"/>
</svg>
