<svg width="120" height="120" viewBox="0 0 120 120" fill="none" xmlns="http://www.w3.org/2000/svg">
<path d="M29.1967 33.0171L34.8095 27.4043C36.6695 25.5443 39.1496 25.6585 40.7323 27.2248C41.956 28.4486 42.3802 29.8681 41.6949 31.4834L41.7276 31.516C43.1471 30.6839 44.5503 31.4507 45.6761 32.4297C46.3777 33.0497 47.5851 34.2734 48.5804 34.4529L46.2961 36.7372C45.3661 36.3619 44.3871 35.3177 43.4408 34.5998C42.1844 33.6697 41.287 33.6045 40.1286 34.7629L37.8443 37.0472L41.907 41.1099L39.6228 43.3942L29.1967 33.0171ZM36.1964 35.4482L38.7091 32.9355C39.737 31.9239 39.8512 30.9286 38.7906 29.8844C37.779 28.8728 36.7837 28.987 35.7721 30.0149L33.2758 32.5113L36.1964 35.4482ZM39.068 23.1621L46.8508 15.3793L48.7761 17.3046L43.2776 22.8032L45.5129 25.0385L50.5546 19.9968L52.3331 21.7752L47.2914 26.8006L49.8367 29.3459L55.4495 23.7332L57.3748 25.6585L49.4777 33.5555L39.068 23.1621ZM48.5151 13.715L53.002 9.22808C55.6942 6.5359 59.4143 6.19326 62.8733 9.6523C65.8918 12.6708 66.5934 16.4562 63.4118 19.6378L58.9248 24.1248L48.5151 13.715ZM59.2838 19.9152L61.3233 17.8757C62.6449 16.554 63.1018 14.4656 60.8012 12.165C58.6964 10.0602 56.6242 9.4565 54.3563 11.7245L52.7247 13.3561L59.2838 19.9152ZM44.9092 43.0352L47.2587 40.6857L61.5681 47.1959L59.1859 49.578L56.0858 48.0443L52.1862 51.9439L53.6873 55.0766L51.3704 57.3935L44.9092 43.0352ZM51.0767 49.6433L53.7689 46.9511L48.6293 44.4384L48.5967 44.4711L51.0767 49.6433ZM52.0557 35.8887L56.7548 31.1897C59.349 28.5954 62.0086 29.2317 63.6892 30.9286C65.386 32.6255 66.0224 35.2687 63.4281 37.863L61.0296 40.2615L64.766 43.9979L62.4818 46.2822L52.0557 35.8887ZM59.2348 38.4993L61.0133 36.7209C62.0739 35.6603 62.7918 34.4692 61.4702 33.1476C60.1485 31.826 58.9575 32.5439 57.8969 33.6045L56.1184 35.3829L59.2348 38.4993ZM61.7638 26.1643L66.4629 21.4652C69.0572 18.8709 71.7167 19.5073 73.3973 21.2042C75.0942 22.901 75.7305 25.5443 73.1362 28.1385L70.7378 30.5533L74.4742 34.2898L72.1899 36.574L61.7638 26.1643ZM68.9593 28.7749L70.7378 26.9964C71.7983 25.9359 72.5162 24.7448 71.1946 23.4232C69.873 22.1016 68.6819 22.8032 67.6214 23.88L65.8429 25.6585L68.9593 28.7749ZM78.1616 9.78283L85.9445 2L87.8698 3.92531L82.3712 9.42387L84.6065 11.6592L89.6482 6.61748L91.4267 8.39595L86.385 13.4377L88.9303 15.983L94.5431 10.3702L96.4684 12.2955L88.5714 20.1926L78.1616 9.78283ZM85.6181 19.4583L81.6207 23.309L73.1362 14.8245L70.852 17.1088L81.2617 27.5185L87.5598 21.3836L85.6181 19.4583ZM32.2968 69.6306C21.2344 80.693 21.2344 98.6408 32.2968 109.703C43.3592 120.766 61.307 120.766 72.3694 109.703C83.4318 98.6408 83.4318 80.693 72.3694 69.6306C61.307 58.5683 43.3592 58.5683 32.2968 69.6306Z" fill="#E91E25"/>
</svg>
