<svg width="157" height="42" viewBox="0 0 157 42" fill="none" xmlns="http://www.w3.org/2000/svg">
<path d="M14.5592 7.48493C10.3386 7.48493 8.22827 8.88191 8.22827 11.6759C8.22827 12.9177 8.75101 13.8684 9.7965 14.5281C10.842 15.1878 13.2911 16.1385 17.1439 17.3802C20.9967 18.622 23.6975 20.0287 25.2464 21.6003C26.7953 23.1719 27.5697 25.5875 27.5697 28.8472C27.5697 32.9993 26.3112 36.1425 23.7943 38.2768C21.2774 40.4111 17.9861 41.4782 13.9203 41.4782C10.9001 41.4782 7.20215 41.0126 2.82662 40.0813L0.735655 39.6738L1.54881 33.4456C6.73749 34.1441 10.7065 34.4933 13.4557 34.4933C17.5602 34.4933 19.6124 32.7859 19.6124 29.371C19.6124 28.1293 19.1381 27.1591 18.1894 26.4606C17.2407 25.7622 15.353 25.0055 12.5264 24.1905C8.03467 22.91 4.86918 21.3869 3.02991 19.6212C1.19063 17.8556 0.270996 15.4012 0.270996 12.258C0.270996 8.29984 1.47136 5.35064 3.8721 3.41039C6.27284 1.47013 9.56417 0.5 13.7461 0.5C16.6115 0.5 20.2513 0.888052 24.6656 1.66415L26.7565 2.07161L26.1176 8.41625C20.6579 7.79537 16.8051 7.48493 14.5592 7.48493Z" fill="white"/>
<path d="M42.8527 41.4591C47.6542 41.4591 51.081 40.13 53.1333 37.4719C55.1855 34.8137 56.2116 31.0787 56.2116 26.2669C56.2116 16.0611 51.7586 10.9583 42.8527 10.9583C33.9467 10.9583 29.4938 16.0611 29.4938 26.2669C29.4938 31.0787 30.5199 34.8137 32.5721 37.4719C34.6244 40.13 38.0512 41.4591 42.8527 41.4591ZM42.8527 17.5939C44.9049 17.5939 46.3279 18.2924 47.1217 19.6894C47.9155 21.0864 48.3124 23.2789 48.3124 26.2669C48.3124 29.2549 47.9155 31.428 47.1217 32.7862C46.3279 34.1443 44.9049 34.8234 42.8527 34.8234C40.8004 34.8234 39.3774 34.1443 38.5836 32.7862C37.7898 31.428 37.3929 29.2549 37.3929 26.2669C37.3929 23.2789 37.7898 21.0864 38.5836 19.6894C39.3774 18.2924 40.8004 17.5939 42.8527 17.5939Z" fill="white"/>
<path d="M59.2394 33.5166C64.0409 34.1374 67.4 34.4479 69.3167 34.4479C71.2334 34.4479 72.4725 34.2733 73.034 33.924C73.5955 33.5748 73.8762 33.0218 73.8762 32.2651C73.8762 31.5084 73.4986 30.9845 72.7436 30.6935C71.9885 30.4024 70.0524 29.9756 66.9353 29.4129C63.8183 28.8502 61.6015 27.9286 60.2849 26.648C58.9684 25.3675 58.3101 23.2914 58.3101 20.4198C58.3101 14.1334 62.2016 10.9902 69.9847 10.9902C72.5403 10.9902 75.638 11.3394 79.2778 12.0379L81.1365 12.3871L80.9041 18.9064C76.1027 18.2855 72.7629 17.9751 70.8849 17.9751C69.0069 17.9751 67.7291 18.1594 67.0515 18.5281C66.3739 18.8967 66.0351 19.4497 66.0351 20.187C66.0351 20.9243 66.3932 21.4676 67.1096 21.8168C67.8259 22.166 69.6846 22.5929 72.6855 23.0974C75.6864 23.6018 77.9226 24.4555 79.394 25.6585C80.8654 26.8615 81.6011 29.0055 81.6011 32.0905C81.6011 35.1755 80.5556 37.5038 78.4647 39.0754C76.3737 40.647 73.6826 41.4328 70.3912 41.4328C68.1067 41.4328 64.9896 41.0642 61.04 40.3269L59.1233 39.9776L59.2394 33.5166Z" fill="white"/>
<path d="M101.616 18.3333H94.4716V30.2659C94.4716 31.4301 94.5006 32.2547 94.5587 32.7397C94.6168 33.2248 94.8298 33.642 95.1976 33.9912C95.5655 34.3404 96.1366 34.5151 96.9111 34.5151L101.325 34.3987L101.674 40.6269C99.0795 41.209 97.1047 41.5 95.7494 41.5C92.2645 41.5 89.8831 40.7142 88.6053 39.1426C87.3275 37.571 86.6886 34.6703 86.6886 30.4405V18.3333H83.2617V11.6976H86.6886V3.60676H94.4716V11.6976H101.616V18.3333Z" fill="white"/>
<path d="M127.539 20.7565V32.8638C127.616 33.7951 127.771 34.4451 128.003 34.8137C128.236 35.1824 128.72 35.4443 129.456 35.5995L129.223 41.4785C127.248 41.4785 125.67 41.3427 124.489 41.071C123.308 40.7994 122.118 40.2561 120.917 39.4412C118.129 40.7994 115.283 41.4785 112.379 41.4785C106.377 41.4785 103.377 38.2965 103.377 31.9324C103.377 28.828 104.209 26.6258 105.874 25.3259C107.539 24.0259 110.095 23.2595 113.541 23.0266L119.756 22.561V20.7565C119.756 19.5536 119.485 18.729 118.943 18.2827C118.401 17.8365 117.529 17.6133 116.329 17.6133L105.409 18.079L105.177 12.6657C109.32 11.5403 113.26 10.9776 116.997 10.9776C120.733 10.9776 123.425 11.7538 125.07 13.306C126.716 14.8582 127.539 17.3417 127.539 20.7565ZM114.47 28.44C112.302 28.634 111.218 29.7981 111.218 31.9324C111.218 34.0667 112.166 35.1339 114.064 35.1339C115.535 35.1339 117.142 34.901 118.885 34.4354L119.756 34.2025V27.9743L114.47 28.44Z" fill="white"/>
<path d="M156.271 12.3771H148.139L143.493 34.8453H141.867L136.988 12.3771H129.088L136.058 41.481H149.301L156.271 12.3771Z" fill="white"/>
</svg>
