<svg width="157" height="34" viewBox="0 0 157 34" fill="none" xmlns="http://www.w3.org/2000/svg">
<path fill-rule="evenodd" clip-rule="evenodd" d="M139.016 34H144.026L156.271 0H151.261L139.016 34ZM132.411 16.66C132.411 19.6067 130.741 22.1 127.513 22.1C124.284 22.1 122.503 19.38 122.503 16.66C122.503 13.94 124.284 11.22 127.513 11.22C130.63 11.22 132.411 13.6 132.411 16.66ZM128.069 7.36667C124.952 7.36667 123.171 9.06667 122.614 9.74667V7.82H117.976V34H122.763V23.8C123.32 24.3667 125.212 25.9533 128.106 25.9533C132.559 25.9533 136.678 22.5533 136.678 16.66C136.752 10.4267 132.188 7.36667 128.069 7.36667ZM102.502 14.7333C102.614 13.4867 103.838 11.1067 106.732 11.1067C109.961 11.1067 110.517 13.7133 110.629 14.7333H102.502ZM106.844 7.36667C101.389 7.36667 97.7153 11.4467 97.7153 16.66C97.7153 21.8733 101.389 25.9533 106.955 25.9533C112.521 25.9533 114.859 21.9867 114.859 21.9867L111.297 19.6067C111.297 19.6067 110.072 22.1 106.955 22.1C103.727 22.1 102.391 19.2667 102.391 18.2467H115.193C115.193 18.2467 115.304 17.4533 115.304 17.2267V16.66C115.304 11.3333 112.187 7.36667 106.844 7.36667ZM92.2605 25.5H97.3814L91.036 7.82H86.0265L79.5698 25.5H84.8019L88.4756 14.28H88.5869L92.2605 25.5ZM74.5602 17.1133C74.5602 19.1533 73.447 22.1 70.2187 22.1C66.9903 22.1 65.6544 19.4933 65.6544 17C65.6544 14.5067 66.9903 12.24 70.2187 12.24C73.4099 12.24 74.5602 15.0733 74.5602 17.1133ZM70.6639 7.82C68.3262 7.82 66.6563 8.95334 66.2111 9.29334C66.3224 8.72667 66.879 3.96667 73.1131 3.96667H77.0093L78.4565 0H73.2244C66.3224 0 60.9789 3.28667 60.9789 14.7333C60.9789 20.9667 63.6506 26.0667 70.1073 26.0667C76.2301 26.0667 79.3471 21.5333 79.3471 17C79.31 10.4267 74.5231 7.82 70.6639 7.82ZM47.8057 15.3L41.7943 7.93333L41.683 7.82H37.564V25.5H42.3509V15.1867L47.0265 21.1933L47.1378 21.42H48.3623L53.1492 15.1867V25.5H57.9361V7.82H53.8171L47.8057 15.3ZM29.1035 18.1333C29.1035 20.5133 27.7677 22.2133 25.2072 22.2133C22.7582 22.2133 22.5355 20.74 22.5355 20.1733C22.5355 18.8133 23.6487 18.02 26.4318 17.68C27.2111 17.5667 27.9903 17.5667 28.7696 17.5667H29.1035V18.1333ZM33.5564 21.5333V15.1867C33.3338 9.63333 30.996 7.36667 26.0978 7.36667C22.7581 7.36667 20.5317 8.72667 19.7524 9.29334L21.0883 12.92C21.0883 12.92 23.0921 11.1067 25.6525 11.1067C29.3262 11.1067 28.8809 14.1667 28.8809 14.1667C27.6563 14.1667 17.7486 13.6 17.7486 20.1733C17.7486 23.8 20.7543 25.84 23.9827 25.84C26.8771 25.84 28.5469 24.3667 28.9922 23.8C28.9922 23.9133 29.1035 25.5 29.1035 25.5H33.5564C33.7791 25.5 33.5564 24.0267 33.5564 21.5333ZM12.2938 8.27333C12.2938 11.22 9.51077 12.24 7.61828 12.24H5.16919V4.19334H7.61828C9.51077 4.30667 12.2938 5.32666 12.2938 8.27333ZM8.06357 0H0.270996V25.6133H5.28051V16.5467H7.95225C13.0731 16.5467 17.3033 13.8267 17.3033 8.27333C17.3033 2.83333 13.0731 0 8.06357 0Z" fill="white"/>
</svg>
