<svg width="65" height="64" viewBox="0 0 65 64" fill="none" xmlns="http://www.w3.org/2000/svg">
<path d="M23.439 51.5841H28.687V48.9601H23.439C22.703 48.9601 22.159 49.5041 22.159 50.2721C22.159 51.0401 22.703 51.5841 23.439 51.5841Z" fill="white"/>
<path fill-rule="evenodd" clip-rule="evenodd" d="M64.271 0H0.270996V64H64.271V0ZM18.799 40.1601H4.271V43.5841H9.359V54.9121H13.007V43.5841H16.815L18.799 40.1601ZM38.191 44.2241C38.191 43.8081 38.479 43.5521 38.895 43.5521H45.327L47.311 40.1281H38.895C36.239 40.1281 34.543 41.7601 34.543 44.2561V50.7841C34.543 53.2801 36.271 54.8801 38.895 54.8801H46.415V51.4561H38.895C38.479 51.4561 38.191 51.2321 38.191 50.7841V44.2241ZM21.199 40.1601H28.015C30.607 40.1601 32.335 41.7921 32.303 44.2561V54.9121H22.991C20.367 54.9121 18.447 52.9921 18.447 50.3681C18.447 47.7441 20.367 45.8241 22.991 45.8241H28.655V44.2561C28.655 43.8401 28.431 43.5841 27.983 43.5841H19.215L21.199 40.1601ZM51.663 44.2241C51.663 43.8081 51.951 43.5521 52.367 43.5521H58.799L60.783 40.1281H52.367C49.711 40.1281 48.015 41.7601 48.015 44.2561V50.7841C48.015 53.2801 49.743 54.8801 52.367 54.8801H59.887V51.4561H52.367C51.951 51.4561 51.663 51.2321 51.663 50.7841V44.2241Z" fill="white"/>
</svg>
