<svg width="134" height="36" viewBox="0 0 134 36" fill="none" xmlns="http://www.w3.org/2000/svg">
<path d="M33.4195 0H0.270996V32.9948L33.4195 0Z" fill="white"/>
<path d="M3.23125 35.9995H36.3798V3.00471L3.23125 35.9995Z" fill="white"/>
<path d="M55.6537 0.0581765H43.9269V36H51.1836V22.594H55.8279C64.3037 22.594 69.1221 18.5491 69.1221 11.4995V11.3261C69.1221 4.16086 64.1876 0.0581765 55.6537 0.0581765ZM62.0396 11.4995C62.0396 15.2554 59.8335 17.2201 55.6537 17.2201H51.1836V5.77882H55.6537C60.0077 5.77882 62.0396 7.51235 62.0396 11.2683V11.4995Z" fill="white"/>
<path d="M86.7708 14.1575H80.8493V5.89439H96.5818V0.0581765H73.6507V36H86.5966C94.8982 36 99.6006 32.0129 99.6006 25.0788V24.8476C99.6586 17.9713 95.0724 14.1575 86.7708 14.1575ZM80.8493 19.5315H86.1902C90.5442 19.5315 92.6342 21.265 92.6342 24.7899V24.9632C92.6342 28.488 90.5442 30.2794 86.4224 30.2794H80.8493V19.5315Z" fill="white"/>
<path d="M117.539 17.2197L132.516 0H124.563L111.443 15.4862V0.0577843H104.186V35.9996H111.443V20.1089L124.621 35.9996H133.271L117.539 17.2197Z" fill="white"/>
</svg>
