<svg width="225" height="30" viewBox="0 0 225 30" fill="none" xmlns="http://www.w3.org/2000/svg">
<path d="M223.8 3.70679C223.8 2.19287 222.555 0.964624 221.02 0.964624C219.495 0.964812 218.24 2.20281 218.241 3.7066C218.241 5.21058 219.496 6.44783 221.02 6.4482C222.546 6.44876 223.799 5.21095 223.8 3.70679ZM217.77 3.7066C217.77 1.94696 219.236 0.5 221.02 0.5C222.813 0.5 224.271 1.93739 224.271 3.70585C224.271 5.46512 222.804 6.91226 221.021 6.91283C219.236 6.91339 217.77 5.46624 217.77 3.7066Z" fill="white"/>
<path fill-rule="evenodd" clip-rule="evenodd" d="M220.924 1.35085C221.009 2.13661 221.65 1.69018 221.927 1.47071C222.028 1.39175 222.152 1.24637 222.219 1.20548C222.263 1.17997 222.328 1.19798 222.354 1.25144C222.38 1.33041 222.39 1.43001 222.341 1.57538C222.281 1.74626 222.181 1.91208 222.124 2.00136C221.976 2.23602 221.832 2.44254 221.658 2.65938C221.377 3.00639 221.02 3.28175 220.725 3.62108C220.272 4.14141 220.016 4.94498 220.156 5.62345C220.192 5.79676 220.275 6.01623 220.443 6.10795C221.441 6.65398 222.173 4.31229 221.834 3.62108C221.788 3.53179 221.695 3.37104 221.57 3.39411C220.945 3.50891 220.655 5.51371 221.045 5.65908C221.026 5.89637 220.645 6.04174 220.533 5.603C220.497 5.44994 220.49 5.28919 220.495 5.13106C220.514 4.46273 221.056 3.45264 221.676 3.14407C221.958 3.00114 222.357 3.00377 222.514 3.32265C223.07 4.45766 221.568 6.55438 220.267 6.36306C219.639 6.2687 219.411 5.67447 219.46 5.11061C219.499 4.64655 219.696 4.20519 219.967 3.8276C220.515 3.06754 221.379 2.84564 221.798 2.24878C221.798 2.24878 221.814 2.22589 221.817 2.21314C221.823 2.19438 221.801 2.17224 221.773 2.19438C221.726 2.23527 221.486 2.35776 221.318 2.37802C220.979 2.41628 220.795 1.95972 220.738 1.70725C220.726 1.65116 220.723 1.60783 220.669 1.67911C220.503 1.89088 220.376 3.07448 220.208 3.1407L219.551 3.39843C219.551 3.39843 219.523 3.41155 219.513 3.37292C219.438 3.09737 220.115 2.14092 220.304 1.81942C220.33 1.77871 220.485 1.48028 220.514 1.45721C220.563 1.4165 220.863 1.33997 220.925 1.3501L220.924 1.35085Z" fill="white"/>
<path d="M24.2196 23.8414H15.1735L9.63315 14.7804L7.83302 16.6278V23.8414H0.270996V1.04482H7.83302V8.40246L14.317 1.04482H23.186L14.8704 9.54742L24.2196 23.8414ZM34.3447 15.3842C34.3447 14.3418 34.0967 13.3967 33.6002 12.5595C33.1039 11.7224 32.3377 11.3011 31.291 11.3011C30.3575 11.3011 29.6508 11.7224 29.1759 12.5649C28.7011 13.4128 28.4638 14.3527 28.4638 15.3842C28.4638 16.4915 28.7173 17.5393 29.2246 18.5169C29.7263 19.4998 30.5031 19.9912 31.5445 19.9912C32.5482 19.9912 33.2657 19.5159 33.6974 18.56C34.1291 17.6042 34.3447 16.5455 34.3447 15.3842ZM39.5895 20.5204C37.8027 23.1339 34.7401 24.3569 31.5724 24.3569C28.308 24.3569 25.1617 23.1442 23.3372 20.4268C21.6637 17.9339 21.4496 13.8692 22.8593 11.2093C23.9439 9.16233 25.9317 7.68273 28.2108 7.08155C30.7213 6.39428 33.4384 6.54284 35.8486 7.52348C38.1024 8.43697 39.7791 10.3165 40.5092 12.5507C41.3064 14.9901 41.0219 18.425 39.5895 20.5204ZM98.1917 13.712C97.9551 12.6263 97.566 11.8737 97.0294 11.4543C96.4878 11.0287 95.8041 10.819 94.968 10.819C94.158 10.819 93.5164 11.0227 93.0431 11.4357C92.5698 11.843 92.212 12.6017 91.9648 13.712H98.1917ZM104.661 16.9315H92.0302C92.0302 17.4447 92.1196 17.8951 92.2984 18.2875C92.8419 19.481 93.8252 20.2867 95.2331 20.2867C96.267 20.2867 97.4594 19.8761 97.6817 18.7684H104.15C103.905 20.3401 102.888 21.7269 101.579 22.6381C100.258 23.5546 98.6361 24.0652 97.0347 24.2455C94.9809 24.4944 92.6047 24.4266 90.7027 23.6433C88.4899 22.7362 86.8375 21.0591 85.9378 18.8949C85.1114 16.7854 85.1002 14.4456 85.9011 12.3192C86.732 10.1133 88.4425 8.40734 90.6607 7.50266C93.3582 6.40722 97.1349 6.4815 99.7433 7.76433C102.058 8.89841 103.636 10.8317 104.292 13.2719C104.616 14.4994 104.739 15.6755 104.661 16.9315ZM122.779 20.5521C121.536 22.8887 119.241 24.3482 116.474 24.3482C114.488 24.3482 113.181 23.7112 111.838 22.3519V29.5H105.099V7.28676H111.066V9.76351C112.36 7.2198 115.563 6.29561 118.148 6.93731C120.963 7.63002 122.86 9.96515 123.535 12.5897C124.166 15.0291 123.947 18.3728 122.779 20.5521ZM117.29 15.151C117.29 14.449 117.054 13.6825 116.576 12.857C116.099 12.0317 115.406 11.619 114.504 11.619C113.608 11.619 112.916 12.0048 112.433 12.782C111.95 13.5538 111.708 14.3417 111.708 15.151C111.708 16.1428 111.896 17.0699 112.272 17.9275C112.653 18.7851 113.394 19.2139 114.504 19.2139C115.589 19.2139 116.319 18.769 116.711 17.8793C117.065 17.0206 117.29 16.0816 117.29 15.151ZM138.377 23.6508C135.759 24.5553 132.2 24.6941 129.593 23.6242C127.952 22.9506 126.497 21.8139 125.578 20.3024C124.68 18.8508 124.213 17.1784 124.213 15.4759C124.213 14.342 124.455 13.2278 124.861 12.1699C125.803 9.79109 127.432 8.4261 129.783 7.48053C132.474 6.39822 136.471 6.43761 139.026 7.80898C141.461 9.116 142.735 10.916 143.07 13.5687H136.175C136.054 12.7527 135.82 12.2483 135.479 11.818C134.514 10.5984 132.328 11.1943 131.63 12.3978C130.74 13.9335 130.593 16.2018 131.156 17.8851C131.527 18.9947 132.749 19.9353 133.935 19.9353C135.618 19.9353 135.967 18.8178 136.407 17.4286H143.07C143 20.2062 141.316 22.6353 138.377 23.6508ZM155.361 17.3318C155.361 17.0236 155.333 16.7706 155.277 16.5779C154.814 16.831 154.092 17.0512 153.111 17.2382C152.364 17.3729 151.569 17.5376 150.901 17.8986C149.954 18.3606 150.005 19.6855 150.833 20.2206C151.792 20.7894 153.399 20.7425 154.205 19.9457C154.972 19.2246 155.361 18.3554 155.361 17.3318ZM162.858 23.8414H155.961L155.699 22.088C155.196 22.7289 154.072 23.2569 152.938 23.6878C152.385 23.8979 151.816 24.0641 151.235 24.1699C150.653 24.2706 150.035 24.3237 149.39 24.3237C148.227 24.3237 147.163 24.1224 146.198 23.7197C145.234 23.317 144.506 22.6865 144.003 21.8389C143.552 20.9064 143.327 19.9633 143.327 18.9992C143.327 17.7805 143.902 16.7756 144.693 15.8749C145.144 15.3611 145.585 15.0724 146.382 14.7706C146.759 14.6277 147.132 14.5035 147.498 14.3998C147.861 14.297 148.204 14.1991 148.53 14.1507L151.355 13.7322C152.554 13.5546 153.714 13.4013 154.226 13.2342C154.541 13.1312 154.913 12.7951 155.097 12.5831C155.28 12.3714 155.253 12.1487 155.253 11.921C155.253 11.6083 155.101 11.3487 154.792 11.1369C154.483 10.925 154.043 10.819 153.472 10.819C152.785 10.819 151.932 10.9197 151.518 11.121C151.104 11.3223 150.836 11.725 150.711 12.3235H144.321C144.536 11.2375 144.497 10.6035 144.81 9.9402C145.121 9.279 145.612 8.71121 146.282 8.23964C146.953 7.76827 147.874 7.40174 149.055 7.15883C149.625 7.0416 150.302 6.95982 151.072 6.89923C151.848 6.83808 152.707 6.80394 153.661 6.80394C155.983 6.80394 157.721 7.0763 158.881 7.61971C160.038 8.16236 160.792 8.5996 161.145 9.41499C161.495 10.2261 161.732 11.2799 161.842 12.5726V21.3249C161.842 22.2256 162.182 22.8932 162.858 23.3276V23.8414ZM181.601 23.8414H174.948V17.6542H170.02V23.8414H163.43L163.424 7.54487L163.43 7.29576H170.02V12.8397H174.873V7.29576H181.601L181.595 23.5449L181.601 23.8414ZM200.089 12.1722H194.36V23.8414H187.686V12.1722H181.908V7.29576H200.089V12.1722ZM221.701 18.5467C221.701 20.0001 220.999 21.2769 219.872 22.1876C218.388 23.3978 216.336 23.8414 214.453 23.8414H204.154V12.1722H200.307V7.29576H210.575V13.1029H214.088C216.043 13.1029 218.212 13.4801 219.762 14.747C220.927 15.6993 221.701 17.0313 221.701 18.5467ZM215.068 18.5636C215.068 17.5182 214.481 17.0797 213.473 16.9606C213.268 16.9606 212.863 16.9437 212.264 16.9184C211.664 16.8919 210.86 16.8814 210.575 16.8814V20.077L212.244 20.1087C212.698 20.1181 213.073 20.0992 213.363 20.077C214.388 20.0019 215.068 19.7273 215.068 18.5636ZM53.8599 23.8412H50.6259L47.0922 12.7883L47.638 17.1206V23.8412H41.7371V7.20029H49.305L52.2429 16.3924L55.1808 7.20029H62.749V23.8412H56.8479V17.1206L57.3936 12.7883L53.8599 23.8412ZM75.9582 23.8412H72.7242L69.1905 12.7883L69.7363 17.1206V23.8412H63.8352V7.20029H71.4033L74.3412 16.3924L77.2791 7.20029H84.847V23.8412H78.9461V17.1206L79.4919 12.7883L75.9582 23.8412Z" fill="white"/>
</svg>
