<svg width="127" height="46" viewBox="0 0 127 46" fill="none" xmlns="http://www.w3.org/2000/svg">
<path d="M20.6036 22.1345H16.9162V16.4673H20.6036C21.8445 16.4673 22.7226 16.9454 23.2377 17.9016C23.7527 18.8344 23.7527 19.7789 23.2377 20.7351C22.7226 21.6679 21.8445 22.1345 20.6036 22.1345Z" fill="white"/>
<path d="M39.7607 20.3153H43.4131C44.373 20.3153 45.052 19.9539 45.45 19.2309C45.8715 18.4846 45.8831 17.75 45.4851 17.027C45.0871 16.2808 44.3965 15.9076 43.4131 15.9076H39.7607V20.3153Z" fill="white"/>
<path d="M39.7607 29.9005H43.4131C44.6072 29.9005 45.4383 29.4807 45.9066 28.6411C46.3982 27.7783 46.3982 26.927 45.9066 26.0874C45.4149 25.2478 44.5837 24.8281 43.4131 24.8281H39.7607V29.9005Z" fill="white"/>
<path d="M70.8116 22.1345H74.4992C75.74 22.1345 76.618 21.6679 77.1331 20.7351C77.6482 19.7789 77.6482 18.8344 77.1331 17.9016C76.618 16.9454 75.74 16.4673 74.4992 16.4673H70.8116V22.1345Z" fill="white"/>
<path fill-rule="evenodd" clip-rule="evenodd" d="M125.658 1.7701L125.661 1.76375L125.665 1.75555C125.86 1.35 126.061 0.93298 126.271 0.5H0.270996V45.5H126.254C126.142 45.2567 126.044 45.0352 125.952 44.8287C125.792 44.4705 125.652 44.157 125.499 43.8517C124.767 42.3991 124.035 40.9458 123.304 39.4923L123.302 39.4885L123.294 39.472C120.85 34.6147 118.406 29.7568 115.906 24.9267C115.192 23.5448 115.214 22.4048 115.921 21.0431C118.141 16.7627 120.31 12.4576 122.481 8.15206L122.481 8.15095L122.482 8.14955C123.122 6.87912 123.763 5.60864 124.404 4.33875C124.824 3.50626 125.227 2.6664 125.658 1.77077L125.658 1.7701ZM18.04 27.5216L23.7995 35.3927H31.6311L24.8531 26.892C28.1075 25.8659 29.7346 23.1606 29.7346 18.7761C29.6644 16.0009 28.7864 13.9486 27.1007 12.6192C25.4385 11.2899 23.2377 10.6253 20.4984 10.6253H10.5596V35.3927H16.9162V27.5216H18.04ZM51.4905 18.1814C51.4671 18.8578 51.233 19.5924 50.7882 20.3853C50.3667 21.1782 49.7463 21.7846 48.9268 22.2043C50.4486 22.9739 51.4671 24.0002 51.9822 25.2828C52.4973 26.5655 52.6494 27.8016 52.4387 28.9909C51.7597 33.2588 48.8097 35.3927 43.5887 35.3927H33.4393V10.6253H43.4131C45.848 10.6253 47.8147 11.3133 49.3132 12.6892C50.8349 14.0419 51.5607 15.8726 51.4905 18.1814ZM55.4572 29.6552C54.7781 30.3316 54.4386 31.1479 54.4386 32.104C54.4386 33.0835 54.7781 33.9231 55.4572 34.6228C56.1361 35.2991 56.9556 35.6372 57.9155 35.6372C58.8754 35.6372 59.6948 35.2991 60.3738 34.6228C61.0762 33.9231 61.4274 33.0835 61.4274 32.104C61.4274 31.1479 61.0762 30.3316 60.3738 29.6552C59.6948 28.979 58.8754 28.6408 57.9155 28.6408C56.9556 28.6408 56.1361 28.979 55.4572 29.6552ZM77.6951 35.3927L71.9354 27.5216H70.8116V35.3927H64.4551V10.6253H74.3938C77.1331 10.6253 79.3339 11.2899 80.9962 12.6192C82.6819 13.9486 83.5599 16.0009 83.6302 18.7761C83.6302 23.1606 82.003 25.8659 78.7486 26.892L85.5265 35.3927H77.6951ZM93.5512 27.1019V10.6253H87.1946V27.1019C87.1946 28.3612 87.417 29.5157 87.8618 30.5651C88.3067 31.5912 88.9038 32.4425 89.6529 33.1189C90.4256 33.7952 91.3036 34.3782 92.287 34.8679C93.2936 35.3343 94.3472 35.6142 95.4476 35.7075C96.548 35.8007 97.6368 35.8007 98.7137 35.7075C99.8141 35.6142 100.856 35.3343 101.839 34.8679C102.846 34.3782 103.736 33.7952 104.508 33.1189C105.281 32.4425 105.89 31.5912 106.335 30.5651C106.803 29.5157 107.037 28.3612 107.037 27.1019V10.6253H100.68V27.1019C100.68 27.8482 100.435 28.4895 99.9428 29.0259C99.4512 29.539 98.8542 29.8538 98.1518 29.9704C97.4494 30.0871 96.7471 30.0871 96.0447 29.9704C95.3657 29.8538 94.7804 29.539 94.2887 29.0259C93.7971 28.4895 93.5512 27.8482 93.5512 27.1019Z" fill="white"/>
</svg>
