<svg width="157" height="32" viewBox="0 0 157 32" fill="none" xmlns="http://www.w3.org/2000/svg">
<path d="M45.7458 0.5H51.2027V30.8911H45.7458V28.5387C44.8292 29.468 43.7407 30.2079 42.5414 30.7169C41.4424 31.1731 40.2656 31.4097 39.0766 31.4136C37.6982 31.422 36.3342 31.1306 35.0783 30.5594C33.8224 29.9883 32.7042 29.1508 31.8004 28.1044C30.7711 27.0129 29.9659 25.7282 29.4309 24.3237C28.8958 22.9192 28.6413 21.4224 28.682 19.919C28.682 16.5216 29.6346 13.7363 31.6271 11.5594C32.5354 10.5246 33.6564 9.70056 34.9127 9.14427C36.1689 8.58797 37.5304 8.3127 38.9029 8.33752C40.1848 8.33695 41.4529 8.60375 42.627 9.12105C43.8355 9.65211 44.9253 10.4221 45.8318 11.3852V0.5H45.7458ZM39.9424 13.4748C39.1452 13.4523 38.3528 13.6042 37.6198 13.92C36.8868 14.2358 36.2308 14.708 35.6973 15.3038C34.5739 16.5693 33.9838 18.2242 34.0517 19.919C33.9979 21.6532 34.619 23.3402 35.7828 24.6215C36.3163 25.2171 36.9722 25.6891 37.705 26.0048C38.4378 26.3205 39.2301 26.4724 40.0271 26.45C40.824 26.4724 41.6163 26.3205 42.3491 26.0048C43.0819 25.6891 43.7378 25.2171 44.2713 24.6215C45.4366 23.3408 46.059 21.6538 46.0063 19.919C46.0407 19.0721 45.9051 18.227 45.6074 17.4341C45.3098 16.6411 44.8562 15.9166 44.2739 15.3038C43.7231 14.7065 43.0517 14.2345 42.3048 13.9191C41.5579 13.6038 40.7526 13.4524 39.9428 13.4752" fill="white"/>
<path d="M64.542 8.94688H69.999V11.2111C71.005 10.312 72.1454 9.57739 73.3783 9.03418C74.3667 8.62324 75.4271 8.41602 76.4967 8.42481C77.5235 8.41639 78.5419 8.61209 79.4933 9.00065C80.4447 9.38922 81.3103 9.96299 82.0404 10.689C83.3395 11.995 83.9461 13.9109 83.9461 16.4365V30.8911H78.487V21.3123C78.487 18.6998 78.4015 16.9581 78.1405 16.0873C77.9494 15.3108 77.5262 14.6119 76.9278 14.0846C76.3001 13.6229 75.5403 13.3784 74.7625 13.3879C74.2343 13.3692 73.7079 13.4601 73.2162 13.6548C72.7244 13.8496 72.2778 14.144 71.9042 14.5198C71.0398 15.3636 70.4637 16.4612 70.2586 17.6548C70.0855 18.3515 69.999 19.8318 69.999 22.0958V30.8911H64.542V8.94688Z" fill="white"/>
<path d="M103.347 0.5H108.804V30.8911H103.347V28.5387C102.43 29.4676 101.342 30.2071 100.142 30.7156C99.0434 31.1718 97.8665 31.4084 96.6775 31.4123C95.2993 31.4208 93.9355 31.1296 92.6796 30.5586C91.4238 29.9877 90.3056 29.1505 89.4017 28.1044C88.3725 27.0129 87.5673 25.7282 87.0322 24.3237C86.4972 22.9192 86.2427 21.4224 86.2834 19.919C86.2834 16.5216 87.236 13.7363 89.2285 11.5594C90.1368 10.5246 91.2578 9.70056 92.5141 9.14427C93.7703 8.58797 95.1318 8.3127 96.5043 8.33752C97.7863 8.33689 99.0546 8.60369 100.229 9.12105C101.437 9.65211 102.527 10.4221 103.434 11.3852V0.5H103.347ZM97.6306 13.4748C96.8336 13.4524 96.0413 13.6043 95.3085 13.92C94.5757 14.2357 93.9199 14.7077 93.3863 15.3033C92.263 16.5688 91.6729 18.2238 91.7407 19.9185C91.6873 21.653 92.3089 23.34 93.4732 24.6211C94.0205 25.199 94.679 25.6591 95.4086 25.9735C96.1381 26.2879 96.9236 26.4501 97.7174 26.4501C98.5112 26.4501 99.2967 26.2879 100.026 25.9735C100.756 25.6591 101.414 25.199 101.962 24.6211C103.126 23.34 103.747 21.6532 103.693 19.919C103.728 19.0721 103.592 18.227 103.294 17.4341C102.997 16.6411 102.543 15.9166 101.961 15.3038C101.41 14.7065 100.739 14.2345 99.9917 13.9191C99.2448 13.6038 98.4395 13.4524 97.6297 13.4752" fill="white"/>
<path d="M134.356 21.4865H116.773C116.983 22.9497 117.723 24.2832 118.852 25.2309C119.978 26.1886 121.364 26.6242 123.096 26.6242C124.078 26.6473 125.055 26.4659 125.964 26.0913C126.874 25.7166 127.696 25.1569 128.38 24.4473L132.97 26.6242C131.937 28.1966 130.501 29.4595 128.813 30.2795C127.021 31.1097 125.068 31.5263 123.096 31.4987C119.631 31.4987 116.859 30.4537 114.694 28.2768C112.528 26.1 111.489 23.4023 111.489 20.0931C111.489 16.784 112.529 13.9973 114.694 11.7336C115.741 10.659 116.996 9.81112 118.382 9.24204C119.767 8.67297 121.253 8.39472 122.75 8.42438C126.214 8.42438 128.986 9.55625 131.152 11.7336C133.317 13.9109 134.356 16.8713 134.356 20.5288V21.4865ZM128.899 17.2196C128.558 16.0017 127.788 14.9496 126.734 14.2588C125.648 13.484 124.34 13.0866 123.009 13.1269C121.572 13.0914 120.165 13.5523 119.025 14.4329C118.332 14.9554 117.639 15.9131 117.033 17.3065H128.899V17.2196Z" fill="white"/>
<path d="M134.096 8.94689H140.418L144.749 14.9554L148.995 8.94689H155.231L147.869 19.3109L156.271 30.8928H149.861L144.664 23.7541L139.553 30.8928H133.317L141.546 19.3969L134.096 8.94689Z" fill="white"/>
<path d="M11.6182 1.28354H17.3348L28.682 30.9779H22.8786L20.5396 24.8825H8.49983L6.07442 30.9779H0.270996L11.6182 1.28354ZM14.5633 9.12062L10.58 19.3092H18.4611L14.5633 9.12062Z" fill="white"/>
<path d="M55.1005 0.5V5.55084H60.5574L55.1005 8.42438V30.8911H60.6443V0.5H55.1005Z" fill="white"/>
</svg>
