<svg width="155" height="46" viewBox="0 0 155 46" fill="none" xmlns="http://www.w3.org/2000/svg">
<path d="M11.423 29.3487V31.8756H15.5229V15.1324H11.0938V22.7675C11.0938 24.6252 10.9803 25.8953 10.7548 26.5844C10.5311 27.2748 10.1121 27.8239 9.50356 28.2431C8.89566 28.6616 8.20711 28.8685 7.43986 28.8685C6.84048 28.8685 6.32898 28.7246 5.90339 28.4321C5.47649 28.141 5.17155 27.7304 4.98138 27.2018C4.79252 26.6779 4.69809 25.5139 4.69809 23.7179V15.1324H0.270996V25.553C0.270996 26.8351 0.352311 27.818 0.51363 28.5084C0.678228 29.1935 0.967422 29.8096 1.38187 30.3528C1.79631 30.894 2.40749 31.3371 3.21868 31.6892C4.02724 32.0374 4.92236 32.2099 5.90339 32.2099C8.12054 32.2099 9.95866 31.2581 11.423 29.3487ZM17.4908 15.1324H21.8497V21.3369H28.0979V15.1324H32.4535V31.8756H28.0979V24.8965H21.8497V31.8756H17.4908V15.1324ZM42.8979 15.1324H34.0378V20.3686L38.4656 18.6449V31.8995H42.8979V18.6449L47.3302 20.3686V15.1324H42.8979ZM53.7909 19.1755C54.606 18.4121 55.5765 18.0407 56.7576 18.0407C57.9452 18.0407 58.8855 18.4625 59.6331 19.3287C60.0967 19.8752 60.3414 20.5012 60.4915 21.1651H52.5554C52.8144 20.3799 53.2158 19.7153 53.7909 19.1755ZM61.0942 26.3934C61.0942 26.3934 60.3256 28.1085 58.8167 28.8685C58.254 29.1517 57.5491 29.2936 56.7274 29.2936C55.265 29.2936 54.1443 28.7425 53.3069 27.6077C52.701 26.7959 52.3383 25.8827 52.202 24.8434H64.6957C64.6957 24.8434 65.2229 20.297 62.9631 17.3861C61.4398 15.4216 59.3951 14.3644 56.7241 14.3644C53.9909 14.3644 51.7901 15.3261 50.1802 17.2223C48.7047 18.9539 47.9519 21.122 47.9519 23.6662C47.9519 26.1413 48.7047 28.2836 50.1802 30.0404C51.8105 31.9837 54.0152 32.9699 56.7241 32.9699C58.6298 32.9699 60.3066 32.4413 61.708 31.4054C64.2687 29.5072 65.2662 26.3934 65.2662 26.3934H61.0942ZM76.8792 27.4446C76.209 28.2723 75.3683 28.6861 74.3617 28.6861C73.3098 28.6861 72.4193 28.2351 71.6875 27.3345C70.9569 26.4325 70.5904 25.039 70.5904 23.1522C70.5904 21.51 70.9392 20.2665 71.6409 19.4288C72.3426 18.5898 73.22 18.1747 74.285 18.1747C75.3027 18.1747 76.1565 18.5985 76.8451 19.4534C77.5356 20.3069 77.8825 21.6135 77.8825 23.3737C77.8825 25.2606 77.5468 26.6149 76.8792 27.4446ZM80.3292 16.9782C78.9967 15.4574 77.3776 14.694 75.4693 14.694C74.3709 14.694 73.3734 14.964 72.475 15.5005C71.5786 16.0391 70.8658 16.7248 70.3412 17.5585V15.1192H66.2747V38.0947H70.6336V29.7354C71.4488 30.6228 72.2226 31.2469 72.961 31.6116C73.6994 31.9771 74.5276 32.1614 75.4358 32.1614C77.3441 32.1614 78.9691 31.3875 80.3134 29.8401C81.6532 28.2915 82.324 26.1234 82.324 23.3332C82.324 20.6173 81.6597 18.4976 80.3292 16.9782ZM109.452 25.7971C109.348 22.5944 114.366 20.9615 117.834 22.7662V28.7697C114.004 30.3833 109.651 28.9541 109.452 25.7971ZM117.834 31.8756H122.728V23.6503C122.728 20.939 122.897 19.1622 121.78 17.4099C120.66 15.6557 118.436 14.964 116.867 14.964H107.901C107.06 14.9978 107.26 13.9777 107.327 13.7728C109.452 5.66552 111.166 3.28056 114.063 3.51999C115.31 3.68977 116.082 3.7236 116.657 4.43988C117.129 5.01888 117.299 5.08785 118.206 3.68977C118.775 2.73738 119.216 1.98727 119.553 1.40894C119.856 0.863764 120.634 0.149469 119.486 0.0121814C105.709 -0.294892 105.511 5.22382 100.796 14.2835C100.291 15.1351 99.7484 15.1013 98.1687 15.1013H93.5534C87.3229 15.1013 84.09 20.0403 83.7215 22.8C83.4178 24.4667 83.248 25.8973 84.0566 27.6707C84.6953 28.9978 86.2449 30.8038 88.5361 31.8252C89.1447 32.0633 89.5139 31.6216 89.546 31.5877C90.2227 30.9716 92.3094 29.1 92.916 28.6231C93.2852 28.2816 92.8458 28.0779 92.577 28.0455C88.7053 27.5673 87.2895 26.5114 86.6173 23.9202C86.4147 21.9816 87.3229 17.656 94.2616 17.5864C97.0585 17.656 99.3124 17.3164 98.269 19.8347C94.4977 29.3049 93.6203 31.0432 89.6804 38.7042C87.2895 42.2478 84.3287 42.7598 79.4741 41.2244C78.215 40.8252 77.8222 41.7079 77.649 42.0873C77.3907 42.6471 76.9382 43.6751 76.7683 44.0392C76.4982 44.595 76.7159 44.7873 77.1074 44.784C83.8782 44.7143 90.5887 43.4051 95.7417 37.4785C100.559 31.2449 101.67 26.2382 104.835 19.903C105.341 18.7795 106.086 17.7575 107.37 17.7575H114.971C117.405 17.7575 117.834 18.7795 117.834 20.108C116.082 19.5634 114.602 19.3227 112.518 19.5634C108.035 20.0403 105.204 21.8781 105.006 25.9669C105.038 29.0337 107.968 32.2006 113.118 32.0971C115.257 32.1986 116.697 31.8948 117.834 30.6984V31.8756ZM129.518 31.8756V24.6683C130.15 24.6683 130.629 24.8089 130.952 25.0841C131.27 25.362 131.654 25.9828 132.092 26.9544L134.024 31.8756H138.653L136.49 27.166C136.429 27.05 136.372 26.9412 136.321 26.8384C135.378 24.8109 134.223 23.6078 132.857 23.2218C133.806 22.8676 134.526 21.9219 135.031 20.3925C135.401 19.2564 135.746 18.5739 136.062 18.3424C136.382 18.1242 137.113 18.0128 138.254 18.0128L138.238 15.082C137.426 15.0316 136.853 15.0044 136.528 15.0044C135.456 15.0044 134.596 15.2359 133.938 15.6948C133.282 16.1558 132.677 17.2043 132.122 18.8458C131.7 20.0774 131.341 20.8746 131.044 21.2414C130.745 21.6068 130.236 21.8317 129.518 21.9152V15.1324H125.159V31.8756H129.518ZM154.062 20.1225L149.788 20.8839C149.643 20.0257 149.31 19.3824 148.797 18.9493C148.283 18.5142 147.614 18.2973 146.793 18.2973C145.703 18.2973 144.831 18.6774 144.182 19.4374C143.53 20.1988 143.206 21.4709 143.206 23.2523C143.206 25.2393 143.533 26.6394 144.192 27.4525C144.851 28.2736 145.736 28.6828 146.842 28.6828C147.67 28.6828 148.349 28.4401 148.877 27.9586C149.406 27.4751 149.778 26.6427 149.994 25.4622L154.271 26.1818C153.828 28.196 152.977 29.7141 151.717 30.7441C150.461 31.7735 148.772 32.2848 146.657 32.2848C144.252 32.2848 142.337 31.5148 140.907 29.9741C139.478 28.4321 138.762 26.2965 138.762 23.5707C138.762 20.8116 139.481 18.6628 140.914 17.1254C142.35 15.5881 144.293 14.82 146.736 14.82C148.742 14.82 150.33 15.2564 151.514 16.1312C152.696 17.0041 153.546 18.3332 154.062 20.1225ZM64.4779 39.6274H66.6262L67.7437 41.5879L68.8277 39.6274H70.9569L68.9936 42.7114L71.1419 45.9997H68.9477L67.7037 43.9529L66.4538 45.9997H64.2786L66.457 42.6796L64.4779 39.6274ZM58.4409 43.5683L57.7517 41.2775L57.0632 43.5683H58.4409ZM58.8534 44.9524H56.6474L56.3326 45.9997H54.3444L56.7117 39.6274H58.8455L61.2063 45.9997H59.1682L58.8534 44.9524ZM46.8588 39.6274H51.6767V40.9996H48.8136V42.1039H51.2642V43.3938H48.8136V45.9997H46.8588V39.6274ZM38.8984 42.204H39.7266C39.8158 42.204 39.9889 42.1768 40.2447 42.1185C40.3752 42.0926 40.4807 42.0263 40.564 41.9208C40.6473 41.8147 40.6873 41.69 40.6873 41.5527C40.6873 41.3471 40.625 41.1906 40.4906 41.0805C40.364 40.9724 40.1181 40.9154 39.7601 40.9154H38.8984L38.8984 42.204ZM36.9435 45.9997V39.6274H40.1948C40.7975 39.6274 41.2591 39.6791 41.5792 39.7826C41.8972 39.886 42.153 40.081 42.3497 40.3609C42.5464 40.6454 42.6422 40.9897 42.6422 41.3955C42.6422 41.7464 42.5654 42.0535 42.4199 42.3088C42.2664 42.5661 42.0631 42.7731 41.8015 42.9329C41.6349 43.035 41.4047 43.1193 41.1123 43.1856C41.3457 43.2645 41.5149 43.3434 41.6224 43.4217C41.6939 43.4748 41.7982 43.5862 41.9339 43.7573C42.0697 43.9324 42.1608 44.063 42.2074 44.1552L43.155 45.9997H40.9542L39.9056 44.0518C39.7758 43.7978 39.6564 43.6366 39.5541 43.5603C39.4099 43.4602 39.2499 43.4118 39.0708 43.4118H38.8984V45.9997H36.9435ZM27.4729 39.6274H32.6935V40.9897H29.4278V42.0017H32.4535V43.3003H29.4278V44.5512H32.786V45.9997H27.4729V39.6274ZM17.5912 39.6274H23.5167V41.2019H21.5284V45.9997H19.5827V41.2019H17.5912V39.6274ZM7.62806 39.6274H9.45044L11.821 43.1498V39.6274H13.6579V45.9997H11.821L9.46356 42.4952V45.9997H7.62806V39.6274ZM1.18514 39.6274H3.14005V46H1.18514V39.6274Z" fill="white"/>
</svg>
