<svg width="127" height="38" viewBox="0 0 127 38" fill="none" xmlns="http://www.w3.org/2000/svg">
<path fill-rule="evenodd" clip-rule="evenodd" d="M116.197 0.10134L116.212 0V0.10134H116.197ZM116.197 0.10134C115.991 1.42318 115.641 2.50531 115.145 3.39468C114.637 4.30669 114.028 5.01602 113.316 5.57336C112.605 6.13069 111.843 6.5867 110.979 6.84003C110.115 7.14403 109.201 7.34671 108.286 7.49871L104.222 8.1067C103.104 8.2587 102.037 8.51205 100.919 8.8667C99.8017 9.22138 98.7856 9.72805 97.8711 10.4374C96.9566 11.1467 96.1944 12.1094 95.5848 13.3254C94.9752 14.5414 94.6194 16.1628 94.5179 18.1388H94.6194C95.7372 16.4668 97.2106 15.1493 98.938 14.2374C100.665 13.3254 102.596 12.8694 104.628 12.8694C106.661 12.8694 108.337 13.1734 109.658 13.7814C110.979 14.3894 112.046 14.9973 112.859 15.7068C114.078 16.7201 114.993 17.9868 115.704 19.5068C116.415 21.0268 116.771 22.8508 116.771 25.0295C116.771 27.4615 116.365 29.4881 115.501 31.1096C114.637 32.7308 113.621 33.9976 112.3 34.9096C111.03 35.8721 109.607 36.4801 108.032 36.8856C106.457 37.2401 104.933 37.4429 103.46 37.4429C101.224 37.4429 99.3444 37.0881 97.9218 36.4296C96.4993 35.7709 95.3816 35.1121 94.5686 34.4028C93.7049 33.6428 93.0444 32.8321 92.4856 31.9201C91.9775 31.0081 91.5711 30.0961 91.2662 29.0828C91.0122 28.1201 90.8089 27.1068 90.7074 26.1441C90.6057 25.1308 90.5549 24.2188 90.5549 23.2561C90.5549 21.8375 90.6566 20.3681 90.8089 18.8481C90.9613 17.3281 91.2662 15.8081 91.6218 14.3387C91.9775 12.8694 92.4856 11.5014 93.1461 10.1841C93.7557 8.86672 94.5179 7.75204 95.4323 6.78938C96.1944 5.97871 96.9566 5.32002 97.8203 4.81336C98.6331 4.30669 99.4968 3.85069 100.31 3.54669C101.173 3.24268 101.986 2.98935 102.799 2.83735C103.612 2.68535 104.425 2.53335 105.238 2.43202L109.303 1.92535C110.217 1.82402 111.03 1.67202 111.894 1.41868C112.707 1.16535 113.215 0.76001 113.418 0.10134H116.197ZM100.716 16.3148C101.428 15.7573 102.393 15.4533 103.612 15.4533C104.832 15.4533 105.848 15.7575 106.661 16.4161C107.423 16.9735 108.032 17.7335 108.49 18.6961C108.947 19.6081 109.252 20.6721 109.404 21.8375C109.557 23.0028 109.658 24.1681 109.658 25.2828C109.658 25.8908 109.607 26.7015 109.506 27.7655C109.404 28.7788 109.201 29.8428 108.794 30.8561C108.388 31.8696 107.778 32.7816 106.965 33.5416C106.153 34.3016 104.984 34.6561 103.561 34.6561C102.139 34.6561 101.072 34.3016 100.259 33.5416C99.4461 32.7816 98.8872 31.9201 98.4807 30.8561C98.0743 29.7921 97.8203 28.7281 97.7186 27.6641C97.6171 26.5495 97.5662 25.6881 97.5662 24.9788C97.5662 23.2055 97.7186 21.7868 98.0235 20.7734C98.3284 19.7601 98.6331 18.8988 98.9889 18.2908C99.3953 17.5308 100.005 16.8721 100.716 16.3148ZM11.6517 37.4936C8.09522 37.5949 3.87827 36.8856 0.626641 35.3148L1.89681 31.9708C3.87827 33.2376 6.87586 34.2003 10.5339 34.2508C14.192 34.3016 17.5452 32.8323 19.6283 29.7923C20.5428 28.4748 21.2033 26.9548 21.6097 25.2322C21.9655 23.5095 22.1687 21.7362 22.1178 19.8615C22.067 18.3922 21.9146 17.1255 21.6606 15.9602C21.4065 14.7948 21.0509 13.7815 20.6952 12.9201C20.3396 12.0081 19.8824 11.2481 19.4251 10.6401C18.9678 10.0321 18.5106 9.47478 18.0025 9.01878C16.9864 8.10678 15.8687 7.4481 14.5476 6.94143C11.9565 5.9281 9.21296 6.18143 6.67263 7.34676L6.60055 7.38426C7.08458 7.61966 7.52422 7.8994 7.88408 8.25882C8.2899 8.66416 8.645 9.12015 8.89865 9.6775C9.15229 10.2348 9.30447 10.7922 9.30447 11.3495C9.30447 12.5655 8.89865 13.6295 8.03626 14.4908C7.17388 15.3522 6.05785 15.8082 4.78964 15.8589C3.57217 15.8589 2.50687 15.4535 1.64449 14.6429C0.731381 13.8322 0.27482 12.7682 0.27482 11.5522C0.263535 11.2704 0.277354 10.9986 0.314601 10.7369L0.270996 10.6908C1.89681 3.80009 11.9565 2.12808 18.0533 4.00276C20.2379 4.66143 22.067 5.62408 23.642 6.8401C25.3695 8.2081 26.8428 9.98144 28.0114 12.1601C29.2307 14.3388 29.8405 16.9228 29.8912 19.9628C29.8912 20.9762 29.8405 21.9895 29.688 23.0535C29.5356 24.1175 29.2815 25.1815 28.8751 26.2455C28.4687 27.3603 27.9606 28.4243 27.3001 29.4883C26.6396 30.6028 25.8266 31.6163 24.8106 32.5788C23.8452 33.5416 22.88 34.3016 21.8638 34.9096C20.8477 35.5176 19.7807 36.0243 18.6629 36.3789C17.5452 36.7336 16.4275 37.0376 15.2589 37.1896C14.0904 37.3923 12.871 37.4936 11.6517 37.4936ZM35.2774 31.7176C35.2774 34.2003 33.9564 34.6056 31.8225 34.6563V36.987H44.9306V34.7576C42.7967 34.707 41.5774 34.3016 41.5774 31.819V25.7895H51.3322V31.819C51.3322 34.3016 50.1129 34.707 47.979 34.7576V36.987H61.0871V34.7576C58.9531 34.707 57.6322 34.3016 57.6322 31.819V18.0375C57.6322 15.5549 58.9531 15.1495 61.0871 15.0989V12.8695H47.979V15.0989C50.1129 15.1495 51.3322 15.5549 51.3322 18.0375V23.0029H41.5266V17.9869C41.5266 15.5549 42.6951 15.1495 44.7781 15.0482H44.8798V12.8189H31.8225V15.0482C33.9564 15.0989 35.2774 15.5042 35.2774 17.9869V31.7176ZM74.9578 12.2108C76.8377 12.2108 78.5142 12.4642 79.9369 13.0215C81.3595 13.5788 82.5788 14.2882 83.595 15.0989C84.0522 15.5042 84.5095 15.9602 85.0175 16.5682C85.5256 17.1255 85.9828 17.8349 86.3384 18.5949C86.745 19.4055 87.0497 20.2668 87.3038 21.2802C87.5578 22.2935 87.7102 23.4082 87.7102 24.7255C87.7102 27.2083 87.3038 29.2855 86.4401 30.907C85.5764 32.5283 84.5095 33.795 83.2393 34.7576C81.9183 35.7203 80.4957 36.379 78.9715 36.7336C77.3965 37.0883 75.9232 37.291 74.5514 37.291C72.7732 37.291 71.0965 37.0376 69.5215 36.531C67.9465 36.0243 66.5747 35.2643 65.4061 34.251C64.2377 33.2376 63.2723 31.9203 62.6118 30.3495C61.9514 28.779 61.5956 26.955 61.5956 24.7762C61.5956 22.4962 61.9514 20.5709 62.7134 18.9495C63.4247 17.3282 64.4409 16.0615 65.6602 15.0482C66.8796 14.0348 68.3021 13.3255 69.9279 12.8188C71.5029 12.4642 73.1796 12.2108 74.9578 12.2108ZM74.5514 14.8962C73.8909 14.8962 73.2811 14.9975 72.7732 15.2002C72.2651 15.4028 71.8586 15.6562 71.5029 15.9602C71.1473 16.2642 70.8424 16.5682 70.5884 16.9229C70.3345 17.2269 70.1311 17.5815 69.9788 17.8855C69.6232 18.5442 69.3183 19.4055 69.0134 20.5202C68.7086 21.5842 68.5561 23.0535 68.5561 24.8268C68.5561 25.739 68.6578 26.7522 68.8102 27.867C68.9627 28.9815 69.2674 30.0963 69.7247 31.1096C70.182 32.123 70.7916 32.9843 71.5537 33.6936C72.3159 34.403 73.332 34.7576 74.5005 34.7576C75.72 34.7576 76.736 34.403 77.5489 33.6936C78.3619 32.9843 78.9715 32.123 79.3779 31.1096C79.8352 30.0963 80.1401 29.0323 80.2925 27.9175C80.445 26.803 80.5465 25.8402 80.5465 24.979C80.5465 24.2695 80.445 23.3575 80.2925 22.2429C80.1401 21.1282 79.8352 20.0135 79.4288 18.9495C79.0223 17.8855 78.3619 16.9229 77.5997 16.1629C76.8884 15.2509 75.8215 14.8962 74.5514 14.8962ZM122.105 30.1467C122.664 30.1467 123.172 30.248 123.68 30.4507C124.188 30.6534 124.594 30.9574 125.001 31.312C125.357 31.6667 125.661 32.072 125.915 32.5787C126.169 33.0854 126.271 33.5414 126.271 34.0987C126.271 35.1627 125.865 36.1254 125.052 36.8854C124.239 37.6454 123.274 38 122.105 38C120.987 38 120.073 37.6454 119.26 36.8854C118.447 36.1254 118.091 35.2134 118.091 34.0987C118.091 32.984 118.498 32.0214 119.26 31.2614C120.022 30.5014 120.987 30.1467 122.105 30.1467Z" fill="white"/>
</svg>
