<svg width="111" height="38" viewBox="0 0 111 38" fill="none" xmlns="http://www.w3.org/2000/svg">
<path d="M0.270996 8.75002H5.1232V29.2001H0.270996V37.3001H26.2328V29.2001H21.3306V8.75002H26.2328V0H0.270996V8.75002Z" fill="white"/>
<path d="M66.2008 29.1499V18.4499C66.2008 11.5998 61.1985 9.09983 54.9957 9.09983C50.5937 9.09983 47.2422 10.2998 44.3408 13.6498C44.1407 13.8998 43.8906 14.1998 43.5905 14.4498V8.79983H27.5832V16.9499H31.2349V29.1999H27.5832V37.3499H47.8924V29.1999H44.0407V22.1499C44.0407 19.1499 46.2917 16.9499 49.2931 16.9499C51.6442 16.9499 53.495 18.0998 53.495 20.6499V29.1499H49.7433V37.2999H69.6023V29.2999C69.6023 29.2499 69.5523 29.1999 69.5523 29.1499H66.2008Z" fill="white"/>
<path d="M101.917 26.8H91.0122C91.0122 29.8 88.8112 31.2 86.3601 31.2C81.658 31.2 81.2578 27.25 81.2578 23.5V23.4C81.2578 19.65 81.608 15.6999 86.3601 15.6999C90.0618 15.6999 90.7121 18.9 90.8121 21.95L101.767 20.75C100.617 9.59993 89.6116 8.89993 86.8604 8.89993C86.4602 8.89993 86.2601 8.89993 86.2601 8.89993C77.206 8.89993 68.3019 13.3499 68.3019 23.45C68.3019 25.6 68.7021 27.5 69.4524 29.15H69.5025V29.3C72.2037 35.3 79.2069 38 86.2601 38C92.0127 38 100.066 36.6 101.867 27.75L101.917 26.8Z" fill="white"/>
<path d="M105.669 37.4501C108.211 37.4501 110.271 35.3906 110.271 32.8501C110.271 30.3096 108.211 28.2501 105.669 28.2501C103.127 28.2501 101.067 30.3096 101.067 32.8501C101.067 35.3906 103.127 37.4501 105.669 37.4501Z" fill="white"/>
</svg>
