<svg width="85" height="46" viewBox="0 0 85 46" fill="none" xmlns="http://www.w3.org/2000/svg">
<path d="M2.35795 28.0912H5.91526L4.49234 8.71169H4.06546L2.35795 28.0912Z" fill="white"/>
<path d="M20.3342 36.7721C20.3342 39.6814 19.4804 40.1037 17.7729 40.1037H16.1603V5.84931H17.7729C19.4804 5.84931 20.3342 6.27163 20.3342 9.1809V36.7721ZM17.5832 0.5H9.47253L14.6425 45.4999H19.0535C24.2709 45.4999 27.1168 41.6522 27.1168 37.3352V10.6355C27.1168 2.79927 24.3184 0.5 17.5832 0.5Z" fill="white"/>
<path d="M1.74135 33.9567L0.270996 45.4999H7.81249L6.53186 33.9567H1.74135Z" fill="white"/>
<path d="M50.4054 8.71169L48.7453 28.0912H52.2552L50.8797 8.71169H50.4054Z" fill="white"/>
<path d="M50.4054 8.71169L48.7453 28.0912H52.2552L50.8797 8.71169H50.4054Z" fill="white"/>
<path d="M33.6622 5.89629V22.8827C35.6543 22.8827 37.8361 22.6481 37.8361 20.865V10.1664C37.7887 5.99013 36.4132 5.89629 33.6622 5.89629Z" fill="white"/>
<path d="M50.4054 8.71169L48.7453 28.0912H52.2552L50.8797 8.71169H50.4054Z" fill="white"/>
<path d="M48.1287 33.9567L46.6584 45.4999H54.1999L52.9192 33.9567H48.1287Z" fill="white"/>
<path d="M33.6622 28.232V45.5H40.5397L42.8638 25.4166C41.0615 27.5751 37.9784 28.232 33.6622 28.232Z" fill="white"/>
<path d="M77.7255 33.3936V38.1329C77.7255 40.4322 77.0141 40.9014 75.686 40.9014C74.2631 40.9014 73.267 40.3852 73.267 38.1329V30.7189C73.267 26.1673 62.358 16.4541 62.358 13.2163V7.63242C62.358 5.38007 63.354 4.86391 64.7769 4.86391C65.8204 4.86391 66.8165 5.38007 66.8165 7.63242V13.4979C66.8165 20.8649 77.7255 27.0589 77.7255 33.3936ZM84.1761 16.5479V7.06933C84.1761 4.20698 83.0852 2.33003 81.4726 1.20386C80.856 0.734619 80.0971 0.5 79.2908 0.5H60.5082C59.6544 0.5 58.8481 0.734619 58.1841 1.25078C57.3777 1.86079 56.6663 2.70542 56.2394 3.73774L58.1366 20.1141C61.3619 24.7596 66.5319 29.0297 66.5319 33.3936V38.1329C66.5319 40.4322 65.8204 40.9014 64.4923 40.9014C63.0694 40.9014 62.4054 40.3852 62.4054 38.1329V28.3258H59.1327L61.1248 45.4999H79.0062C79.6228 45.4999 80.2868 45.3592 80.8085 45.0307C82.8481 43.9045 84.271 41.9337 84.271 38.6491V30.672C84.271 26.1204 73.3619 16.4072 73.3619 13.1694V7.58549C73.3619 5.33315 74.3105 4.81699 75.686 4.81699C76.7769 4.81699 77.7255 5.33315 77.7255 7.58549V16.501L84.1761 16.5479Z" fill="white"/>
</svg>
