<svg width="155" height="28" viewBox="0 0 155 28" fill="none" xmlns="http://www.w3.org/2000/svg">
<path fill-rule="evenodd" clip-rule="evenodd" d="M8.22078 11.6498V1.88088H9.05202C9.67529 1.88088 10.7148 1.77664 10.7148 4.70172V8.77649C10.7148 11.7019 9.67498 11.6498 9.05202 11.6498H8.22078ZM1.82979 23.3513H0.271306V24.1877H11.5976C14.3517 24.1877 17.2095 23.194 17.2095 18.7017C17.2095 15.6203 16.1181 12.6946 11.8574 12.2764V11.9107C13.9361 11.7546 16.8457 10.7616 16.8457 6.42625C16.8457 1.51544 13.0524 0.993023 11.8061 0.993023H0.270996V1.88119H1.82948L1.82979 23.3513ZM8.22078 23.3513V12.4855H9.05202C9.67529 12.4855 10.7148 12.4334 10.7148 15.3588V20.4768C10.7148 23.4025 9.67498 23.3513 9.05202 23.3513H8.22078Z" fill="white"/>
<path fill-rule="evenodd" clip-rule="evenodd" d="M19.8593 1.88088H18.2483V0.992711H32.5885V9.29859H32.0689C31.3923 1.93299 27.756 1.88056 26.6131 1.88056H26.1975V12.0673H26.5088C28.5872 12.0673 29.4188 9.45587 29.3148 7.1047H29.8862V17.8136H29.3148C29.4188 15.4627 28.5872 12.9031 26.5088 12.9031H26.1975V23.351C30.5616 23.4559 32.0686 19.3805 32.4324 15.2542H33.0035V24.1874H18.2477V23.351H19.8587V1.88088H19.8593Z" fill="white"/>
<path fill-rule="evenodd" clip-rule="evenodd" d="M40.695 1.88088V23.3513H36.4864C38.3565 20.5829 38.5645 16.56 38.5645 10.814V3.76206C38.5645 1.93362 39.1362 1.88119 39.6037 1.88119H40.695V1.88088ZM35.8628 1.88119H36.6941C37.2137 1.88119 37.9412 1.98605 37.9412 4.02296V10.8143C37.9412 20.2175 36.6422 23.3516 34.6163 23.3516H34.3044V28H34.824C34.9276 24.5538 36.1751 24.188 38.9286 24.188H44.4359C47.19 24.188 48.4369 24.5538 48.5408 28H49.0605V23.3513H47.086V1.88088H48.6445V0.992711H35.8628V1.88119Z" fill="white"/>
<path fill-rule="evenodd" clip-rule="evenodd" d="M55.5536 3.50055C55.5536 2.03785 56.0213 1.4112 56.8007 1.4112C57.5283 1.4112 58.0476 2.03816 58.0476 3.50055V21.785C58.0476 23.1944 57.5283 23.8219 56.8007 23.8219C56.0213 23.8219 55.5536 23.194 55.5536 21.785V3.50055ZM48.7991 12.6422C48.7991 18.3887 51.5008 24.7082 56.8004 24.7082C62.0994 24.7082 64.7493 18.3887 64.7493 12.6422C64.7493 6.84381 62.0994 0.523038 56.8004 0.523038C51.5008 0.523038 48.7991 6.84381 48.7991 12.6422Z" fill="white"/>
<path fill-rule="evenodd" clip-rule="evenodd" d="M67.5565 3.65721H67.5046V20.4768C67.5046 23.0904 68.3877 23.3513 69.115 23.3513H69.5306V24.1877H65.2701V23.3513C65.9452 23.4025 66.8811 23.0368 66.8811 20.4768V1.88088H65.2701V0.992711H73.2714L75.2974 10.4483H75.4016L77.4797 0.992711H85.4814V1.88088H83.9223V23.3513H85.4814V24.1877H75.9728V23.3513H77.5313V3.76206H77.4276L72.9073 24.1877H72.0243L67.5565 3.65721Z" fill="white"/>
<path fill-rule="evenodd" clip-rule="evenodd" d="M92.9621 3.50055C92.9621 2.03785 93.4811 1.4112 94.2087 1.4112C94.9884 1.4112 95.4552 2.03816 95.4552 3.50055V21.785C95.4552 23.1944 94.9884 23.8219 94.2087 23.8219C93.4811 23.8219 92.9621 23.194 92.9621 21.785V3.50055ZM86.2592 12.6422C86.2592 18.3887 88.909 24.7082 94.2087 24.7082C99.5071 24.7082 102.21 18.3887 102.21 12.6422C102.21 6.84381 99.5071 0.523038 94.2087 0.523038C88.909 0.523038 86.2592 6.84381 86.2592 12.6422Z" fill="white"/>
<path fill-rule="evenodd" clip-rule="evenodd" d="M117.744 8.61983H117.173C116.653 4.85901 114.835 1.93331 112.756 1.93331C110.47 1.93331 110.367 5.32899 110.367 6.94835V17.6569C110.367 18.7014 110.418 22.6707 113.016 22.6707C115.925 22.6707 117.069 18.649 117.485 15.5669L118.004 15.7239C117.536 19.5902 116.081 24.7076 111.613 24.7076C106.261 24.7076 103.663 18.1269 103.663 12.5897C103.663 5.95502 106.885 0.522414 111.613 0.522414C112.549 0.522414 113.95 0.835737 115.25 2.03723L116.965 0H117.485L117.744 8.61983Z" fill="white"/>
<path fill-rule="evenodd" clip-rule="evenodd" d="M123.669 1.88088C120.707 2.14208 119.668 6.79169 119.461 9.2989H118.94V0.993023H134.788V9.2989H134.216C134.008 6.792 132.968 2.14208 130.057 1.88088V23.3513H131.929V24.1877H121.744V23.3513H123.667V1.88088H123.669Z" fill="white"/>
<path fill-rule="evenodd" clip-rule="evenodd" d="M143.829 17.1872H143.932L146.322 3.44812V1.88088H145.543V0.993023H154.271V1.88088H152.713V23.3513H154.271V24.1877H145.543V23.3513H146.322V7.10501H146.219L143.829 20.7914V23.3513H144.608V24.1877H135.877V23.3513H137.438V1.88088H135.877V0.993023H144.608V1.88088H143.829V17.1872Z" fill="white"/>
</svg>
