<svg width="43" height="43" viewBox="0 0 43 43" fill="none" xmlns="http://www.w3.org/2000/svg">
<path d="M13.25 22H22.25C22.4489 22 22.6397 21.921 22.7803 21.7803C22.921 21.6397 23 21.4489 23 21.25V12.25C23 12.0511 22.921 11.8603 22.7803 11.7197C22.6397 11.579 22.4489 11.5 22.25 11.5H13.25C13.0511 11.5 12.8603 11.579 12.7197 11.7197C12.579 11.8603 12.5 12.0511 12.5 12.25V21.25C12.5 21.4489 12.579 21.6397 12.7197 21.7803C12.8603 21.921 13.0511 22 13.25 22ZM17 13H18.5V14.7865L18.0852 14.5788C17.9811 14.5266 17.8661 14.4995 17.7496 14.4995C17.6331 14.4995 17.5182 14.5266 17.414 14.5788L17 14.7865V13ZM14 13H15.5V16C15.5001 16.1279 15.5328 16.2536 15.5951 16.3653C15.6574 16.477 15.7472 16.5709 15.856 16.6381C15.9648 16.7054 16.089 16.7437 16.2167 16.7495C16.3445 16.7553 16.4716 16.7284 16.586 16.6713L17.75 16.0885L18.9148 16.6705C19.0288 16.7282 19.1558 16.7555 19.2835 16.7499C19.4112 16.7442 19.5352 16.7058 19.6437 16.6382C19.865 16.501 20 16.2603 20 16V13H21.5V20.5H14V13ZM24.5 16.75C24.5 16.5511 24.579 16.3603 24.7197 16.2197C24.8603 16.079 25.0511 16 25.25 16H29.4395L28.4697 15.0302C28.3291 14.8896 28.2501 14.6989 28.2501 14.5C28.2501 14.3011 28.3291 14.1104 28.4697 13.9698C28.6104 13.8291 28.8011 13.7501 29 13.7501C29.1989 13.7501 29.3896 13.8291 29.5303 13.9698L31.7795 16.219C31.8493 16.2887 31.9046 16.3715 31.9423 16.4626C31.9801 16.5537 31.9995 16.6514 31.9995 16.75C31.9995 16.8486 31.9801 16.9463 31.9423 17.0374C31.9046 17.1285 31.8493 17.2113 31.7795 17.281L29.5303 19.5302C29.4608 19.6001 29.3781 19.6556 29.2871 19.6934C29.1961 19.7313 29.0986 19.7508 29 19.7508C28.9014 19.7508 28.8039 19.7313 28.7129 19.6934C28.6219 19.6556 28.5392 19.6001 28.4697 19.5302C28.4 19.4607 28.3447 19.378 28.307 19.287C28.2693 19.196 28.2498 19.0985 28.2498 19C28.2498 18.9015 28.2693 18.804 28.307 18.713C28.3447 18.622 28.4 18.5393 28.4697 18.4698L29.4395 17.5H25.25C25.0511 17.5 24.8603 17.421 24.7197 17.2803C24.579 17.1397 24.5 16.9489 24.5 16.75ZM24.5 28C24.5 26.7595 23.4905 25.75 22.25 25.75C21.0095 25.75 20 26.7595 20 28C20 29.2405 21.0095 30.25 22.25 30.25C23.4905 30.25 24.5 29.2405 24.5 28ZM21.5 28C21.4999 27.8515 21.5438 27.7062 21.6262 27.5826C21.7086 27.459 21.8259 27.3627 21.9631 27.3058C22.1003 27.2489 22.2513 27.2339 22.397 27.2629C22.5427 27.2918 22.6766 27.3634 22.7816 27.4684C22.8867 27.5734 22.9582 27.7073 22.9871 27.853C23.0161 27.9987 23.0011 28.1497 22.9442 28.2869C22.8873 28.4241 22.791 28.5414 22.6674 28.6238C22.5438 28.7062 22.3985 28.7501 22.25 28.75C21.836 28.75 21.5 28.4132 21.5 28ZM18.5 28C18.5 26.7595 17.4905 25.75 16.25 25.75C15.0095 25.75 14 26.7595 14 28C14 29.2405 15.0095 30.25 16.25 30.25C17.4905 30.25 18.5 29.2405 18.5 28ZM15.5 28C15.4999 27.8515 15.5438 27.7062 15.6262 27.5826C15.7086 27.459 15.8259 27.3627 15.9631 27.3058C16.1003 27.2489 16.2513 27.2339 16.397 27.2629C16.5427 27.2918 16.6766 27.3634 16.7816 27.4684C16.8866 27.5734 16.9582 27.7073 16.9871 27.853C17.0161 27.9987 17.0011 28.1497 16.9442 28.2869C16.8873 28.4241 16.791 28.5414 16.6674 28.6238C16.5438 28.7062 16.3985 28.7501 16.25 28.75C15.836 28.75 15.5 28.4132 15.5 28ZM30.5 28C30.5 26.7595 29.4905 25.75 28.25 25.75C27.0095 25.75 26 26.7595 26 28C26 29.2405 27.0095 30.25 28.25 30.25C29.4905 30.25 30.5 29.2405 30.5 28ZM27.5 28C27.4999 27.8515 27.5438 27.7062 27.6262 27.5826C27.7086 27.459 27.8259 27.3627 27.9631 27.3058C28.1003 27.2489 28.2513 27.2339 28.397 27.2629C28.5427 27.2918 28.6766 27.3634 28.7816 27.4684C28.8866 27.5734 28.9582 27.7073 28.9871 27.853C29.0161 27.9987 29.0011 28.1497 28.9442 28.2869C28.8873 28.4241 28.791 28.5414 28.6674 28.6238C28.5438 28.7062 28.3985 28.7501 28.25 28.75C27.836 28.75 27.5 28.4132 27.5 28Z" fill="#121720"/>
<path d="M33.5 28C33.5 30.4818 31.4818 32.5 29 32.5H13.25C13.0511 32.5 12.8603 32.421 12.7197 32.2803C12.579 32.1397 12.5 31.9489 12.5 31.75C12.5 31.5511 12.579 31.3603 12.7197 31.2197C12.8603 31.079 13.0511 31 13.25 31H29C30.6545 31 32 29.6545 32 28C32 26.3455 30.6545 25 29 25H13.25C13.0511 25 12.8603 24.921 12.7197 24.7803C12.579 24.6397 12.5 24.4489 12.5 24.25C12.5 24.0511 12.579 23.8603 12.7197 23.7197C12.8603 23.579 13.0511 23.5 13.25 23.5H29C31.4818 23.5 33.5 25.5182 33.5 28Z" fill="#121720"/>
<circle cx="21.5" cy="21.5" r="21" stroke="#121720"/>
</svg>
