<svg width="86" height="86" viewBox="0 0 86 86" fill="none" xmlns="http://www.w3.org/2000/svg">
<path d="M43 86C66.7482 86 86 66.7482 86 43C86 19.2518 66.7482 0 43 0C19.2518 0 0 19.2518 0 43C0 66.7482 19.2518 86 43 86Z" fill="#34D678"/>
<path d="M86 43.0001C86 41.44 85.9148 39.8997 85.7527 38.3828L69.1423 21.7723L56.9098 32.9675L50.1499 26.2076L43.4291 38.1207L47.18 41.8716L37.8845 45.1237L14.6147 52.562L47.7864 85.7337C69.2815 83.3525 86 65.1301 86 43.0001Z" fill="#219653"/>
<path d="M39.2483 52.1588H25.658V58.4736H39.2483V52.1588Z" fill="#324A5E"/>
<path d="M39.2499 52.1587H32.4802V58.4735H39.2499V52.1587Z" fill="#2B3B4E"/>
<path d="M49.2817 53.0508H15.6262C14.9121 53.0508 14.3335 52.472 14.3335 51.7581V27.1628C14.3335 26.4488 14.9123 25.8701 15.6262 25.8701H49.2817C49.9958 25.8701 50.5744 26.4489 50.5744 27.1628V51.758C50.5746 52.472 49.9958 53.0508 49.2817 53.0508Z" fill="#2B3B4E"/>
<path d="M49.2815 25.8701H32.4792V53.0508H49.2813C49.9954 53.0508 50.574 52.472 50.574 51.7583V27.163C50.5744 26.4489 49.9955 25.8701 49.2815 25.8701Z" fill="#1D2C3A"/>
<path d="M49.2023 27.4158H15.7058V51.5074H49.2023V27.4158Z" fill="#B5F1F4"/>
<path d="M49.2025 27.4158H32.4802V51.5074H49.2025V27.4158Z" fill="#84DBFF"/>
<path d="M39.8132 60.5325H25.0947C24.1555 60.5325 23.3936 59.7709 23.3936 58.8313V57.7034C23.3936 56.7641 24.1551 56.0022 25.0947 56.0022H39.8132C40.7525 56.0022 41.5144 56.7638 41.5144 57.7034V58.8313C41.514 59.7709 40.7525 60.5325 39.8132 60.5325Z" fill="#2B3B4E"/>
<path d="M39.8132 56.0024H32.4795V60.5326H39.8132C40.7525 60.5326 41.5144 59.771 41.5144 58.8314V57.7035C41.514 56.7638 40.7525 56.0024 39.8132 56.0024Z" fill="#1D2C3A"/>
<path d="M67.9624 62.1111H53.5025C52.4916 62.1111 51.6721 61.2916 51.6721 60.2808V23.1704C51.6721 22.1596 52.4916 21.3401 53.5025 21.3401H67.9624C68.9732 21.3401 69.7928 22.1596 69.7928 23.1704V60.2808C69.7928 61.2916 68.9734 62.1111 67.9624 62.1111Z" fill="#2B3B4E"/>
<path d="M67.9626 21.3401H60.6633V62.111H67.9626C68.9734 62.111 69.7929 61.2915 69.7929 60.2806V23.1704C69.7929 22.1596 68.9736 21.3401 67.9626 21.3401Z" fill="#1D2C3A"/>
<path d="M60.7329 52.0219C61.4153 52.0219 61.9685 51.4687 61.9685 50.7864C61.9685 50.104 61.4153 49.5508 60.7329 49.5508C60.0505 49.5508 59.4973 50.104 59.4973 50.7864C59.4973 51.4687 60.0505 52.0219 60.7329 52.0219Z" fill="#84DBFF"/>
<path d="M60.7329 55.5227C61.4153 55.5227 61.9685 54.9695 61.9685 54.2871C61.9685 53.6047 61.4153 53.0515 60.7329 53.0515C60.0505 53.0515 59.4973 53.6047 59.4973 54.2871C59.4973 54.9695 60.0505 55.5227 60.7329 55.5227Z" fill="#4CDBC4"/>
<path d="M68.5595 26.7613H52.9087V29.5069H68.5595V26.7613Z" fill="#324A5E"/>
<path d="M68.5595 23.1245H52.9087V25.8701H68.5595V23.1245Z" fill="#324A5E"/>
<path d="M68.5595 30.4012H52.9087V33.1469H68.5595V30.4012Z" fill="#324A5E"/>
<path d="M59.4973 50.7857C59.4973 51.4445 60.0142 51.9776 60.6634 52.0144V49.5575C60.014 49.5939 59.4973 50.1272 59.4973 50.7857Z" fill="#B5F1F4"/>
<path d="M60.7328 49.5503C60.7091 49.5503 60.6868 49.556 60.6636 49.5572V52.0141C60.6871 52.0156 60.7091 52.0209 60.7328 52.0209C61.4151 52.0209 61.9684 51.4678 61.9684 50.7854C61.9684 50.1031 61.4149 49.5503 60.7328 49.5503Z" fill="#84DBFF"/>
<path d="M59.4973 54.2863C59.4973 54.9451 60.0142 55.4783 60.6634 55.515V53.058C60.014 53.0944 59.4973 53.6279 59.4973 54.2863Z" fill="#4CDBC4"/>
<path d="M60.7328 53.0511C60.7091 53.0511 60.6868 53.0569 60.6636 53.058V55.5149C60.6871 55.5164 60.7091 55.5218 60.7328 55.5218C61.4151 55.5218 61.9684 54.9687 61.9684 54.2862C61.9684 53.6039 61.4149 53.0511 60.7328 53.0511Z" fill="#2C9984"/>
<path d="M68.5566 26.7613H60.6631V29.5069H68.5566V26.7613Z" fill="#2B3B4E"/>
<path d="M68.5566 23.1245H60.6631V25.8701H68.5566V23.1245Z" fill="#2B3B4E"/>
<path d="M68.5566 30.4012H60.6631V33.1469H68.5566V30.4012Z" fill="#2B3B4E"/>
</svg>
