<svg width="86" height="86" viewBox="0 0 86 86" fill="none" xmlns="http://www.w3.org/2000/svg">
<path d="M85.7978 38.825C83.698 17.0361 65.3395 0 43 0C19.2519 0 0 19.2519 0 43C0 62.7815 13.3586 79.4407 31.5461 84.4549L85.7978 38.825Z" fill="#455A64"/>
<path d="M85.9999 43C85.9999 41.5912 85.9301 40.1989 85.7977 38.825L70.506 23.5333L57.5878 33.6105L41.9017 17.9244L31.8962 27.93L46.3462 42.38L14.3955 67.3044L31.546 84.4549C35.1931 85.4603 39.0333 86 42.9999 86C66.748 86 85.9999 66.7481 85.9999 43Z" fill="#263238"/>
<path d="M67.8653 22.4348H39.2609V37.3913H71.6044V26.1738C71.6044 24.1175 69.9217 22.4348 67.8653 22.4348Z" fill="#FF5722"/>
<path d="M39.2608 16.8262H18.1347C16.0782 16.8262 14.3955 18.5087 14.3955 20.5653V37.3914H42.9999V20.5653C42.9999 18.5087 41.3174 16.8262 39.2608 16.8262Z" fill="#FF7043"/>
<path d="M33.6521 59.8262L42.9999 13.087H53.5163L57.0216 20.0979L64.0324 23.6034V59.8262H33.6521Z" fill="#E0F7FA"/>
<path d="M43.0001 13.087H21.9675V59.8262H43.0001V13.087Z" fill="white"/>
<path d="M53.5164 13.087V23.6034H64.0325L53.5164 13.087Z" fill="#80DEEA"/>
<path d="M73.4739 31.7825H43L39.2609 49.5433L43 67.3044H71.6044L76.6301 35.4759C76.9506 33.4445 75.5305 31.7825 73.4739 31.7825Z" fill="#FFAB91"/>
<path d="M60.3872 52.5347H56.6481V56.2738H60.3872V52.5347Z" fill="#FF8A65"/>
<path d="M67.8653 60.0129H64.1261V63.7521H67.8653V60.0129Z" fill="#FF8A65"/>
<path d="M12.3391 31.7825C10.2827 31.7825 8.87089 33.4432 9.20213 35.4727L14.3956 67.3042H43V31.7825H12.3391Z" fill="#FFCCBC"/>
<path d="M39.2609 35.5217H35.5217V39.2609H39.2609V35.5217Z" fill="#FFAB91"/>
</svg>
