<svg width="86" height="86" viewBox="0 0 86 86" fill="none" xmlns="http://www.w3.org/2000/svg">
<path d="M43 86C66.7482 86 86 66.7482 86 43C86 19.2518 66.7482 0 43 0C19.2518 0 0 19.2518 0 43C0 66.7482 19.2518 86 43 86Z" fill="#3A9BF5"/>
<path d="M49.8001 85.4628C67.5698 82.6392 81.7116 68.9316 85.1802 51.3851L70.6818 36.8867L69.0612 39.1L54.8564 24.8953L18.3103 45.2828L25.5377 52.5102L22.7244 58.3871L49.8001 85.4628Z" fill="#1478D2"/>
<path d="M35.7889 16.9478C23.27 16.9478 13.1213 24.6987 13.1213 34.2598C13.1213 40.1053 16.9151 45.2737 22.7243 48.4083V58.387L31.2117 51.2187C32.69 51.4502 34.2209 51.572 35.7889 51.572C48.3078 51.572 58.4564 43.8211 58.4564 34.26C58.4564 24.6988 48.3078 16.9478 35.7889 16.9478Z" fill="white"/>
<path d="M35.7886 16.9478C35.754 16.9478 35.7196 16.9486 35.6852 16.9488V51.571C35.7198 51.5711 35.754 51.572 35.7886 51.572C48.3075 51.572 58.4562 43.8211 58.4562 34.26C58.4562 24.6987 48.3075 16.9478 35.7886 16.9478Z" fill="#DCE1EB"/>
<path d="M52.2269 29.6284C64.7458 29.6284 74.8944 37.3793 74.8944 46.9405C74.8944 52.7859 71.1007 57.9543 65.2915 61.089V71.0677L56.804 63.8994C55.3257 64.1309 53.7949 64.2527 52.2269 64.2527C39.708 64.2527 29.5593 56.5017 29.5593 46.9406C29.5593 37.3795 39.708 29.6284 52.2269 29.6284Z" fill="#FFDA00"/>
<path d="M52.2266 29.6284C52.1449 29.6284 52.0636 29.6301 51.9822 29.6308V64.2503C52.0636 64.251 52.1448 64.2527 52.2266 64.2527C53.7946 64.2527 55.3253 64.1311 56.8037 63.8994L65.2912 71.0678V61.0891C71.1004 57.9545 74.8941 52.7861 74.8941 46.9406C74.8941 37.3793 64.7455 29.6284 52.2266 29.6284Z" fill="#FFA426"/>
</svg>
