<svg width="86" height="87" viewBox="0 0 86 87" fill="none" xmlns="http://www.w3.org/2000/svg">
<path d="M43.0006 0.969116C19.2519 0.969116 0 20.2071 0 43.9381C0 65.5044 15.8999 83.3601 36.6253 86.438L85.9844 42.7189C85.3382 19.5517 66.3411 0.969116 43.0006 0.969116Z" fill="#71E2F0"/>
<path d="M86 44C86 43.5714 85.992 43.1449 85.9794 42.7193L57.0595 13.8208L28.8834 41.9761L41.4076 54.4913L18.5435 68.4381L36.6157 86.497C38.6988 86.8068 40.8301 86.9691 42.9994 86.9691C66.7479 86.969 86 67.7312 86 44Z" fill="#38C6D9"/>
<path d="M42.9714 7.98975C53.9753 7.98975 62.8947 16.9026 62.8947 27.8984C62.8947 38.8941 53.9753 47.807 42.9714 47.807L35.9808 27.8984L42.9714 7.98975Z" fill="#366796"/>
<path d="M42.9715 7.98975V47.807C31.9677 47.807 23.0482 38.8941 23.0482 27.8984C23.0482 16.9026 31.9677 7.98975 42.9715 7.98975Z" fill="#5488A8"/>
<path d="M60.5174 51.5436C65.2942 53.9015 69.523 57.2049 72.9659 61.2062C66.9873 71.5435 55.8066 78.4998 42.9993 78.4998L39.2601 61.2853L57.168 51.5435L60.5174 51.5436Z" fill="#121149"/>
<path d="M25.4812 51.5436C20.7044 53.9015 16.4756 57.2049 13.0327 61.2062C19.0111 71.5435 30.192 78.4998 42.9993 78.4998V58.5495L28.8306 51.5435L25.4812 51.5436Z" fill="#366796"/>
<path d="M51.88 51.5436L41.1299 58.5495L42.9995 65.7017L57.168 51.5435L51.88 51.5436Z" fill="#366796"/>
<path d="M34.1187 51.5436L42.9993 58.5495V65.7017L28.8306 51.5435L34.1187 51.5436Z" fill="#5488A8"/>
<path d="M42.9995 51.5435L41.1299 55.3342L42.9995 60.4175L51.88 51.5435H42.9995Z" fill="#C2FBFF"/>
<path d="M34.1188 51.5435L42.9993 60.4175V51.5435H34.1188Z" fill="white"/>
</svg>
