<svg width="122" height="33" viewBox="0 0 122 33" fill="none" xmlns="http://www.w3.org/2000/svg">
<circle cx="108.885" cy="14.6371" r="13.1154" fill="white"/>
<path d="M105.204 13.6394V17.6756H103.414V8.79097H105.204V12.1164C105.779 11.4902 106.486 11.1771 107.323 11.1771C108.051 11.1771 108.618 11.4098 109.024 11.8752C109.43 12.3321 109.633 12.971 109.633 13.7917V17.6756H107.844V14.1598C107.844 13.7029 107.73 13.3644 107.501 13.1444C107.281 12.9244 106.993 12.8144 106.638 12.8144C106.367 12.8144 106.097 12.8948 105.826 13.0556C105.563 13.2079 105.356 13.4025 105.204 13.6394ZM113.05 17.6756H111.26V11.3421H113.05V12.4083C113.244 12.0698 113.541 11.7821 113.938 11.5452C114.353 11.2998 114.793 11.1771 115.258 11.1771C115.36 11.1771 115.427 11.1814 115.461 11.1898V12.9414C115.292 12.899 115.106 12.8779 114.903 12.8779C114.488 12.8779 114.107 12.9879 113.761 13.2079C113.422 13.4194 113.185 13.6775 113.05 13.9821V17.6756Z" fill="#333333"/>
<path d="M10.5278 21.0595H8.46705V11.6907H10.5278V12.9118C11.2402 11.9324 12.2706 11.4426 13.619 11.4426C14.344 11.4426 14.9673 11.5953 15.4889 11.9005C16.0105 12.2058 16.373 12.6129 16.5765 13.1217C16.92 12.6129 17.3907 12.2058 17.9885 11.9005C18.5991 11.5953 19.267 11.4426 19.992 11.4426C21.0351 11.4426 21.8493 11.767 22.4344 12.4157C23.0196 13.0645 23.3122 13.9931 23.3122 15.2016V21.0595H21.2514V15.6786C21.2514 14.1394 20.6154 13.3698 19.3433 13.3698C18.8472 13.3698 18.3701 13.5224 17.9122 13.8277C17.467 14.1203 17.1426 14.4892 16.9391 14.9344V21.0595H14.8783V15.6786C14.8783 14.1394 14.2359 13.3698 12.9511 13.3698C12.4677 13.3698 11.9971 13.5161 11.5391 13.8087C11.0939 14.0885 10.7568 14.4447 10.5278 14.8772V21.0595ZM25.3896 16.3655C25.3896 14.9535 25.8348 13.7832 26.7253 12.8546C27.6285 11.9133 28.7861 11.4426 30.1981 11.4426C31.1648 11.4426 31.9853 11.697 32.6595 12.2058C33.9825 13.1472 34.644 14.5592 34.644 16.4419V16.9761H27.4695C27.5967 17.7648 27.9719 18.3818 28.5952 18.827C29.2313 19.2722 30.0327 19.4948 30.9995 19.4948C32.068 19.4948 33.0729 19.215 34.0143 18.6553V20.3916C33.1493 21.0022 31.998 21.3075 30.5606 21.3075C29.1232 21.3075 27.8956 20.8496 26.8779 19.9337C25.8857 19.0178 25.3896 17.8284 25.3896 16.3655ZM27.4885 15.4115H32.5641C32.5387 14.8263 32.3161 14.3111 31.8963 13.8659C31.4638 13.408 30.8659 13.179 30.1027 13.179C29.3776 13.179 28.7733 13.3952 28.2899 13.8277C27.8193 14.2475 27.5521 14.7754 27.4885 15.4115ZM42.3769 21.3075C40.9394 21.3075 39.8264 20.7987 39.0377 19.7811V21.0595H36.9769V7.7027H39.0377V12.9691C39.8264 11.9514 40.9394 11.4426 42.3769 11.4426C43.6998 11.4426 44.7875 11.9196 45.6397 12.8737C46.492 13.815 46.9182 14.979 46.9182 16.3655C46.9182 17.7648 46.492 18.9351 45.6397 19.8765C44.7875 20.8305 43.6998 21.3075 42.3769 21.3075ZM41.8235 19.4948C42.6885 19.4948 43.4073 19.1959 43.9797 18.598C44.5521 17.9874 44.8383 17.2433 44.8383 16.3655C44.8383 15.5005 44.5521 14.7691 43.9797 14.1712C43.4073 13.5606 42.6885 13.2553 41.8235 13.2553C41.2384 13.2553 40.6914 13.4143 40.1825 13.7323C39.6864 14.0376 39.3048 14.432 39.0377 14.9154V17.8157C39.3048 18.3118 39.6864 18.7189 40.1825 19.0369C40.6787 19.3422 41.2257 19.4948 41.8235 19.4948ZM53.6662 19.4948C54.5312 19.4948 55.2626 19.1959 55.8605 18.598C56.4457 18.0129 56.7383 17.2687 56.7383 16.3655C56.7383 15.4751 56.4457 14.7373 55.8605 14.1521C55.2626 13.5542 54.5312 13.2553 53.6662 13.2553C52.7885 13.2553 52.0507 13.5542 51.4528 14.1521C50.8676 14.7373 50.5751 15.4751 50.5751 16.3655C50.5751 17.2687 50.8676 18.0129 51.4528 18.598C52.0507 19.1959 52.7885 19.4948 53.6662 19.4948ZM53.6662 21.3075C52.1651 21.3075 50.9312 20.8305 49.9645 19.8765C48.9977 18.9224 48.5143 17.7521 48.5143 16.3655C48.5143 14.9917 48.9977 13.8277 49.9645 12.8737C50.9312 11.9196 52.1651 11.4426 53.6662 11.4426C55.1418 11.4426 56.3694 11.9196 57.3488 12.8737C58.3156 13.8277 58.799 14.9917 58.799 16.3655C58.799 17.7394 58.3156 18.9097 57.3488 19.8765C56.3694 20.8305 55.1418 21.3075 53.6662 21.3075ZM61.7828 18.5026V13.5034H59.7793V11.6907H61.7828V8.96206H63.8436V11.6907H66.8012V13.5034H63.8436V17.9111C63.8436 18.4327 63.9644 18.8143 64.2061 19.056C64.4478 19.2977 64.8167 19.4185 65.3128 19.4185C65.8089 19.4185 66.2796 19.304 66.7248 19.0751V20.8496C66.2796 21.1549 65.5863 21.3075 64.645 21.3075C63.7545 21.3075 63.0549 21.0658 62.5461 20.5825C62.0372 20.0991 61.7828 19.4058 61.7828 18.5026ZM76.5696 21.0595H68.3281V19.7056L72.0512 16.2195C72.8409 15.4862 73.4219 14.8544 73.7942 14.3241C74.1327 13.8164 74.3019 13.2749 74.3019 12.6995C74.3019 12.1015 74.0819 11.622 73.6419 11.261C73.2132 10.8887 72.6491 10.7026 71.9496 10.7026C70.7763 10.7026 69.6706 11.1933 68.6327 12.1749V10.2287C69.603 9.40513 70.7706 8.99333 72.1358 8.99333C73.2527 8.99333 74.2004 9.31487 74.9789 9.95795C75.7686 10.601 76.1635 11.4415 76.1635 12.4795C76.1635 13.2805 75.966 14.0082 75.5712 14.6626C75.1537 15.3282 74.4881 16.0954 73.5742 16.9641L71.0189 19.401H76.5696V21.0595ZM85.5658 21.0595H83.7381V17.9626H77.5951V16.541L83.7381 9.21333H85.5658V16.3718H87.4104V17.9626H85.5658V21.0595ZM83.7381 11.5995L79.7104 16.3718H83.7381V11.5995Z" fill="white"/>
<path d="M32.6877 27.0526V30.9514C32.6877 31.1905 32.4215 31.3335 32.2222 31.2015L27.5573 28.1127H6.43217C3.43206 28.1127 1 25.624 1 22.5541L1.00002 9.61883C1.00002 6.54888 3.43208 4.0602 6.43219 4.0602H27.5573" stroke="white" stroke-width="1.49951"/>
</svg>
