<svg width="122" height="32" viewBox="0 0 122 32" fill="none" xmlns="http://www.w3.org/2000/svg">
<circle cx="108.885" cy="13.9615" r="13.1154" fill="#333333"/>
<path d="M105.204 12.9638V17H103.415V8.11538H105.204V11.4408C105.78 10.8146 106.486 10.5015 107.324 10.5015C108.052 10.5015 108.619 10.7342 109.025 11.1996C109.431 11.6565 109.634 12.2954 109.634 13.1162V17H107.844V13.4842C107.844 13.0273 107.73 12.6888 107.502 12.4688C107.282 12.2488 106.994 12.1388 106.639 12.1388C106.368 12.1388 106.097 12.2192 105.826 12.38C105.564 12.5323 105.357 12.7269 105.204 12.9638ZM113.05 17H111.261V10.6665H113.05V11.7327C113.245 11.3942 113.541 11.1065 113.939 10.8696C114.353 10.6242 114.793 10.5015 115.259 10.5015C115.36 10.5015 115.428 10.5058 115.462 10.5142V12.2658C115.293 12.2235 115.107 12.2023 114.903 12.2023C114.489 12.2023 114.108 12.3123 113.761 12.5323C113.423 12.7438 113.186 13.0019 113.05 13.3065V17Z" fill="white"/>
<path d="M10.5281 20.3839H8.46729V11.0151H10.5281V12.2363C11.2404 11.2568 12.2708 10.767 13.6192 10.767C14.3443 10.767 14.9676 10.9197 15.4891 11.225C16.0107 11.5303 16.3732 11.9373 16.5768 12.4462C16.9202 11.9373 17.3909 11.5303 17.9888 11.225C18.5994 10.9197 19.2672 10.767 19.9923 10.767C21.0354 10.767 21.8495 11.0914 22.4347 11.7402C23.0198 12.3889 23.3124 13.3175 23.3124 14.526V20.3839H21.2516V15.003C21.2516 13.4638 20.6156 12.6942 19.3435 12.6942C18.8474 12.6942 18.3704 12.8469 17.9124 13.1522C17.4672 13.4447 17.1428 13.8136 16.9393 14.2589V20.3839H14.8785V15.003C14.8785 13.4638 14.2362 12.6942 12.9514 12.6942C12.468 12.6942 11.9973 12.8405 11.5394 13.1331C11.0941 13.4129 10.757 13.7691 10.5281 14.2016V20.3839ZM25.3899 15.6899C25.3899 14.2779 25.8351 13.1076 26.7255 12.179C27.6287 11.2377 28.7863 10.767 30.1983 10.767C31.1651 10.767 31.9856 11.0214 32.6598 11.5303C33.9827 12.4716 34.6442 13.8836 34.6442 15.7663V16.3005H27.4697C27.5969 17.0892 27.9722 17.7062 28.5955 18.1514C29.2315 18.5966 30.0329 18.8193 30.9997 18.8193C32.0682 18.8193 33.0732 18.5394 34.0145 17.9797V19.7161C33.1495 20.3267 31.9983 20.632 30.5608 20.632C29.1234 20.632 27.8958 20.174 26.8782 19.2581C25.886 18.3422 25.3899 17.1528 25.3899 15.6899ZM27.4888 14.7359H32.5644C32.5389 14.1507 32.3163 13.6355 31.8965 13.1903C31.464 12.7324 30.8661 12.5034 30.1029 12.5034C29.3778 12.5034 28.7736 12.7197 28.2902 13.1522C27.8195 13.5719 27.5524 14.0999 27.4888 14.7359ZM42.3771 20.632C40.9397 20.632 39.8266 20.1231 39.0379 19.1055V20.3839H36.9772V7.02712H39.0379V12.2935C39.8266 11.2758 40.9397 10.767 42.3771 10.767C43.7001 10.767 44.7877 11.244 45.64 12.1981C46.4923 13.1394 46.9184 14.3034 46.9184 15.6899C46.9184 17.0892 46.4923 18.2595 45.64 19.2009C44.7877 20.1549 43.7001 20.632 42.3771 20.632ZM41.8238 18.8193C42.6888 18.8193 43.4075 18.5203 43.9799 17.9224C44.5524 17.3118 44.8386 16.5677 44.8386 15.6899C44.8386 14.8249 44.5524 14.0935 43.9799 13.4956C43.4075 12.885 42.6888 12.5797 41.8238 12.5797C41.2386 12.5797 40.6916 12.7387 40.1828 13.0568C39.6867 13.3621 39.3051 13.7564 39.0379 14.2398V17.1401C39.3051 17.6362 39.6867 18.0433 40.1828 18.3613C40.6789 18.6666 41.2259 18.8193 41.8238 18.8193ZM53.6664 18.8193C54.5314 18.8193 55.2629 18.5203 55.8608 17.9224C56.4459 17.3373 56.7385 16.5931 56.7385 15.6899C56.7385 14.7995 56.4459 14.0617 55.8608 13.4765C55.2629 12.8787 54.5314 12.5797 53.6664 12.5797C52.7887 12.5797 52.0509 12.8787 51.453 13.4765C50.8679 14.0617 50.5753 14.7995 50.5753 15.6899C50.5753 16.5931 50.8679 17.3373 51.453 17.9224C52.0509 18.5203 52.7887 18.8193 53.6664 18.8193ZM53.6664 20.632C52.1654 20.632 50.9315 20.1549 49.9647 19.2009C48.9979 18.2468 48.5145 17.0765 48.5145 15.6899C48.5145 14.3161 48.9979 13.1522 49.9647 12.1981C50.9315 11.244 52.1654 10.767 53.6664 10.767C55.142 10.767 56.3696 11.244 57.3491 12.1981C58.3159 13.1522 58.7993 14.3161 58.7993 15.6899C58.7993 17.0638 58.3159 18.2341 57.3491 19.2009C56.3696 20.1549 55.142 20.632 53.6664 20.632ZM61.7831 17.827V12.8278H59.7795V11.0151H61.7831V8.28647H63.8438V11.0151H66.8014V12.8278H63.8438V17.2355C63.8438 17.7571 63.9647 18.1387 64.2064 18.3804C64.4481 18.6221 64.817 18.7429 65.3131 18.7429C65.8092 18.7429 66.2798 18.6284 66.7251 18.3995V20.174C66.2798 20.4793 65.5866 20.632 64.6452 20.632C63.7548 20.632 63.0551 20.3903 62.5463 19.9069C62.0375 19.4235 61.7831 18.7302 61.7831 17.827ZM76.5699 20.3839H68.3283V19.0301L72.0514 15.5439C72.8411 14.8106 73.4222 14.1788 73.7945 13.6485C74.1329 13.1408 74.3022 12.5993 74.3022 12.0239C74.3022 11.426 74.0822 10.9465 73.6422 10.5854C73.2135 10.2131 72.6494 10.027 71.9499 10.027C70.7765 10.027 69.6709 10.5177 68.6329 11.4993V9.55313C69.6032 8.72954 70.7709 8.31775 72.136 8.31775C73.2529 8.31775 74.2006 8.63929 74.9791 9.28236C75.7688 9.92544 76.1637 10.766 76.1637 11.8039C76.1637 12.6049 75.9663 13.3326 75.5714 13.987C75.154 14.6526 74.4883 15.4198 73.5745 16.2885L71.0191 18.7254H76.5699V20.3839ZM85.5661 20.3839H83.7384V17.287H77.5953V15.8654L83.7384 8.53775H85.5661V15.6962H87.4107V17.287H85.5661V20.3839ZM83.7384 10.9239L79.7107 15.6962H83.7384V10.9239Z" fill="#333333"/>
<path d="M32.6877 26.377V30.2758C32.6877 30.5149 32.4215 30.6579 32.2222 30.5259L27.5573 27.4371H6.43217C3.43206 27.4371 1 24.9485 1 21.8785L1.00002 8.94324C1.00002 5.8733 3.43208 3.38462 6.43219 3.38462H27.5573" stroke="#333333" stroke-width="1.49951"/>
</svg>
