<svg width="19" height="25" viewBox="0 0 19 25" fill="none" xmlns="http://www.w3.org/2000/svg">
<path d="M9.45346 24.7846C11.4844 24.7846 13.1416 23.0616 13.2355 20.8982H5.67139C5.76537 23.0616 7.42254 24.7846 9.45346 24.7846Z" fill="url(#paint0_linear)"/>
<path d="M8.59756 1.79235C8.59756 1.28284 8.98088 0.869778 9.4537 0.869778C9.92653 0.869778 10.3098 1.28284 10.3098 1.79235C10.3098 1.93251 10.28 2.06485 10.2281 2.18394C10.5033 2.21807 10.7735 2.27014 11.0376 2.33905C11.0887 2.16658 11.1169 1.98315 11.1169 1.79235C11.1169 0.802435 10.3723 0 9.45364 0C8.535 0 7.79028 0.802435 7.79028 1.79235C7.79028 1.98315 7.8185 2.16658 7.86967 2.33905C8.13376 2.27014 8.4039 2.218 8.67913 2.18394C8.62741 2.06485 8.59756 1.93251 8.59756 1.79235Z" fill="url(#paint1_linear)"/>
<path d="M16.7863 16.0231C16.3157 14.6637 16.3643 11.3429 16.408 9.95749C16.4237 9.75201 16.432 9.54424 16.432 9.33438C16.432 5.18144 13.3078 1.81482 9.45392 1.81482C5.60002 1.81482 2.47581 5.18144 2.47581 9.33438C2.47581 9.54424 2.48417 9.75207 2.49986 9.95756C2.54352 11.343 2.59208 14.6637 2.12156 16.0231C1.50062 17.817 1.07788 18.095 1.07788 18.095H17.8301C17.83 18.0949 17.4072 17.8169 16.7863 16.0231Z" fill="#FFB74F"/>
<path d="M16.7863 16.0231C16.3157 14.6637 16.3643 11.3429 16.408 9.95749C16.4237 9.75201 16.432 9.54424 16.432 9.33438C16.432 5.18144 13.3078 1.81482 9.45392 1.81482C5.60002 1.81482 2.47581 5.18144 2.47581 9.33438C2.47581 9.54424 2.48417 9.75207 2.49986 9.95756C2.54352 11.343 2.59208 14.6637 2.12156 16.0231C1.50062 17.817 1.07788 18.095 1.07788 18.095H17.8301C17.83 18.0949 17.4072 17.8169 16.7863 16.0231Z" fill="url(#paint2_linear)"/>
<path d="M17.2831 21.2593H1.62442C0.730972 21.2593 0 20.4716 0 19.5089V19.1791C0 18.2163 0.731032 17.4286 1.62442 17.4286H17.2831C18.1766 17.4286 18.9075 18.2164 18.9075 19.1791V19.5089C18.9075 20.4717 18.1766 21.2593 17.2831 21.2593Z" fill="url(#paint3_linear)"/>
<defs>
<linearGradient id="paint0_linear" x1="3.37935" y1="22.8413" x2="15.6566" y2="22.8413" gradientUnits="userSpaceOnUse">
<stop stop-color="#FF9A00"/>
<stop offset="1" stop-color="#C06100"/>
</linearGradient>
<linearGradient id="paint1_linear" x1="3.37937" y1="1.16903" x2="15.6567" y2="1.16903" gradientUnits="userSpaceOnUse">
<stop stop-color="#FFBD53"/>
<stop offset="1" stop-color="#FF8800"/>
</linearGradient>
<linearGradient id="paint2_linear" x1="3.3795" y1="9.95455" x2="15.6567" y2="9.95455" gradientUnits="userSpaceOnUse">
<stop stop-color="#FFCF00"/>
<stop offset="1" stop-color="#FFA91F"/>
</linearGradient>
<linearGradient id="paint3_linear" x1="3.3794" y1="19.3438" x2="15.6566" y2="19.3438" gradientUnits="userSpaceOnUse">
<stop stop-color="#FFBD53"/>
<stop offset="1" stop-color="#FF8800"/>
</linearGradient>
</defs>
</svg>
