<svg width="19" height="19" viewBox="0 0 19 19" fill="none" xmlns="http://www.w3.org/2000/svg">
<path d="M6.92288 10.4822C6.92288 10.2442 6.72982 10.0514 6.49162 10.0514H4.98669C4.74876 10.0514 4.55566 10.2442 4.55566 10.4822V11.9869C4.55566 12.2253 4.74876 12.4182 4.98669 12.4182H6.49162C6.72982 12.4182 6.92288 12.2253 6.92288 11.9869V10.4822Z" fill="white"/>
<path d="M10.6844 10.4822C10.6844 10.2442 10.4913 10.0514 10.2535 10.0514H8.74841C8.51048 10.0514 8.31738 10.2442 8.31738 10.4822V11.9869C8.31738 12.2253 8.51048 12.4182 8.74841 12.4182H10.2535C10.4913 12.4182 10.6844 12.2253 10.6844 11.9869V10.4822Z" fill="white"/>
<path d="M14.4453 10.4822C14.4453 10.2442 14.2522 10.0514 14.0143 10.0514H12.5094C12.2712 10.0514 12.0781 10.2442 12.0781 10.4822V11.9869C12.0781 12.2253 12.2712 12.4182 12.5094 12.4182H14.0143C14.2522 12.4182 14.4453 12.2253 14.4453 11.9869V10.4822Z" fill="white"/>
<path d="M6.92288 14.2436C6.92288 14.0052 6.72982 13.8126 6.49162 13.8126H4.98669C4.74876 13.8126 4.55566 14.0052 4.55566 14.2436V15.7481C4.55566 15.9862 4.74876 16.1791 4.98669 16.1791H6.49162C6.72982 16.1791 6.92288 15.9862 6.92288 15.7481V14.2436Z" fill="white"/>
<path d="M10.6844 14.2436C10.6844 14.0052 10.4913 13.8126 10.2535 13.8126H8.74841C8.51048 13.8126 8.31738 14.0052 8.31738 14.2436V15.7481C8.31738 15.9862 8.51048 16.1791 8.74841 16.1791H10.2535C10.4913 16.1791 10.6844 15.9862 10.6844 15.7481V14.2436Z" fill="white"/>
<path d="M14.4453 14.2436C14.4453 14.0052 14.2522 13.8126 14.0145 13.8126H12.5094C12.2712 13.8126 12.0781 14.0052 12.0781 14.2436V15.7481C12.0781 15.9862 12.2712 16.1791 12.5094 16.1791H14.0145C14.2522 16.1791 14.4453 15.9862 14.4453 15.7481V14.2436Z" fill="white"/>
<path d="M17.136 2.11558V4.41395C17.136 5.45278 16.2933 6.28992 15.2546 6.28992H14.0677C13.029 6.28992 12.1751 5.45278 12.1751 4.41395V2.10733H6.82559V4.41395C6.82559 5.45278 5.97171 6.28992 4.93311 6.28992H3.74602C2.70737 6.28992 1.86467 5.45278 1.86467 4.41395V2.11558C0.956883 2.14294 0.210938 2.89411 0.210938 3.81738V17.2869C0.210938 18.2275 0.973348 19 1.91398 19H17.0867C18.0259 19 18.7897 18.2259 18.7897 17.2869V3.81738C18.7897 2.89411 18.0438 2.14294 17.136 2.11558ZM16.5848 16.4481C16.5848 16.8546 16.2552 17.1844 15.8485 17.1844H3.11972C2.71306 17.1844 2.38346 16.8546 2.38346 16.4481V9.49062C2.38346 9.08396 2.71302 8.75417 3.11972 8.75417H15.8485C16.2551 8.75417 16.5847 9.08396 16.5847 9.49062L16.5848 16.4481Z" fill="white"/>
<path d="M3.74193 5.05776H4.91591C5.27224 5.05776 5.56116 4.76927 5.56116 4.41293V0.645059C5.56116 0.288687 5.27224 0 4.91591 0H3.74193C3.38556 0 3.09668 0.288687 3.09668 0.645059V4.41293C3.09668 4.76927 3.38556 5.05776 3.74193 5.05776Z" fill="white"/>
<path d="M14.0524 5.05776H15.2264C15.5825 5.05776 15.8714 4.76927 15.8714 4.41293V0.645059C15.8715 0.288687 15.5826 0 15.2264 0H14.0524C13.6961 0 13.4072 0.288687 13.4072 0.645059V4.41293C13.4072 4.76927 13.6961 5.05776 14.0524 5.05776Z" fill="white"/>
</svg>
