<svg width="61" height="61" viewBox="0 0 61 61" fill="none" xmlns="http://www.w3.org/2000/svg">
<g filter="url(#filter0_d)">
<path d="M27.712 27.4822C27.712 27.2442 27.519 27.0514 27.2808 27.0514H25.7758C25.5379 27.0514 25.3448 27.2442 25.3448 27.4822V28.9869C25.3448 29.2253 25.5379 29.4182 25.7758 29.4182H27.2808C27.519 29.4182 27.712 29.2253 27.712 28.9869V27.4822Z" fill="#FFE500"/>
<path d="M31.4733 27.4822C31.4733 27.2442 31.2802 27.0514 31.0425 27.0514H29.5373C29.2994 27.0514 29.1063 27.2442 29.1063 27.4822V28.9869C29.1063 29.2253 29.2994 29.4182 29.5373 29.4182H31.0425C31.2802 29.4182 31.4733 29.2253 31.4733 28.9869V27.4822Z" fill="#FFE500"/>
<path d="M35.2344 27.4822C35.2344 27.2442 35.0413 27.0514 34.8034 27.0514H33.2984C33.0602 27.0514 32.8672 27.2442 32.8672 27.4822V28.9869C32.8672 29.2253 33.0602 29.4182 33.2984 29.4182H34.8034C35.0413 29.4182 35.2344 29.2253 35.2344 28.9869V27.4822Z" fill="#FFE500"/>
<path d="M27.712 31.2436C27.712 31.0052 27.519 30.8126 27.2808 30.8126H25.7758C25.5379 30.8126 25.3448 31.0052 25.3448 31.2436V32.7481C25.3448 32.9862 25.5379 33.1791 25.7758 33.1791H27.2808C27.519 33.1791 27.712 32.9862 27.712 32.7481V31.2436Z" fill="#FFE500"/>
<path d="M31.4733 31.2436C31.4733 31.0052 31.2802 30.8126 31.0425 30.8126H29.5373C29.2994 30.8126 29.1063 31.0052 29.1063 31.2436V32.7481C29.1063 32.9862 29.2994 33.1791 29.5373 33.1791H31.0425C31.2802 33.1791 31.4733 32.9862 31.4733 32.7481V31.2436Z" fill="#FFE500"/>
<path d="M35.2344 31.2436C35.2344 31.0052 35.0413 30.8126 34.8036 30.8126H33.2984C33.0602 30.8126 32.8672 31.0052 32.8672 31.2436V32.7481C32.8672 32.9862 33.0602 33.1791 33.2984 33.1791H34.8036C35.0413 33.1791 35.2344 32.9862 35.2344 32.7481V31.2436Z" fill="#FFE500"/>
<path d="M37.9251 19.1156V21.4139C37.9251 22.4528 37.0823 23.2899 36.0437 23.2899H34.8568C33.818 23.2899 32.9641 22.4528 32.9641 21.4139V19.1073H27.6147V21.4139C27.6147 22.4528 26.7608 23.2899 25.7222 23.2899H24.5351C23.4964 23.2899 22.6537 22.4528 22.6537 21.4139V19.1156C21.7459 19.1429 21 19.8941 21 20.8174V34.2869C21 35.2275 21.7624 36 22.703 36H37.8757C38.815 36 39.5788 35.2259 39.5788 34.2869V20.8174C39.5788 19.8941 38.8329 19.1429 37.9251 19.1156ZM37.3738 33.4481C37.3738 33.8546 37.0442 34.1844 36.6376 34.1844H23.9088C23.5021 34.1844 23.1725 33.8546 23.1725 33.4481V26.4906C23.1725 26.084 23.5021 25.7542 23.9088 25.7542H36.6375C37.0442 25.7542 37.3738 26.084 37.3738 26.4906L37.3738 33.4481Z" fill="#FFE500"/>
<path d="M24.531 22.0578H25.705C26.0613 22.0578 26.3502 21.7693 26.3502 21.4129V17.6451C26.3502 17.2887 26.0613 17 25.705 17H24.531C24.1746 17 23.8858 17.2887 23.8858 17.6451V21.4129C23.8858 21.7693 24.1746 22.0578 24.531 22.0578Z" fill="#FFE500"/>
<path d="M34.8416 22.0578H36.0156C36.3717 22.0578 36.6606 21.7693 36.6606 21.4129V17.6451C36.6607 17.2887 36.3717 17 36.0156 17H34.8416C34.4853 17 34.1964 17.2887 34.1964 17.6451V21.4129C34.1964 21.7693 34.4853 22.0578 34.8416 22.0578Z" fill="#FFE500"/>
</g>
<defs>
<filter id="filter0_d" x="0" y="0" width="60.5788" height="61" filterUnits="userSpaceOnUse" color-interpolation-filters="sRGB">
<feFlood flood-opacity="0" result="BackgroundImageFix"/>
<feColorMatrix in="SourceAlpha" type="matrix" values="0 0 0 0 0 0 0 0 0 0 0 0 0 0 0 0 0 0 127 0"/>
<feOffset dy="4"/>
<feGaussianBlur stdDeviation="10.5"/>
<feColorMatrix type="matrix" values="0 0 0 0 1 0 0 0 0 0.898039 0 0 0 0 0 0 0 0 0.5 0"/>
<feBlend mode="normal" in2="BackgroundImageFix" result="effect1_dropShadow"/>
<feBlend mode="normal" in="SourceGraphic" in2="effect1_dropShadow" result="shape"/>
</filter>
</defs>
</svg>
