<svg width="111" height="19" viewBox="0 0 111 19" fill="none" xmlns="http://www.w3.org/2000/svg">
<path d="M4.525 18H0.925V0.499999H4.5L9.575 7.75L14.65 0.499999H18.2V18H14.65V6.025L10.625 11.65H8.625L4.525 6.025V18ZM28.3416 18.325C26.3916 18.325 24.7499 17.725 23.4166 16.525C22.0832 15.325 21.4166 13.7333 21.4166 11.75C21.4166 9.9 22.0166 8.35 23.2166 7.1C24.4166 5.83333 25.9832 5.2 27.9166 5.2C29.7166 5.2 31.1582 5.84167 32.2416 7.125C33.3249 8.40833 33.8666 9.96667 33.8666 11.8V12.725H24.9166C25.0999 13.5583 25.5582 14.2 26.2916 14.65C27.0416 15.1 27.9749 15.325 29.0916 15.325C30.4749 15.325 31.8082 14.9583 33.0916 14.225V17.05C31.9749 17.9 30.3916 18.325 28.3416 18.325ZM24.9166 10.475H30.3916C30.3582 9.75833 30.0999 9.16667 29.6166 8.7C29.1499 8.21667 28.5332 7.975 27.7666 7.975C26.9832 7.975 26.3332 8.20833 25.8166 8.675C25.2999 9.125 24.9999 9.725 24.9166 10.475ZM45.9466 18H37.1466V0.499999H45.3716C46.9883 0.499999 48.2716 0.883332 49.2216 1.65C50.1883 2.41667 50.6716 3.49167 50.6716 4.875C50.6716 5.725 50.4633 6.45 50.0466 7.05C49.63 7.65 49.105 8.08333 48.4716 8.35C49.4216 8.55 50.255 9.06667 50.9716 9.9C51.6716 10.7167 52.0216 11.7583 52.0216 13.025C52.0216 14.5083 51.4716 15.7083 50.3716 16.625C49.2883 17.5417 47.8133 18 45.9466 18ZM40.7466 10.325V14.9H45.2716C46.1716 14.9 46.8716 14.7083 47.3716 14.325C47.8716 13.925 48.1216 13.3583 48.1216 12.625C48.1216 11.8917 47.8716 11.325 47.3716 10.925C46.8716 10.525 46.1716 10.325 45.2716 10.325H40.7466ZM40.7466 3.5V7.35H44.7966C45.5466 7.35 46.13 7.18333 46.5466 6.85C46.98 6.51667 47.1966 6.05 47.1966 5.45C47.1966 4.83333 46.98 4.35833 46.5466 4.025C46.13 3.675 45.5466 3.5 44.7966 3.5H40.7466ZM57.8661 11.75C57.8661 12.75 58.1911 13.5833 58.8411 14.25C59.4911 14.9167 60.3161 15.25 61.3161 15.25C62.3161 15.25 63.1411 14.9167 63.7911 14.25C64.4411 13.5667 64.7661 12.7333 64.7661 11.75C64.7661 10.75 64.4411 9.925 63.7911 9.275C63.1411 8.60833 62.3161 8.275 61.3161 8.275C60.3161 8.275 59.4911 8.60833 58.8411 9.275C58.1911 9.925 57.8661 10.75 57.8661 11.75ZM54.3911 11.75C54.3911 9.9 55.0411 8.35 56.3411 7.1C57.6245 5.83333 59.2828 5.2 61.3161 5.2C63.3495 5.2 65.0078 5.83333 66.2911 7.1C67.5911 8.36667 68.2411 9.91667 68.2411 11.75C68.2411 13.6167 67.5911 15.1833 66.2911 16.45C64.9911 17.7 63.3328 18.325 61.3161 18.325C59.2995 18.325 57.6411 17.7 56.3411 16.45C55.0411 15.1833 54.3911 13.6167 54.3911 11.75ZM72.0972 14.125V8.475H69.6472V5.525H72.0972V2.1H75.6222V5.525H79.1722V8.475H75.6222V13.425C75.6222 14.0417 75.7555 14.4917 76.0222 14.775C76.2888 15.0417 76.7222 15.175 77.3222 15.175C77.9388 15.175 78.5472 15.025 79.1472 14.725V17.65C78.4138 18.1 77.4222 18.325 76.1722 18.325C73.4555 18.325 72.0972 16.925 72.0972 14.125ZM93.9313 18H81.4813V15.375L86.6313 10.7C87.8147 9.61667 88.623 8.75 89.0563 8.1C89.523 7.43333 89.7563 6.725 89.7563 5.975C89.7563 5.225 89.4813 4.63333 88.9313 4.2C88.3813 3.75 87.6563 3.525 86.7563 3.525C85.123 3.525 83.548 4.19167 82.0313 5.525V1.825C83.448 0.708332 85.148 0.149999 87.1313 0.149999C88.798 0.149999 90.248 0.641666 91.4813 1.625C92.7147 2.60833 93.3313 3.9 93.3313 5.5C93.3313 6.73333 93.0563 7.825 92.5063 8.775C92.0063 9.675 91.048 10.7833 89.6313 12.1L86.6313 14.85H93.9313V18ZM107.917 18H104.417V13.625H95.6422V11.025L104.367 0.499999H107.917V10.725H110.492V13.625H107.917V18ZM104.417 5.025L99.6172 10.725H104.417V5.025Z" fill="white"/>
</svg>
