<svg width="72" height="72" viewBox="0 0 72 72" fill="none" xmlns="http://www.w3.org/2000/svg">
<circle cx="36" cy="36" r="35" stroke="#081A41" stroke-width="2"/>
<path d="M37.6588 41.9982H34.4458L33.8224 18.7397H38.2823L37.6588 41.9982ZM36.0284 52.5963C35.325 52.5963 34.7336 52.3566 34.254 51.877C33.7744 51.3974 33.5347 50.806 33.5347 50.1026C33.5347 49.3993 33.7744 48.8078 34.254 48.3283C34.7336 47.8487 35.325 47.609 36.0284 47.609C36.7317 47.609 37.3232 47.8487 37.8027 48.3283C38.2823 48.8078 38.522 49.3993 38.522 50.1026C38.522 50.806 38.2823 51.3974 37.8027 51.877C37.3232 52.3566 36.7317 52.5963 36.0284 52.5963Z" fill="#081A41"/>
</svg>
