<svg width="72" height="72" viewBox="0 0 72 72" fill="none" xmlns="http://www.w3.org/2000/svg">
<circle cx="36" cy="36" r="35" stroke="#081A41" stroke-width="2"/>
<path d="M35.9103 43.8296C35.9103 41.2379 35.9103 37.1931 35.9103 37.1931C36.9291 37.164 38.6779 36.9538 39.6341 36.5659C41.3327 35.8768 42.7667 34.6628 43.7267 33.1011C44.6867 31.5395 45.1224 29.7119 44.9704 27.8851C44.8183 26.0582 44.0864 24.3278 42.8814 22.9464C41.6764 21.5649 40.0615 20.6047 38.2722 20.2059C36.483 19.8071 34.6131 19.9906 32.9355 20.7296C31.258 21.4685 29.8604 22.7243 28.947 24.3136C28.5043 25.0838 28.1865 25.9127 28 26.7699" stroke="#081A41" stroke-width="2.27916" stroke-linecap="round" stroke-linejoin="round"/>
<circle cx="35.6636" cy="49.9713" r="1.67651" fill="#081A41" stroke="#081A41" stroke-width="0.577649"/>
</svg>
