<?xml version="1.0" encoding="UTF-8" standalone="no"?>
<!DOCTYPE svg PUBLIC "-//W3C//DTD SVG 20010904//EN" "http://www.w3.org/TR/2001/REC-SVG-20010904/DTD/svg10.dtd">
<svg version="1.0" xmlns="http://www.w3.org/2000/svg" width="512.000000pt" height="512.000000pt" viewBox="0 0 512.000000 512.000000" preserveAspectRatio="xMidYMid meet">
<metadata>
Created by potrace 1.11, written by Peter Selinger 2001-2013
</metadata>
<g transform="translate(0.000000,512.000000) scale(0.100000,-0.100000)" fill="#000000" stroke="none">
<path d="M1065 4569 c-22 -4 -58 -9 -80 -13 -139 -20 -340 -107 -471 -204 -266 -197 -435 -466 -489 -777 -17 -97 -23 -302 -11 -362 3 -15 8 -48 11 -72 21 -148 113 -360 220 -502 203 -271 499 -443 830 -484 51 -6 258 -6 305 0 213 28 398 98 559 212 60 42 212 186 252 239 16 21 84 123 106 159 60 100 115 261 137 405 16 97 17 286 4 363 -17 94 -50 232 -59 241 -5 6 -9 16 -9 24 0 21 -59 139 -108 217 -172 270 -443 465 -736 530 -39 8 -82 18 -96 21 -39 9 -320 12 -365 3z m380 -509 c81 -26 155 -62 205 -99 201 -150 301 -348 302 -596 0 -244 -102 -444 -302 -592 -236 -175 -567 -182 -814 -18 -208 138 -327 354 -328 595 0 111 8 158 41 256 80 234 284 416 526 469 93 21 283 13 370 -15z"/>
<path d="M1415 3657 c-11 -36 -53 -86 -87 -103 -17 -9 -55 -17 -84 -17 -64 -1 -124 34 -152 89 l-18 36 -42 -47 c-104 -119 -100 -297 11 -409 152 -155 397 -117 495 77 56 111 35 256 -51 345 -48 50 -64 57 -72 29z"/>
<path d="M3735 4570 c-159 -24 -196 -34 -305 -77 -212 -85 -382 -218 -529 -413 -154 -205 -229 -441 -230 -725 0 -344 122 -629 375 -871 175 -169 376 -272 619 -318 81 -16 383 -17 450 -2 17 4 50 12 75 17 378 83 723 397 856 779 14 41 28 89 31 105 2 17 11 59 18 94 13 63 14 335 1 411 -25 145 -90 314 -175 450 -66 106 -214 266 -302 325 -24 17 -50 35 -56 42 -7 6 -63 36 -125 67 -101 50 -219 89 -338 110 -56 11 -310 15 -365 6z m350 -503 c160 -48 287 -134 384 -261 188 -245 193 -622 12 -866 -73 -98 -187 -191 -294 -240 -103 -46 -172 -61 -292 -62 -238 -1 -447 107 -596 308 -125 169 -163 404 -102 624 69 247 309 470 544 505 24 4 46 9 48 11 10 10 250 -6 296 -19z"/>
<path d="M4017 3648 c-59 -142 -253 -151 -323 -15 l-15 28 -34 -36 c-56 -60 -79 -119 -79 -205 0 -90 30 -164 90 -223 61 -60 115 -81 214 -81 71 -1 93 3 133 24 112 57 171 154 171 280 0 104 -34 172 -121 244 -22 18 -22 18 -36 -16z"/>
<path d="M4622 1711 c-5 -3 -12 -32 -16 -63 -13 -122 -89 -277 -183 -379 -102 -110 -259 -197 -408 -223 -56 -11 -202 -8 -266 5 -166 32 -288 108 -431 268 l-47 52 -133 -46 c-287 -100 -318 -112 -324 -118 -4 -3 12 -38 35 -77 179 -300 507 -522 836 -566 28 -3 53 -8 57 -11 9 -5 260 -4 300 2 228 30 434 113 599 241 61 48 219 216 261 279 93 139 171 321 193 450 11 69 25 160 25 170 0 7 -66 11 -177 13 -98 2 -208 5 -245 6 -37 1 -71 0 -76 -3z"/>
</g>
</svg>