<svg width="60" height="61" viewBox="0 0 60 61" fill="none" xmlns="http://www.w3.org/2000/svg">
<g clip-path="url(#clip0_908_200)">
<path d="M38.1785 41.869H36.1096V39.4172C40.1751 37.4828 43.2061 33.7069 44.1061 29.1759L45.4096 28.9586C46.5682 28.7724 47.613 28.1724 48.3889 27.2724C49.144 26.3724 49.5578 25.2345 49.5578 24.0759C49.5578 22.5034 48.813 21.1172 47.6647 20.2172C48.1923 19.6586 48.5234 18.9138 48.5234 18.0862C48.5234 16.6276 47.5096 15.4172 46.1647 15.0862C45.5647 11.8276 43.9716 8.76552 41.6027 6.39655C39.7303 4.51379 37.4337 3.11724 34.9199 2.32069C34.8682 1.9069 34.7027 1.52414 34.4234 1.20345C34.0303 0.758621 33.4613 0.5 32.8716 0.5H26.944C26.3544 0.5 25.7854 0.758621 25.3923 1.20345C25.113 1.51379 24.9475 1.9069 24.8958 2.32069C22.382 3.11724 20.0854 4.51379 18.213 6.39655C15.844 8.76552 14.2509 11.8276 13.6509 15.0862C12.2958 15.4172 11.2923 16.6379 11.2923 18.0862C11.2923 18.9138 11.6234 19.6586 12.1509 20.2172C11.013 21.1276 10.2578 22.5138 10.2578 24.0759C10.2578 25.2345 10.6716 26.3724 11.4371 27.2828C12.2027 28.1828 13.2475 28.7828 14.4061 28.969L15.7199 29.1862C16.6199 33.7172 19.6509 37.4931 23.7165 39.4276V41.8793H21.6475C14.2303 41.8793 8.19922 47.9103 8.19922 55.3276V59.4655C8.19922 60.0345 8.66474 60.5 9.2337 60.5H50.5923C51.1613 60.5 51.6268 60.0345 51.6268 59.4655V55.3276C51.6268 47.9103 45.5958 41.8793 38.1785 41.8793V41.869ZM46.8061 25.9276C46.3613 26.4552 45.7509 26.7966 45.0785 26.9103L44.3544 27.0345C44.3647 26.8069 44.3854 26.5793 44.3854 26.3517V21.1793H44.6027C46.1958 21.1793 47.4889 22.4724 47.4889 24.0655C47.4889 24.7483 47.2509 25.4 46.8061 25.9276ZM32.8716 2.55862L32.0958 8.76552H27.7199L26.944 2.55862H32.8716ZM19.6716 7.83448C21.2027 6.2931 23.0647 5.15517 25.0923 4.44138L25.6613 9.01379C25.7854 10.0483 26.6751 10.8241 27.7096 10.8241H32.0854C33.1303 10.8241 34.0096 10.0483 34.1337 9.01379L34.713 4.41034C36.7406 5.12414 38.5923 6.2931 40.1234 7.83448C42.0785 9.78965 43.444 12.2931 44.0337 14.9621H15.7613C16.3509 12.2931 17.7061 9.78965 19.6613 7.82414L19.6716 7.83448ZM14.3854 19.1103C13.8165 19.1103 13.3509 18.6448 13.3509 18.0759C13.3509 17.5069 13.8165 17.0414 14.3854 17.0414H45.4199C45.9889 17.0414 46.4544 17.5069 46.4544 18.0759C46.4544 18.6448 45.9889 19.1103 45.4199 19.1103H14.3854ZM14.7268 26.9103C14.0544 26.7966 13.444 26.4552 13.0096 25.9379C12.5544 25.4 12.3165 24.7483 12.3165 24.0655C12.3165 22.4724 13.6096 21.1793 15.2027 21.1793H15.4199V26.3517C15.4199 26.5793 15.4406 26.8069 15.4509 27.0345L14.7268 26.9103ZM17.4889 26.3517V21.1793H42.3165V26.3517C42.3165 33.2 36.7509 38.7655 29.9027 38.7655C23.0544 38.7655 17.4889 33.2 17.4889 26.3517ZM29.9027 40.8345C31.3406 40.8345 32.7268 40.6172 34.0406 40.2241V42.9035C34.0406 44.6103 32.644 46.0069 30.9371 46.0069H28.8682C27.1613 46.0069 25.7647 44.6103 25.7647 42.9035V40.2241C27.0785 40.6172 28.4647 40.8345 29.9027 40.8345ZM23.7992 43.9379C24.2751 46.2966 26.3647 48.0759 28.8682 48.0759H30.9371C33.4303 48.0759 35.5199 46.2966 36.0061 43.9379H38.1785V50.1448H21.6268V43.9379H23.7992ZM10.2475 55.3172C10.2475 51.3345 12.3061 47.8276 15.4199 45.7897V58.4207H10.2475V55.3172ZM17.4889 44.9724V44.7241C18.1509 44.4655 18.844 44.2586 19.5578 44.1345V58.4207H17.4889V44.9724ZM21.6268 52.2138H38.1785V58.4207H21.6268V52.2138ZM40.2475 58.4207V44.1345C40.9613 44.269 41.6544 44.4655 42.3165 44.7241V58.4207H40.2475ZM49.5578 58.4207H44.3854V45.7897C47.4992 47.8276 49.5578 51.3345 49.5578 55.3172V58.4207Z" fill="#DCBDA1"/>
<path d="M33.9678 33.469C34.454 33.169 34.6092 32.538 34.3195 32.0518C34.0195 31.5656 33.3885 31.4104 32.9023 31.7C31.0195 32.838 28.8057 32.838 26.923 31.7C26.4368 31.4104 25.7954 31.5656 25.5057 32.0518C25.2057 32.538 25.3712 33.1794 25.8574 33.469C27.1299 34.2345 28.4954 34.6276 29.923 34.6276C31.3505 34.6276 32.7161 34.2345 33.9885 33.469H33.9678Z" fill="#DCBDA1"/>
</g>
<defs>
<clipPath id="clip0_908_200">
<rect width="60" height="60" fill="white" transform="translate(0 0.5)"/>
</clipPath>
</defs>
</svg>
