<svg width="67" height="67" viewBox="0 0 67 67" fill="none" xmlns="http://www.w3.org/2000/svg">
<path d="M10.7773 58H55.2218" stroke="#2E8647" stroke-width="2" stroke-linecap="round" stroke-linejoin="round"/>
<path d="M49.2773 32.4443C49.5273 33.4999 49.6662 34.6388 49.6662 35.7777C49.6662 43.4444 43.444 49.6666 35.7773 49.6666V57.9999" stroke="#2E8647" stroke-width="2" stroke-linecap="round" stroke-linejoin="round"/>
<path d="M46.8886 32.9998C49.9568 32.9998 52.4441 30.5125 52.4441 27.4442C52.4441 24.376 49.9568 21.8887 46.8886 21.8887C43.8203 21.8887 41.333 24.376 41.333 27.4442C41.333 30.5125 43.8203 32.9998 46.8886 32.9998Z" stroke="#2E8647" stroke-width="2" stroke-linecap="round" stroke-linejoin="round"/>
<path d="M50.805 23.5279L55.2216 19.1111L44.1105 8L24.666 27.4444L35.7771 38.5556L42.9716 31.361" stroke="#2E8647" stroke-width="2" stroke-linecap="round" stroke-linejoin="round"/>
<path d="M27.4437 30.2222L21.8882 35.7777L27.4437 41.3333L32.9993 35.7777" stroke="#2E8647" stroke-width="2" stroke-linecap="round" stroke-linejoin="round"/>
<path d="M10.7773 49.6665H24.6662" stroke="#2E8647" stroke-width="2" stroke-linecap="round" stroke-linejoin="round"/>
<path d="M21.8886 57.9998L19.1108 55.2221L16.333 49.6665" stroke="#2E8647" stroke-width="2" stroke-linecap="round" stroke-linejoin="round"/>
</svg>
