<svg width="67" height="67" viewBox="0 0 67 67" fill="none" xmlns="http://www.w3.org/2000/svg">
<path d="M19.5 52C14.2479 52 10 47.7521 10 42.5V23.5C10 18.2479 14.2479 14 19.5 14C24.7521 14 29 18.2479 29 23.5V42.5C29 47.7521 24.7521 52 19.5 52Z" stroke="#2E8647" stroke-width="2" stroke-linecap="round" stroke-linejoin="round"/>
<path d="M10 33H29" stroke="#2E8647" stroke-width="2" stroke-linecap="round" stroke-linejoin="round"/>
<path d="M45.2859 51.9999C51.2821 51.9999 56.143 47.139 56.143 41.1428C56.143 35.1466 51.2821 30.2856 45.2859 30.2856C39.2896 30.2856 34.4287 35.1466 34.4287 41.1428C34.4287 47.139 39.2896 51.9999 45.2859 51.9999Z" stroke="#2E8647" stroke-width="2" stroke-linecap="round" stroke-linejoin="round"/>
<path d="M52.9671 33.4614L37.6045 48.8244" stroke="#2E8647" stroke-width="2" stroke-linecap="round" stroke-linejoin="round"/>
</svg>
