<svg width="160" height="160" viewBox="0 0 160 160" fill="none" xmlns="http://www.w3.org/2000/svg">
<path fill-rule="evenodd" clip-rule="evenodd" d="M132 59.6191C147.464 59.6191 160 72.1552 160 87.6191C160 103.083 147.464 115.619 132 115.619L103 115.619L87 133L87 115.619C75.9543 115.619 67 106.665 67 95.6191L67 87.6191C67 72.1552 79.536 59.6191 95 59.6191L132 59.6191ZM100 92.0001C101.657 92.0001 103 90.657 103 89.0001C103 87.3432 101.657 86.0001 100 86.0001C98.3431 86.0001 97 87.3432 97 89.0001C97 90.657 98.3431 92.0001 100 92.0001ZM115 89.0001C115 90.657 113.657 92.0001 112 92.0001C110.343 92.0001 109 90.657 109 89.0001C109 87.3432 110.343 86.0001 112 86.0001C113.657 86.0001 115 87.3432 115 89.0001ZM124 92.0001C125.657 92.0001 127 90.657 127 89.0001C127 87.3432 125.657 86.0001 124 86.0001C122.343 86.0001 121 87.3432 121 89.0001C121 90.657 122.343 92.0001 124 92.0001Z" fill="#1D1D1B">
                                    <animate attributeName="d" values="M132 59.6191C147.464 59.6191 160 72.1552 160 87.6191C160 103.083 147.464 115.619 132 115.619L103 115.619L87 133L87 115.619C75.9543 115.619 67 106.665 67 95.6191L67 87.6191C67 72.1552 79.536 59.6191 95 59.6191L132 59.6191ZM100 92.0001C101.657 92.0001 103 90.657 103 89.0001C103 87.3432 101.657 86.0001 100 86.0001C98.3431 86.0001 97 87.3432 97 89.0001C97 90.657 98.3431 92.0001 100 92.0001ZM115 89.0001C115 90.657 113.657 92.0001 112 92.0001C110.343 92.0001 109 90.657 109 89.0001C109 87.3432 110.343 86.0001 112 86.0001C113.657 86.0001 115 87.3432 115 89.0001ZM124 92.0001C125.657 92.0001 127 90.657 127 89.0001C127 87.3432 125.657 86.0001 124 86.0001C122.343 86.0001 121 87.3432 121 89.0001C121 90.657 122.343 92.0001 124 92.0001Z;M117 73C132.464 73 145 85.536 145 101C145 116.464 132.464 129 117 129L88 129L72 146.381L72 129C60.9543 129 52 120.046 52 109L52 101C52 85.536 64.536 73 80 73L117 73ZM85 105.381C86.6569 105.381 88 104.038 88 102.381C88 100.724 86.6569 99.381 85 99.381C83.3431 99.381 82 100.724 82 102.381C82 104.038 83.3431 105.381 85 105.381ZM100 102.381C100 104.038 98.6569 105.381 97 105.381C95.3431 105.381 94 104.038 94 102.381C94 100.724 95.3431 99.381 97 99.381C98.6569 99.381 100 100.724 100 102.381ZM109 105.381C110.657 105.381 112 104.038 112 102.381C112 100.724 110.657 99.381 109 99.381C107.343 99.381 106 100.724 106 102.381C106 104.038 107.343 105.381 109 105.381Z;M132 59.6191C147.464 59.6191 160 72.1552 160 87.6191C160 103.083 147.464 115.619 132 115.619L103 115.619L87 133L87 115.619C75.9543 115.619 67 106.665 67 95.6191L67 87.6191C67 72.1552 79.536 59.6191 95 59.6191L132 59.6191ZM100 92.0001C101.657 92.0001 103 90.657 103 89.0001C103 87.3432 101.657 86.0001 100 86.0001C98.3431 86.0001 97 87.3432 97 89.0001C97 90.657 98.3431 92.0001 100 92.0001ZM115 89.0001C115 90.657 113.657 92.0001 112 92.0001C110.343 92.0001 109 90.657 109 89.0001C109 87.3432 110.343 86.0001 112 86.0001C113.657 86.0001 115 87.3432 115 89.0001ZM124 92.0001C125.657 92.0001 127 90.657 127 89.0001C127 87.3432 125.657 86.0001 124 86.0001C122.343 86.0001 121 87.3432 121 89.0001C121 90.657 122.343 92.0001 124 92.0001Z" begin="0s" dur="3s" repeatCount="indefinite" calcMode="linear" keyTimes="0;0.5;1"/></path>
<mask id="path-2-inside-1_10470_10045" fill="white">
<path fill-rule="evenodd" clip-rule="evenodd" d="M93 24L0 24L0 80L57 80L73 97L73 80L93 80L93 24ZM18 39C16.8954 39 16 39.8954 16 41C16 42.1046 16.8954 43 18 43L40 43C41.1046 43 42 42.1046 42 41C42 39.8954 41.1046 39 40 39L18 39ZM16 51C16 49.8954 16.8954 49 18 49L68 49C69.1046 49 70 49.8954 70 51C70 52.1046 69.1046 53 68 53L18 53C16.8954 53 16 52.1046 16 51ZM18 59C16.8954 59 16 59.8954 16 61C16 62.1046 16.8954 63 18 63L54 63C55.1046 63 56 62.1046 56 61C56 59.8954 55.1046 59 54 59L18 59Z">
                                    <animate attributeName="d" values="M93 24L0 24L0 80L57 80L73 97L73 80L93 80L93 24ZM18 39C16.8954 39 16 39.8954 16 41C16 42.1046 16.8954 43 18 43L40 43C41.1046 43 42 42.1046 42 41C42 39.8954 41.1046 39 40 39L18 39ZM16 51C16 49.8954 16.8954 49 18 49L68 49C69.1046 49 70 49.8954 70 51C70 52.1046 69.1046 53 68 53L18 53C16.8954 53 16 52.1046 16 51ZM18 59C16.8954 59 16 59.8954 16 61C16 62.1046 16.8954 63 18 63L54 63C55.1046 63 56 62.1046 56 61C56 59.8954 55.1046 59 54 59L18 59Z;M112 19L19 19L19 75L76 75L92 92L92 75L112 75L112 19ZM37 34C35.8954 34 35 34.8954 35 36C35 37.1046 35.8954 38 37 38L59 38C60.1046 38 61 37.1046 61 36C61 34.8954 60.1046 34 59 34L37 34ZM35 46C35 44.8954 35.8954 44 37 44L87 44C88.1046 44 89 44.8954 89 46C89 47.1046 88.1046 48 87 48L37 48C35.8954 48 35 47.1046 35 46ZM37 54C35.8954 54 35 54.8954 35 56C35 57.1046 35.8954 58 37 58L73 58C74.1046 58 75 57.1046 75 56C75 54.8954 74.1046 54 73 54L37 54Z;M93 24L0 24L0 80L57 80L73 97L73 80L93 80L93 24ZM18 39C16.8954 39 16 39.8954 16 41C16 42.1046 16.8954 43 18 43L40 43C41.1046 43 42 42.1046 42 41C42 39.8954 41.1046 39 40 39L18 39ZM16 51C16 49.8954 16.8954 49 18 49L68 49C69.1046 49 70 49.8954 70 51C70 52.1046 69.1046 53 68 53L18 53C16.8954 53 16 52.1046 16 51ZM18 59C16.8954 59 16 59.8954 16 61C16 62.1046 16.8954 63 18 63L54 63C55.1046 63 56 62.1046 56 61C56 59.8954 55.1046 59 54 59L18 59Z" begin="0s" dur="3s" repeatCount="indefinite" calcMode="linear" keyTimes="0;0.5;1"/></path>

                                    </mask>
<path fill-rule="evenodd" clip-rule="evenodd" d="M93 24L0 24L0 80L57 80L73 97L73 80L93 80L93 24ZM18 39C16.8954 39 16 39.8954 16 41C16 42.1046 16.8954 43 18 43L40 43C41.1046 43 42 42.1046 42 41C42 39.8954 41.1046 39 40 39L18 39ZM16 51C16 49.8954 16.8954 49 18 49L68 49C69.1046 49 70 49.8954 70 51C70 52.1046 69.1046 53 68 53L18 53C16.8954 53 16 52.1046 16 51ZM18 59C16.8954 59 16 59.8954 16 61C16 62.1046 16.8954 63 18 63L54 63C55.1046 63 56 62.1046 56 61C56 59.8954 55.1046 59 54 59L18 59Z" fill="#1D1D1B">
                                    <animate attributeName="d" values="M93 24L0 24L0 80L57 80L73 97L73 80L93 80L93 24ZM18 39C16.8954 39 16 39.8954 16 41C16 42.1046 16.8954 43 18 43L40 43C41.1046 43 42 42.1046 42 41C42 39.8954 41.1046 39 40 39L18 39ZM16 51C16 49.8954 16.8954 49 18 49L68 49C69.1046 49 70 49.8954 70 51C70 52.1046 69.1046 53 68 53L18 53C16.8954 53 16 52.1046 16 51ZM18 59C16.8954 59 16 59.8954 16 61C16 62.1046 16.8954 63 18 63L54 63C55.1046 63 56 62.1046 56 61C56 59.8954 55.1046 59 54 59L18 59Z;M112 19L19 19L19 75L76 75L92 92L92 75L112 75L112 19ZM37 34C35.8954 34 35 34.8954 35 36C35 37.1046 35.8954 38 37 38L59 38C60.1046 38 61 37.1046 61 36C61 34.8954 60.1046 34 59 34L37 34ZM35 46C35 44.8954 35.8954 44 37 44L87 44C88.1046 44 89 44.8954 89 46C89 47.1046 88.1046 48 87 48L37 48C35.8954 48 35 47.1046 35 46ZM37 54C35.8954 54 35 54.8954 35 56C35 57.1046 35.8954 58 37 58L73 58C74.1046 58 75 57.1046 75 56C75 54.8954 74.1046 54 73 54L37 54Z;M93 24L0 24L0 80L57 80L73 97L73 80L93 80L93 24ZM18 39C16.8954 39 16 39.8954 16 41C16 42.1046 16.8954 43 18 43L40 43C41.1046 43 42 42.1046 42 41C42 39.8954 41.1046 39 40 39L18 39ZM16 51C16 49.8954 16.8954 49 18 49L68 49C69.1046 49 70 49.8954 70 51C70 52.1046 69.1046 53 68 53L18 53C16.8954 53 16 52.1046 16 51ZM18 59C16.8954 59 16 59.8954 16 61C16 62.1046 16.8954 63 18 63L54 63C55.1046 63 56 62.1046 56 61C56 59.8954 55.1046 59 54 59L18 59Z" begin="0s" dur="3s" repeatCount="indefinite" calcMode="linear" keyTimes="0;0.5;1"/></path>
<path d="M0 24L0 23L-1 23L-1 24L0 24ZM93 24L94 24L94 23L93 23L93 24ZM0 80L-1 80L-1 81L0 81L0 80ZM57 80L57.7282 79.3146L57.4321 79L57 79L57 80ZM73 97L72.2718 97.6854L74 99.5216L74 97L73 97ZM73 80L73 79L72 79L72 80L73 80ZM93 80L93 81L94 81L94 80L93 80ZM0 25L93 25L93 23L0 23L0 25ZM1 80L1 24L-1 24L-1 80L1 80ZM57 79L0 79L0 81L57 81L57 79ZM73.7282 96.3146L57.7282 79.3146L56.2718 80.6854L72.2718 97.6854L73.7282 96.3146ZM72 80L72 97L74 97L74 80L72 80ZM93 79L73 79L73 81L93 81L93 79ZM92 24L92 80L94 80L94 24L92 24ZM17 41C17 40.4477 17.4477 40 18 40L18 38C16.3431 38 15 39.3431 15 41L17 41ZM18 42C17.4477 42 17 41.5523 17 41L15 41C15 42.6569 16.3431 44 18 44L18 42ZM40 42L18 42L18 44L40 44L40 42ZM41 41C41 41.5523 40.5523 42 40 42L40 44C41.6569 44 43 42.6569 43 41L41 41ZM40 40C40.5523 40 41 40.4477 41 41L43 41C43 39.3431 41.6569 38 40 38L40 40ZM18 40L40 40L40 38L18 38L18 40ZM18 48C16.3431 48 15 49.3431 15 51L17 51C17 50.4477 17.4477 50 18 50L18 48ZM68 48L18 48L18 50L68 50L68 48ZM71 51C71 49.3431 69.6569 48 68 48L68 50C68.5523 50 69 50.4477 69 51L71 51ZM68 54C69.6569 54 71 52.6569 71 51L69 51C69 51.5523 68.5523 52 68 52L68 54ZM18 54L68 54L68 52L18 52L18 54ZM15 51C15 52.6569 16.3431 54 18 54L18 52C17.4477 52 17 51.5523 17 51L15 51ZM17 61C17 60.4477 17.4477 60 18 60L18 58C16.3431 58 15 59.3431 15 61L17 61ZM18 62C17.4477 62 17 61.5523 17 61L15 61C15 62.6569 16.3431 64 18 64L18 62ZM54 62L18 62L18 64L54 64L54 62ZM55 61C55 61.5523 54.5523 62 54 62L54 64C55.6569 64 57 62.6569 57 61L55 61ZM54 60C54.5523 60 55 60.4477 55 61L57 61C57 59.3431 55.6569 58 54 58L54 60ZM18 60L54 60L54 58L18 58L18 60Z" fill="#FFDD00" mask="url(#path-2-inside-1_10470_10045)">
                                    <animate attributeName="d" values="M0 24L0 23L-1 23L-1 24L0 24ZM93 24L94 24L94 23L93 23L93 24ZM0 80L-1 80L-1 81L0 81L0 80ZM57 80L57.7282 79.3146L57.4321 79L57 79L57 80ZM73 97L72.2718 97.6854L74 99.5216L74 97L73 97ZM73 80L73 79L72 79L72 80L73 80ZM93 80L93 81L94 81L94 80L93 80ZM0 25L93 25L93 23L0 23L0 25ZM1 80L1 24L-1 24L-1 80L1 80ZM57 79L0 79L0 81L57 81L57 79ZM73.7282 96.3146L57.7282 79.3146L56.2718 80.6854L72.2718 97.6854L73.7282 96.3146ZM72 80L72 97L74 97L74 80L72 80ZM93 79L73 79L73 81L93 81L93 79ZM92 24L92 80L94 80L94 24L92 24ZM17 41C17 40.4477 17.4477 40 18 40L18 38C16.3431 38 15 39.3431 15 41L17 41ZM18 42C17.4477 42 17 41.5523 17 41L15 41C15 42.6569 16.3431 44 18 44L18 42ZM40 42L18 42L18 44L40 44L40 42ZM41 41C41 41.5523 40.5523 42 40 42L40 44C41.6569 44 43 42.6569 43 41L41 41ZM40 40C40.5523 40 41 40.4477 41 41L43 41C43 39.3431 41.6569 38 40 38L40 40ZM18 40L40 40L40 38L18 38L18 40ZM18 48C16.3431 48 15 49.3431 15 51L17 51C17 50.4477 17.4477 50 18 50L18 48ZM68 48L18 48L18 50L68 50L68 48ZM71 51C71 49.3431 69.6569 48 68 48L68 50C68.5523 50 69 50.4477 69 51L71 51ZM68 54C69.6569 54 71 52.6569 71 51L69 51C69 51.5523 68.5523 52 68 52L68 54ZM18 54L68 54L68 52L18 52L18 54ZM15 51C15 52.6569 16.3431 54 18 54L18 52C17.4477 52 17 51.5523 17 51L15 51ZM17 61C17 60.4477 17.4477 60 18 60L18 58C16.3431 58 15 59.3431 15 61L17 61ZM18 62C17.4477 62 17 61.5523 17 61L15 61C15 62.6569 16.3431 64 18 64L18 62ZM54 62L18 62L18 64L54 64L54 62ZM55 61C55 61.5523 54.5523 62 54 62L54 64C55.6569 64 57 62.6569 57 61L55 61ZM54 60C54.5523 60 55 60.4477 55 61L57 61C57 59.3431 55.6569 58 54 58L54 60ZM18 60L54 60L54 58L18 58L18 60Z;M19 19L19 18L18 18L18 19L19 19ZM112 19L113 19L113 18L112 18L112 19ZM19 75L18 75L18 76L19 76L19 75ZM76 75L76.7282 74.3146L76.4321 74L76 74L76 75ZM92 92L91.2718 92.6854L93 94.5216L93 92L92 92ZM92 75L92 74L91 74L91 75L92 75ZM112 75L112 76L113 76L113 75L112 75ZM19 20L112 20L112 18L19 18L19 20ZM20 75L20 19L18 19L18 75L20 75ZM76 74L19 74L19 76L76 76L76 74ZM92.7282 91.3146L76.7282 74.3146L75.2718 75.6854L91.2718 92.6854L92.7282 91.3146ZM91 75L91 92L93 92L93 75L91 75ZM112 74L92 74L92 76L112 76L112 74ZM111 19L111 75L113 75L113 19L111 19ZM36 36C36 35.4477 36.4477 35 37 35L37 33C35.3431 33 34 34.3431 34 36L36 36ZM37 37C36.4477 37 36 36.5523 36 36L34 36C34 37.6569 35.3431 39 37 39L37 37ZM59 37L37 37L37 39L59 39L59 37ZM60 36C60 36.5523 59.5523 37 59 37L59 39C60.6569 39 62 37.6569 62 36L60 36ZM59 35C59.5523 35 60 35.4477 60 36L62 36C62 34.3431 60.6569 33 59 33L59 35ZM37 35L59 35L59 33L37 33L37 35ZM37 43C35.3431 43 34 44.3431 34 46L36 46C36 45.4477 36.4477 45 37 45L37 43ZM87 43L37 43L37 45L87 45L87 43ZM90 46C90 44.3431 88.6569 43 87 43L87 45C87.5523 45 88 45.4477 88 46L90 46ZM87 49C88.6569 49 90 47.6569 90 46L88 46C88 46.5523 87.5523 47 87 47L87 49ZM37 49L87 49L87 47L37 47L37 49ZM34 46C34 47.6569 35.3431 49 37 49L37 47C36.4477 47 36 46.5523 36 46L34 46ZM36 56C36 55.4477 36.4477 55 37 55L37 53C35.3431 53 34 54.3431 34 56L36 56ZM37 57C36.4477 57 36 56.5523 36 56L34 56C34 57.6569 35.3431 59 37 59L37 57ZM73 57L37 57L37 59L73 59L73 57ZM74 56C74 56.5523 73.5523 57 73 57L73 59C74.6569 59 76 57.6569 76 56L74 56ZM73 55C73.5523 55 74 55.4477 74 56L76 56C76 54.3431 74.6569 53 73 53L73 55ZM37 55L73 55L73 53L37 53L37 55Z;M0 24L0 23L-1 23L-1 24L0 24ZM93 24L94 24L94 23L93 23L93 24ZM0 80L-1 80L-1 81L0 81L0 80ZM57 80L57.7282 79.3146L57.4321 79L57 79L57 80ZM73 97L72.2718 97.6854L74 99.5216L74 97L73 97ZM73 80L73 79L72 79L72 80L73 80ZM93 80L93 81L94 81L94 80L93 80ZM0 25L93 25L93 23L0 23L0 25ZM1 80L1 24L-1 24L-1 80L1 80ZM57 79L0 79L0 81L57 81L57 79ZM73.7282 96.3146L57.7282 79.3146L56.2718 80.6854L72.2718 97.6854L73.7282 96.3146ZM72 80L72 97L74 97L74 80L72 80ZM93 79L73 79L73 81L93 81L93 79ZM92 24L92 80L94 80L94 24L92 24ZM17 41C17 40.4477 17.4477 40 18 40L18 38C16.3431 38 15 39.3431 15 41L17 41ZM18 42C17.4477 42 17 41.5523 17 41L15 41C15 42.6569 16.3431 44 18 44L18 42ZM40 42L18 42L18 44L40 44L40 42ZM41 41C41 41.5523 40.5523 42 40 42L40 44C41.6569 44 43 42.6569 43 41L41 41ZM40 40C40.5523 40 41 40.4477 41 41L43 41C43 39.3431 41.6569 38 40 38L40 40ZM18 40L40 40L40 38L18 38L18 40ZM18 48C16.3431 48 15 49.3431 15 51L17 51C17 50.4477 17.4477 50 18 50L18 48ZM68 48L18 48L18 50L68 50L68 48ZM71 51C71 49.3431 69.6569 48 68 48L68 50C68.5523 50 69 50.4477 69 51L71 51ZM68 54C69.6569 54 71 52.6569 71 51L69 51C69 51.5523 68.5523 52 68 52L68 54ZM18 54L68 54L68 52L18 52L18 54ZM15 51C15 52.6569 16.3431 54 18 54L18 52C17.4477 52 17 51.5523 17 51L15 51ZM17 61C17 60.4477 17.4477 60 18 60L18 58C16.3431 58 15 59.3431 15 61L17 61ZM18 62C17.4477 62 17 61.5523 17 61L15 61C15 62.6569 16.3431 64 18 64L18 62ZM54 62L18 62L18 64L54 64L54 62ZM55 61C55 61.5523 54.5523 62 54 62L54 64C55.6569 64 57 62.6569 57 61L55 61ZM54 60C54.5523 60 55 60.4477 55 61L57 61C57 59.3431 55.6569 58 54 58L54 60ZM18 60L54 60L54 58L18 58L18 60Z" begin="0s" dur="3s" repeatCount="indefinite" calcMode="linear" keyTimes="0;0.5;1"/></path>
</svg>