<?xml version="1.0" encoding="utf-8"?><svg viewBox="0 0 20 20" xmlns="http://www.w3.org/2000/svg" xmlns:xlink="http://www.w3.org/1999/xlink"><style>:root>svg{display:none}:root>svg:target{display:block}</style><svg viewBox="0 0 20 20" id="clip" xmlns="http://www.w3.org/2000/svg"><path d="M18.75 5.625c0 1.336-.52 2.591-1.465 3.536L8.28 18.274a3.744 3.744 0 0 1-2.656 1.098c-.96 0-1.92-.365-2.65-1.096a3.755 3.755 0 0 1 0-5.303l6.506-6.47c.977-.97 2.53-1.002 3.463-.07.455.456.695 1.07.676 1.733a2.544 2.544 0 0 1-.752 1.726L6.69 16.067a.624.624 0 1 1-.883-.884l6.174-6.174c.24-.24.377-.552.386-.88a1.088 1.088 0 0 0-.31-.812c-.447-.445-1.208-.413-1.697.073l-6.506 6.468a2.503 2.503 0 0 0 .001 3.534 2.503 2.503 0 0 0 3.536 0l9.006-9.113A3.727 3.727 0 0 0 17.5 5.625a3.72 3.72 0 0 0-1.099-2.651 3.725 3.725 0 0 0-2.651-1.099c-1.002 0-1.944.39-2.652 1.099l-8.783 8.72a.624.624 0 1 1-.88-.888l8.78-8.718A4.964 4.964 0 0 1 13.75.625c1.335 0 2.59.52 3.535 1.465a4.965 4.965 0 0 1 1.465 3.535Z"/></svg><svg viewBox="0 0 14 14" id="clock" xmlns="http://www.w3.org/2000/svg"><g clip-path="url(#ba)"><path d="M7 0C3.14 0 0 3.14 0 7s3.14 7 7 7 7-3.14 7-7-3.14-7-7-7Zm3.33 10.62a.582.582 0 0 1-.826 0L6.588 7.705a.58.58 0 0 1-.171-.412V3.5a.583.583 0 1 1 1.166 0v3.55l2.746 2.746a.583.583 0 0 1 0 .825Z"/></g><defs><clipPath id="ba"><path d="M0 0h14v14H0z"/></clipPath></defs></svg><svg viewBox="0 0 14 14" id="email" xmlns="http://www.w3.org/2000/svg"><path d="M13.539 3.123a1.612 1.612 0 0 0-1.59-1.373H2.053a1.612 1.612 0 0 0-1.59 1.373l6.539 4.23 6.538-4.23Z"/><path d="M7.238 8.242a.437.437 0 0 1-.476 0L.438 4.15v6.486A1.616 1.616 0 0 0 2.05 12.25h9.898a1.615 1.615 0 0 0 1.614-1.614V4.149L7.237 8.242Z"/></svg><svg viewBox="0 0 20 20" id="location" xmlns="http://www.w3.org/2000/svg"><g clip-path="url(#da)"><path d="M10 0C5.865 0 2.5 3.388 2.5 7.554c0 5.92 6.795 12.031 7.084 12.288a.624.624 0 0 0 .832 0c.289-.257 7.084-6.369 7.084-12.288C17.5 3.388 14.135 0 10 0Zm0 11.667A4.171 4.171 0 0 1 5.833 7.5 4.171 4.171 0 0 1 10 3.333 4.171 4.171 0 0 1 14.167 7.5 4.171 4.171 0 0 1 10 11.667Z"/></g><defs><clipPath id="da"><path d="M0 0h20v20H0z"/></clipPath></defs></svg><svg viewBox="0 0 14 14" id="phone" xmlns="http://www.w3.org/2000/svg"><path d="M13.62 10.275 11.666 8.32c-.698-.698-1.884-.419-2.163.488-.21.628-.907.977-1.535.838-1.396-.35-3.28-2.163-3.628-3.629-.21-.628.209-1.326.837-1.535.907-.279 1.186-1.465.488-2.163L3.712.366c-.559-.488-1.396-.488-1.884 0L.502 1.692c-1.326 1.396.14 5.094 3.419 8.373 3.28 3.28 6.978 4.815 8.373 3.42l1.326-1.326c.488-.559.488-1.396 0-1.884Z"/></svg><svg viewBox="0 0 14 14" id="telegram" xmlns="http://www.w3.org/2000/svg"><path d="m.247 6.75 3.226 1.204 1.249 4.016a.38.38 0 0 0 .603.181l1.798-1.466a.536.536 0 0 1 .654-.018l3.243 2.355a.38.38 0 0 0 .596-.23l2.376-11.428a.38.38 0 0 0-.51-.433L.245 6.04a.38.38 0 0 0 .003.711Zm4.274.563 6.304-3.883c.113-.07.23.084.133.174L5.755 8.441c-.183.17-.301.398-.335.645l-.177 1.313c-.023.176-.27.193-.318.023l-.682-2.395a.635.635 0 0 1 .278-.714Z"/></svg><svg viewBox="0 0 14 14" id="whatsapp" xmlns="http://www.w3.org/2000/svg"><path d="M7.002 0h-.004C3.138 0 0 3.14 0 7c0 1.531.493 2.95 1.333 4.103l-.873 2.6 2.69-.86A6.94 6.94 0 0 0 7.003 14C10.862 14 14 10.86 14 7s-3.139-7-6.998-7Zm4.073 9.885c-.169.477-.84.872-1.374.988-.366.078-.843.14-2.452-.527-2.057-.852-3.381-2.943-3.485-3.078-.099-.136-.831-1.107-.831-2.112 0-1.004.51-1.493.716-1.703.169-.173.448-.251.715-.251.087 0 .165.004.235.007.206.01.309.022.444.346.17.407.58 1.411.63 1.515.05.103.1.243.03.379-.066.14-.124.202-.227.32-.104.12-.202.21-.305.338-.094.112-.201.23-.082.436.119.202.53.873 1.136 1.412.781.695 1.415.918 1.641 1.012.17.07.37.053.494-.078.156-.169.35-.449.547-.724.14-.198.316-.223.502-.153.189.066 1.189.56 1.395.663.205.103.34.152.39.239.05.086.05.493-.12.97Z"/></svg></svg>