<svg width="67" height="67" viewBox="0 0 67 67" fill="none" xmlns="http://www.w3.org/2000/svg">
<path d="M42.7999 41.4001C47.4391 41.4001 51.1999 37.6393 51.1999 33.0001C51.1999 28.3609 47.4391 24.6001 42.7999 24.6001C38.1607 24.6001 34.3999 28.3609 34.3999 33.0001C34.3999 37.6393 38.1607 41.4001 42.7999 41.4001Z" stroke="#2E8647" stroke-width="2" stroke-linecap="round" stroke-linejoin="round"/>
<path d="M48.4 39.2441V54.0002L42.8 51.2002L37.2 54.0002V39.2441" stroke="#2E8647" stroke-width="2" stroke-linecap="round" stroke-linejoin="round"/>
<path d="M48.3999 48.4H53.9999C57.0939 48.4 59.5999 45.894 59.5999 42.8V17.6C59.5999 14.506 57.0939 12 53.9999 12H11.9999C8.9059 12 6.3999 14.506 6.3999 17.6V42.8C6.3999 45.894 8.9059 48.4 11.9999 48.4H37.1999" stroke="#2E8647" stroke-width="2" stroke-linecap="round" stroke-linejoin="round"/>
</svg>
