<svg width="161" height="55" viewBox="0 0 161 55" fill="none" xmlns="http://www.w3.org/2000/svg">
<g clip-path="url(#clip0_1201_2502)">
<path d="M54.8586 24.7333C54.2172 18.4051 51.4013 12.495 46.8909 8.01023C42.3804 3.52543 36.4544 0.743335 30.1226 0.138007C23.7908 -0.467321 17.4451 1.14157 12.1666 4.69054C6.88804 8.2395 3.00341 13.5089 1.17458 19.601C-0.654247 25.6931 -0.314122 32.2308 2.137 38.1002C4.58813 43.9695 8.99859 48.8074 14.6169 51.7895C20.2352 54.7716 26.7137 55.7133 32.9484 54.4542C39.1832 53.1951 44.7885 49.8131 48.8093 44.8844C51.0945 42.0892 52.8053 38.8702 53.8434 35.4121C54.8815 31.954 55.2265 28.325 54.8586 24.7333ZM48.654 14.7929C50.2357 17.43 51.3107 20.3393 51.8239 23.3712C51.4133 26.2056 47.6925 27.5977 44.1571 28.7946C43.5973 25.9655 43.7401 23.0424 44.5727 20.2814C45.268 18.0403 46.7079 16.1039 48.654 14.7929ZM43.1004 8.38802C44.6305 9.6314 46.0043 11.0556 47.1918 12.6296C44.7595 14.2579 42.9586 16.6704 42.0889 19.4651C41.9787 19.8007 41.8835 20.1462 41.7984 20.4917C41.5948 20.2397 41.3739 20.0021 41.1374 19.7806C41.1967 19.7046 41.2409 19.6179 41.2676 19.5252C41.4278 19.0245 41.4328 18.113 40.7318 17.7174C40.0307 17.3218 39.9255 18.058 39.8254 18.3935C39.7252 18.729 39.575 18.4385 39.58 18.2533C39.6183 17.77 39.5194 17.2856 39.2945 16.8561C39.2467 16.7445 39.1715 16.6467 39.0758 16.5719C38.9802 16.4971 38.8672 16.4476 38.7473 16.4281C38.6274 16.4087 38.5046 16.4198 38.3901 16.4604C38.2757 16.5011 38.1734 16.57 38.0927 16.6608C37.9778 16.9744 37.9778 17.3187 38.0927 17.6323C38.1628 17.8426 38.0176 17.9728 37.9224 17.8977C37.8273 17.8226 37.6169 17.6423 37.4717 17.5121C37.3265 17.3819 36.7706 16.8912 36.2148 17.2567C35.9776 17.4353 35.8085 17.6896 35.7357 17.9774C35.6628 18.2652 35.6905 18.5693 35.8142 18.8392C36.1063 19.1997 36.493 19.4719 36.9309 19.6254C37.2013 19.7155 37.0611 19.9509 36.9309 20.006C36.733 20.1866 36.6009 20.428 36.5553 20.692C36.6009 20.8941 36.7199 21.072 36.8892 21.1914C37.0585 21.3107 37.2661 21.363 37.4717 21.338C38.0126 21.293 38.4733 20.657 38.6385 20.4867C38.8038 20.3165 38.944 20.5668 38.8188 20.7471C38.6743 20.9953 38.5583 21.259 38.4733 21.5333C38.3881 21.7787 38.5033 22.3145 39.1844 22.4848C39.6851 22.615 40.1409 22.2544 40.4413 21.6986C40.4711 21.4964 40.4521 21.2899 40.3859 21.0966C40.3197 20.9032 40.2082 20.7284 40.0607 20.5869C39.4775 19.9747 38.8312 19.4258 38.1327 18.9493C39.1995 19.3645 40.162 20.009 40.9521 20.8373C41.4529 21.5484 41.4228 22.1843 41.3377 23.241C41.1448 25.3817 41.2629 27.539 41.6882 29.6459L39.9556 30.2618L38.1227 30.9128C38.308 28.9097 37.3015 26.5711 36.2098 24.0823C35.073 21.4833 33.8261 18.6339 34.2067 15.9647C34.4886 13.449 35.5576 11.0866 37.2614 9.21429C38.2699 8.15119 39.4804 7.29995 40.8219 6.71042C41.6124 7.22631 42.3731 7.7864 43.1004 8.38802ZM25.0074 2.95462C26.2834 2.82446 27.5677 2.79432 28.8484 2.86448C28.9435 7.68193 27.1608 10.2108 25.0625 12.7448C24.9941 11.8508 24.8261 10.9673 24.5617 10.1107C24.259 9.24914 23.8907 8.41206 23.46 7.60681C23.985 8.18499 24.4235 8.83606 24.762 9.5398C24.7849 9.62948 24.8286 9.71248 24.8896 9.78201C24.9507 9.85153 25.0274 9.90561 25.1133 9.93981C25.1993 9.97401 25.2922 9.98735 25.3843 9.97875C25.4765 9.97015 25.5652 9.93986 25.6434 9.89034C26.1141 9.67501 26.7501 9.0891 26.4497 8.41806C26.1492 7.74703 25.5583 8.14765 25.2478 8.29788C24.9373 8.44811 25.0074 8.17269 25.1426 8.06252C25.4838 7.79495 25.7325 7.42716 25.8537 7.01089C26.009 6.41497 25.3229 6.08947 25.0074 6.16458C24.714 6.27192 24.4724 6.48672 24.3314 6.76551C24.2412 6.94078 24.0359 6.93577 24.0109 6.83061C23.9858 6.72545 23.9358 6.48508 23.9057 6.32984C23.8683 6.11735 23.7633 5.92263 23.6063 5.77465C23.4493 5.62667 23.2487 5.53335 23.0344 5.50857C22.3333 5.3984 21.7023 5.79902 21.6372 6.16458C21.6474 6.57854 21.7856 6.97918 22.0328 7.31135C22.1931 7.53169 21.9176 7.59179 21.7925 7.56675C21.6418 7.56329 21.4939 7.6085 21.371 7.69567C21.248 7.78284 21.1564 7.90732 21.1097 8.05066C21.0631 8.19399 21.0639 8.34855 21.112 8.49141C21.1601 8.63426 21.2529 8.75781 21.3768 8.84372C21.6973 9.16922 22.6037 8.89881 22.8791 8.90382C23.1546 8.90882 23.0694 9.13918 22.8441 9.17924C22.5607 9.23834 22.2839 9.32557 22.0178 9.43964C21.7824 9.54481 21.517 9.94042 21.9477 10.4412C22.2782 10.8318 23.0594 10.7366 23.6854 10.5714C23.8206 10.5313 24.0359 11.1924 24.076 11.5329C24.2553 12.5302 24.1041 13.5589 23.6453 14.4624C23.2647 14.9281 22.8841 15.4039 22.5086 15.9096C22.1862 14.4481 21.5953 13.0591 20.7659 11.8133C19.1947 9.46132 16.9141 7.67193 14.2558 6.70542H14.2207C17.4738 4.62946 21.1682 3.34484 25.0074 2.95462ZM8.38671 11.9035C9.33074 10.741 10.3783 9.6666 11.5165 8.69349C12.1306 8.80875 12.7338 8.97629 13.3193 9.19426C15.4519 9.96913 17.2816 11.4042 18.5424 13.2906C19.7483 15.0484 20.2816 17.1814 20.0447 19.2999C19.9715 19.9204 19.827 20.5303 19.6141 21.1177V21.1678C18.5426 23.9092 18.063 26.8462 18.2069 29.7861C18.252 30.3642 18.3391 30.9382 18.4673 31.5037C17.3856 31.0881 16.2489 30.6875 15.0871 30.2768L13.3594 29.6659C14.0822 26.2877 13.9357 22.7813 12.9337 19.4752C12.5696 18.3574 12.0648 17.2906 11.4314 16.3002C11.4269 16.0471 11.4733 15.7956 11.5679 15.5607C11.6626 15.3258 11.8035 15.1124 11.9823 14.9331C12.5676 14.2977 13.2928 13.8074 14.1005 13.5009C13.5563 13.9287 13.0533 14.4065 12.5982 14.9281C12.3579 15.1885 12.2877 15.5541 12.3929 15.6893C12.7134 16.0949 13.1891 16.5156 13.6398 16.3904C14.2408 16.2201 14.2858 15.8045 14.1907 15.6242C14.0777 15.4218 13.9434 15.2321 13.7901 15.0583C13.6599 14.9331 13.745 14.7328 13.9253 14.853C14.1905 15.1002 14.5306 15.2518 14.8918 15.2837C15.0637 15.2961 15.2336 15.2398 15.3641 15.1271C15.4946 15.0145 15.575 14.8547 15.5878 14.6827C15.5427 14.4969 15.4257 14.3366 15.2623 14.2371C15.1622 14.202 15.017 14.0317 15.2623 13.9466C15.6278 13.8139 15.95 13.5835 16.1938 13.2806C16.2753 13.0568 16.2689 12.8104 16.176 12.5911C16.0831 12.3718 15.9105 12.1959 15.693 12.0988C15.5015 12.0311 15.2943 12.0206 15.0969 12.0686C14.8995 12.1166 14.7204 12.2211 14.5813 12.3692C14.4611 12.4793 14.2908 12.6296 14.2107 12.6897C14.1306 12.7498 13.9854 12.6646 14.0304 12.4994C14.0653 12.3761 14.074 12.247 14.0559 12.1202C14.0378 11.9934 13.9933 11.8718 13.9253 11.7632C13.8438 11.6989 13.7493 11.6532 13.6483 11.6292C13.5473 11.6053 13.4423 11.6038 13.3406 11.6248C13.2389 11.6458 13.1431 11.6888 13.0599 11.7508C12.9766 11.8128 12.9079 11.8922 12.8586 11.9836C12.6987 12.3186 12.6529 12.6968 12.7284 13.0602C12.7535 13.2005 12.6483 13.4308 12.5231 13.1854C12.3979 12.9401 12.2377 12.3842 11.6417 12.7247C11.0458 13.0652 11.2111 13.9316 11.3964 14.2971C11.433 14.3673 11.4822 14.4301 11.5416 14.4824C11.2861 14.7363 11.0563 15.0147 10.8555 15.3137V15.4339C10.0174 14.3409 9.00171 13.3964 7.85088 12.6396C8.01113 12.3842 8.1914 12.1438 8.38671 11.9035ZM6.34855 14.7929C8.29832 16.1089 9.73865 18.0529 10.4299 20.3014C10.525 20.5919 10.6051 20.8873 10.6803 21.1828C10.4062 21.045 10.1215 20.9295 9.82894 20.8373C9.86199 20.7494 9.87566 20.6555 9.869 20.5618C9.869 20.0611 9.58356 19.2849 8.86745 19.2548C8.15134 19.2248 8.26652 19.8908 8.27654 20.2213C8.28655 20.5518 8.07122 20.3715 8.02114 20.2213C7.90935 19.8027 7.67159 19.4286 7.34009 19.1496C7.24789 19.0823 7.14111 19.0377 7.02842 19.0193C6.91574 19.001 6.80031 19.0095 6.69152 19.0441C6.58274 19.0788 6.48365 19.1386 6.4023 19.2187C6.32096 19.2988 6.25965 19.397 6.22336 19.5052C6.21827 19.7996 6.31963 20.0859 6.5088 20.3114C6.63399 20.4617 6.54886 20.6319 6.43869 20.6119C6.32852 20.5919 6.09316 20.5268 5.93792 20.4767C5.73269 20.3924 5.50529 20.3786 5.29139 20.4375C5.07749 20.4964 4.8892 20.6247 4.75609 20.8022C4.59752 21.0325 4.52381 21.3106 4.54756 21.5892C4.57131 21.8678 4.69103 22.1295 4.88629 22.3296C5.26427 22.5116 5.68814 22.5761 6.10317 22.5148C6.36858 22.4748 6.31851 22.7402 6.24339 22.8303C6.12963 23.0596 6.09108 23.319 6.13322 23.5715C6.19832 23.7918 6.67406 23.9971 7.13477 23.7267C7.59548 23.4563 7.79078 22.7252 7.89595 22.4948C8.00111 22.2645 8.1914 22.4347 8.13632 22.64C8.06542 22.9051 8.02345 23.1772 8.01112 23.4513C8.01112 23.7017 8.27153 24.1073 8.92253 23.9521C9.17162 23.86 9.38734 23.6952 9.54179 23.4792C9.69624 23.2631 9.78231 23.0057 9.78888 22.7402C9.81892 22.5399 9.47339 22.0642 9.09781 21.979C8.39065 21.7084 7.65466 21.5202 6.90441 21.4182C7.93882 21.3035 8.98567 21.4356 9.95914 21.8038C10.6402 22.1793 10.9607 22.8404 11.0709 23.8068H11.1009C11.228 25.4806 11.1388 27.1637 10.8355 28.8146C7.30503 27.5977 3.57927 26.2056 3.17364 23.3612C3.6882 20.332 4.76504 17.4259 6.34855 14.7929ZM19.0282 50.6834C14.6776 49.0894 10.8631 46.3038 8.02056 42.6448C5.17802 38.9858 3.42205 34.601 2.9533 29.9914C2.8882 29.3504 2.84813 28.7044 2.83311 28.0584C4.83621 29.761 7.77576 30.7476 10.52 31.674L12.1225 32.2198C11.7396 32.6223 11.3912 33.0562 11.0809 33.5169C10.3998 34.5184 10.1044 35.9206 9.84897 37.1024C9.8298 36.2096 9.94975 35.3192 10.2045 34.4633C10.2392 34.3728 10.2535 34.2757 10.2462 34.1791C10.2389 34.0824 10.2103 33.9886 10.1624 33.9043C10.1145 33.82 10.0485 33.7474 9.96923 33.6917C9.88993 33.6359 9.79926 33.5985 9.70374 33.582C9.0928 33.4518 8.6421 33.4518 8.32161 33.9375C7.89094 34.5885 8.16636 35.0242 8.39672 35.1193C8.58863 35.2191 8.79757 35.282 9.01267 35.3046C9.23302 35.3046 9.30312 35.5901 9.04272 35.6201C8.58543 35.6044 8.13599 35.7419 7.76575 36.0107C7.30503 36.4063 7.29502 37.0123 7.47029 37.1575C7.69079 37.3011 7.95592 37.3598 8.21644 37.3227C8.34164 37.2777 8.61205 37.3227 8.45681 37.5932C8.38133 37.7098 8.33273 37.8417 8.31454 37.9794C8.29635 38.1171 8.30903 38.2572 8.35165 38.3894C8.4415 38.667 8.63644 38.8984 8.89474 39.0341C9.15305 39.1698 9.45422 39.199 9.73379 39.1155C10.3748 38.81 10.3197 38.3593 10.4048 37.9537C10.4349 37.8285 10.6352 37.8035 10.7203 37.9938C10.7814 38.1395 10.8722 38.2708 10.9868 38.3794C11.1015 38.4881 11.2376 38.5716 11.3863 38.6247C11.5132 38.6167 11.6368 38.5814 11.7489 38.5214C11.8609 38.4613 11.9587 38.3779 12.0356 38.2767C12.1126 38.1756 12.1669 38.059 12.1948 37.935C12.2228 37.8111 12.2237 37.6825 12.1976 37.5581C12.0943 37.1062 11.8443 36.7011 11.4865 36.4063C11.3613 36.2911 11.2862 35.9807 11.5917 36.1209C11.8971 36.2611 12.468 36.6667 12.7635 35.8555C13.0589 35.0442 12.2627 34.3531 11.7619 34.1328C11.7369 34.1328 11.7018 34.0677 11.6618 33.9826C12.0125 33.3911 12.5227 32.9103 13.1341 32.5954L14.1056 32.941C17.4257 34.1028 20.4454 35.1694 22.5336 36.7819C22.3472 37.0287 22.132 37.2522 21.8926 37.4479C21.1815 37.9187 17.4708 41.3139 16.7446 41.9549C17.0401 41.2238 18.1618 40.057 18.913 39.1656C19.3086 38.6999 19.4138 38.2141 19.1934 38.0088C18.5274 37.3678 17.5509 36.7619 16.8248 37.1074C15.8533 37.5681 15.9134 38.3043 16.1487 38.6097C16.4075 38.9274 16.7015 39.2147 17.0251 39.466C17.2905 39.6513 17.2104 40.0269 16.8598 39.8667C16.5093 39.7064 15.5578 39.0404 14.7165 39.1706C13.8752 39.3008 13.4696 40.0119 13.5948 40.3324C13.7837 40.6737 14.0817 40.9417 14.4411 41.0936C14.6264 41.1286 14.9419 41.389 14.5713 41.5943C14.0959 41.8891 13.7315 42.3328 13.5347 42.8563C13.3444 43.4172 13.8251 44.5038 14.8317 44.7743C15.1146 44.8823 15.4282 44.8776 15.7078 44.7611C15.9873 44.6446 16.2115 44.4252 16.334 44.1483C16.4993 43.933 16.7396 43.6475 16.8348 43.4923C16.9299 43.337 17.2204 43.4923 17.2054 43.7777C17.1923 44.0059 17.2245 44.2345 17.3001 44.4502C17.3757 44.6659 17.4933 44.8646 17.646 45.0347C17.8018 45.1257 17.9761 45.1805 18.156 45.195C18.3359 45.2095 18.5167 45.1833 18.6851 45.1184C18.8534 45.0535 19.005 44.9514 19.1286 44.8199C19.2521 44.6884 19.3445 44.5307 19.3987 44.3586C19.5531 43.717 19.4969 43.0428 19.2385 42.4356C19.1484 42.2003 19.2385 41.7696 19.549 42.1702C19.8595 42.5708 20.3202 43.4873 21.2216 42.7261C22.123 41.9649 21.6372 40.5027 21.0012 39.8116C21.4402 39.355 21.9947 39.0259 22.6058 38.8593C23.2168 38.6926 23.8616 38.6946 24.4716 38.8651C25.1415 39.9813 25.4818 41.2643 25.4531 42.5658C25.4531 48.6352 19.6491 50.5081 19.0282 50.6834ZM27.5013 38.3443C26.4747 35.9506 24.5367 34.3481 22.0328 33.0511C21.3668 32.4051 20.9311 31.1832 20.8009 29.5457C20.7007 27.7712 20.8884 25.9921 21.3568 24.2776C22.0679 22.6798 23.3425 21.3998 24.9373 20.682L25.0375 20.6319C26.1292 20.1312 26.8953 19.7756 28.1222 19.8607C27.5363 19.8607 26.3345 20.3615 25.2678 20.9825C25.0323 21.1023 24.8502 21.3061 24.7574 21.5536C24.6647 21.8012 24.6682 22.0744 24.7671 22.3195C25.0876 22.9856 25.6134 23.5715 26.2694 23.5264C27.1758 23.4663 27.3861 22.8954 27.306 22.615C27.2168 22.2952 27.089 21.9875 26.9254 21.6986C26.7852 21.4782 26.9755 21.2279 27.1908 21.4432C27.4061 21.6585 27.9069 22.4447 28.598 22.6C30.1854 22.9405 29.9851 21.333 29.3792 20.9524C29.249 20.8723 29.0938 20.5869 29.4543 20.5368C29.9795 20.375 30.454 20.08 30.8314 19.6805C30.9356 19.5637 31.0143 19.4264 31.0622 19.2774C31.1102 19.1284 31.1264 18.971 31.1099 18.8154C31.0934 18.6597 31.0445 18.5092 30.9664 18.3736C30.8882 18.238 30.7826 18.1202 30.6562 18.0279C29.9801 17.5271 29.3341 18.058 29.1538 18.1731C28.9736 18.2883 28.6531 18.4486 28.5229 18.5137C28.3927 18.5788 28.2174 18.4085 28.3376 18.1932C28.4265 18.0308 28.4809 17.8517 28.4972 17.6673C28.5136 17.4829 28.4916 17.297 28.4327 17.1215C28.3285 16.9878 28.192 16.8828 28.0361 16.8162C27.8802 16.7496 27.71 16.7237 27.5413 16.7409C27.2666 16.7942 27.0134 16.9263 26.8124 17.121C26.6115 17.3158 26.4715 17.5647 26.4096 17.8376C26.3345 18.073 26.3145 18.6439 26.1642 18.759C25.8137 19.0295 26.2243 17.6473 25.1326 17.7275C24.0409 17.8076 23.8106 19.0595 23.9909 19.9309C23.9949 19.9748 23.9843 20.0188 23.9608 20.056C23.4885 20.4307 22.986 20.7657 22.4585 21.0576C23.5752 18.5838 25.0675 16.796 26.4897 15.1034C29.1188 11.9736 31.4975 9.09411 31.4624 3.14992C33.7473 3.5198 35.9679 4.2128 38.0576 5.2081C37.0483 5.82222 36.1254 6.56828 35.3134 7.42653C33.245 9.69145 31.9446 12.5516 31.5976 15.5992C31.0969 18.9944 32.514 22.2044 33.791 25.1139C35.1481 28.2086 36.3249 30.9779 33.9863 32.5504C31.0167 33.9375 28.6631 35.6351 27.5013 38.3443ZM46.6159 43.1017C43.8123 46.5479 40.1256 49.1683 35.9494 50.6834C35.3384 50.5031 29.5444 48.6252 29.5444 42.5658C29.5444 38.2241 32.6392 36.1409 36.8808 34.4182C38.2529 33.8874 39.3146 34.0827 40.5465 34.1779C41.4131 34.2675 42.2591 34.4993 43.0504 34.8639C43.9084 35.332 44.6986 35.9149 45.399 36.5966C45.0985 36.4113 44.0269 35.8204 42.9602 35.2796C42.7422 35.1752 42.4931 35.1559 42.2616 35.2253C42.0301 35.2948 41.8328 35.448 41.7083 35.6552C41.3928 36.3162 41.1424 37.1575 41.5731 37.6583C42.1439 38.2792 42.6948 38.0639 42.8601 37.8235C43.0502 37.5541 43.2082 37.2633 43.3308 36.9572C43.4159 36.7118 43.7214 36.6868 43.6763 36.9572C43.6312 37.2276 43.3358 38.129 43.6262 38.7299C43.9167 39.3308 44.5527 39.4711 44.773 39.3058C44.9902 39.0846 45.1276 38.7974 45.1636 38.4895C45.1636 38.3443 45.2738 38.0489 45.5242 38.2792C45.7746 38.5096 45.8697 38.5496 46.3404 38.5647C46.6751 38.5104 46.979 38.3372 47.1961 38.0768C47.4132 37.8164 47.529 37.4864 47.5223 37.1475C47.377 36.3562 46.8813 36.3212 46.4706 36.1459C46.3404 36.0858 46.3705 35.8555 46.6008 35.7954C46.7793 35.7546 46.9478 35.6787 47.0965 35.5721C47.2453 35.4655 47.3713 35.3303 47.4672 35.1744C47.4969 35.0371 47.4949 34.8949 47.4615 34.7585C47.4281 34.622 47.3641 34.495 47.2744 34.3869C47.1847 34.2789 47.0715 34.1926 46.9436 34.1347C46.8156 34.0768 46.6761 34.0488 46.5357 34.0527C46.0081 34.081 45.5038 34.2795 45.0985 34.6186C44.9383 34.7387 44.5977 34.7588 44.8231 34.4433C45.0484 34.1278 45.6594 33.5619 44.8732 33.0561C44.087 32.5504 43.1004 33.3316 42.7499 33.8123C42.6933 33.8531 42.6283 33.8805 42.5596 33.8924C42.0982 33.5676 41.6598 33.2112 41.2476 32.8258L42.6297 32.325C43.1906 32.1197 43.9067 31.8793 44.4826 31.684C47.2218 30.7626 50.1463 29.7761 52.1645 28.0734C52.0441 33.5617 50.0908 38.8519 46.6159 43.1017ZM45.4841 23.6867C45.1686 23.3912 44.6779 22.62 45.0985 22.1343C45.5192 21.6485 45.8747 22.1343 46.1001 22.3246C46.3254 22.5149 46.3204 22.2795 46.2453 22.1543C46.0358 21.8428 45.9306 21.4728 45.9448 21.0977C45.958 20.9989 45.994 20.9045 46.0501 20.822C46.1061 20.7396 46.1806 20.6714 46.2676 20.6227C46.3546 20.5741 46.4518 20.5465 46.5513 20.542C46.6509 20.5375 46.7502 20.5563 46.8412 20.5969C47.0497 20.7619 47.1875 21 47.2268 21.2629C47.2268 21.4332 47.4121 21.4732 47.4622 21.3931C47.5123 21.313 47.6124 21.1227 47.6775 20.9925C47.7494 20.817 47.8746 20.6684 48.0354 20.5678C48.1963 20.4672 48.3846 20.4196 48.5739 20.4316C48.8167 20.4608 49.042 20.5729 49.2117 20.749C49.3815 20.9251 49.4852 21.1544 49.5053 21.3981C49.3997 21.7478 49.1901 22.0569 48.9044 22.2845C48.7191 22.4297 48.9044 22.5449 49.0296 22.5549C49.2483 22.6134 49.4429 22.7396 49.5855 22.9155C49.6906 23.0807 49.5454 23.5064 49.0847 23.6416C48.6487 23.6823 48.21 23.6008 47.8177 23.4062C47.6074 23.3461 47.6024 23.5565 47.7727 23.6416C47.983 23.762 48.181 23.9029 48.3636 24.0622C48.5238 24.2075 48.639 24.6081 48.1532 24.9336C47.7777 25.184 47.1517 24.8985 46.706 24.6031C46.6155 24.5243 46.5529 24.4182 46.5276 24.3009C46.5023 24.1835 46.5157 24.0612 46.5658 23.9521C46.9058 23.3425 47.2769 22.7509 47.6775 22.1793C47.117 22.6034 46.624 23.1099 46.2152 23.6817C46.07 23.892 45.8046 23.9821 45.4841 23.6867ZM32.8145 30.3419C32.504 30.9228 32.0033 31.5789 31.4023 31.5188C30.6211 31.4386 30.4709 30.9379 30.551 30.6925C30.6436 30.4145 30.7698 30.1488 30.9266 29.9013C31.0568 29.716 30.9266 29.4856 30.7062 29.6759C30.4859 29.8662 30.0452 30.5473 29.4293 30.6424C28.8133 30.7376 28.3576 30.372 28.3576 30.1416C28.3981 29.8702 28.5307 29.6209 28.7332 29.4355C28.8534 29.3704 28.9986 29.1251 28.6881 29.07C28.2046 28.9873 27.7527 28.7743 27.3811 28.454C27.2309 28.1914 27.1867 27.8814 27.2574 27.5873C27.3282 27.2932 27.5085 27.0372 27.7617 26.8716C27.9842 26.7449 28.2391 26.6864 28.4946 26.7033C28.7501 26.7202 28.995 26.8118 29.1989 26.9667C29.3692 27.0719 29.6146 27.2221 29.7297 27.2822C29.8449 27.3423 30.0002 27.1971 29.91 27.0068C29.837 26.8571 29.7961 26.6937 29.7901 26.5273C29.784 26.3608 29.8129 26.1949 29.875 26.0403C29.962 25.9426 30.0693 25.8652 30.1895 25.8134C30.3096 25.7617 30.4396 25.7368 30.5704 25.7406C30.7011 25.7445 30.8294 25.7769 30.9464 25.8355C31.0633 25.8942 31.1659 25.9778 31.2471 26.0804C31.5246 26.4601 31.6657 26.9224 31.6477 27.3924C31.6477 27.5727 31.833 27.8331 31.9331 27.4975C32.0333 27.162 32.1084 26.4409 32.9347 26.7314C33.761 27.0218 33.7359 28.1335 33.5807 28.6343C33.4255 29.1351 34.5021 30.0615 34.1766 29.8762C33.1751 29.3154 30.9216 28.3338 30.0152 28.2487C30.8711 28.6369 31.7068 29.0681 32.5191 29.5407C32.6523 29.6206 32.7542 29.7435 32.808 29.8893C32.8617 30.035 32.864 30.1947 32.8145 30.3419ZM15.2323 18.3684C15.5923 18.3722 15.9423 18.4877 16.2339 18.699C16.4191 18.8342 16.4792 18.6088 16.4542 18.5087C16.4525 18.2871 16.5189 18.0703 16.6445 17.8877C16.7747 17.7425 17.2104 17.7675 17.4607 18.1581C17.6175 18.5559 17.6591 18.9897 17.5809 19.41C17.5809 19.6254 17.7812 19.5703 17.8163 19.41C17.8614 19.1744 17.9319 18.9444 18.0266 18.724C18.1168 18.5337 18.4623 18.3184 18.903 18.6839C19.2335 18.9694 19.1333 19.6204 18.9781 20.1312C18.9284 20.2378 18.8453 20.3253 18.7413 20.3804C18.6374 20.4355 18.5184 20.4553 18.4022 20.4366C17.7396 20.2841 17.086 20.0952 16.4442 19.8708C16.9903 20.2817 17.5945 20.6091 18.2369 20.8423C18.4923 20.9424 18.6426 21.1578 18.4473 21.5383C18.252 21.9189 17.6661 22.58 17.1002 22.3195C16.5343 22.0591 16.8799 21.5884 17.0101 21.318C17.1403 21.0476 16.9099 21.1227 16.8097 21.2279C16.5757 21.5094 16.2583 21.7093 15.9033 21.7987C15.8071 21.8129 15.7089 21.8045 15.6165 21.7741C15.5241 21.7437 15.4401 21.6922 15.3711 21.6236C15.3021 21.5551 15.25 21.4714 15.2189 21.3793C15.1879 21.2871 15.1788 21.189 15.1922 21.0927C15.2843 20.8553 15.4634 20.6619 15.693 20.5518C15.8432 20.4817 15.8382 20.3165 15.7531 20.2914C15.668 20.2664 15.4576 20.2263 15.3174 20.1963C15.1402 20.1739 14.974 20.0983 14.8407 19.9793C14.7075 19.8604 14.6135 19.7038 14.5713 19.5302C14.5287 19.2899 14.5715 19.0422 14.6922 18.8301C14.8129 18.6179 15.0039 18.4546 15.2323 18.3684ZM39.0592 13.3006C38.7437 12.7648 38.4582 12.0487 38.7587 11.638C39.1593 11.1022 39.61 11.2575 39.7603 11.4528C39.932 11.6673 40.0813 11.8989 40.2059 12.1438C40.2911 12.3391 40.5315 12.3491 40.4714 12.1038C40.4113 11.8584 40.1058 11.1573 40.2811 10.6515C40.4563 10.1457 40.9471 10.0005 41.1324 10.1507C41.3237 10.3231 41.4566 10.5505 41.513 10.8017C41.513 10.9219 41.6382 11.1623 41.8134 10.962C42.0862 10.6495 42.4478 10.4276 42.85 10.326C43.1269 10.3632 43.3825 10.4945 43.574 10.6978C43.7655 10.9012 43.8812 11.1642 43.9017 11.4427C43.9075 11.6614 43.8437 11.8762 43.7195 12.0563C43.5953 12.2363 43.4171 12.3722 43.2106 12.4443C43.0554 12.5094 42.835 12.6146 42.7399 12.6646C42.6447 12.7147 42.6848 12.905 42.8751 12.9451C43.1764 13.0096 43.4405 13.1893 43.6112 13.4458C43.6552 13.5522 43.6732 13.6675 43.6638 13.7822C43.6544 13.897 43.6179 14.0078 43.5572 14.1056C43.4966 14.2034 43.4135 14.2854 43.3149 14.3449C43.2164 14.4043 43.1051 14.4394 42.9903 14.4474C42.5626 14.4348 42.1502 14.2857 41.8134 14.0217C41.6782 13.9266 41.3978 13.9266 41.6131 14.177C41.8285 14.4274 42.3443 14.863 41.7734 15.3087C41.2025 15.7544 40.3462 15.1585 40.0307 14.7829C39.7152 14.4073 39.8254 14.1169 40.0858 13.9366C40.7535 13.5021 41.3526 12.9704 41.8635 12.3592C41.1933 12.7825 40.5013 13.1703 39.7903 13.521C39.6613 13.5709 39.5193 13.5764 39.3869 13.5364C39.2544 13.4965 39.1391 13.4135 39.0592 13.3006ZM38.5985 38.9603C38.3631 39.8166 37.677 39.461 37.3215 39.3258C36.9659 39.1906 37.0861 39.5211 37.2414 39.6263C37.6614 39.8911 37.9846 40.2846 38.1628 40.748C38.203 40.878 38.2135 41.0154 38.1934 41.15C38.1733 41.2846 38.1231 41.413 38.0466 41.5255C37.9702 41.6381 37.8693 41.732 37.7516 41.8003C37.6338 41.8685 37.5022 41.9094 37.3666 41.9198C37.1989 41.8802 37.0407 41.8075 36.9015 41.706C36.7622 41.6046 36.6445 41.4764 36.5553 41.3289C36.4401 41.1336 36.2198 41.1787 36.2048 41.3289C36.1897 41.4792 36.1697 41.7496 36.1647 41.9549C36.1827 42.2495 36.0973 42.5412 35.9232 42.7796C35.7491 43.018 35.4972 43.1881 35.211 43.2605C34.9248 43.333 34.6223 43.3032 34.3557 43.1764C34.0892 43.0495 33.8753 42.8336 33.751 42.5658C33.6891 42.0671 33.7725 41.561 33.9913 41.1086C34.1315 40.8131 33.8261 40.7931 33.6959 40.8482C33.4077 40.9064 33.1084 40.8677 32.8446 40.738C32.6292 40.5928 32.5741 39.9818 33.0449 39.5362C33.5156 39.0905 34.3869 39.1055 34.6724 39.0354C34.9578 38.9653 34.8477 38.7199 34.5973 38.7199C34.2851 38.7009 33.9761 38.6471 33.6758 38.5596C33.4054 38.4845 33.0549 38.0589 33.4605 37.3528C33.761 36.852 34.6123 36.7919 35.3084 36.877C35.484 36.947 35.6319 37.0725 35.7295 37.2343C35.8271 37.3961 35.8692 37.5855 35.8492 37.7734C35.7762 38.6802 35.6575 39.5828 35.4937 40.4776C35.9144 39.6555 36.2194 38.7792 36.4001 37.8736C36.5052 37.4229 36.7706 37.0974 37.3065 37.2677C37.8423 37.4379 38.8338 38.1039 38.5985 38.9603Z" fill="#2E8647"/>
<path d="M79.1709 42.2503V34.8889C79.1812 34.5608 79.1089 34.2353 78.9606 33.9424C78.7964 33.6644 78.5471 33.4467 78.2495 33.3215C77.8618 33.1598 77.4512 33.0601 77.0326 33.026C76.425 32.9688 75.815 32.942 75.2047 32.9459C74.5297 32.9381 73.8565 33.0172 73.2016 33.1813C72.6149 33.3399 72.0709 33.6273 71.6092 34.0226C71.1051 34.464 70.6947 35.0021 70.4023 35.605C70.0253 36.3786 69.7348 37.1914 69.536 38.0287C69.3557 38.7749 69.2005 39.4009 69.0753 39.9016L68.7598 41.1536C68.6797 41.4841 68.6095 41.7445 68.5595 41.9398C68.5294 42.055 68.4994 42.1551 68.4693 42.2503C68.2535 42.2386 68.0376 42.2698 67.8339 42.342C67.6302 42.4142 67.4428 42.526 67.2825 42.6709C67.134 42.8233 67.0187 43.0047 66.9437 43.2038C66.8687 43.4028 66.8357 43.6153 66.8468 43.8277V48.7854H69.7814V45.0045H77.8388V48.7854H80.7684V43.8277C80.7794 43.6153 80.7465 43.4028 80.6715 43.2038C80.5965 43.0047 80.4812 42.8233 80.3327 42.6709C80.0158 42.3834 79.5984 42.2323 79.1709 42.2503ZM76.1162 35.7102V42.2503H71.5791C71.7594 41.5492 71.9297 40.8631 72.0799 40.1921C72.2602 39.4259 72.4455 38.6497 72.6408 37.8535C72.771 37.2288 73.0589 36.6479 73.4771 36.1659C73.9486 35.7883 74.5483 35.6088 75.1497 35.6651C75.3249 35.6651 75.5253 35.6651 75.7506 35.6651C75.8731 35.6739 75.9952 35.6889 76.1162 35.7102ZM93.3078 33.4617L93.468 33.5218V43.5673C93.4904 44.5214 93.3394 45.4715 93.0223 46.3716C92.7608 47.1028 92.3272 47.7602 91.758 48.2885C91.1888 48.8167 90.5009 49.2001 89.7523 49.4063C88.9373 49.6342 88.0946 49.7471 87.2484 49.7419C86.6725 49.7449 86.097 49.7098 85.5257 49.6367C85.0611 49.581 84.5997 49.5008 84.1436 49.3963C83.738 49.3062 83.4024 49.216 83.142 49.1309C82.95 49.0742 82.7611 49.0074 82.5762 48.9306L82.3558 48.8354L82.441 48.6151C82.5611 48.3046 82.6713 47.9891 82.7765 47.6686L83.092 46.7072L83.1771 46.4518L83.4275 46.5569C83.5276 46.602 83.6879 46.6571 83.9032 46.7322C84.1616 46.814 84.424 46.8826 84.6894 46.9375C84.9949 47.0026 85.3454 47.0577 85.7361 47.1028C86.1484 47.1483 86.5631 47.17 86.978 47.1679C87.4845 47.1734 87.9895 47.1128 88.4803 46.9876C88.8826 46.8812 89.2513 46.6744 89.552 46.3867C89.866 46.0613 90.0992 45.6668 90.233 45.2349C90.3558 44.8449 90.4298 44.4412 90.4534 44.033C90.1434 44.2918 89.7933 44.4982 89.4167 44.644C88.7185 44.9262 87.9714 45.0674 87.2183 45.0596C86.5113 45.0645 85.808 44.9563 85.1351 44.7391C84.5228 44.5487 83.9566 44.2332 83.4725 43.8127C83.0026 43.3983 82.6299 42.8853 82.3809 42.3104C82.1115 41.6582 81.9786 40.9577 81.9903 40.2522V34.6385C81.9764 34.4334 82.0098 34.2278 82.0879 34.0377C82.1661 33.8475 82.2868 33.6779 82.441 33.5418C82.7733 33.2967 83.1804 33.1746 83.5927 33.1963C83.8703 33.1936 84.1469 33.2307 84.414 33.3064C84.6594 33.3766 84.8196 33.4316 84.9148 33.4617L85.07 33.5218V39.7063C85.033 40.4138 85.2636 41.1092 85.716 41.6544C85.9806 41.9075 86.2961 42.1014 86.6415 42.2232C86.9869 42.3449 87.3542 42.3917 87.7191 42.3604C88.0852 42.3859 88.4525 42.3344 88.7975 42.2094C89.1425 42.0843 89.4575 41.8884 89.7222 41.6343C90.2382 41.0327 90.4956 40.2515 90.4383 39.461V34.6385C90.4244 34.4334 90.4578 34.2278 90.536 34.0377C90.6141 33.8475 90.7349 33.6779 90.889 33.5418C91.2213 33.2967 91.6285 33.1746 92.0408 33.1963C92.3184 33.1936 92.595 33.2307 92.8621 33.3064C93.0524 33.3766 93.2126 33.4316 93.2927 33.4617H93.3078ZM106.378 35.2044C105.836 34.67 105.19 34.2524 104.48 33.9775C103.658 33.669 102.784 33.5178 101.906 33.5318C101.17 33.5371 100.442 33.6851 99.7628 33.9675C99.4841 34.0831 99.2175 34.2257 98.9665 34.3931C99.0266 34.303 99.0917 34.2128 99.1568 34.1277C99.4829 33.7087 99.8714 33.3423 100.309 33.041C100.808 32.6987 101.34 32.4053 101.896 32.1647C102.502 31.8993 103.183 31.6389 103.924 31.3835L104.71 31.1181C105.157 30.9886 105.572 30.7668 105.927 30.4671C106.077 30.3361 106.196 30.1742 106.276 29.9926C106.357 29.811 106.396 29.614 106.393 29.4154C106.399 29.119 106.325 28.8265 106.178 28.5691C106.057 28.3526 105.904 28.1566 105.722 27.9882L105.602 27.8831L105.457 27.9482C104.61 28.3187 103.809 28.6292 103.078 28.8746C102.347 29.12 101.616 29.3754 100.96 29.6558C100.296 29.9338 99.6575 30.2689 99.0517 30.6574C98.3943 31.082 97.8051 31.6037 97.304 32.2047C96.618 33.0198 96.0898 33.9555 95.7465 34.964C95.3599 36.1622 95.1738 37.4159 95.1957 38.6747C95.1808 39.6353 95.3264 40.5915 95.6264 41.5041C95.8904 42.2914 96.3188 43.0134 96.8833 43.6224C97.4435 44.2077 98.128 44.6595 98.8864 44.9444C99.7355 45.251 100.633 45.4019 101.535 45.3901C102.412 45.399 103.281 45.2427 104.099 44.9294C104.853 44.6439 105.544 44.2135 106.133 43.6625C106.707 43.1147 107.161 42.4529 107.465 41.7194C107.78 40.9454 107.938 40.1164 107.93 39.2807C107.936 38.5195 107.8 37.7639 107.53 37.0522C107.274 36.3618 106.876 35.7324 106.363 35.2044H106.378ZM100.208 42.5257C99.8276 42.3713 99.4831 42.1393 99.1968 41.8444C98.9106 41.5495 98.6889 41.1983 98.5459 40.813C98.3881 40.3869 98.31 39.9354 98.3155 39.481C98.3103 39.0234 98.3884 38.5686 98.5459 38.1389C98.6876 37.7462 98.9089 37.3869 99.1958 37.0836C99.4828 36.7803 99.8292 36.5395 100.213 36.3762C101.067 36.0456 102.014 36.0456 102.868 36.3762C103.244 36.5363 103.584 36.7695 103.869 37.0623C104.156 37.3584 104.378 37.7115 104.52 38.0989C104.681 38.5331 104.76 38.993 104.755 39.456C104.759 39.909 104.679 40.3588 104.52 40.783C104.379 41.1709 104.159 41.5255 103.874 41.8246C103.592 42.1209 103.251 42.3547 102.873 42.5107C102.016 42.8397 101.069 42.845 100.208 42.5257ZM120.209 34.6435C119.647 34.09 118.982 33.6512 118.251 33.3515C117.47 33.0314 116.632 32.8714 115.788 32.8808C114.892 32.8717 114.002 33.0209 113.158 33.3215C112.387 33.6054 111.687 34.053 111.105 34.6335C110.522 35.2374 110.074 35.9575 109.788 36.7468C109.463 37.6677 109.305 38.6396 109.323 39.6162V49.5065H112.392V43.9679C112.75 44.2914 113.151 44.5628 113.584 44.7742C114.329 45.124 115.145 45.2954 115.968 45.2749C116.785 45.2824 117.596 45.1257 118.352 44.8142C119.064 44.529 119.712 44.1052 120.259 43.5673C120.809 43.0041 121.239 42.3366 121.526 41.6043C122.147 40.0049 122.147 38.231 121.526 36.6316C121.23 35.8846 120.782 35.2075 120.209 34.6435ZM115.607 35.7001C116.056 35.6959 116.501 35.7845 116.914 35.9605C117.302 36.1243 117.651 36.3663 117.941 36.6713C118.23 36.9763 118.454 37.3379 118.597 37.7333C118.751 38.1639 118.829 38.618 118.827 39.0754C118.83 39.5442 118.752 40.0101 118.597 40.4525C118.456 40.865 118.231 41.2436 117.936 41.5642C117.655 41.8703 117.314 42.1157 116.934 42.2853C116.09 42.631 115.144 42.631 114.3 42.2853C113.921 42.1183 113.58 41.8745 113.299 41.5692C113.011 41.2507 112.786 40.8802 112.638 40.4775C112.472 40.0373 112.389 39.5706 112.392 39.1004C112.387 38.6284 112.471 38.1597 112.638 37.7183C112.782 37.3264 113.007 36.9691 113.298 36.669C113.588 36.369 113.938 36.1328 114.325 35.9756C114.731 35.8008 115.166 35.7073 115.607 35.7001ZM132.579 34.0075C131.984 33.597 131.316 33.3045 130.611 33.1462C129.797 32.963 128.965 32.874 128.132 32.8808C127.504 32.8703 126.877 32.9172 126.259 33.021C125.833 33.0881 125.421 33.2216 125.037 33.4166C124.75 33.5593 124.509 33.7797 124.341 34.0526C124.211 34.2781 124.142 34.5335 124.14 34.7937C124.134 35.1228 124.236 35.4447 124.431 35.7102C124.552 35.8802 124.69 36.0379 124.842 36.1809L125.002 36.3111L125.157 36.1809C125.453 35.9857 125.775 35.8324 126.114 35.7252C126.75 35.5187 127.418 35.4255 128.087 35.4498C128.539 35.4465 128.992 35.4817 129.439 35.5549C129.794 35.6101 130.135 35.7361 130.44 35.9255C130.71 36.1014 130.926 36.3472 131.066 36.6366C131.197 36.9254 131.272 37.2363 131.287 37.553L130.415 37.4829C129.914 37.4428 129.349 37.4228 128.778 37.4228C127.912 37.4101 127.047 37.4924 126.199 37.6682C125.563 37.7955 124.96 38.0511 124.426 38.4193C123.98 38.7436 123.633 39.1858 123.424 39.6963C123.219 40.2453 123.119 40.828 123.129 41.414C123.127 41.9073 123.212 42.3971 123.379 42.8612C123.569 43.371 123.901 43.8158 124.336 44.1432C124.888 44.5495 125.517 44.8408 126.184 44.9995C127.144 45.2322 128.13 45.3382 129.118 45.315C129.704 45.315 130.275 45.315 130.826 45.2649C131.377 45.2149 131.857 45.2048 132.293 45.1648C132.729 45.1247 133.114 45.0897 133.44 45.0496C133.765 45.0095 134.016 44.9795 134.171 44.9494L134.371 44.9044V37.9286C134.393 37.124 134.234 36.3248 133.906 35.59C133.606 34.9577 133.149 34.4129 132.579 34.0075ZM131.307 39.9167V42.7861L130.711 42.8712C130.175 42.9286 129.637 42.9537 129.098 42.9464C128.595 42.9553 128.091 42.915 127.596 42.8262C127.281 42.776 126.979 42.6673 126.704 42.5057C126.523 42.3949 126.378 42.2328 126.289 42.0399C126.205 41.8351 126.162 41.6155 126.164 41.394C126.143 41.1536 126.186 40.912 126.289 40.6938C126.392 40.4755 126.551 40.2886 126.75 40.152C127.395 39.8221 128.12 39.6766 128.843 39.7314C129.452 39.7203 130.061 39.7504 130.666 39.8215L131.307 39.9167ZM146.375 38.7699C146.635 38.589 146.872 38.3771 147.081 38.1389C147.498 37.6393 147.713 37.0013 147.682 36.3512C147.682 35.8892 147.587 35.4322 147.401 35.0091C147.177 34.5399 146.82 34.1465 146.375 33.8773C145.791 33.5257 145.151 33.2784 144.482 33.1462C143.511 32.9519 142.522 32.8629 141.532 32.8808C140.466 32.8808 139.639 32.8808 139.079 32.9509C138.665 32.9743 138.253 33.0261 137.847 33.1061C137.531 33.1541 137.235 33.2875 136.99 33.4917C136.853 33.6181 136.746 33.7738 136.678 33.9472C136.609 34.1206 136.581 34.3073 136.595 34.4933V44.9595L136.8 44.9995C136.83 44.9995 136.93 44.9995 137.381 45.0596L138.463 45.1347C138.893 45.1648 139.384 45.1948 139.935 45.2149C140.486 45.2349 141.057 45.2499 141.643 45.2499C142.716 45.2707 143.788 45.1784 144.843 44.9745C145.55 44.839 146.228 44.5796 146.846 44.2083C147.307 43.922 147.676 43.508 147.907 43.0165C148.113 42.5598 148.223 42.0653 148.228 41.5642C148.265 40.8375 148.029 40.1231 147.567 39.5611C147.236 39.2083 146.828 38.9374 146.375 38.7699ZM141.868 42.8111C141.302 42.8111 140.801 42.8111 140.366 42.7661L139.619 42.706V40.0919H142.859C143.444 40.0299 144.033 40.1694 144.527 40.4875C144.668 40.6119 144.78 40.7665 144.854 40.9399C144.928 41.1132 144.961 41.3009 144.953 41.4891C144.962 41.7018 144.906 41.9122 144.791 42.0915C144.676 42.2708 144.509 42.4102 144.312 42.4906C143.522 42.7712 142.683 42.8804 141.848 42.8111H141.868ZM139.639 37.7433V35.3847L140.24 35.3396C140.641 35.3095 141.142 35.2945 141.743 35.2945C142.516 35.2417 143.29 35.3614 144.011 35.6451C144.174 35.7129 144.313 35.8258 144.414 35.9704C144.514 36.1151 144.571 36.2854 144.577 36.4613C144.584 36.6342 144.553 36.8065 144.485 36.9658C144.418 37.1251 144.316 37.2675 144.187 37.3827C143.741 37.6693 143.211 37.7964 142.684 37.7433H139.639ZM158.884 34.0075C158.288 33.5969 157.618 33.3045 156.911 33.1462C156.098 32.9627 155.266 32.8737 154.432 32.8808C153.807 32.87 153.181 32.917 152.564 33.021C152.139 33.0881 151.727 33.2216 151.343 33.4166C151.047 33.5548 150.799 33.7757 150.626 34.0526C150.495 34.2776 150.426 34.5333 150.426 34.7937C150.419 35.1222 150.519 35.4441 150.712 35.7102C150.833 35.8802 150.97 36.0379 151.122 36.1809L151.282 36.3111L151.443 36.1809C151.739 35.9857 152.061 35.8324 152.399 35.7252C153.034 35.519 153.7 35.4258 154.367 35.4498C154.827 35.4454 155.286 35.4806 155.739 35.5549C156.094 35.611 156.435 35.737 156.741 35.9255C157.01 36.1001 157.225 36.3464 157.362 36.6366C157.497 36.9243 157.573 37.2357 157.587 37.553L156.716 37.4829C156.215 37.4428 155.644 37.4228 155.073 37.4228C154.209 37.4101 153.346 37.4924 152.499 37.6682C151.864 37.7955 151.26 38.0511 150.727 38.4193C150.279 38.7422 149.932 39.1848 149.725 39.6963C149.516 40.2443 149.414 40.8275 149.425 41.414C149.426 41.9071 149.51 42.3964 149.675 42.8612C149.867 43.3713 150.201 43.816 150.636 44.1432C151.187 44.5497 151.814 44.8409 152.479 44.9995C153.441 45.2321 154.429 45.3381 155.419 45.315C156.005 45.315 156.576 45.315 157.122 45.2649C157.667 45.2149 158.153 45.2048 158.594 45.1648C159.034 45.1247 159.41 45.0897 159.736 45.0496C160.061 45.0095 160.311 44.9795 160.467 44.9494L160.667 44.9044V37.9286C160.688 37.1246 160.53 36.326 160.206 35.59C159.902 34.9559 159.44 34.4109 158.864 34.0075H158.884ZM157.607 39.9167V42.7861L157.016 42.8712C156.481 42.9286 155.942 42.9537 155.404 42.9464C154.9 42.9555 154.397 42.9153 153.902 42.8262C153.587 42.777 153.284 42.6682 153.01 42.5057C152.829 42.3949 152.684 42.2328 152.595 42.0399C152.508 41.8358 152.465 41.6157 152.469 41.394C152.448 41.1536 152.491 40.912 152.594 40.6938C152.697 40.4755 152.856 40.2886 153.055 40.152C153.699 39.822 154.422 39.6765 155.143 39.7314C155.752 39.7201 156.361 39.7502 156.966 39.8215L157.607 39.9167ZM82.2857 21.7886C81.9353 22.4013 81.4529 22.9281 80.8735 23.331C80.2229 23.7841 79.4998 24.1228 78.7352 24.3326C77.8587 24.5695 76.954 24.6857 76.0461 24.6781C74.5877 24.6881 73.1365 24.4719 71.7444 24.0371C71.2892 23.9015 70.8441 23.7342 70.4123 23.5363C70.0618 23.3611 69.7964 23.2209 69.6111 23.1107L69.3958 22.9855L70.8029 20.5317L71.0283 20.6819C71.2455 20.8212 71.4732 20.9434 71.7093 21.0475C72.048 21.1965 72.396 21.3236 72.751 21.4281C73.1969 21.5643 73.6521 21.6681 74.1131 21.7386C74.6633 21.8221 75.2192 21.8623 75.7756 21.8588C76.7635 21.9045 77.7457 21.6849 78.62 21.2228C78.9115 21.0735 79.1555 20.8458 79.3245 20.5654C79.4935 20.2849 79.5808 19.9628 79.5765 19.6353C79.5936 19.3201 79.5183 19.0068 79.36 18.7337C79.2017 18.4607 78.9672 18.2397 78.6851 18.0979C77.8469 17.7055 76.9256 17.5233 76.001 17.5671H73.9979C72.9963 17.5671 72.4204 17.0664 72.4204 16.1249C72.4154 15.8304 72.4681 15.5378 72.5757 15.2636C72.6361 15.0912 72.7098 14.9238 72.796 14.7628L72.8661 14.6426H76.1162C76.9558 14.6966 77.7925 14.4996 78.5199 14.0767C78.7615 13.9245 78.9593 13.7118 79.0937 13.4598C79.228 13.2077 79.2943 12.925 79.2861 12.6395C79.2847 12.3487 79.2037 12.0637 79.0518 11.8157C78.9 11.5676 78.6831 11.3659 78.4247 11.2323C77.6183 10.8067 76.711 10.6093 75.8007 10.6615C75.2124 10.6483 74.6254 10.7208 74.058 10.8768C73.6373 10.9907 73.2332 11.159 72.8561 11.3776C72.5918 11.533 72.3549 11.731 72.155 11.9635C72.0347 12.1072 71.9274 12.2614 71.8345 12.4242L71.7544 12.5894L71.5691 12.5644C71.1532 12.4965 70.7656 12.3105 70.4524 12.0286C70.2947 11.8949 70.1682 11.7284 70.0817 11.5407C69.9952 11.3529 69.9508 11.1486 69.9516 10.9419C69.9527 10.7023 69.9968 10.4648 70.0818 10.2408C70.1863 9.9871 70.3433 9.75841 70.5425 9.56977C70.7104 9.40911 70.8876 9.25861 71.0734 9.11907C71.3942 8.89629 71.7427 8.71617 72.11 8.58324C72.6165 8.38236 73.1415 8.23141 73.6774 8.13254C74.4056 7.99833 75.1454 7.93627 75.8858 7.94726C76.8733 7.93069 77.8582 8.05548 78.8103 8.31783C79.551 8.52529 80.2482 8.86456 80.8685 9.31938C81.3806 9.69023 81.799 10.1755 82.0904 10.7366C82.3519 11.2447 82.4892 11.8076 82.491 12.3791C82.4929 12.8381 82.4149 13.2939 82.2607 13.7262C82.1167 14.1265 81.9105 14.5017 81.6497 14.8379C81.3952 15.1644 81.097 15.4542 80.7634 15.6992C80.6034 15.8196 80.4361 15.93 80.2626 16.0297C80.5694 16.1522 80.8616 16.3084 81.1339 16.4955C81.509 16.75 81.8362 17.0687 82.1004 17.4369C82.3383 17.7781 82.5162 18.1575 82.6262 18.5587C82.7378 18.953 82.7951 19.3607 82.7965 19.7705C82.807 20.4765 82.6308 21.1727 82.2857 21.7886ZM95.381 23.291L94.2142 21.0675L93.9938 21.1777L93.5832 21.378C93.371 21.4764 93.1537 21.5634 92.9322 21.6384C92.6537 21.7297 92.3693 21.8016 92.0809 21.8537C91.7384 21.912 91.3916 21.9405 91.0443 21.9389C90.1609 21.9937 89.2833 21.7638 88.5404 21.2829C88.0709 20.9415 87.7345 20.4476 87.5889 19.8857H88.1147C88.3751 19.8857 88.6606 19.8857 88.9661 19.8857C90.0536 19.9052 91.1405 19.818 92.2111 19.6253C92.9458 19.4966 93.6525 19.2407 94.2993 18.8691C94.7889 18.587 95.183 18.165 95.4311 17.6573C95.6453 17.1751 95.7529 16.6524 95.7465 16.1249C95.7499 15.5842 95.6309 15.0497 95.3985 14.5615C95.1661 14.0732 94.8263 13.6439 94.4045 13.3055C93.9182 12.9494 93.3721 12.6831 92.792 12.5193C92.0962 12.2969 91.369 12.1886 90.6386 12.1988C89.7729 12.1911 88.9135 12.3457 88.1047 12.6545C87.3593 12.9508 86.6789 13.3896 86.1016 13.9465C85.5253 14.5172 85.0705 15.1985 84.7645 15.9496C84.4296 16.7627 84.2594 17.6342 84.2638 18.5136C84.2513 19.4083 84.4217 20.2961 84.7645 21.1226C85.0801 21.8496 85.546 22.5016 86.1317 23.0356C86.7101 23.5666 87.3921 23.9724 88.1348 24.2274C88.9182 24.4944 89.7409 24.6282 90.5685 24.623C91.1375 24.6276 91.7057 24.5807 92.2662 24.4828C92.7265 24.405 93.1815 24.2979 93.6283 24.1623C93.9728 24.0572 94.3079 23.9232 94.6298 23.7617C94.8902 23.6215 95.0805 23.5113 95.2057 23.4362L95.381 23.291ZM90.5936 14.6476C91.1424 14.6273 91.6859 14.7627 92.161 15.0382C92.3453 15.1472 92.4961 15.3049 92.5968 15.4939C92.6975 15.683 92.7442 15.8961 92.7319 16.1099C92.7308 16.301 92.6917 16.4899 92.6167 16.6657C92.5135 16.8576 92.3522 17.0118 92.156 17.1064C91.8062 17.2916 91.4293 17.4201 91.0393 17.487C90.3946 17.5997 89.7406 17.65 89.0862 17.6372H88.1348H87.4086C87.4438 17.3103 87.5195 16.989 87.634 16.6808C87.7758 16.3001 87.9863 15.9488 88.255 15.6442C88.5266 15.3396 88.8593 15.0956 89.2315 14.928C89.6605 14.7405 90.1255 14.6499 90.5936 14.6626V14.6476ZM107.905 13.7112C107.944 14.0805 107.962 14.4516 107.96 14.8229V24.2875H104.891V15.0983L104.52 15.0532C104.3 15.0532 104.099 15.0232 103.929 15.0232C103.334 14.9808 102.744 15.1591 102.272 15.524C101.839 15.9826 101.544 16.5534 101.42 17.1715C101.215 18.0379 101.035 18.809 100.884 19.4801C100.734 20.1511 100.584 20.7671 100.429 21.3179C100.274 21.8688 100.118 22.3846 99.928 22.8202C99.7538 23.2911 99.5376 23.7453 99.282 24.1773L99.2069 24.3025H95.8818L96.072 23.937C96.3534 23.4069 96.6058 22.8619 96.8282 22.3044C97.032 21.7915 97.2092 21.2683 97.359 20.737C97.4792 20.3364 97.5844 19.9608 97.6745 19.6203C97.7647 19.2798 97.8498 18.9392 97.9299 18.6187C98.01 18.2983 98.0952 17.9677 98.1703 17.6523C98.2454 17.3368 98.3255 16.9962 98.4157 16.6507C98.5825 15.8999 98.87 15.1811 99.267 14.5224C99.5882 13.9888 100.012 13.5241 100.514 13.1553C100.995 12.8129 101.54 12.5694 102.116 12.4392C102.733 12.3044 103.363 12.2389 103.994 12.2439C104.719 12.2304 105.444 12.2723 106.163 12.3691C106.604 12.4182 107.027 12.5747 107.395 12.8248C107.535 12.9335 107.653 13.0692 107.741 13.224C107.829 13.3788 107.884 13.5495 107.905 13.7262V13.7112ZM111.561 23.0356C112.14 23.5656 112.822 23.9712 113.564 24.2274C114.348 24.494 115.17 24.6277 115.998 24.623C116.568 24.6274 117.138 24.5805 117.701 24.4828C118.159 24.4044 118.612 24.2974 119.058 24.1623C119.402 24.0572 119.737 23.9232 120.059 23.7617C120.32 23.6215 120.515 23.5113 120.635 23.4362L120.835 23.311L119.684 21.0826L119.463 21.1927L119.053 21.393C118.84 21.4915 118.623 21.5784 118.402 21.6534C118.123 21.7447 117.839 21.8166 117.55 21.8688C117.208 21.9271 116.861 21.9555 116.514 21.9539C115.63 22.008 114.753 21.7781 114.01 21.2979C113.543 20.954 113.207 20.4611 113.058 19.9007H113.584C113.85 19.9007 114.13 19.9007 114.435 19.9007C115.525 19.92 116.613 19.8328 117.685 19.6403C118.419 19.5116 119.124 19.2557 119.769 18.8842C120.258 18.602 120.652 18.18 120.9 17.6723C121.239 16.9364 121.323 16.1082 121.137 15.3196C120.951 14.5311 120.506 13.8274 119.874 13.3206C119.398 12.9421 118.856 12.6536 118.276 12.4692C117.581 12.2468 116.853 12.1386 116.123 12.1488C115.257 12.1415 114.398 12.2961 113.589 12.6045C112.843 12.899 112.162 13.338 111.586 13.8965C111.007 14.4655 110.55 15.1472 110.244 15.8995C109.909 16.7126 109.739 17.5841 109.743 18.4635C109.731 19.3582 109.901 20.246 110.244 21.0725C110.539 21.813 110.988 22.4821 111.561 23.0356ZM116.043 14.6676C116.592 14.6473 117.135 14.7827 117.61 15.0582C117.794 15.1669 117.944 15.3237 118.045 15.5118C118.146 15.6999 118.193 15.9119 118.181 16.1249C118.18 16.316 118.141 16.505 118.066 16.6808C117.963 16.8712 117.804 17.0252 117.61 17.1214C117.258 17.3058 116.88 17.4342 116.489 17.502C115.844 17.6147 115.19 17.665 114.536 17.6523H113.589H112.863C112.898 17.3247 112.975 17.0031 113.093 16.6958C113.232 16.3145 113.441 15.9628 113.709 15.6592C113.989 15.3529 114.331 15.1089 114.711 14.9431C115.13 14.7547 115.584 14.659 116.043 14.6626V14.6676ZM134.291 12.7647L134.446 12.8298V24.3025H131.377V19.6854H125.778V24.3025H122.688V13.9415C122.674 13.7363 122.707 13.5305 122.785 13.3403C122.863 13.15 122.984 12.9804 123.139 12.8448C123.471 12.5983 123.878 12.4745 124.291 12.4943C124.568 12.4941 124.844 12.5311 125.112 12.6045L125.613 12.7597L125.773 12.8248V16.8861H131.372V13.9415C131.358 13.736 131.392 13.53 131.471 13.3398C131.55 13.1496 131.672 12.9802 131.827 12.8448C132.158 12.5991 132.563 12.4752 132.974 12.4943C133.253 12.4938 133.531 12.5308 133.8 12.6045L134.291 12.7647ZM137.296 23.4512C137.849 23.8566 138.477 24.1478 139.144 24.3075C140.106 24.5401 141.094 24.6462 142.083 24.623C142.669 24.623 143.24 24.623 143.786 24.578C144.332 24.5329 144.817 24.5129 145.258 24.4728C145.699 24.4327 146.074 24.3977 146.4 24.3626C146.725 24.3276 146.976 24.2875 147.131 24.2575L147.331 24.2174V17.2066C147.35 16.4027 147.193 15.6045 146.871 14.868C146.576 14.2367 146.124 13.6918 145.559 13.2855C144.964 12.874 144.296 12.5816 143.591 12.4242C142.777 12.2407 141.945 12.1516 141.112 12.1588C140.486 12.1505 139.861 12.1975 139.244 12.299C138.817 12.3684 138.403 12.5035 138.017 12.6996C137.731 12.8419 137.491 13.0625 137.326 13.3356C137.181 13.5914 137.112 13.8832 137.127 14.1767C137.142 14.4703 137.241 14.7535 137.411 14.9931C137.532 15.1632 137.67 15.3208 137.822 15.4639L137.982 15.5941L138.142 15.4639C138.436 15.2669 138.756 15.1134 139.094 15.0082C139.731 14.8045 140.398 14.7113 141.067 14.7327C141.52 14.7281 141.972 14.765 142.419 14.8429C142.774 14.8971 143.114 15.0214 143.42 15.2085C143.688 15.3864 143.903 15.6339 144.041 15.9246C144.177 16.2103 144.253 16.5202 144.267 16.836L143.395 16.7659C142.895 16.7308 142.324 16.7108 141.753 16.7108C140.887 16.697 140.022 16.7776 139.174 16.9512C138.54 17.0797 137.939 17.3352 137.406 17.7023C136.958 18.0271 136.611 18.4714 136.404 18.9843C136.194 19.5303 136.092 20.112 136.104 20.697C136.104 21.1901 136.189 21.6797 136.354 22.1442C136.543 22.6616 136.877 23.1137 137.316 23.4462L137.296 23.4512ZM139.159 20.702C139.138 20.4609 139.181 20.2186 139.284 19.9996C139.387 19.7807 139.546 19.5928 139.745 19.455C140.39 19.129 141.112 18.9853 141.833 19.0394C142.442 19.0271 143.051 19.0555 143.656 19.1245L144.287 19.2197V22.0841C144.161 22.0841 143.971 22.1342 143.696 22.1692C143.16 22.2284 142.622 22.2551 142.083 22.2494C141.58 22.258 141.077 22.2177 140.581 22.1292C140.268 22.0779 139.967 21.9674 139.695 21.8037C139.51 21.6967 139.364 21.5335 139.279 21.338C139.201 21.1337 139.167 20.9153 139.179 20.697L139.159 20.702ZM160.357 12.8048C160.099 12.6017 159.787 12.4813 159.46 12.4592C159.24 12.4242 158.834 12.3891 158.248 12.3441C157.662 12.299 156.901 12.2739 156 12.2739C153.691 12.2739 151.994 12.6595 150.912 13.4157C150.392 13.7613 149.969 14.2328 149.681 14.7862C149.393 15.3396 149.25 15.9569 149.264 16.5806C149.219 17.4188 149.481 18.2448 150.001 18.9042C150.42 19.3751 150.929 19.7581 151.498 20.0309C151.042 20.5918 150.591 21.1977 150.151 21.8337C149.65 22.5648 149.174 23.2609 148.759 23.9019L148.508 24.2875H151.954L152.024 24.1623C152.129 23.987 152.274 23.7517 152.469 23.4662C152.665 23.1808 152.875 22.8603 153.105 22.5248C153.336 22.1893 153.576 21.8588 153.821 21.5232C154.067 21.1877 154.232 20.9874 154.417 20.7571C154.633 20.7571 154.843 20.7971 155.053 20.8021C155.784 20.8272 156.425 20.8021 157.091 20.8021C157.352 20.8021 157.562 20.7771 157.727 20.7621V24.3075H160.777V13.7913C160.794 13.606 160.767 13.4194 160.697 13.2469C160.627 13.0744 160.518 12.9211 160.377 12.7998L160.357 12.8048ZM152.484 15.8845C152.605 15.658 152.787 15.4704 153.01 15.3437C153.344 15.1564 153.706 15.0229 154.082 14.9481C154.654 14.8373 155.237 14.7869 155.82 14.7978C156.405 14.7978 156.891 14.7978 157.262 14.8429L157.707 14.883V18.2081L157.207 18.2632C156.886 18.2932 156.41 18.3083 155.789 18.3083C155.204 18.3181 154.619 18.2728 154.042 18.1731C153.677 18.1181 153.324 17.9994 153 17.8225C152.787 17.7099 152.612 17.5354 152.499 17.3217C152.396 17.0973 152.343 16.8528 152.344 16.6056C152.336 16.3578 152.384 16.1113 152.484 15.8845Z" fill="#2E8647"/>
</g>
<defs>
<clipPath id="clip0_1201_2502">
<rect width="160.779" height="55" fill="white"/>
</clipPath>
</defs>
</svg>
